<svg xmlns="http://www.w3.org/2000/svg" xmlns:xlink="http://www.w3.org/1999/xlink" viewBox="0 0 779.4 287.66"><defs><style>.cls-1,.cls-10,.cls-12,.cls-14,.cls-15,.cls-3,.cls-4,.cls-5,.cls-9{fill:none;}.cls-2{clip-path:url(#clip-path);}.cls-3{stroke:#475a6c;}.cls-10,.cls-11,.cls-12,.cls-15,.cls-3,.cls-6{stroke-miterlimit:10;}.cls-10,.cls-11,.cls-12,.cls-16,.cls-3,.cls-4,.cls-5,.cls-9{stroke-width:2px;}.cls-4,.cls-5{stroke:#f2f2f2;opacity:0.2;}.cls-5{stroke-linecap:square;}.cls-13,.cls-6{fill:#00aadb;}.cls-12,.cls-14,.cls-15,.cls-16,.cls-6,.cls-9{stroke:#fff;}.cls-14,.cls-6{stroke-width:3px;}.cls-7{fill:url(#Unnamed_Pattern);}.cls-8{fill:#b1dff3;}.cls-14,.cls-16,.cls-9{stroke-linecap:round;stroke-linejoin:round;}.cls-10{stroke:url(#linear-gradient);}.cls-11{fill:url(#Wall);stroke:url(#linear-gradient-2);}.cls-15{stroke-width:5px;}.cls-16,.cls-18{fill:#fff;}.cls-17{fill:#263b4e;}</style><clipPath id="clip-path"><rect class="cls-1" width="240.95" height="141.73"/></clipPath><pattern id="Unnamed_Pattern" data-name="Unnamed Pattern" width="240.95" height="141.73" patternTransform="matrix(0.71, -0.71, -0.71, -0.71, 11700.8, 11594.08)" patternUnits="userSpaceOnUse" viewBox="0 0 240.94 141.73"><rect class="cls-1" width="240.95" height="141.73"/><g class="cls-2"><line class="cls-3" y1="14.17" x2="240.94" y2="14.17"/><line class="cls-3" y1="42.52" x2="240.94" y2="42.52"/><line class="cls-3" y1="70.87" x2="240.94" y2="70.87"/><line class="cls-3" y1="99.21" x2="240.94" y2="99.21"/><line class="cls-3" y1="127.56" x2="240.94" y2="127.56"/></g></pattern><linearGradient id="linear-gradient" x1="333.86" y1="198.48" x2="333.86" gradientUnits="userSpaceOnUse"><stop offset="0" stop-color="#fff"/><stop offset="0.08" stop-color="#f6f6f6" stop-opacity="0.96"/><stop offset="0.22" stop-color="#dedede" stop-opacity="0.87"/><stop offset="0.4" stop-color="#b6b6b6" stop-opacity="0.71"/><stop offset="0.6" stop-color="#7f7f7f" stop-opacity="0.5"/><stop offset="0.83" stop-color="#393939" stop-opacity="0.22"/><stop offset="1" stop-opacity="0"/></linearGradient><pattern id="Wall" data-name="Wall" width="135.1" height="101.24" patternUnits="userSpaceOnUse" viewBox="0 0 135.1 101.24"><rect class="cls-1" width="135.1" height="101.24"/><line class="cls-4" x1="125.67" y1="17.66" x2="125.67" y2="34.26"/><line class="cls-4" x1="92.41" y1="17.66" x2="92.41" y2="34.26"/><line class="cls-4" x1="59.15" y1="17.66" x2="59.15" y2="34.26"/><line class="cls-4" x1="25.89" y1="17.66" x2="25.89" y2="34.26"/><line class="cls-4" x1="125.67" y1="50.86" x2="125.67" y2="67.46"/><line class="cls-4" x1="92.41" y1="50.86" x2="92.41" y2="67.46"/><line class="cls-4" x1="59.15" y1="50.86" x2="59.15" y2="67.46"/><line class="cls-4" x1="25.89" y1="50.86" x2="25.89" y2="67.46"/><line class="cls-4" x1="125.67" y1="84.2" x2="125.67" y2="101.24"/><line class="cls-4" x1="92.41" y1="84.2" x2="92.41" y2="101.24"/><line class="cls-4" x1="59.15" y1="84.2" x2="59.15" y2="101.24"/><line class="cls-4" x1="25.89" y1="84.2" x2="25.89" y2="101.24"/><line class="cls-4" x1="109.01" y1="67.46" x2="109.01" y2="84.06"/><line class="cls-4" x1="75.75" y1="67.46" x2="75.75" y2="84.06"/><line class="cls-4" x1="42.49" y1="67.46" x2="42.49" y2="84.06"/><line class="cls-4" x1="9.23" y1="67.46" x2="9.23" y2="84.06"/><line class="cls-4" x1="109.01" y1="34.26" x2="109.01" y2="50.86"/><line class="cls-4" x1="75.75" y1="34.26" x2="75.75" y2="50.86"/><line class="cls-4" x1="42.49" y1="34.26" x2="42.49" y2="50.86"/><line class="cls-4" x1="9.23" y1="34.26" x2="9.23" y2="50.86"/><line class="cls-4" x1="109.01" y1="1.05" x2="109.01" y2="17.66"/><line class="cls-4" x1="75.75" y1="1.05" x2="75.75" y2="17.66"/><line class="cls-4" x1="42.49" y1="1.05" x2="42.49" y2="17.66"/><line class="cls-4" x1="9.23" y1="1.05" x2="9.23" y2="17.66"/><line class="cls-5" x1="1" y1="1" x2="134.1" y2="1"/><line class="cls-5" x1="1" y1="17.63" x2="134.1" y2="17.63"/><line class="cls-5" x1="1" y1="34.26" x2="134.1" y2="34.26"/><line class="cls-5" x1="1" y1="50.89" x2="134.1" y2="50.89"/><line class="cls-5" x1="1" y1="67.52" x2="134.1" y2="67.52"/><line class="cls-5" x1="1" y1="84.16" x2="134.1" y2="84.16"/></pattern><linearGradient id="linear-gradient-2" x1="333.7" y1="188.8" x2="333.7" y2="36.16" gradientUnits="userSpaceOnUse"><stop offset="0" stop-color="#fff"/><stop offset="0.23" stop-color="#fcfcfc" stop-opacity="0.99"/><stop offset="0.36" stop-color="#f4f4f4" stop-opacity="0.96"/><stop offset="0.47" stop-color="#e6e6e6" stop-opacity="0.9"/><stop offset="0.57" stop-color="#d1d1d1" stop-opacity="0.82"/><stop offset="0.67" stop-color="#b7b7b7" stop-opacity="0.72"/><stop offset="0.75" stop-color="#979797" stop-opacity="0.59"/><stop offset="0.83" stop-color="#707070" stop-opacity="0.44"/><stop offset="0.91" stop-color="#444" stop-opacity="0.26"/><stop offset="0.98" stop-color="#121212" stop-opacity="0.07"/><stop offset="1" stop-opacity="0"/></linearGradient></defs><g id="Layer_2" data-name="Layer 2"><g id="Layer_3" data-name="Layer 3"><rect class="cls-6" x="224.22" y="130.72" width="7.15" height="13.78"/><polygon class="cls-7" points="163.4 204.26 163.4 277.98 52.4 277.98 52.4 204.26 1 204.26 1 287.66 779.4 287.66 689.4 204.26 163.4 204.26"/><path class="cls-8" d="M149,212.94c-4.17,0-8.09-2.19-11.69-2.19a10.66,10.66,0,0,0-6.23,2.19,12.41,12.41,0,0,1-6.73,2.12c-3.85,0-7.6-4.31-10.93-4.31s-4.34,1.4-5.75,2.19c-1.8,1-3.59,1.74-7.42,0a22,22,0,0,0-11.69-2.19,15.57,15.57,0,0,0-6.23,2.19,12.41,12.41,0,0,1-6.73,2.12c-3.86,0-7.61-4.31-10.93-4.31a9.46,9.46,0,0,0-5.76,2.19v58.15H156.4V209.8s-3.25,3.14-7.42,3.14"/><polyline class="cls-9" points="1 197.37 58.4 197.37 58.9 197.37 58.9 271.09 155.4 271.09 155.91 271.09 155.91 197.37 692.4 197.37"/><rect class="cls-10" x="164.83" y="1" width="338.07" height="196.48"/><rect class="cls-11" x="174.51" y="37.16" width="318.39" height="150.63"/><rect class="cls-12" x="323.02" y="37.4" width="124.66" height="7.08"/><rect class="cls-12" x="308.85" y="44.48" width="153.94" height="7.08" rx="1"/><path class="cls-13" d="M290.45,181.54l3.48-2.23V149l-3.48-2.24H279.77v-3.92h.62l0-7.16-2.44-.29H268l-19.84,2.53,0,4.92h.62v6.66H238.11v-8h-5.77v2.11h-4.75l-7.83,1.88h-4.43v-2.86h-7v2.86H189.13l0,.25h-2.86v7h2.86l0,23.79.25,0v8.65l38.17,0,1.81.39h3v1.24h3.23v.62H247v-2h-2.62l-5-6.71h34.7v3.47l-1.49,3.23h-1.9v2h8.69v-2h-1.74l-1.49-3.23v-3.47h2.36v2.73Zm-41.72-12.19-10.62,3.25V166h10.62Zm0-7H238.11v-6.59L248.73,159Z"/><line class="cls-9" x1="227.59" y1="185.27" x2="229.36" y2="185.64"/><line class="cls-9" x1="229.36" y1="185.64" x2="232.34" y2="185.64"/><line class="cls-9" x1="278.53" y1="181.54" x2="279.27" y2="181.54"/><line class="cls-9" x1="279.27" y1="146.77" x2="278.53" y2="146.77"/><line class="cls-9" x1="246.99" y1="187.5" x2="246.99" y2="185.52"/><line class="cls-9" x1="248.73" y1="178.81" x2="278.53" y2="178.81"/><line class="cls-9" x1="278.53" y1="152.38" x2="248.73" y2="152.38"/><path class="cls-9" d="M279.4,186.26a.75.75,0,0,0-.75-.75"/><path class="cls-9" d="M271.45,185.51a.75.75,0,0,0-.74.75"/><line class="cls-9" x1="279.4" y1="187.5" x2="279.4" y2="186.26"/><line class="cls-9" x1="270.71" y1="186.26" x2="270.71" y2="187.5"/><line class="cls-9" x1="219.76" y1="145.53" x2="193.16" y2="145.53"/><line class="cls-9" x1="189.38" y1="185.27" x2="227.59" y2="185.27"/><line class="cls-9" x1="276.17" y1="182.28" x2="276.17" y2="178.81"/><line class="cls-9" x1="248.73" y1="162.3" x2="238.11" y2="162.3"/><line class="cls-9" x1="238.11" y1="166.02" x2="248.73" y2="166.02"/><line class="cls-9" x1="290.45" y1="181.54" x2="293.93" y2="179.31"/><line class="cls-9" x1="293.93" y1="149.01" x2="290.45" y2="146.77"/><line class="cls-9" x1="279.27" y1="181.54" x2="290.45" y2="181.54"/><line class="cls-9" x1="290.45" y1="146.77" x2="279.27" y2="146.77"/><line class="cls-9" x1="237.06" y1="177.07" x2="235.57" y2="177.07"/><line class="cls-9" x1="232.34" y1="148.51" x2="232.34" y2="179.8"/><line class="cls-9" x1="244.37" y1="185.52" x2="238.11" y2="177.07"/><line class="cls-9" x1="237.76" y1="187.5" x2="235.57" y2="187.5"/><line class="cls-9" x1="235.57" y1="177.07" x2="235.57" y2="187.5"/><path class="cls-9" d="M211.35,181.42l1.88.41,1.88.42,1.88.43,1.87.43,1.86.44,1.84.45,1.84.46.91.22.88.23.4.1.38.1.21,0,.19.05.18,0,0,0"/><path class="cls-9" d="M189.38,176.62l11,2.41,11,2.39"/><path class="cls-9" d="M189.13,176.6l.25,0"/><line class="cls-9" x1="189.13" y1="174.81" x2="189.13" y2="176.6"/><path class="cls-9" d="M232.34,143.67l-4.75,0"/><line class="cls-9" x1="232.34" y1="185.07" x2="232.34" y2="179.8"/><line class="cls-9" x1="232.34" y1="143.24" x2="232.34" y2="148.51"/><line class="cls-9" x1="278.53" y1="146.77" x2="278.53" y2="181.54"/><polyline class="cls-9" points="246.99 185.52 246.99 185.52 246.9 185.52 246.74 185.52 246.53 185.52 246.32 185.52 244.88 185.52 244.37 185.52"/><polyline class="cls-9" points="246.99 187.5 246.99 187.5 246.9 187.5 246.74 187.5 246.53 187.5 246.32 187.5 244.88 187.5 244.5 187.5 244.12 187.5 243.72 187.5 243.44 187.5"/><line class="cls-9" x1="237.76" y1="187.5" x2="243.44" y2="187.5"/><line class="cls-9" x1="232.34" y1="141.55" x2="232.34" y2="143.25"/><line class="cls-9" x1="189.13" y1="156.35" x2="189.13" y2="157.76"/><line class="cls-9" x1="189.13" y1="174.81" x2="189.13" y2="157.76"/><line class="cls-9" x1="278.65" y1="185.51" x2="271.45" y2="185.51"/><line class="cls-9" x1="279.4" y1="187.5" x2="270.71" y2="187.5"/><line class="cls-9" x1="189.13" y1="145.78" x2="189.13" y2="156.35"/><line class="cls-9" x1="189.13" y1="145.53" x2="193.16" y2="145.53"/><line class="cls-9" x1="189.38" y1="185.27" x2="189.38" y2="181.42"/><line class="cls-9" x1="189.38" y1="181.42" x2="189.38" y2="176.62"/><line class="cls-9" x1="189.13" y1="145.53" x2="189.13" y2="145.78"/><line class="cls-9" x1="275.79" y1="142.85" x2="274.91" y2="142.85"/><path class="cls-9" d="M248.22,137.87a.12.12,0,0,0-.11.12"/><line class="cls-9" x1="248.22" y1="137.87" x2="249.33" y2="137.73"/><line class="cls-9" x1="248.11" y1="142.85" x2="248.11" y2="137.99"/><line class="cls-9" x1="249.35" y1="142.85" x2="248.11" y2="142.85"/><line class="cls-9" x1="274.91" y1="142.85" x2="249.35" y2="142.85"/><line class="cls-9" x1="249.33" y1="137.73" x2="262.74" y2="136.05"/><path class="cls-9" d="M262.74,136.05h0"/><line class="cls-9" x1="262.74" y1="136.05" x2="267.97" y2="135.4"/><line class="cls-9" x1="267.97" y1="135.4" x2="277.91" y2="135.4"/><line class="cls-9" x1="280.23" y1="135.66" x2="277.91" y2="135.4"/><line class="cls-9" x1="280.03" y1="142.85" x2="275.79" y2="142.85"/><polyline class="cls-9" points="280.23 135.66 280.24 135.66 280.24 135.66 280.24 135.66"/><path class="cls-9" d="M280.24,135.66h0l0,0,0,0s0,0,0,0h0"/><line class="cls-9" x1="280.39" y1="135.78" x2="280.39" y2="142.85"/><line class="cls-9" x1="280.39" y1="142.85" x2="280.03" y2="142.85"/><line class="cls-9" x1="280.24" y1="135.66" x2="280.28" y2="135.66"/><path class="cls-9" d="M280.39,135.78a.13.13,0,0,0-.11-.12"/><line class="cls-9" x1="279.77" y1="146.03" x2="279.41" y2="146.03"/><line class="cls-9" x1="279.77" y1="146.03" x2="279.77" y2="146.77"/><line class="cls-9" x1="248.73" y1="146.03" x2="248.73" y2="178.81"/><polyline class="cls-9" points="276.17 155.13 275.51 155.13 270.36 155.13 263.8 155.13 255.37 155.13 251.09 155.13"/><polyline class="cls-9" points="276.17 159.26 275.51 159.26 270.36 159.26 263.8 159.26 255.37 159.26 251.09 159.26"/><polyline class="cls-9" points="276.17 163.39 275.51 163.39 270.36 163.39 263.8 163.39 255.37 163.39 251.09 163.39"/><polyline class="cls-9" points="276.17 167.52 275.51 167.52 270.36 167.52 263.8 167.52 255.37 167.52 251.09 167.52"/><polyline class="cls-9" points="276.17 171.65 275.51 171.65 270.36 171.65 263.8 171.65 255.37 171.65 251.09 171.65"/><polyline class="cls-9" points="276.17 175.79 275.51 175.79 270.36 175.79 263.8 175.79 255.37 175.79 251.09 175.79"/><line class="cls-9" x1="276.17" y1="182.28" x2="277.66" y2="185.51"/><line class="cls-9" x1="274.1" y1="182.28" x2="274.1" y2="178.81"/><line class="cls-9" x1="274.1" y1="182.28" x2="272.61" y2="185.51"/><line class="cls-9" x1="268.59" y1="152.38" x2="268.59" y2="145.88"/><path class="cls-9" d="M253.69,149.13a2,2,0,1,1,2,2A2,2,0,0,1,253.69,149.13Z"/><path class="cls-9" d="M260.4,149.13a2,2,0,1,1,2,2A2,2,0,0,1,260.4,149.13Z"/><polyline class="cls-9" points="293.93 164.16 293.93 166.38 293.93 168.56 293.93 170.63 293.93 172.57 293.93 174.33 293.93 175.87 293.93 177.15 293.93 178.15 293.93 178.85 293.93 179.23 293.93 179.27"/><polyline class="cls-9" points="293.93 164.16 293.93 153.45 293.93 149.2 293.93 149.12 293.93 149.06 293.93 149.02 293.93 149.01"/><line class="cls-9" x1="290.45" y1="181.54" x2="290.45" y2="146.77"/><line class="cls-9" x1="280.39" y1="135.78" x2="280.35" y2="135.78"/><rect class="cls-9" x="252.34" y="141.55" width="3.23" height="45.33"/><line class="cls-9" x1="227.59" y1="143.65" x2="189.13" y2="152.92"/><rect class="cls-9" x="186.25" y="145.78" width="2.87" height="7.01"/><rect class="cls-9" x="208.32" y="142.67" width="7.01" height="2.87"/><rect class="cls-9" x="248.73" y="142.85" width="31.04" height="3.03"/><line class="cls-9" x1="248.73" y1="158.96" x2="238.11" y2="155.71"/><line class="cls-9" x1="248.73" y1="169.35" x2="238.11" y2="172.6"/><line class="cls-9" x1="248.73" y1="149.51" x2="238.11" y2="149.51"/><line class="cls-9" x1="248.73" y1="178.81" x2="239.28" y2="178.81"/><rect class="cls-13" x="208.32" y="142.67" width="7.01" height="2.87"/><rect class="cls-9" x="208.32" y="142.67" width="7.01" height="2.87"/><rect class="cls-9" x="186.25" y="145.78" width="2.87" height="7.01"/><rect class="cls-6" x="218.88" y="124.03" width="17.17" height="7.87"/><rect class="cls-6" x="206" y="116.87" width="11.45" height="5.01" rx="1"/><rect class="cls-6" x="198.85" y="124.74" width="6.44" height="7.15" rx="1"/><rect class="cls-6" x="203.85" y="121.17" width="15.74" height="14.31" rx="1"/><path class="cls-6" d="M236.05,119h16.1a9.66,9.66,0,0,1,9.66,9.66v0a9.66,9.66,0,0,1-9.66,9.66h-16.1a0,0,0,0,1,0,0V119a0,0,0,0,1,0,0Z"/><line class="cls-14" x1="236.05" y1="116.87" x2="236.05" y2="139.77"/><line class="cls-14" x1="261.81" y1="128.32" x2="264.67" y2="128.32"/><path class="cls-15" d="M198.49,128.32h-.19a18.39,18.39,0,0,1-18.39-18.39V65.19A18.39,18.39,0,0,1,198.3,46.81l110.79,0"/><path class="cls-12" d="M456.18,116.26h-7.09a3.79,3.79,0,0,1-3.77-3.78v-1.42a3.77,3.77,0,0,1,3.77-3.77h7.09a3.77,3.77,0,0,1,3.77,3.77v1.42A3.77,3.77,0,0,1,456.18,116.26Z"/><path class="cls-12" d="M446.47,115.19,426,131.37l-6.14,9.91s-.95,1.89,3.3,1.89,19.36-.42,19.36-.42,4.72-.05,5.67-7.6"/><path class="cls-12" d="M432.52,173.42v8.1s.05,3.68,4.3,3.68h10.72a3.46,3.46,0,0,0,3.49-3.68c0-3.68,0-40,0-40"/><path class="cls-12" d="M423.17,157.67l5.15,7.22s7.08.48,9.91-.94,5.15-6.28,5.15-6.28"/><circle class="cls-12" cx="430.44" cy="137.27" r="3.54"/><circle class="cls-12" cx="439.41" cy="137.74" r="2.6"/><path class="cls-12" d="M391.49,135.62s13.87-.74,18.41,0a4.72,4.72,0,0,1,4.25,4.72c0,3.3-3.3,7.55-6.61,7.55H391.33s-3.62-.47-3.62-2.83v-6.37S387.71,136.09,391.49,135.62Z"/><line class="cls-12" x1="392.9" y1="136.09" x2="392.9" y2="147.42"/><line class="cls-12" x1="398.1" y1="135.85" x2="398.1" y2="147.42"/><line class="cls-12" x1="403.29" y1="135.85" x2="403.44" y2="147.42"/><line class="cls-12" x1="408.61" y1="136.09" x2="408.61" y2="147.42"/><line class="cls-9" x1="407.9" y1="114.4" x2="401.4" y2="123.81"/><path class="cls-12" d="M340.87,92.65c-7.09,7.08-11.81,25.5-11.81,25.5s-11.47,1.41-9,20.77,4.72,29.28,4.72,29.28.95,5.67,8,5.67H438.71c7.08,0,8-5.67,8-5.67s2.22-9.92,4.72-29.28-9-20.77-9-20.77-4.72-18.42-11.8-25.5-33.52-6.85-44.86-6.85S348,85.56,340.87,92.65Z"/><path class="cls-12" d="M338.84,95c13.09-6.1,35.06-6.35,46.88-6.41,0,0,33.89.31,47,6.41"/><path class="cls-12" d="M329.06,118.15c14.64-3.78,42.52-4.58,56.76-4.58s42,.8,56.66,4.58"/><path class="cls-12" d="M315.37,116.26h7.08a3.79,3.79,0,0,0,3.78-3.78v-1.42a3.77,3.77,0,0,0-3.78-3.77h-7.08a3.77,3.77,0,0,0-3.78,3.77v1.42A3.78,3.78,0,0,0,315.37,116.26Z"/><path class="cls-12" d="M325.08,115.19l20.51,16.18,6.14,9.91s.94,1.89-3.31,1.89-19.36-.42-19.36-.42-4.72-.05-5.67-7.6"/><path class="cls-12" d="M319.85,136.56c11.56-7.08,49.37-7.38,66-7.38s54.32.3,65.88,7.38"/><path class="cls-12" d="M339,173.42v8.1s0,3.68-4.29,3.68H324a3.47,3.47,0,0,1-3.5-3.68c.05-3.68,0-40,0-40"/><line class="cls-12" x1="322.85" y1="157.67" x2="448.7" y2="157.67"/><path class="cls-12" d="M356.21,157.67c-6.84,1.75-6.84,9.11-6.84,9.11l36.35-.14h.1l36.36.14s0-7.36-6.85-9.11"/><path class="cls-12" d="M348.37,157.67l-5.14,7.22s-7.09.48-9.92-.94-5.15-6.28-5.15-6.28"/><circle class="cls-12" cx="341.1" cy="137.27" r="3.54"/><circle class="cls-12" cx="332.13" cy="137.74" r="2.6"/><path class="cls-12" d="M380.06,135.62s-13.87-.74-18.42,0a4.72,4.72,0,0,0-4.25,4.72c0,3.3,3.31,7.55,6.61,7.55h16.21s3.63-.47,3.63-2.83v-6.37S383.84,136.09,380.06,135.62Z"/><line class="cls-12" x1="378.64" y1="136.09" x2="378.64" y2="147.42"/><line class="cls-12" x1="373.45" y1="135.85" x2="373.45" y2="147.42"/><line class="cls-12" x1="368.25" y1="135.85" x2="368.1" y2="147.42"/><line class="cls-12" x1="362.93" y1="136.09" x2="362.93" y2="147.42"/><line class="cls-9" x1="363.64" y1="114.4" x2="370.14" y2="123.81"/><line class="cls-16" x1="359.38" y1="94.54" x2="340.02" y2="105.87"/><line class="cls-16" x1="365.75" y1="97.61" x2="354.89" y2="103.74"/><line class="cls-14" x1="316.03" y1="55.29" x2="316.03" y2="56.31"/><line class="cls-14" x1="323.37" y1="55.29" x2="323.37" y2="56.31"/><line class="cls-14" x1="330.71" y1="55.29" x2="330.71" y2="56.31"/><line class="cls-14" x1="338.06" y1="55.29" x2="338.06" y2="56.31"/><line class="cls-14" x1="345.4" y1="55.29" x2="345.4" y2="56.31"/><line class="cls-14" x1="352.74" y1="55.29" x2="352.74" y2="56.31"/><line class="cls-14" x1="360.08" y1="55.29" x2="360.08" y2="56.31"/><line class="cls-14" x1="367.43" y1="55.29" x2="367.43" y2="56.31"/><line class="cls-14" x1="374.77" y1="55.29" x2="374.77" y2="56.31"/><line class="cls-14" x1="382.11" y1="55.29" x2="382.11" y2="56.31"/><line class="cls-14" x1="389.46" y1="55.29" x2="389.46" y2="56.31"/><line class="cls-14" x1="396.8" y1="55.29" x2="396.8" y2="56.31"/><line class="cls-14" x1="404.14" y1="55.29" x2="404.14" y2="56.31"/><line class="cls-14" x1="411.48" y1="55.29" x2="411.48" y2="56.31"/><line class="cls-14" x1="418.83" y1="55.29" x2="418.83" y2="56.31"/><line class="cls-14" x1="426.17" y1="55.29" x2="426.17" y2="56.31"/><line class="cls-14" x1="433.51" y1="55.29" x2="433.51" y2="56.31"/><line class="cls-14" x1="440.85" y1="55.29" x2="440.85" y2="56.31"/><line class="cls-14" x1="448.2" y1="55.29" x2="448.2" y2="56.31"/><line class="cls-14" x1="455.54" y1="55.29" x2="455.54" y2="56.31"/><line class="cls-14" x1="316.03" y1="64.52" x2="316.03" y2="65.54"/><line class="cls-14" x1="323.37" y1="64.52" x2="323.37" y2="65.54"/><line class="cls-14" x1="330.71" y1="64.52" x2="330.71" y2="65.54"/><line class="cls-14" x1="338.06" y1="64.52" x2="338.06" y2="65.54"/><line class="cls-14" x1="345.4" y1="64.52" x2="345.4" y2="65.54"/><line class="cls-14" x1="352.74" y1="64.52" x2="352.74" y2="65.54"/><line class="cls-14" x1="360.08" y1="64.52" x2="360.08" y2="65.54"/><line class="cls-14" x1="367.43" y1="64.52" x2="367.43" y2="65.54"/><line class="cls-14" x1="374.77" y1="64.52" x2="374.77" y2="65.54"/><line class="cls-14" x1="382.11" y1="64.52" x2="382.11" y2="65.54"/><line class="cls-14" x1="389.46" y1="64.52" x2="389.46" y2="65.54"/><line class="cls-14" x1="396.8" y1="64.52" x2="396.8" y2="65.54"/><line class="cls-14" x1="404.14" y1="64.52" x2="404.14" y2="65.54"/><line class="cls-14" x1="411.48" y1="64.52" x2="411.48" y2="65.54"/><line class="cls-14" x1="418.83" y1="64.52" x2="418.83" y2="65.54"/><line class="cls-14" x1="426.17" y1="64.52" x2="426.17" y2="65.54"/><line class="cls-14" x1="433.51" y1="64.52" x2="433.51" y2="65.54"/><line class="cls-14" x1="440.85" y1="64.52" x2="440.85" y2="65.54"/><line class="cls-14" x1="448.2" y1="64.52" x2="448.2" y2="65.54"/><line class="cls-14" x1="455.54" y1="64.52" x2="455.54" y2="65.54"/><line class="cls-14" x1="316.03" y1="73.76" x2="316.03" y2="74.78"/><line class="cls-14" x1="323.37" y1="73.76" x2="323.37" y2="74.78"/><line class="cls-14" x1="330.71" y1="73.76" x2="330.71" y2="74.78"/><line class="cls-14" x1="338.06" y1="73.76" x2="338.06" y2="74.78"/><line class="cls-14" x1="345.4" y1="73.76" x2="345.4" y2="74.78"/><line class="cls-14" x1="352.74" y1="73.76" x2="352.74" y2="74.78"/><line class="cls-14" x1="360.08" y1="73.76" x2="360.08" y2="74.78"/><line class="cls-14" x1="367.43" y1="73.76" x2="367.43" y2="74.78"/><line class="cls-14" x1="374.77" y1="73.76" x2="374.77" y2="74.78"/><line class="cls-14" x1="382.11" y1="73.76" x2="382.11" y2="74.78"/><line class="cls-14" x1="389.46" y1="73.76" x2="389.46" y2="74.78"/><line class="cls-14" x1="396.8" y1="73.76" x2="396.8" y2="74.78"/><line class="cls-14" x1="404.14" y1="73.76" x2="404.14" y2="74.78"/><line class="cls-14" x1="411.48" y1="73.76" x2="411.48" y2="74.78"/><line class="cls-14" x1="418.83" y1="73.76" x2="418.83" y2="74.78"/><line class="cls-14" x1="426.17" y1="73.76" x2="426.17" y2="74.78"/><line class="cls-14" x1="433.51" y1="73.76" x2="433.51" y2="74.78"/><line class="cls-14" x1="440.85" y1="73.76" x2="440.85" y2="74.78"/><line class="cls-14" x1="448.2" y1="73.76" x2="448.2" y2="74.78"/><line class="cls-14" x1="455.54" y1="73.76" x2="455.54" y2="74.78"/><line class="cls-14" x1="316.03" y1="83" x2="316.03" y2="84.02"/><line class="cls-14" x1="323.37" y1="83" x2="323.37" y2="84.02"/><line class="cls-14" x1="330.71" y1="83" x2="330.71" y2="84.02"/><line class="cls-14" x1="338.06" y1="83" x2="338.06" y2="84.02"/><line class="cls-14" x1="345.4" y1="83" x2="345.4" y2="84.02"/><line class="cls-14" x1="426.17" y1="83" x2="426.17" y2="84.02"/><line class="cls-14" x1="433.51" y1="83" x2="433.51" y2="84.02"/><line class="cls-14" x1="440.85" y1="83" x2="440.85" y2="84.02"/><line class="cls-14" x1="448.2" y1="83" x2="448.2" y2="84.02"/><line class="cls-14" x1="455.54" y1="83" x2="455.54" y2="84.02"/><line class="cls-14" x1="316.03" y1="92.23" x2="316.03" y2="93.25"/><line class="cls-14" x1="323.37" y1="92.23" x2="323.37" y2="93.25"/><line class="cls-14" x1="330.71" y1="92.23" x2="330.71" y2="93.25"/><line class="cls-14" x1="440.85" y1="92.23" x2="440.85" y2="93.25"/><line class="cls-14" x1="448.2" y1="92.23" x2="448.2" y2="93.25"/><line class="cls-14" x1="455.54" y1="92.23" x2="455.54" y2="93.25"/><line class="cls-14" x1="316.03" y1="101.47" x2="316.03" y2="102.49"/><line class="cls-14" x1="323.37" y1="101.47" x2="323.37" y2="102.49"/><line class="cls-14" x1="448.2" y1="101.47" x2="448.2" y2="102.49"/><line class="cls-14" x1="455.54" y1="101.47" x2="455.54" y2="102.49"/><path class="cls-15" d="M185.9,149.5h-43c-20.43,0-37,14.19-37,31.7V237"/><rect class="cls-17" x="101.72" y="236.64" width="8.15" height="15.92" rx="1.87"/><rect class="cls-9" x="101.72" y="236.64" width="8.15" height="15.92" rx="1.87"/><line class="cls-9" x1="101.72" y1="244.6" x2="109.88" y2="244.6"/><path class="cls-18" d="M105.18,247.19a.89.89,0,1,1-.89-.89.88.88,0,0,1,.89.89"/><path class="cls-18" d="M108.17,247.19a.89.89,0,1,1-.89-.89.88.88,0,0,1,.89.89"/><path class="cls-18" d="M108.17,249.78a.89.89,0,1,1-1.77,0,.89.89,0,0,1,1.77,0"/><path class="cls-18" d="M105.18,249.78a.89.89,0,1,1-1.77,0,.89.89,0,0,1,1.77,0"/></g></g></svg>