<svg xmlns="http://www.w3.org/2000/svg" xmlns:xlink="http://www.w3.org/1999/xlink" viewBox="0 0 713.35 263.76"><defs><style>.cls-1,.cls-10,.cls-13,.cls-14,.cls-15,.cls-16,.cls-17,.cls-2,.cls-20,.cls-21,.cls-3,.cls-4,.cls-6{fill:none;}.cls-12,.cls-13,.cls-14,.cls-15,.cls-16,.cls-17,.cls-19,.cls-2,.cls-20,.cls-3,.cls-4,.cls-8{stroke:#fff;}.cls-2,.cls-3{stroke-width:0.75px;}.cls-18,.cls-2,.cls-3{opacity:0.2;}.cls-3{stroke-linecap:square;}.cls-4{stroke-width:0.3px;}.cls-5{clip-path:url(#clip-path);}.cls-6{stroke:#475a6c;}.cls-12,.cls-13,.cls-19,.cls-20,.cls-21,.cls-6,.cls-8{stroke-miterlimit:10;}.cls-10,.cls-12,.cls-13,.cls-14,.cls-17,.cls-19,.cls-21,.cls-6,.cls-8{stroke-width:2px;}.cls-7{fill:url(#Unnamed_Pattern);}.cls-8,.cls-9{fill:url(#Concentric_Circles);}.cls-10,.cls-14,.cls-15{stroke-linecap:round;}.cls-10,.cls-14,.cls-15,.cls-16,.cls-17{stroke-linejoin:round;}.cls-10{stroke:url(#linear-gradient);}.cls-11{fill:url(#linear-gradient-2);}.cls-12{fill:#00aadc;}.cls-15,.cls-16,.cls-20{stroke-width:3px;}.cls-18{fill:url(#Grid_1_pica_Lines);}.cls-19{fill:#273a4e;}.cls-21{stroke:#b2def3;}</style><clipPath id="clip-path"><rect class="cls-1" width="240.95" height="141.73"/></clipPath><pattern id="Unnamed_Pattern" data-name="Unnamed Pattern" width="240.95" height="141.73" patternTransform="matrix(0.71, -0.71, -0.71, -0.71, 11650.24, 11801.06)" patternUnits="userSpaceOnUse" viewBox="0 0 240.94 141.73"><rect class="cls-1" width="240.95" height="141.73"/><g class="cls-5"><line class="cls-6" y1="14.17" x2="240.94" y2="14.17"/><line class="cls-6" y1="42.52" x2="240.94" y2="42.52"/><line class="cls-6" y1="70.87" x2="240.94" y2="70.87"/><line class="cls-6" y1="99.21" x2="240.94" y2="99.21"/><line class="cls-6" y1="127.56" x2="240.94" y2="127.56"/></g></pattern><pattern id="Concentric_Circles" data-name="Concentric Circles" width="86.96" height="65.3" patternUnits="userSpaceOnUse" viewBox="0 0 86.96 65.3"><rect class="cls-1" width="86.96" height="65.3"/><line class="cls-2" x1="81.12" y1="11.16" x2="81.12" y2="21.92"/><line class="cls-2" x1="59.58" y1="11.16" x2="59.58" y2="21.92"/><line class="cls-2" x1="38.04" y1="11.16" x2="38.04" y2="21.92"/><line class="cls-2" x1="16.5" y1="11.16" x2="16.5" y2="21.92"/><line class="cls-2" x1="81.12" y1="32.67" x2="81.12" y2="43.42"/><line class="cls-2" x1="59.58" y1="32.67" x2="59.58" y2="43.42"/><line class="cls-2" x1="38.04" y1="32.67" x2="38.04" y2="43.42"/><line class="cls-2" x1="16.5" y1="32.67" x2="16.5" y2="43.42"/><line class="cls-2" x1="81.12" y1="54.27" x2="81.12" y2="65.3"/><line class="cls-2" x1="59.58" y1="54.27" x2="59.58" y2="65.3"/><line class="cls-2" x1="38.04" y1="54.27" x2="38.04" y2="65.3"/><line class="cls-2" x1="16.5" y1="54.27" x2="16.5" y2="65.3"/><line class="cls-2" x1="70.33" y1="43.42" x2="70.33" y2="54.17"/><line class="cls-2" x1="48.79" y1="43.42" x2="48.79" y2="54.17"/><line class="cls-2" x1="27.25" y1="43.42" x2="27.25" y2="54.17"/><line class="cls-2" x1="5.7" y1="43.42" x2="5.7" y2="54.17"/><line class="cls-2" x1="70.33" y1="21.92" x2="70.33" y2="32.67"/><line class="cls-2" x1="48.79" y1="21.92" x2="48.79" y2="32.67"/><line class="cls-2" x1="27.25" y1="21.92" x2="27.25" y2="32.67"/><line class="cls-2" x1="5.7" y1="21.92" x2="5.7" y2="32.67"/><line class="cls-2" x1="70.33" y1="0.41" x2="70.33" y2="11.16"/><line class="cls-2" x1="48.79" y1="0.41" x2="48.79" y2="11.16"/><line class="cls-2" x1="27.25" y1="0.41" x2="27.25" y2="11.16"/><line class="cls-2" x1="5.7" y1="0.41" x2="5.7" y2="11.16"/><line class="cls-3" x1="0.38" y1="0.38" x2="86.58" y2="0.38"/><line class="cls-3" x1="0.38" y1="11.15" x2="86.58" y2="11.15"/><line class="cls-3" x1="0.38" y1="21.92" x2="86.58" y2="21.92"/><line class="cls-3" x1="0.38" y1="32.69" x2="86.58" y2="32.69"/><line class="cls-3" x1="0.38" y1="43.46" x2="86.58" y2="43.46"/><line class="cls-3" x1="0.38" y1="54.24" x2="86.58" y2="54.24"/></pattern><linearGradient id="linear-gradient" x1="255.09" y1="230.92" x2="489.01" y2="-3" gradientUnits="userSpaceOnUse"><stop offset="0" stop-color="#fff"/><stop offset="0.38" stop-color="#fff" stop-opacity="0.61"/><stop offset="0.7" stop-color="#fff" stop-opacity="0.3"/><stop offset="0.72" stop-color="#fff" stop-opacity="0.23"/><stop offset="0.74" stop-color="#fff" stop-opacity="0.15"/><stop offset="0.77" stop-color="#fff" stop-opacity="0.08"/><stop offset="0.81" stop-color="#fff" stop-opacity="0.03"/><stop offset="0.86" stop-color="#fff" stop-opacity="0.01"/><stop offset="1" stop-color="#fff" stop-opacity="0"/></linearGradient><linearGradient id="linear-gradient-2" x1="337.31" y1="225.76" x2="337.31" gradientUnits="userSpaceOnUse"><stop offset="0" stop-color="#273a4e" stop-opacity="0"/><stop offset="0.31" stop-color="#273a4e" stop-opacity="0.03"/><stop offset="0.51" stop-color="#273a4e" stop-opacity="0.15"/><stop offset="0.69" stop-color="#273a4e" stop-opacity="0.34"/><stop offset="0.84" stop-color="#273a4e" stop-opacity="0.61"/><stop offset="0.98" stop-color="#273a4e" stop-opacity="0.95"/><stop offset="1" stop-color="#273a4e"/></linearGradient><pattern id="Grid_1_pica_Lines" data-name="Grid 1 pica Lines" width="53.5" height="53.5" patternUnits="userSpaceOnUse" viewBox="0 0 53.5 53.5"><rect class="cls-1" width="53.5" height="53.5"/><line class="cls-4" x1="4.61" x2="4.61" y2="53.5"/><line class="cls-4" x1="22.32" x2="22.32" y2="53.5"/><line class="cls-4" x1="40.03" x2="40.03" y2="53.5"/><line class="cls-4" y1="48.89" x2="53.5" y2="48.89"/><line class="cls-4" y1="31.18" x2="53.5" y2="31.18"/><line class="cls-4" y1="13.47" x2="53.5" y2="13.47"/><line class="cls-4" y1="40.03" x2="53.5" y2="40.03"/><line class="cls-4" y1="22.32" x2="53.5" y2="22.32"/><line class="cls-4" y1="4.61" x2="53.5" y2="4.61"/><line class="cls-4" x1="13.47" x2="13.47" y2="53.5"/><line class="cls-4" x1="31.18" x2="31.18" y2="53.5"/><line class="cls-4" x1="48.89" x2="48.89" y2="53.5"/></pattern></defs><g id="Layer_2" data-name="Layer 2"><g id="Layer_1-2" data-name="Layer 1"><polygon class="cls-7" points="0 230.56 0 263.76 713.35 263.76 677.51 230.56 0 230.56"/><line class="cls-8" y1="225.76" x2="681.35" y2="225.76"/><rect class="cls-9" x="9.55" y="2.08" width="241.88" height="223.76"/><rect class="cls-10" x="251.43" y="2.08" width="241.26" height="223.76"/><polyline class="cls-11" points="9.55 0 437.67 0.01 665.08 225.76 9.55 225.76"/><rect class="cls-12" x="146.74" y="91.45" width="50.31" height="19.38"/><polygon class="cls-12" points="189.55 110.83 154.24 110.83 154.24 82.7 171.89 82.7 171.89 78.17 189.55 78.17 189.55 110.83"/><circle class="cls-12" cx="162.75" cy="109.5" r="9.14"/><circle class="cls-12" cx="162.75" cy="109.5" r="1.64"/><line class="cls-13" x1="169.14" y1="102.96" x2="162.75" y2="109.5"/><line class="cls-13" x1="154.24" y1="93.72" x2="189.55" y2="93.72"/><rect class="cls-14" x="278.46" y="45.98" width="64.45" height="92.35"/><rect class="cls-14" x="278.46" y="138.33" width="64.45" height="80.16"/><rect class="cls-14" x="342.91" y="146.3" width="37.03" height="72.19"/><rect class="cls-14" x="379.95" y="146.3" width="36.56" height="72.19"/><rect class="cls-14" x="284.32" y="218.49" width="132.19" height="7.34"/><rect class="cls-14" x="342.91" y="45.98" width="73.6" height="38.67"/><line class="cls-14" x1="286.66" y1="93.72" x2="286.66" y2="126.14"/><line class="cls-14" x1="286.66" y1="150.52" x2="286.66" y2="182.39"/><circle class="cls-15" cx="368.98" cy="179.74" r="4.14"/><circle class="cls-14" cx="390.96" cy="179.74" r="4.14"/><circle class="cls-14" cx="379.71" cy="73.76" r="4.14"/><path class="cls-16" d="M197.05,101.14h54.38s16.05.55,16.05,16.06v88.16s.94,10.75,11.23,11.23"/><path class="cls-17" d="M416.51,216.59h54.84s7.61-.46,7.61-7.6v-34.8"/><path class="cls-14" d="M429.17,155.91h53.91a0,0,0,0,1,0,0v18.28a0,0,0,0,1,0,0H440.17a11,11,0,0,1-11-11v-7.28A0,0,0,0,1,429.17,155.91Z"/><rect class="cls-14" x="425.18" y="145.13" width="61.17" height="10.78" rx="2"/><path class="cls-14" d="M447.13,113c0-15.78,10.47-15.47,15.79-15.47S478,97,478,111.06v34.07"/><circle class="cls-14" cx="477.74" cy="130.5" r="5.76"/><line class="cls-14" x1="469.4" y1="116.06" x2="474.88" y2="125.5"/><rect class="cls-18" x="342.91" y="84.66" width="70.78" height="60.47"/><rect class="cls-13" x="115.92" y="93.64" width="7.73" height="13.44"/><rect class="cls-13" x="90.13" y="93.64" width="7.73" height="13.44"/><polygon class="cls-13" points="115.92 106.23 97.87 106.23 97.87 95.32 101.74 95.32 101.74 87.77 111.68 87.77 111.7 95.32 115.92 95.32 115.92 106.23"/><rect class="cls-19" x="90.13" y="32.98" width="33.52" height="47.81" rx="9"/><rect class="cls-19" x="100.1" y="80.79" width="13.24" height="6.98"/><line class="cls-20" x1="146.74" y1="100.36" x2="123.65" y2="100.36"/><path class="cls-20" d="M54.86,263.76V117.82S55,100.69,72,100.69H90.13"/><path class="cls-21" d="M443.88,124.74c0-1.8,3.25-6.35,3.25-6.35s3.25,4.55,3.25,6.35a3.25,3.25,0,1,1-6.5,0Z"/></g></g></svg>