<svg xmlns="http://www.w3.org/2000/svg" xmlns:xlink="http://www.w3.org/1999/xlink" viewBox="0 0 600.6 221.56"><defs><style>.cls-1,.cls-11,.cls-3,.cls-4,.cls-8,.cls-9{fill:none;}.cls-2{clip-path:url(#clip-path);}.cls-3{stroke:#475a6c;}.cls-11,.cls-3{stroke-miterlimit:10;}.cls-11,.cls-3,.cls-4{stroke-width:2px;}.cls-11,.cls-4,.cls-8{stroke:#fff;}.cls-4,.cls-9{stroke-linecap:round;}.cls-4,.cls-8,.cls-9{stroke-linejoin:round;}.cls-5{fill:#263b4e;}.cls-6{fill:#a2d9f1;}.cls-7{fill:#00aadb;}.cls-8,.cls-9{stroke-width:3px;}.cls-9{stroke:#c7e7f6;stroke-dasharray:1.73 5.18;}.cls-10{fill:url(#Unnamed_Pattern);}</style><clipPath id="clip-path"><rect class="cls-1" width="240.95" height="141.73"/></clipPath><pattern id="Unnamed_Pattern" data-name="Unnamed Pattern" width="240.95" height="141.73" patternTransform="matrix(0.71, -0.71, -0.71, -0.71, 11589.46, 11764.26)" patternUnits="userSpaceOnUse" viewBox="0 0 240.94 141.73"><rect class="cls-1" width="240.95" height="141.73"/><g class="cls-2"><line class="cls-3" y1="14.17" x2="240.94" y2="14.17"/><line class="cls-3" y1="42.52" x2="240.94" y2="42.52"/><line class="cls-3" y1="70.87" x2="240.94" y2="70.87"/><line class="cls-3" y1="99.21" x2="240.94" y2="99.21"/><line class="cls-3" y1="127.56" x2="240.94" y2="127.56"/></g></pattern></defs><g id="Layer_2" data-name="Layer 2"><g id="Layer_1-2" data-name="Layer 1"><line class="cls-4" x1="1" y1="181.11" x2="567.8" y2="181.11"/><path class="cls-5" d="M340.72,174.35c0,.68-.77,1.24-1.72,1.24s-1.72-.56-1.72-1.24.77-1.24,1.72-1.24,1.72.55,1.72,1.24"/><path class="cls-5" d="M308.71,172.46a.81.81,0,1,1-.8-.94.88.88,0,0,1,.8.94"/><path class="cls-6" d="M181.15,104.93c25.77-4.7,53.79-.4,68.26,1.11s49.72-2.83,64.19-3.54v78.25H181.15Z"/><path class="cls-4" d="M310.44,92.51a1.81,1.81,0,1,0,0-3.62h-1.05V13.14h1.05a1.81,1.81,0,1,0,0-3.62H183a1.81,1.81,0,0,0,0,3.62H184V88.89H183a1.81,1.81,0,0,0,0,3.62H184v3.62H183a1.82,1.82,0,0,0,0,3.63H184v75.15H183a1.81,1.81,0,0,0,0,3.62H310.44a1.81,1.81,0,1,0,0-3.62h-1.05V99.76h1.05a1.82,1.82,0,0,0,0-3.63h-1.05V92.51Z"/><polyline class="cls-7" points="205.3 129.97 190.49 129.97 190.49 138.28"/><polyline class="cls-4" points="205.3 129.97 190.49 129.97 190.49 138.28"/><rect class="cls-7" x="187.06" y="148.7" width="43.08" height="9.37"/><rect class="cls-4" x="187.06" y="148.7" width="43.08" height="9.37"/><rect class="cls-7" x="188.61" y="139.33" width="39.99" height="9.37"/><rect class="cls-4" x="188.61" y="139.33" width="39.99" height="9.37"/><polygon class="cls-7" points="228.6 139.33 188.61 139.33 205.3 129.97 225.99 129.97 228.6 139.33"/><polygon class="cls-4" points="228.6 139.33 188.61 139.33 205.3 129.97 225.99 129.97 228.6 139.33"/><polygon class="cls-7" points="194.11 164.93 187.06 164.93 187.06 158.07 196.43 158.07 194.11 164.93"/><polygon class="cls-4" points="194.11 164.93 187.06 164.93 187.06 158.07 196.43 158.07 194.11 164.93"/><polygon class="cls-7" points="207.62 164.93 230.14 164.93 230.14 158.07 205.3 158.07 207.62 164.93"/><polygon class="cls-4" points="207.62 164.93 230.14 164.93 230.14 158.07 205.3 158.07 207.62 164.93"/><rect class="cls-7" x="205.3" y="109.29" width="20.69" height="20.67"/><rect class="cls-4" x="205.3" y="109.29" width="20.69" height="20.67"/><rect class="cls-7" x="205.3" y="102.94" width="23.3" height="6.35"/><rect class="cls-4" x="205.3" y="102.94" width="23.3" height="6.35"/><rect class="cls-7" x="190.49" y="102.94" width="14.81" height="27.02"/><rect class="cls-4" x="190.49" y="102.94" width="14.81" height="27.02"/><path class="cls-7" d="M188.61,102.94h0Z"/><line class="cls-4" x1="188.61" y1="102.94" x2="205.3" y2="102.94"/><path class="cls-7" d="M188.61,106.8h0Z"/><line class="cls-4" x1="188.61" y1="106.8" x2="205.3" y2="106.8"/><path class="cls-7" d="M188.61,110.66h0Z"/><line class="cls-4" x1="188.61" y1="110.66" x2="205.3" y2="110.66"/><path class="cls-7" d="M188.61,114.52h0Z"/><line class="cls-4" x1="188.61" y1="114.52" x2="205.3" y2="114.52"/><path class="cls-7" d="M188.61,118.38h0Z"/><line class="cls-4" x1="188.61" y1="118.38" x2="205.3" y2="118.38"/><path class="cls-7" d="M188.61,122.24h0Z"/><line class="cls-4" x1="188.61" y1="122.24" x2="205.3" y2="122.24"/><path class="cls-7" d="M188.61,126.1h0Z"/><line class="cls-4" x1="188.61" y1="126.1" x2="205.3" y2="126.1"/><path class="cls-7" d="M211.37,164.93v0Z"/><line class="cls-4" x1="211.37" y1="164.93" x2="211.37" y2="161.5"/><path class="cls-7" d="M215.12,164.93v0Z"/><line class="cls-4" x1="215.12" y1="164.93" x2="215.12" y2="161.5"/><path class="cls-7" d="M218.88,164.93v0Z"/><line class="cls-4" x1="218.88" y1="164.93" x2="218.88" y2="161.5"/><path class="cls-7" d="M222.63,164.93v0Z"/><line class="cls-4" x1="222.63" y1="164.93" x2="222.63" y2="161.5"/><path class="cls-7" d="M226.39,164.93v0Z"/><line class="cls-4" x1="226.39" y1="164.93" x2="226.39" y2="161.5"/><path class="cls-7" d="M219.11,102.94h-4.38l7.64-10.19a1.75,1.75,0,0,1,1.4-.7h4.83v3.48h-4Z"/><path class="cls-4" d="M219.11,102.94h-4.38l7.64-10.19a1.75,1.75,0,0,1,1.4-.7h4.83v3.48h-4Z"/><rect class="cls-7" x="190.49" y="97.5" width="8.4" height="5.45"/><rect class="cls-4" x="190.49" y="97.5" width="8.4" height="5.45"/><path class="cls-7" d="M196.26,85.68h-3.14A1.33,1.33,0,0,0,191.79,87V97.5h5.8V87a1.32,1.32,0,0,0-1.33-1.32"/><path class="cls-4" d="M196.26,85.68h-3.14A1.33,1.33,0,0,0,191.79,87V97.5h5.8V87A1.32,1.32,0,0,0,196.26,85.68Z"/><rect class="cls-7" x="192.9" y="55.78" width="3.29" height="29.9"/><rect class="cls-4" x="192.91" y="55.78" width="3.29" height="29.9"/><rect class="cls-7" x="189.58" y="66.42" width="10.21" height="4.93"/><rect class="cls-4" x="189.58" y="66.42" width="10.22" height="4.93"/><polygon class="cls-7" points="199.8 71.34 189.58 71.34 192.9 75.25 196.48 75.25 199.8 71.34"/><polygon class="cls-4" points="199.8 71.34 189.58 71.34 192.9 75.25 196.48 75.25 199.8 71.34"/><path class="cls-7" d="M198.17,66.42h-7V13.89a5.91,5.91,0,0,0-11.42-2.15l-6.59,16.9-6.47-2.53,6.58-16.89a12.87,12.87,0,0,1,24.86,4.67Z"/><path class="cls-4" d="M198.17,66.42h-7V13.89a5.91,5.91,0,0,0-11.42-2.15l-6.59,16.9-6.47-2.53,6.58-16.89a12.87,12.87,0,0,1,24.86,4.67Z"/><line class="cls-7" x1="191.21" y1="62.5" x2="199.8" y2="62.5"/><line class="cls-4" x1="191.21" y1="62.5" x2="199.8" y2="62.5"/><line class="cls-7" x1="191.21" y1="57.63" x2="199.8" y2="57.63"/><line class="cls-4" x1="191.21" y1="57.63" x2="199.8" y2="57.63"/><line class="cls-7" x1="191.21" y1="52.75" x2="199.8" y2="52.75"/><line class="cls-4" x1="191.21" y1="52.75" x2="199.8" y2="52.75"/><line class="cls-7" x1="191.21" y1="47.87" x2="199.8" y2="47.87"/><line class="cls-4" x1="191.21" y1="47.87" x2="199.8" y2="47.87"/><line class="cls-7" x1="191.21" y1="42.99" x2="199.8" y2="42.99"/><line class="cls-4" x1="191.21" y1="42.99" x2="199.8" y2="42.99"/><rect class="cls-7" x="206.98" y="94.19" width="3.24" height="8.75"/><rect class="cls-4" x="206.98" y="94.19" width="3.24" height="8.75"/><path class="cls-7" d="M258.23,119.52h-4.54a7,7,0,0,1-7-7V101.6a7,7,0,0,1,7-7h4.54a7,7,0,0,1,7,7v10.94a7,7,0,0,1-7,7"/><rect class="cls-4" x="246.7" y="94.61" width="18.51" height="24.91" rx="6.99"/><path class="cls-7" d="M250.13,113.51V100.63a2.58,2.58,0,0,1,2.59-2.58h6.48a2.57,2.57,0,0,1,2.58,2.58v12.88a2.57,2.57,0,0,1-2.58,2.58h-6.48a2.58,2.58,0,0,1-2.59-2.58"/><rect class="cls-4" x="250.13" y="98.05" width="11.65" height="18.05" rx="2.59"/><rect class="cls-7" x="253.42" y="87.75" width="5.07" height="6.87"/><rect class="cls-4" x="253.42" y="87.75" width="5.07" height="6.87"/><path class="cls-8" d="M256,87.75C256,54.54,208.6,46.19,208.6,94"/><line class="cls-9" x1="155.94" y1="66.23" x2="141.93" y2="101.94"/><line class="cls-9" x1="155.94" y1="66.23" x2="148.33" y2="101.94"/><line class="cls-9" x1="155.94" y1="66.23" x2="153.76" y2="101.94"/><rect class="cls-5" x="116.9" y="147.31" width="44.4" height="31.23"/><rect class="cls-4" x="116.91" y="147.31" width="44.4" height="31.23"/><rect class="cls-5" x="116.9" y="112.24" width="44.4" height="31.23"/><rect class="cls-4" x="116.91" y="112.24" width="44.4" height="31.23"/><rect class="cls-5" x="117.86" y="143.47" width="42.49" height="3.71"/><rect class="cls-4" x="117.86" y="143.47" width="42.49" height="3.71"/><rect class="cls-5" x="137.88" y="102.21" width="19.97" height="7.52"/><rect class="cls-4" x="137.88" y="102.21" width="19.97" height="7.52"/><rect class="cls-5" x="114.2" y="109.73" width="49.81" height="2.68"/><rect class="cls-4" x="114.2" y="109.73" width="49.81" height="2.68"/><path class="cls-4" d="M161.3,165.54v-2.33a8.75,8.75,0,0,0,8.74-8.74V130.66a8.75,8.75,0,0,0-8.74-8.74v-2.33a11.08,11.08,0,0,1,11.07,11.07v23.81A11.07,11.07,0,0,1,161.3,165.54Z"/><polygon class="cls-5" points="116.91 175.51 61.08 135.57 64.69 130.03 116.91 157.05 116.91 175.51"/><polygon class="cls-4" points="116.91 175.51 61.08 135.57 64.69 130.03 116.91 157.05 116.91 175.51"/><polygon class="cls-5" points="61.08 135.57 41.19 140.17 60.87 109.97 64.69 130.03 61.08 135.57"/><polygon class="cls-4" points="61.08 135.57 41.19 140.17 60.87 109.97 64.69 130.03 61.08 135.57"/><line class="cls-5" x1="61.75" y1="114.59" x2="45.77" y2="139.11"/><line class="cls-4" x1="61.75" y1="114.59" x2="45.77" y2="139.11"/><rect class="cls-7" x="153.92" y="53.94" width="10.17" height="6.92" transform="translate(50.9 187.37) rotate(-70.1)"/><rect class="cls-4" x="153.92" y="53.94" width="10.17" height="6.92" transform="translate(50.9 187.37) rotate(-70.1)"/><path class="cls-7" d="M153.68,50.06l-.41,1.12a1.59,1.59,0,0,0,1,2l2.31.84L155,58.39l-2.31-.84a1.59,1.59,0,0,0-2,1l-.41,1.11-2.7-1L151,49.08Z"/><path class="cls-4" d="M153.68,50.06l-.41,1.12a1.59,1.59,0,0,0,1,2l2.31.84L155,58.39l-2.31-.84a1.59,1.59,0,0,0-2,1l-.41,1.11-2.7-1L151,49.08Z"/><rect class="cls-7" x="158.76" y="40.59" width="10.17" height="6.92" transform="translate(66.64 183.1) rotate(-70.09)"/><rect class="cls-4" x="158.76" y="40.59" width="10.17" height="6.92" transform="translate(66.64 183.1) rotate(-70.09)"/><rect class="cls-7" x="164.68" y="35.74" width="2.7" height="4.52" transform="translate(73.75 181.16) rotate(-70.08)"/><rect class="cls-4" x="164.68" y="35.74" width="2.7" height="4.52" transform="translate(73.75 181.16) rotate(-70.08)"/><rect class="cls-7" x="165.1" y="31.29" width="4.22" height="6.92" transform="translate(77.61 180.14) rotate(-70.1)"/><rect class="cls-4" x="165.1" y="31.29" width="4.22" height="6.92" transform="translate(77.61 180.14) rotate(-70.1)"/><rect class="cls-7" x="159.41" y="47.26" width="4.03" height="6.92" transform="translate(58.77 185.24) rotate(-70.1)"/><rect class="cls-4" x="159.41" y="47.26" width="4.03" height="6.92" transform="translate(58.77 185.24) rotate(-70.1)"/><rect class="cls-7" x="165.9" y="28.34" width="5.77" height="3.34" transform="translate(81.73 177.68) rotate(-69.56)"/><rect class="cls-4" x="165.9" y="28.34" width="5.77" height="3.34" transform="translate(81.73 177.68) rotate(-69.56)"/><polygon class="cls-10" points="600.6 221.56 1 221.56 1 188.46 569.8 188.46 600.6 221.56"/><path class="cls-11" d="M401.88,160.82a3.21,3.21,0,0,1-2-1.47,16,16,0,0,1-1.36-3.18c-.27-.86-1-3.16.47-4.06,1.24-.77,2.85.33,4,1.22a13.1,13.1,0,0,1,2.51,2.59,3.28,3.28,0,0,1-2.53,5A3.16,3.16,0,0,1,401.88,160.82Z"/><path class="cls-4" d="M411.16,179.83c1.1-5.34.09-13.26-1.47-20s-2.38-12.35,1.47-19.22"/><line class="cls-4" x1="423.23" y1="180.61" x2="421.3" y2="176.09"/><line class="cls-4" x1="427.17" y1="180.61" x2="425.98" y2="170.26"/><path class="cls-4" d="M418.67,132.51a3.67,3.67,0,1,1-3.67-3.66A3.67,3.67,0,0,1,418.67,132.51Z"/><ellipse class="cls-4" cx="415" cy="123.28" rx="3.08" ry="4.75"/><path class="cls-4" d="M410.65,123.8c1.86,1.86,2.39,4.34,1.18,5.54s-3.68.68-5.54-1.18-2.39-4.34-1.18-5.54S408.79,122,410.65,123.8Z"/><ellipse class="cls-4" cx="405.76" cy="132.51" rx="4.75" ry="3.08"/><path class="cls-4" d="M406.29,136.86c1.86-1.85,4.34-2.38,5.54-1.18s.68,3.69-1.18,5.54-4.34,2.39-5.54,1.18S404.43,138.72,406.29,136.86Z"/><path class="cls-4" d="M411.92,141.75c0-2.63,1.38-4.76,3.08-4.76s3.08,2.13,3.08,4.76-1.38,4.75-3.08,4.75S411.92,144.37,411.92,141.75Z"/><path class="cls-4" d="M419.35,141.22c-1.86-1.85-2.39-4.34-1.18-5.54s3.68-.67,5.54,1.18,2.39,4.34,1.18,5.54S421.21,143.08,419.35,141.22Z"/><ellipse class="cls-4" cx="424.23" cy="132.51" rx="4.75" ry="3.08"/><path class="cls-4" d="M423.71,128.16c-1.86,1.86-4.34,2.39-5.54,1.18s-.68-3.68,1.18-5.54,4.34-2.38,5.54-1.18S425.57,126.31,423.71,128.16Z"/><line class="cls-4" x1="351.68" y1="181.11" x2="355.46" y2="164.58"/><line class="cls-4" x1="347.47" y1="181.11" x2="349.2" y2="170.63"/><line class="cls-4" x1="344.77" y1="181.11" x2="343.8" y2="175.87"/></g></g></svg>