<svg xmlns="http://www.w3.org/2000/svg" xmlns:xlink="http://www.w3.org/1999/xlink" viewBox="0 0 713.35 262.68"><defs><style>.cls-1,.cls-11,.cls-12,.cls-14,.cls-2,.cls-3,.cls-5{fill:none;}.cls-10,.cls-11,.cls-12,.cls-13,.cls-14,.cls-15,.cls-16,.cls-2,.cls-3,.cls-9{stroke:#fff;}.cls-2,.cls-3{stroke-width:0.75px;opacity:0.2;}.cls-3{stroke-linecap:square;}.cls-4{clip-path:url(#clip-path);}.cls-5{stroke:#475a6c;}.cls-10,.cls-11,.cls-16,.cls-5,.cls-9{stroke-miterlimit:10;}.cls-10,.cls-11,.cls-13,.cls-14,.cls-15,.cls-16,.cls-5,.cls-9{stroke-width:2px;}.cls-6{fill:url(#Unnamed_Pattern);}.cls-7,.cls-9{fill:url(#Concentric_Circles);}.cls-8{fill:url(#linear-gradient);}.cls-10,.cls-15{fill:#00aadc;}.cls-12,.cls-13,.cls-14,.cls-15{stroke-linecap:round;stroke-linejoin:round;}.cls-12{stroke-width:3px;}.cls-13,.cls-16{fill:#273a4e;}</style><clipPath id="clip-path"><rect class="cls-1" width="240.95" height="141.73"/></clipPath><pattern id="Unnamed_Pattern" data-name="Unnamed Pattern" width="240.95" height="141.73" patternTransform="matrix(0.71, -0.71, -0.71, -0.71, 11650.24, 11801.06)" patternUnits="userSpaceOnUse" viewBox="0 0 240.94 141.73"><rect class="cls-1" width="240.95" height="141.73"/><g class="cls-4"><line class="cls-5" y1="14.17" x2="240.94" y2="14.17"/><line class="cls-5" y1="42.52" x2="240.94" y2="42.52"/><line class="cls-5" y1="70.87" x2="240.94" y2="70.87"/><line class="cls-5" y1="99.21" x2="240.94" y2="99.21"/><line class="cls-5" y1="127.56" x2="240.94" y2="127.56"/></g></pattern><pattern id="Concentric_Circles" data-name="Concentric Circles" width="86.96" height="65.3" patternUnits="userSpaceOnUse" viewBox="0 0 86.96 65.3"><rect class="cls-1" width="86.96" height="65.3"/><line class="cls-2" x1="81.12" y1="11.16" x2="81.12" y2="21.92"/><line class="cls-2" x1="59.58" y1="11.16" x2="59.58" y2="21.92"/><line class="cls-2" x1="38.04" y1="11.16" x2="38.04" y2="21.92"/><line class="cls-2" x1="16.5" y1="11.16" x2="16.5" y2="21.92"/><line class="cls-2" x1="81.12" y1="32.67" x2="81.12" y2="43.42"/><line class="cls-2" x1="59.58" y1="32.67" x2="59.58" y2="43.42"/><line class="cls-2" x1="38.04" y1="32.67" x2="38.04" y2="43.42"/><line class="cls-2" x1="16.5" y1="32.67" x2="16.5" y2="43.42"/><line class="cls-2" x1="81.12" y1="54.27" x2="81.12" y2="65.3"/><line class="cls-2" x1="59.58" y1="54.27" x2="59.58" y2="65.3"/><line class="cls-2" x1="38.04" y1="54.27" x2="38.04" y2="65.3"/><line class="cls-2" x1="16.5" y1="54.27" x2="16.5" y2="65.3"/><line class="cls-2" x1="70.33" y1="43.42" x2="70.33" y2="54.17"/><line class="cls-2" x1="48.79" y1="43.42" x2="48.79" y2="54.17"/><line class="cls-2" x1="27.25" y1="43.42" x2="27.25" y2="54.17"/><line class="cls-2" x1="5.7" y1="43.42" x2="5.7" y2="54.17"/><line class="cls-2" x1="70.33" y1="21.92" x2="70.33" y2="32.67"/><line class="cls-2" x1="48.79" y1="21.92" x2="48.79" y2="32.67"/><line class="cls-2" x1="27.25" y1="21.92" x2="27.25" y2="32.67"/><line class="cls-2" x1="5.7" y1="21.92" x2="5.7" y2="32.67"/><line class="cls-2" x1="70.33" y1="0.41" x2="70.33" y2="11.16"/><line class="cls-2" x1="48.79" y1="0.41" x2="48.79" y2="11.16"/><line class="cls-2" x1="27.25" y1="0.41" x2="27.25" y2="11.16"/><line class="cls-2" x1="5.7" y1="0.41" x2="5.7" y2="11.16"/><line class="cls-3" x1="0.38" y1="0.38" x2="86.58" y2="0.38"/><line class="cls-3" x1="0.38" y1="11.15" x2="86.58" y2="11.15"/><line class="cls-3" x1="0.38" y1="21.92" x2="86.58" y2="21.92"/><line class="cls-3" x1="0.38" y1="32.69" x2="86.58" y2="32.69"/><line class="cls-3" x1="0.38" y1="43.46" x2="86.58" y2="43.46"/><line class="cls-3" x1="0.38" y1="54.24" x2="86.58" y2="54.24"/></pattern><linearGradient id="linear-gradient" x1="336.45" y1="223.68" x2="336.45" gradientUnits="userSpaceOnUse"><stop offset="0" stop-color="#273a4e" stop-opacity="0"/><stop offset="0.21" stop-color="#273a4e" stop-opacity="0.12"/><stop offset="0.55" stop-color="#273a4e" stop-opacity="0.46"/><stop offset="1" stop-color="#273a4e" stop-opacity="0.99"/><stop offset="1" stop-color="#273a4e"/></linearGradient></defs><g id="Layer_2" data-name="Layer 2"><g id="Layer_1-2" data-name="Layer 1"><polygon class="cls-6" points="0 228.48 0 261.68 713.35 261.68 677.51 228.48 0 228.48"/><polygon class="cls-7" points="663.91 223.68 8.98 223.68 8.98 0 436.71 0.01 663.91 223.68"/><polygon class="cls-8" points="663.91 223.68 8.98 223.68 8.98 0 436.71 0.01 663.91 223.68"/><line class="cls-9" y1="223.68" x2="681.35" y2="223.68"/><polygon class="cls-10" points="302.92 222.48 297.73 185.94 288.15 196.6 296.69 222.48 302.92 222.48"/><polygon class="cls-10" points="232.72 222.48 237.91 185.94 247.49 196.6 238.95 222.48 232.72 222.48"/><path class="cls-10" d="M267.55,199.53h0c-16.79,0-30.4-3-30.4-19.8v-73.8c0-16.79,13.61-23.2,30.4-23.2h0c16.79,0,30.4,6.41,30.4,23.2v73.8C298,196.52,284.34,199.53,267.55,199.53Z"/><line class="cls-11" x1="237.15" y1="105.93" x2="297.95" y2="105.93"/><line class="cls-11" x1="237.15" y1="179.73" x2="297.95" y2="179.73"/><line class="cls-11" x1="237.15" y1="141.13" x2="297.95" y2="141.13"/><rect class="cls-10" x="261.15" y="199.53" width="14.1" height="4.68"/><rect class="cls-10" x="254.02" y="203.43" width="28.28" height="3.6"/><polygon class="cls-10" points="273.45 210.71 268.2 210.71 263.02 210.71 263.02 207.03 273.45 207.03 273.45 210.71"/><path class="cls-12" d="M268.2,210.71s-.23,5.93-5.94,5.93H226.55s-32.81-.5-32.81-32.8V78.53"/><rect class="cls-13" x="179.92" y="62.43" width="4.05" height="9.45"/><rect class="cls-13" x="203.35" y="62.43" width="4" height="9.45"/><rect class="cls-13" x="183.97" y="63.73" width="19.38" height="7"/><rect class="cls-13" x="189.65" y="70.73" width="8.1" height="3.9"/><rect class="cls-13" x="188.05" y="74.63" width="11.2" height="3.9"/><polygon class="cls-13" points="200.95 61.43 186.35 61.43 186.35 52.43 196.45 52.43 200.95 61.43"/><rect class="cls-13" x="189.65" y="61.43" width="8.1" height="2.3"/><line class="cls-14" x1="186.35" y1="56.93" x2="198.7" y2="56.93"/><rect class="cls-13" x="327.75" y="62.23" width="4.1" height="10"/><rect class="cls-13" x="351.05" y="62.23" width="4.1" height="10"/><rect class="cls-13" x="331.85" y="63.83" width="19.2" height="6.8"/><path class="cls-13" d="M344.17,67.23a29.64,29.64,0,0,0-6,0c-2.18.3-6.29,1.68-6.29,3.75,0,0,.27,16.32.5,21.75s1.35,21.75,1.35,21.75a3.75,3.75,0,0,0,3.75,3.75H346a3.75,3.75,0,0,0,3.75-3.75s1.18-16.3,1.35-21.75,0-21.75,0-21.75C351.05,68.91,346.39,67.53,344.17,67.23Z"/><line class="cls-14" x1="331.96" y1="77.43" x2="351.12" y2="77.43"/><line class="cls-14" x1="336.65" y1="80.83" x2="337.85" y2="114.33"/><line class="cls-14" x1="346.55" y1="80.93" x2="345.75" y2="114.43"/><path class="cls-14" d="M128.25,261.68V85.83s1.5-19,19.05-19,32.62.45,32.62.45"/><line class="cls-14" x1="207.35" y1="67.23" x2="327.75" y2="67.23"/><line class="cls-14" x1="355.15" y1="67.23" x2="522.32" y2="67.08"/><rect class="cls-15" x="260.37" y="78.53" width="15.15" height="4.2"/><circle class="cls-16" cx="193.58" cy="66.04" r="6.64"/><circle class="cls-16" cx="193.58" cy="66.04" r="2.29"/><line class="cls-11" x1="195.26" y1="64.5" x2="198.7" y2="61.82"/></g></g></svg>