<?xml version="1.0" encoding="utf-8"?>
<!-- Generator: Adobe Illustrator 26.0.0, SVG Export Plug-In . SVG Version: 6.00 Build 0)  -->
<svg version="1.1" id="Layer_1" xmlns="http://www.w3.org/2000/svg" xmlns:xlink="http://www.w3.org/1999/xlink" x="0px" y="0px"
	 viewBox="0 0 410 100" style="enable-background:new 0 0 410 100;" xml:space="preserve">
<style type="text/css">
	.st0{fill:#67AFBE;}
	.st1{fill:#F88058;}
	.st2{fill:#252F3A;}
</style>
<ellipse class="st0" cx="183" cy="15.8" rx="14" ry="14"/>
<ellipse class="st1" cx="53" cy="49.8" rx="48" ry="48"/>
<path class="st2" d="M32.5,60.8L31,68.5h-4l7.4-38.1h6.2l7.4,38.1h-4.3l-1.5-7.7L32.5,60.8z M33.1,57.2h8.6l-4.4-22L33.1,57.2z"/>
<path class="st2" d="M56.9,51.9l-2.3,3.8v12.8h-4.3V30.4h4.3v18.4l10.3-18.4h4.4l-9.8,17.4l10.1,20.7h-4.4L56.9,51.9z"/>
<path class="st2" d="M82.1,30.4c6,0,8.4,2.8,8.4,8.4v1.8c0,4-1.2,6.5-4.5,7.6c3.8,1,5.2,4,5.2,8.2v3.2c0,5.7-2.8,8.9-8.8,8.9h-8.9
	V30.4H82.1z M81.1,46.5c3.4,0,5.2-1.1,5.2-5.1v-2.2c0-3.4-1.2-5-4.3-5h-4.3v12.3H81.1z M82.4,64.6c3.2,0,4.6-1.6,4.6-5.2v-3.4
	c0-4.2-1.7-5.7-5.4-5.7h-3.8v14.2H82.4z"/>
<path class="st2" d="M99.6,60.8l-1.5,7.7h-4l7.4-38.1h6.2l7.4,38.1h-4.3l-1.5-7.7L99.6,60.8z M100.2,57.2h8.6l-4.4-22L100.2,57.2z"
	/>
<path class="st2" d="M227.4,57.9c1.7,0,2.4,0.8,2.4,2.3v0.5c0,1.1-0.3,1.8-1.3,2.1c1,0.2,1.7,1.2,1.5,2.2v0.9
	c0.1,1.2-0.7,2.3-1.9,2.5c-0.2,0-0.4,0-0.6,0h-2.6V57.9H227.4z M227.1,62.4c1,0,1.5-0.3,1.5-1.4v-0.6c0-0.9-0.3-1.4-1.2-1.4h-1.2
	v3.4H227.1z M227.4,67.4c0.9,0,1.3-0.4,1.3-1.4V65c0-1.2-0.5-1.6-1.6-1.6h-1.1v3.9H227.4z"/>
<path class="st2" d="M236,57.9c1.2-0.1,2.4,0.7,2.5,2c0,0.2,0,0.4,0,0.6v1.3c0.2,1.2-0.7,2.4-1.9,2.5c-0.2,0-0.4,0-0.6,0h-1.1v4.1
	h-1.2V57.9H236z M235.9,63.2c0.9,0,1.4-0.4,1.4-1.4v-1.4c0-1-0.4-1.4-1.3-1.4h-1.2v4.2H235.9z"/>
<path class="st2" d="M242.4,63.6l-1.6,4.8h-1.3V57.9h1.1v7.8l1-2.9l1.8-4.9h1.4v10.4h-1.1v-8.3L242.4,63.6z"/>
<path class="st2" d="M247.6,68.4V59h-2v-1.1h5.3V59h-2v9.4H247.6z"/>
<path class="st2" d="M255.9,68.4h-1.2l-1.8-8.3v8.3h-1.1V57.9h1.7l1.8,8.4l1.8-8.4h1.7v10.5h-1.2V60L255.9,68.4z"/>
<path class="st2" d="M264.1,62.5v1h-2.7v3.7h3.3v1.1h-4.6V57.9h4.6V59h-3.3v3.6H264.1z"/>
<path class="st2" d="M273.2,60.4v0.9h-1.2v-1c0-0.9-0.4-1.5-1.3-1.5s-1.3,0.6-1.3,1.5v5.5c0,0.9,0.4,1.5,1.3,1.5s1.3-0.6,1.3-1.5
	v-1.4h1.2v1.3c0,1.4-1.1,2.5-2.5,2.5s-2.5-1.1-2.5-2.5v-5.4c0-1.4,1.1-2.5,2.5-2.5S273.2,59.1,273.2,60.4z"/>
<path class="st2" d="M274.3,60.4c-0.1-1.4,1-2.6,2.4-2.7c1.4-0.1,2.6,1,2.7,2.4c0,0.1,0,0.2,0,0.3v5.4c0.1,1.4-1,2.6-2.4,2.7
	c-1.4,0.1-2.6-1-2.7-2.4c0-0.1,0-0.2,0-0.3V60.4z M275.5,65.9c0,1,0.4,1.5,1.3,1.5s1.3-0.6,1.3-1.5v-5.5c0-0.9-0.4-1.5-1.3-1.5
	s-1.3,0.6-1.3,1.5V65.9z"/>
<path class="st2" d="M283,57.9c1.7,0,2.4,0.8,2.4,2.3v0.5c0,1.1-0.3,1.8-1.3,2.1c1,0.3,1.6,1.2,1.5,2.2V66c0.1,1.2-0.7,2.3-1.9,2.5
	c-0.2,0-0.4,0-0.6,0h-2.5V57.9H283z M282.7,62.4c1,0,1.5-0.3,1.5-1.4v-0.6c0-0.9-0.3-1.4-1.2-1.4h-1.2v3.4H282.7z M283.1,67.4
	c0.9,0,1.3-0.4,1.3-1.4V65c0-1.2-0.5-1.6-1.5-1.6h-1.1v3.9H283.1z"/>
<path class="st2" d="M289.2,57.9c1.2-0.2,2.3,0.7,2.5,1.9c0,0.2,0,0.4,0,0.6v1.3c0.2,1.2-0.7,2.4-1.9,2.5c-0.2,0-0.4,0-0.7,0H288
	v4.1h-1.2V57.9H289.2z M289.1,63.2c0.9,0,1.4-0.4,1.4-1.4v-1.4c0-1-0.4-1.4-1.3-1.4H288v4.2H289.1z"/>
<path class="st2" d="M296.6,62.5v1h-2.7v3.7h3.3v1.1h-4.6V57.9h4.6V59h-3.3v3.6H296.6z"/>
<path class="st2" d="M302.5,68.4h-1.2l-1.8-8.3v8.3h-1.1V57.9h1.7l1.8,8.4l1.8-8.4h1.7v10.5h-1.2V60L302.5,68.4z"/>
<path class="st2" d="M310.6,62.5v1h-2.7v3.7h3.3v1.1h-4.6V57.9h4.6V59h-3.3v3.6H310.6z"/>
<path class="st2" d="M313.6,63.7v4.7h-1.2V57.9h1.2v4.7h2.7v-4.7h1.2v10.5h-1.2v-4.7L313.6,63.7z"/>
<path class="st2" d="M320.1,63.7v4.7h-1.2V57.9h1.2v4.7h2.7v-4.7h1.2v10.5h-1.2v-4.7L320.1,63.7z"/>
<path class="st2" d="M327.7,62c1.8,0,2.6,0.9,2.6,2.5v1.3c0.2,1.2-0.7,2.4-1.9,2.5c-0.2,0-0.4,0-0.6,0h-2.4V57.9h1.2V62H327.7z
	 M327.8,67.3c0.9,0,1.3-0.5,1.3-1.4v-1.4c0-1-0.5-1.4-1.4-1.4h-1.1v4.2L327.8,67.3z M332.5,57.9v10.5h-1.2V57.9L332.5,57.9z"/>
<path class="st2" d="M336.6,63.9l-1.9,4.5h-1.2l2.2-5.4l-2.1-5.1h1.3l1.7,4.2l1.7-4.2h1.2l-2.1,5.1l2.2,5.4h-1.3L336.6,63.9z"/>
<path class="st2" d="M344.9,68.4V59h-2v-1.1h5.3V59h-2v9.4H344.9z"/>
<path class="st2" d="M353,62.5v1h-2.7v3.7h3.3v1.1h-4.6V57.9h4.6V59h-3.3v3.6H353z"/>
<path class="st2" d="M357.6,63.9l-1.9,4.5h-1.2l2.2-5.4l-2.1-5.1h1.3l1.7,4.2l1.7-4.2h1.2l-2.1,5.1l2.2,5.4h-1.3L357.6,63.9z"/>
<path class="st2" d="M363,63.7v4.7h-1.2V57.9h1.2v4.7h2.7v-4.7h1.2v10.5h-1.2v-4.7L363,63.7z"/>
<path class="st2" d="M368.1,60.4c-0.1-1.4,1-2.6,2.4-2.7c1.4-0.1,2.6,1,2.7,2.4c0,0.1,0,0.2,0,0.3v5.4c0.1,1.4-1,2.6-2.4,2.7
	c-1.4,0.1-2.6-1-2.7-2.4c0-0.1,0-0.2,0-0.3V60.4z M369.3,65.9c0,1,0.4,1.5,1.3,1.5s1.3-0.6,1.3-1.5v-5.5c0-0.9-0.4-1.5-1.3-1.5
	s-1.3,0.6-1.3,1.5V65.9z"/>
<path class="st2" d="M376.8,59l-0.3,6.8c-0.1,1.7-0.5,2.6-2.2,2.6H374v-1.1c1,0,1.2-0.5,1.2-1.5l0.3-7.9h4.5v10.5h-1.2V59H376.8z"/>
<path class="st2" d="M381.3,60.4c-0.1-1.4,1-2.6,2.4-2.7c1.4-0.1,2.6,1,2.7,2.4c0,0.1,0,0.2,0,0.3v5.4c0.1,1.4-1,2.6-2.4,2.7
	c-1.4,0.1-2.6-1-2.7-2.4c0-0.1,0-0.2,0-0.3V60.4z M382.6,65.9c0,1,0.4,1.5,1.3,1.5s1.3-0.6,1.3-1.5v-5.5c0-0.9-0.4-1.5-1.3-1.5
	s-1.3,0.6-1.3,1.5V65.9z"/>
<path class="st2" d="M388.9,59v9.4h-1.2V57.9h4.4V59H388.9z"/>
<path class="st2" d="M396.2,63.6l-1.6,4.8h-1.3V57.9h1.1v7.8l1-2.9l1.8-4.9h1.4v10.4h-1.1v-8.3L396.2,63.6z"/>
<path class="st2" d="M402.8,63.3l-1.7,5h-1.3V57.9h1.1v7.8l1-3l1.7-4.8h1.4v10.4h-1.1v-8.3L402.8,63.3z M404.2,55.8
	c0,0.9-0.6,1.5-1.7,1.5s-1.7-0.5-1.7-1.5h0.8c0,0.6,0.4,0.8,0.9,0.8s0.9-0.2,1-0.8H404.2z"/>
<path class="st2" d="M127.5,30.4c6.1,0,8.7,3.5,8.7,9.3v4.6c0,6-2.9,9.2-9,9.2h-3.8v15h-4.3V30.4H127.5z M127.2,49.6
	c3.2,0,4.7-1.5,4.7-5.1v-5.1c0-3.5-1.3-5.2-4.4-5.2h-4.1v15.4H127.2z"/>
<path class="st2" d="M149.8,50.8L144,68.5h-4.5V30.4h3.8v28.4l4-12l5.7-16.4h4.8v38.1h-3.9V38.1L149.8,50.8z"/>
<path class="st2" d="M168.1,68.5V34.2h-7.1v-3.9h18.6v3.9h-7.1v34.3H168.1z"/>
<path class="st2" d="M197,68.4h-4.1l-6.4-30.3v30.4h-3.8V30.4h6l6.3,30.4l6.1-30.5h6v38.1h-4.1V37.8L197,68.4z"/>
</svg>
