<svg xmlns="http://www.w3.org/2000/svg" xmlns:xlink="http://www.w3.org/1999/xlink" viewBox="0 0 713.35 265"><defs><style>.cls-1,.cls-12,.cls-13,.cls-14,.cls-2,.cls-3,.cls-5,.cls-9{fill:none;}.cls-12,.cls-13,.cls-14,.cls-2,.cls-3,.cls-7,.cls-9{stroke:#fff;}.cls-2,.cls-3{stroke-width:0.75px;opacity:0.2;}.cls-3{stroke-linecap:square;}.cls-4{clip-path:url(#clip-path);}.cls-5{stroke:#475a6c;}.cls-12,.cls-13,.cls-5,.cls-7{stroke-miterlimit:10;}.cls-12,.cls-14,.cls-5,.cls-7,.cls-9{stroke-width:2px;}.cls-6{fill:url(#Unnamed_Pattern);}.cls-7{fill:url(#Concentric_Circles);}.cls-8{fill:#fff;}.cls-14,.cls-9{stroke-linecap:round;stroke-linejoin:round;}.cls-10{fill:#263b4e;}.cls-11{fill:#00aadb;}.cls-14{stroke-dasharray:1 8;}</style><clipPath id="clip-path"><rect class="cls-1" width="240.95" height="141.73"/></clipPath><pattern id="Unnamed_Pattern" data-name="Unnamed Pattern" width="240.95" height="141.73" patternTransform="matrix(0.71, -0.71, -0.71, -0.71, 11650.24, 11801.06)" patternUnits="userSpaceOnUse" viewBox="0 0 240.94 141.73"><rect class="cls-1" width="240.95" height="141.73"/><g class="cls-4"><line class="cls-5" y1="14.17" x2="240.94" y2="14.17"/><line class="cls-5" y1="42.52" x2="240.94" y2="42.52"/><line class="cls-5" y1="70.87" x2="240.94" y2="70.87"/><line class="cls-5" y1="99.21" x2="240.94" y2="99.21"/><line class="cls-5" y1="127.56" x2="240.94" y2="127.56"/></g></pattern><pattern id="Concentric_Circles" data-name="Concentric Circles" width="86.96" height="65.3" patternUnits="userSpaceOnUse" viewBox="0 0 86.96 65.3"><rect class="cls-1" width="86.96" height="65.3"/><line class="cls-2" x1="81.12" y1="11.16" x2="81.12" y2="21.92"/><line class="cls-2" x1="59.58" y1="11.16" x2="59.58" y2="21.92"/><line class="cls-2" x1="38.04" y1="11.16" x2="38.04" y2="21.92"/><line class="cls-2" x1="16.5" y1="11.16" x2="16.5" y2="21.92"/><line class="cls-2" x1="81.12" y1="32.67" x2="81.12" y2="43.42"/><line class="cls-2" x1="59.58" y1="32.67" x2="59.58" y2="43.42"/><line class="cls-2" x1="38.04" y1="32.67" x2="38.04" y2="43.42"/><line class="cls-2" x1="16.5" y1="32.67" x2="16.5" y2="43.42"/><line class="cls-2" x1="81.12" y1="54.27" x2="81.12" y2="65.3"/><line class="cls-2" x1="59.58" y1="54.27" x2="59.58" y2="65.3"/><line class="cls-2" x1="38.04" y1="54.27" x2="38.04" y2="65.3"/><line class="cls-2" x1="16.5" y1="54.27" x2="16.5" y2="65.3"/><line class="cls-2" x1="70.33" y1="43.42" x2="70.33" y2="54.17"/><line class="cls-2" x1="48.79" y1="43.42" x2="48.79" y2="54.17"/><line class="cls-2" x1="27.25" y1="43.42" x2="27.25" y2="54.17"/><line class="cls-2" x1="5.7" y1="43.42" x2="5.7" y2="54.17"/><line class="cls-2" x1="70.33" y1="21.92" x2="70.33" y2="32.67"/><line class="cls-2" x1="48.79" y1="21.92" x2="48.79" y2="32.67"/><line class="cls-2" x1="27.25" y1="21.92" x2="27.25" y2="32.67"/><line class="cls-2" x1="5.7" y1="21.92" x2="5.7" y2="32.67"/><line class="cls-2" x1="70.33" y1="0.41" x2="70.33" y2="11.16"/><line class="cls-2" x1="48.79" y1="0.41" x2="48.79" y2="11.16"/><line class="cls-2" x1="27.25" y1="0.41" x2="27.25" y2="11.16"/><line class="cls-2" x1="5.7" y1="0.41" x2="5.7" y2="11.16"/><line class="cls-3" x1="0.38" y1="0.38" x2="86.58" y2="0.38"/><line class="cls-3" x1="0.38" y1="11.15" x2="86.58" y2="11.15"/><line class="cls-3" x1="0.38" y1="21.92" x2="86.58" y2="21.92"/><line class="cls-3" x1="0.38" y1="32.69" x2="86.58" y2="32.69"/><line class="cls-3" x1="0.38" y1="43.46" x2="86.58" y2="43.46"/><line class="cls-3" x1="0.38" y1="54.24" x2="86.58" y2="54.24"/></pattern></defs><g id="Layer_2" data-name="Layer 2"><g id="Layer_1-2" data-name="Layer 1"><polygon class="cls-6" points="0 231.8 0 265 713.35 265 677.51 231.8 0 231.8"/><line class="cls-7" y1="227" x2="681.35" y2="227"/><path class="cls-8" d="M146.52,203.41a2.57,2.57,0,0,1-1.2-.3,2.63,2.63,0,0,1-1.14-3.54,11,11,0,0,1,1.85-2.24c.82-.78,2-1.76,3.09-1.22,1.22.63.79,2.52.63,3.23a13.49,13.49,0,0,1-.88,2.63,2.63,2.63,0,0,1-1.54,1.31,2.85,2.85,0,0,1-.81.13m1.36-5a10.67,10.67,0,0,0-1.9,2.11.61.61,0,0,0,.26.83.7.7,0,0,0,.47,0,.58.58,0,0,0,.36-.31,11.28,11.28,0,0,0,.81-2.67"/><path class="cls-8" d="M172.79,215.89a2.71,2.71,0,0,1-.87-.88,2.64,2.64,0,0,1,.89-3.62,10.53,10.53,0,0,1,2.74-.93c1.12-.24,2.67-.43,3.28.58.71,1.17-.65,2.56-1.16,3.08a13.58,13.58,0,0,1-2.13,1.78,2.62,2.62,0,0,1-2,.3,2.7,2.7,0,0,1-.76-.31m3.79-3.56a10,10,0,0,0-2.72.79.61.61,0,0,0,.17,1.12.62.62,0,0,0,.46-.07,12,12,0,0,0,2.09-1.84"/><path class="cls-8" d="M196.83,202.05a2.55,2.55,0,0,1-1.08-.59,2.65,2.65,0,0,1-.16-3.73,10.46,10.46,0,0,1,2.38-1.66c1-.54,2.44-1.16,3.31-.36s.09,2.64-.25,3.28a13.72,13.72,0,0,1-1.56,2.31,2.63,2.63,0,0,1-1.82.85,2.5,2.5,0,0,1-.82-.1m2.65-4.47a10.09,10.09,0,0,0-2.4,1.52.62.62,0,0,0,0,.87.6.6,0,0,0,.44.16.62.62,0,0,0,.42-.2,11.5,11.5,0,0,0,1.5-2.35"/><path class="cls-8" d="M154.28,188.76a2.64,2.64,0,0,1-4.47-.51,10.5,10.5,0,0,1-.63-2.83c-.11-1.13-.13-2.69.93-3.19,1.25-.58,2.48.92,2.94,1.48a14.26,14.26,0,0,1,1.54,2.32,2.69,2.69,0,0,1-.31,2.73m-3.13-4.16a10.27,10.27,0,0,0,.49,2.8.62.62,0,0,0,.82.3.61.61,0,0,0,.32-.35.69.69,0,0,0,0-.47,12.23,12.23,0,0,0-1.61-2.28"/><path class="cls-8" d="M138.9,206.59a2.59,2.59,0,0,1-1,.7,2.64,2.64,0,0,1-3.4-1.53,10.94,10.94,0,0,1-.42-2.87c0-1.14.06-2.7,1.17-3.12,1.28-.48,2.39,1.1,2.81,1.7a13.41,13.41,0,0,1,1.37,2.42,2.6,2.6,0,0,1-.06,2,2.74,2.74,0,0,1-.45.69m-2.81-4.38a10.08,10.08,0,0,0,.28,2.83.61.61,0,0,0,.79.36.57.57,0,0,0,.34-.32.59.59,0,0,0,0-.47,12.16,12.16,0,0,0-1.43-2.4"/><path class="cls-8" d="M191.65,209.63a2.75,2.75,0,0,1-.77,1,2.64,2.64,0,0,1-3.7-.47,10.38,10.38,0,0,1-1.24-2.62c-.36-1.08-.73-2.59.2-3.32,1.08-.84,2.61.35,3.19.8a13.61,13.61,0,0,1,2,1.91,2.7,2.7,0,0,1,.31,2.74m-4-3.36a10.07,10.07,0,0,0,1.11,2.61.61.61,0,0,0,.86.11.59.59,0,0,0,.23-.4.62.62,0,0,0-.12-.46,11.82,11.82,0,0,0-2.08-1.86"/><path class="cls-9" d="M276.93,23.79a36.66,36.66,0,0,0-.46,5.81c0,.89,0,1.78.13,2.65a16,16,0,0,0-1.08,5.8,16.77,16.77,0,0,0,17,16.52c1.76,0,10.33-1.34,12.7-2.41"/><path class="cls-9" d="M291.73,19.46a5,5,0,0,1,5,.73"/><path class="cls-9" d="M283.27,20.27a4.71,4.71,0,0,1,2.2,1"/><path class="cls-8" d="M286.44,24.59a10.6,10.6,0,0,0-4.38-.9,10,10,0,0,0-5.55,1.55,6,6,0,0,0,0,.74,5.08,5.08,0,1,0,10.13,0,5.75,5.75,0,0,0-.16-1.39"/><path class="cls-8" d="M290.2,23.61a19,19,0,0,1,11,0,6.39,6.39,0,0,1,.24,1.76,5.77,5.77,0,1,1-11.52,0,6.8,6.8,0,0,1,.24-1.76"/><path class="cls-9" d="M287.4,31.6c-.06,2.23-2.84,2.78-2.38,4.45.72,2.61,4.49,1.61,4.49,1.61"/><path class="cls-9" d="M282.35,42.64c0,1.41,2,1.62,4,1.62a17.84,17.84,0,0,0,7.37-1.62,41.39,41.39,0,0,0,3.88-2.74"/><path class="cls-9" d="M297.58,39.9c-1.27,2.72-5.83,8.59-9.89,8.38-3-.16-2.78-3.3-2.65-4.06"/><path class="cls-9" d="M297.72,37.83a1.84,1.84,0,0,1,2.12,2.94"/><path class="cls-9" d="M308.82,27.08c-17.29-5.81-13.13-16.59-11.1-19.38,3-4.06,4.83-6.82,9.82-6.7,9.58.24,12.16,6.9,13.43,16.75s-1.06,23,3.23,31.26,7.19,12.25,10.92,12.6-4.78,5-10,5.07c-5.56.1-17-1-18.94-8.73s-2.71-33-2.71-33"/><path class="cls-9" d="M291.82,54.57c.37,1.2.77,4.86,0,6.06"/><path class="cls-9" d="M305,52.27c-.35,2.11-.67,5.65-.18,7"/><path class="cls-9" d="M291.82,60.63l-4.37,1.69s-4.23,10.4-6.09,13.23-5.82,6.41-5,10.84,5.78,6.69,6.56,8,4.22,10.63,4.29,12.88-5,11-6.12,22-2.82,33.16-2.82,33.16a32.9,32.9,0,0,0,25.21,6.89c15.55-2,23.09-8.87,23.09-8.87s-4.54-26.36-6.27-33.86c-2.53-11-8.66-20.27-8.66-21.47s2.81-14.92,2.6-19.22-1.89-7.74-3.23-8-2.18,1.26-3.52-3.45-.27-14.18-.27-14.18l-2.41-1S299.49,77,292.19,77.17s-.65-13.16-.37-16.54"/><path class="cls-9" d="M304.8,92a6.64,6.64,0,0,1-5,2.09,7,7,0,0,1-4.14-1.29"/><path class="cls-9" d="M269.28,24.93a32.16,32.16,0,0,0,0,7.47c1.27,11.05,7.88,17.08,8.77,19.87,1.58,5-1.8,9.48-4.12,10.12s4.26,4.77,6.34,4.71"/><path class="cls-10" d="M298.67,24.12a2,2,0,1,1-2-2,2,2,0,0,1,2,2"/><path class="cls-10" d="M284.32,24.94a2,2,0,1,1-2-2,2,2,0,0,1,2,2"/><path class="cls-9" d="M287.45,62.32c-7.6,2-10.55,8.44-9.55,18"/><path class="cls-9" d="M278.36,90.33c0,10.53-.5,15.72-1.35,17.19s-18.86,2.89-20.27,2.89"/><path class="cls-9" d="M256.74,115.91c2.75,0,24.87.42,26.14-1.27s3.51-10.78,3.51-10.78"/><path class="cls-9" d="M316.07,192.37c1.22.22,1.95.5,1.95.8"/><path class="cls-9" d="M301.54,193.17c0-.28.61-.53,1.64-.74"/><path class="cls-9" d="M301.54,193.17c0,.69,3.69,1.25,8.24,1.25s8.24-.56,8.24-1.25"/><path class="cls-9" d="M318,193.17c-.13,4.46-2.26,16.41-2.39,17.6s.95,6,.93,7.08a27.54,27.54,0,0,1-.53,4.62s-3.46-.06-4.75-.24a16.45,16.45,0,0,0-4.75.16,61,61,0,0,1-9.78,1.46c-6.51,0-8.74-.67-8.74-.67s-.72-3.59,1.36-4.89c1.85-1.16,4.59-.5,5.09-.67s8.08-3.9,8.55-4.7.53-.64.56-2.75-2-17-2-17"/><line class="cls-9" x1="288.01" y1="223.18" x2="287.71" y2="225.01"/><path class="cls-9" d="M287.71,225c.75.78,9,1.19,10.85,1,4.65-.4,8-1.77,9.21-1.94,2.39-.34,3,1.1,3,1.1H316l.07-2.73"/><path class="cls-9" d="M301.41,169.65c.37,4.72,1.26,15.81,1.88,24.29"/><path class="cls-9" d="M315.76,194A58.91,58.91,0,0,0,317,183.26c0-8.3-1.08-12.36-1.46-13.79a27.92,27.92,0,0,0-1-2.62"/><path class="cls-11" d="M482.35,225.17c-14.37,0-45.79-.75-63.64-6.83-8-2.73-27.57-12.84-35.86-47.55s-34.68-36-39.86-36c-7.86.11-10.29,2.1-12.23,3.7a16.14,16.14,0,0,1-2.16,1.56c-10.24,5.83-27.05,5.58-36.71-.54a92.4,92.4,0,0,1-12.57-10.18c-5.07-4.62-9.87-9-15.24-11.11l-27.69-2.9.6-5.28,28.41,3,.34.13c6.5,2.44,12,7.46,17.35,12.32a88.84,88.84,0,0,0,11.81,9.6c8,5.05,22.42,5.24,30.91.4a11.11,11.11,0,0,0,1.4-1c2.34-1.92,5.87-4.82,15.7-4.95A43.69,43.69,0,0,1,367.43,137c10.27,6.94,17.26,17.91,20.77,32.61,7.68,32.14,25.17,41.29,32.33,43.73,22.23,7.58,68.7,6.47,69.17,6.46h.07l121.22.07v5.31l-121.18-.07c-.55,0-3.29.08-7.46.08"/><path class="cls-12" d="M482.35,225.17c-14.37,0-45.79-.75-63.64-6.83-8-2.73-27.57-12.84-35.86-47.55s-34.68-36-39.86-36c-7.86.11-10.29,2.1-12.23,3.7a16.14,16.14,0,0,1-2.16,1.56c-10.24,5.83-27.05,5.58-36.71-.54a92.4,92.4,0,0,1-12.57-10.18c-5.07-4.62-9.87-9-15.24-11.11l-27.69-2.9.6-5.28,28.41,3,.34.13c6.5,2.44,12,7.46,17.35,12.32a88.84,88.84,0,0,0,11.81,9.6c8,5.05,22.42,5.24,30.91.4a11.11,11.11,0,0,0,1.4-1c2.34-1.92,5.87-4.82,15.7-4.95A43.69,43.69,0,0,1,367.43,137c10.27,6.94,17.26,17.91,20.77,32.61,7.68,32.14,25.17,41.29,32.33,43.73,22.23,7.58,68.7,6.47,69.17,6.46h.07l121.22.07v5.31l-121.18-.07C489.26,225.11,486.52,225.17,482.35,225.17Z"/><polyline class="cls-13" points="238.54 110.24 241.29 115.88 245.5 110.97 247.49 116.53 252.46 111.7 254.78 117.13 258.73 112.35 261.3 117.97 265.74 113.18 266.6 119.44 271.58 116.63 271.35 122.53 277.74 120.75 276.52 126.84 283.09 125.5 282.14 131.93 288.81 130.57 288.81 137.43 295.16 135.26 296.87 141.98 302.23 138.05 305.89 144.04 310.98 139.01 315.5 144.04 319.1 138.06 324.2 142.09 325.19 135.85 330.78 138.95 331.31 132.11 336.59 135.41 339.7 129.82 344.26 134.85 348.94 129.91 351.78 135.89 357.76 132.08 359.15 138.46 365.88 135.98 366.02 142.6 373.49 141.9 372.2 148.47 379.78 149.5 377.24 155.83 384.08 157.31 380.6 163.26 387.12 165.54 382.85 170.79 389.18 173.37 385.06 178.72 391.88 181.59 388.04 186.67 394.98 188.66 392.35 195.21 399.62 196.48 397.77 203.04 404.98 203.04 404.37 209.88 412.11 209.06 413.12 215.9 420.53 213.32 423.69 219.82 430.94 215.99 435.67 222.21 442.71 217.78 447.25 223.63 453.87 218.84 458.79 224.51 464.65 219.46 469.11 224.97 475.37 219.77 480.68 225.17 486.65 219.82 492.51 225.17 498.73 219.78 504.39 225.1 510.56 219.79 516.47 225.11 522.33 219.79 528.65 225.12 534.31 219.8 539.82 225.12 545.89 219.81 551.15 224.93 558.47 219.81 563.73 225.14 570.4 219.82 575.71 225.17 582.07 219.83 587.94 225.15 594.75 219.84 600.47 225.16 605.83 219.84 610.99 225.16"/><polyline class="cls-13" points="237.47 115.48 242.22 110.63 244.63 116.23 248.58 111.29 250.72 116.86 255.44 112.01 258.14 117.64 262.19 112.72 264.27 118.34 268.44 114.36 268.44 120.51 274.93 118.49 274.07 124.71 280.03 122.74 279.32 129.37 285.76 127.92 285.02 134.43 292.18 133.24 292.18 139.73 298.86 137.03 300.5 143.09 306.75 138.81 310.59 144.3 315.16 138.75 320.06 143.29 322.29 137.11 327.66 140.46 327.75 134.02 333.1 136.85 335 130.43 340.18 134.97 344.31 129.52 347.75 135.14 353.43 130.78 355.3 136.91 361.95 133.84 362.07 139.97 369.75 138.66 369.1 145.2 377.05 145.8 374.93 152.05 382.25 153.6 379.01 159.38 385.9 161.82 381.86 167.09 388.2 169.59 383.81 174.51 390.4 177.42 386.5 182.83 393.34 185.16 390.07 191.03 397.36 192.98 394.83 199.1 402.15 199.85 400.78 206.45 408.17 206.04 408.55 213.12 416.1 211.43 417.94 218.07 425.43 214.76 429.26 221.09 436.85 217 441.14 222.97 448.4 218.38 452.44 224.09 459.29 219.19 463.88 224.77 469.64 219.64 474.38 225.1 481.17 219.84 486.25 225.1 492.37 219.78 498.46 225.1 504.82 219.78 510.57 225.1 516.92 219.79 522.52 225.1 528.65 219.8 533.87 225.1 539.96 219.81 545.3 225.17 551.54 219.81 557.48 225.13 563.79 219.82 569.92 225.17 575.97 219.82 581.61 225.17 588.56 219.83 594.96 225.16 600.71 219.84 606.46 225.16 610.99 219.84"/><path class="cls-9" d="M299.17,219.26c-1.88-.69-3.44-1.64-4.71-1.64"/><path class="cls-9" d="M289.2,193.17c0-.28.61-.53,1.64-.74"/><path class="cls-9" d="M289.2,193.17c0,.69,3.69,1.25,8.25,1.25,1.55,0,3-.06,4.24-.18"/><path class="cls-9" d="M288,223.53a28.39,28.39,0,0,1-3.54.32c-6.5,0-8.74-.67-8.74-.67s-.71-3.59,1.37-4.89c1.85-1.16,4.58-.5,5.08-.67s8.09-3.9,8.55-4.7.54-.64.57-2.75-2-17-2-17"/><line class="cls-9" x1="275.67" y1="223.18" x2="275.38" y2="225.01"/><path class="cls-9" d="M288.58,223.92c.88.92,10.6,1.4,12.79,1.21a37.21,37.21,0,0,0,3.91-.55"/><path class="cls-9" d="M288.8,168.13c.37,4.73,1.53,17.33,2.16,25.81"/><path class="cls-9" d="M286.83,219.26c-1.87-.69-3.44-1.64-4.71-1.64"/><path class="cls-9" d="M319.06,66.32c2.81,4.08,13.45,61.87,14,64.14"/><path class="cls-9" d="M328,131c-1.83-6.89-9.56-39.84-13.78-45.05"/><path class="cls-10" d="M333.73,139.14c.7-.62,1.38-.85,1.77-1.67.74-1.59.63-6-2.45-7L328,131a4.64,4.64,0,0,0-1.75,2.76,6.19,6.19,0,0,0-.09,2.41c0,.24.49-.72,1.25-.94.59-.18.84-.28,1.3-.06a2.92,2.92,0,0,1,1.22,2.39,7.07,7.07,0,0,1-.86,3,1.27,1.27,0,0,1-.41.37,2.47,2.47,0,0,0,1.69.49,4.42,4.42,0,0,0,1.8-.79"/><path class="cls-9" d="M328,131a4.69,4.69,0,0,0-1.75,2.77,6.19,6.19,0,0,0-.09,2.41c0,.24.49-.72,1.25-.94.59-.18.84-.28,1.3-.06a2.92,2.92,0,0,1,1.22,2.39,7,7,0,0,1-.86,3,1.27,1.27,0,0,1-.41.37,2.47,2.47,0,0,0,1.69.49c.91-.14,1.57-1.18,1.81-1.75a11.16,11.16,0,0,0,.28-2.42"/><path class="cls-9" d="M331.27,140.94a3.45,3.45,0,0,0,2.36-1.57,10,10,0,0,0,.56-2.92"/><path class="cls-9" d="M333.73,139.14c.7-.62,1.38-.85,1.77-1.67.74-1.59.63-6-2.45-7"/><path class="cls-10" d="M247.73,117.58a2.31,2.31,0,0,0,2.41,1.66,3.61,3.61,0,0,0,2.49-2.51,1.35,1.35,0,0,0-1.59-1.36c-.64,0-1.62,1.75-1.62,2"/><path class="cls-10" d="M252.16,115.66c1.59-.83,2.68.16,2.61,1a3.13,3.13,0,0,1-4.06,2.46"/><path class="cls-10" d="M254.52,116c1.4-.58,2.29.24,2.22,1.09s-1.25,2.13-3.45,1.76"/><path class="cls-9" d="M247.73,117.43a2.31,2.31,0,0,0,2.41,1.66,3.61,3.61,0,0,0,2.49-2.51,1.35,1.35,0,0,0-1.59-1.36c-.64,0-1.62,1.75-1.62,2"/><path class="cls-9" d="M252.16,115.51c1.59-.83,2.68.16,2.61,1a3.13,3.13,0,0,1-4.06,2.46"/><path class="cls-9" d="M254.52,115.85c1.4-.58,2.29.24,2.22,1.09s-1.25,2.13-3.45,1.76"/><path class="cls-8" d="M283.66,24.15a.68.68,0,1,1-.68-.68.68.68,0,0,1,.68.68"/><path class="cls-8" d="M298.07,23.34a.69.69,0,0,1-1.37,0,.69.69,0,0,1,1.37,0"/><path class="cls-10" d="M140.94,172.16a3.95,3.95,0,1,1-3-4.7,3.95,3.95,0,0,1,3,4.7"/><path class="cls-12" d="M140.94,172.16a3.95,3.95,0,1,1-3-4.7A3.95,3.95,0,0,1,140.94,172.16Z"/><path class="cls-10" d="M142,162.51c-.68,3.07-2.49,5.29-4,5s-2.25-3.12-1.57-6.19,2.49-5.3,4-5,2.24,3.12,1.56,6.2"/><path class="cls-12" d="M142,162.51c-.68,3.07-2.49,5.29-4,5s-2.25-3.12-1.57-6.19,2.49-5.3,4-5S142.65,159.43,142,162.51Z"/><path class="cls-10" d="M134.31,161.63c1.7,2.66,2,5.5.66,6.35s-3.79-.61-5.49-3.27-2-5.5-.65-6.35,3.79.61,5.48,3.27"/><path class="cls-12" d="M134.31,161.63c1.7,2.66,2,5.5.66,6.35s-3.79-.61-5.49-3.27-2-5.5-.65-6.35S132.62,159,134.31,161.63Z"/><path class="cls-10" d="M128.28,166.43c3.08.68,5.3,2.48,4.95,4S130.12,172.7,127,172s-5.29-2.48-5-4,3.11-2.24,6.19-1.56"/><path class="cls-12" d="M128.28,166.43c3.08.68,5.3,2.48,4.95,4S130.12,172.7,127,172s-5.29-2.48-5-4S125.2,165.75,128.28,166.43Z"/><path class="cls-10" d="M127.41,174.08c2.65-1.69,5.5-2,6.35-.65s-.61,3.79-3.27,5.48-5.5,2-6.35.66.61-3.79,3.27-5.49"/><path class="cls-12" d="M127.41,174.08c2.65-1.69,5.5-2,6.35-.65s-.61,3.79-3.27,5.48-5.5,2-6.35.66S124.75,175.78,127.41,174.08Z"/><path class="cls-10" d="M132.2,180.12c.68-3.08,2.49-5.3,4-5s2.25,3.12,1.57,6.19-2.49,5.3-4,5-2.25-3.12-1.57-6.19"/><path class="cls-12" d="M132.2,180.12c.68-3.08,2.49-5.3,4-5s2.25,3.12,1.57,6.19-2.49,5.3-4,5S131.52,183.19,132.2,180.12Z"/><path class="cls-10" d="M139.86,181c-1.7-2.66-2-5.5-.65-6.35s3.79.61,5.48,3.27,2,5.5.65,6.35-3.79-.61-5.48-3.27"/><path class="cls-12" d="M139.86,181c-1.7-2.66-2-5.5-.65-6.35s3.79.61,5.48,3.27,2,5.5.65,6.35S141.55,183.65,139.86,181Z"/><path class="cls-10" d="M145.89,176.19c-3.08-.68-5.29-2.48-4.95-4s3.11-2.24,6.19-1.56,5.29,2.48,5,4-3.11,2.24-6.19,1.56"/><path class="cls-12" d="M145.89,176.19c-3.08-.68-5.29-2.48-4.95-4s3.11-2.24,6.19-1.56,5.29,2.48,5,4S149,176.87,145.89,176.19Z"/><path class="cls-10" d="M146.76,168.54c-2.65,1.69-5.5,2-6.35.65s.62-3.79,3.27-5.48,5.51-2,6.36-.66-.62,3.79-3.28,5.49"/><path class="cls-12" d="M146.76,168.54c-2.65,1.69-5.5,2-6.35.65s.62-3.79,3.27-5.48,5.51-2,6.36-.66S149.42,166.84,146.76,168.54Z"/><path class="cls-10" d="M173.53,157.23a3.95,3.95,0,1,1-3.94-3.95,3.94,3.94,0,0,1,3.94,3.95"/><path class="cls-12" d="M173.53,157.23a3.95,3.95,0,1,1-3.94-3.95A3.94,3.94,0,0,1,173.53,157.23Z"/><path class="cls-10" d="M172.45,147.58c0,3.15-1.28,5.7-2.86,5.7s-2.87-2.55-2.87-5.7,1.28-5.71,2.87-5.71,2.86,2.56,2.86,5.71"/><path class="cls-12" d="M172.45,147.58c0,3.15-1.28,5.7-2.86,5.7s-2.87-2.55-2.87-5.7,1.28-5.71,2.87-5.71S172.45,144.43,172.45,147.58Z"/><path class="cls-10" d="M164.79,148.38c2.23,2.23,3.13,4.94,2,6.06s-3.84.22-6.06-2-3.13-4.94-2-6.06,3.83-.22,6.06,2"/><path class="cls-12" d="M164.79,148.38c2.23,2.23,3.13,4.94,2,6.06s-3.84.22-6.06-2-3.13-4.94-2-6.06S162.56,146.15,164.79,148.38Z"/><path class="cls-10" d="M159.94,154.37c3.15,0,5.7,1.28,5.7,2.86s-2.55,2.87-5.7,2.87-5.71-1.29-5.71-2.87,2.55-2.86,5.71-2.86"/><path class="cls-12" d="M159.94,154.37c3.15,0,5.7,1.28,5.7,2.86s-2.55,2.87-5.7,2.87-5.71-1.29-5.71-2.87S156.78,154.37,159.94,154.37Z"/><path class="cls-10" d="M160.74,162c2.23-2.23,4.94-3.13,6.06-2s.22,3.83-2,6.06-4.94,3.13-6.06,2-.22-3.83,2-6.06"/><path class="cls-12" d="M160.74,162c2.23-2.23,4.94-3.13,6.06-2s.22,3.83-2,6.06-4.94,3.13-6.06,2S158.51,164.26,160.74,162Z"/><path class="cls-10" d="M166.72,166.88c0-3.15,1.28-5.7,2.87-5.7s2.86,2.55,2.86,5.7-1.28,5.71-2.86,5.71-2.87-2.56-2.87-5.71"/><path class="cls-12" d="M166.72,166.88c0-3.15,1.28-5.7,2.87-5.7s2.86,2.55,2.86,5.7-1.28,5.71-2.86,5.71S166.72,170,166.72,166.88Z"/><path class="cls-10" d="M174.39,166.08c-2.23-2.23-3.13-4.94-2-6.06s3.83-.22,6.06,2,3.13,4.94,2,6.06-3.84.22-6.06-2"/><path class="cls-12" d="M174.39,166.08c-2.23-2.23-3.13-4.94-2-6.06s3.83-.22,6.06,2,3.13,4.94,2,6.06S176.61,168.31,174.39,166.08Z"/><path class="cls-10" d="M179.24,160.1c-3.15,0-5.71-1.29-5.71-2.87s2.56-2.86,5.71-2.86,5.71,1.28,5.71,2.86-2.56,2.87-5.71,2.87"/><path class="cls-12" d="M179.24,160.1c-3.15,0-5.71-1.29-5.71-2.87s2.56-2.86,5.71-2.86,5.71,1.28,5.71,2.86S182.39,160.1,179.24,160.1Z"/><path class="cls-10" d="M178.44,152.43c-2.23,2.23-4.94,3.13-6.06,2s-.22-3.83,2-6.06,4.94-3.13,6.06-2,.22,3.83-2,6.06"/><path class="cls-12" d="M178.44,152.43c-2.23,2.23-4.94,3.13-6.06,2s-.22-3.83,2-6.06,4.94-3.13,6.06-2S180.67,150.2,178.44,152.43Z"/><path class="cls-10" d="M206.36,170.82a4.54,4.54,0,1,1-5-4,4.54,4.54,0,0,1,5,4"/><path class="cls-12" d="M206.36,170.82a4.54,4.54,0,1,1-5-4A4.54,4.54,0,0,1,206.36,170.82Z"/><path class="cls-10" d="M203.93,159.92c.39,3.6-.76,6.68-2.57,6.88s-3.59-2.56-4-6.16.75-6.69,2.56-6.88,3.59,2.56,4,6.16"/><path class="cls-12" d="M203.93,159.92c.39,3.6-.76,6.68-2.57,6.88s-3.59-2.56-4-6.16.75-6.69,2.56-6.88S203.53,156.32,203.93,159.92Z"/><path class="cls-10" d="M195.27,161.79c2.82,2.27,4.19,5.26,3,6.68s-4.36.73-7.18-1.54-4.19-5.26-3-6.68,4.35-.73,7.18,1.54"/><path class="cls-12" d="M195.27,161.79c2.82,2.27,4.19,5.26,3,6.68s-4.36.73-7.18-1.54-4.19-5.26-3-6.68S192.44,159.52,195.27,161.79Z"/><path class="cls-10" d="M190.46,169.24c3.61-.4,6.69.75,6.88,2.56s-2.56,3.59-6.16,4-6.69-.76-6.88-2.57,2.56-3.59,6.16-4"/><path class="cls-12" d="M190.46,169.24c3.61-.4,6.69.75,6.88,2.56s-2.56,3.59-6.16,4-6.69-.76-6.88-2.57S186.86,169.63,190.46,169.24Z"/><path class="cls-10" d="M192.33,177.9c2.27-2.83,5.26-4.19,6.68-3.05s.73,4.35-1.54,7.17-5.26,4.2-6.68,3.06-.73-4.36,1.54-7.18"/><path class="cls-12" d="M192.33,177.9c2.27-2.83,5.26-4.19,6.68-3.05s.73,4.35-1.54,7.17-5.26,4.2-6.68,3.06S190.06,180.72,192.33,177.9Z"/><path class="cls-10" d="M199.78,182.7c-.39-3.6.76-6.68,2.56-6.88s3.6,2.56,4,6.17-.76,6.68-2.57,6.88-3.59-2.57-4-6.17"/><path class="cls-12" d="M199.78,182.7c-.39-3.6.76-6.68,2.56-6.88s3.6,2.56,4,6.17-.76,6.68-2.57,6.88S200.17,186.3,199.78,182.7Z"/><path class="cls-10" d="M208.44,180.83c-2.83-2.27-4.19-5.26-3.05-6.68s4.35-.72,7.18,1.54,4.19,5.27,3.05,6.68-4.36.73-7.18-1.54"/><path class="cls-12" d="M208.44,180.83c-2.83-2.27-4.19-5.26-3.05-6.68s4.35-.72,7.18,1.54,4.19,5.27,3.05,6.68S211.26,183.1,208.44,180.83Z"/><path class="cls-10" d="M213.24,173.38c-3.6.4-6.68-.75-6.88-2.56s2.57-3.59,6.17-4,6.68.75,6.88,2.56-2.57,3.59-6.17,4"/><path class="cls-12" d="M213.24,173.38c-3.6.4-6.68-.75-6.88-2.56s2.57-3.59,6.17-4,6.68.75,6.88,2.56S216.84,173,213.24,173.38Z"/><path class="cls-10" d="M211.37,164.72c-2.27,2.83-5.26,4.19-6.68,3.06s-.72-4.36,1.55-7.18,5.26-4.19,6.67-3,.73,4.35-1.54,7.17"/><path class="cls-12" d="M211.37,164.72c-2.27,2.83-5.26,4.19-6.68,3.06s-.72-4.36,1.55-7.18,5.26-4.19,6.67-3S213.64,161.9,211.37,164.72Z"/><path class="cls-10" d="M178.5,191.84a3.21,3.21,0,1,1-3.21-3.2,3.21,3.21,0,0,1,3.21,3.2"/><path class="cls-12" d="M178.5,191.84a3.21,3.21,0,1,1-3.21-3.2A3.21,3.21,0,0,1,178.5,191.84Z"/><path class="cls-10" d="M177.62,184c0,2.56-1,4.63-2.33,4.63S173,186.57,173,184s1-4.63,2.32-4.63,2.33,2.07,2.33,4.63"/><ellipse class="cls-12" cx="175.29" cy="184.01" rx="2.33" ry="4.63"/><path class="cls-10" d="M171.4,184.66c1.81,1.81,2.54,4,1.63,4.92s-3.11.18-4.92-1.63-2.54-4-1.63-4.92,3.11-.18,4.92,1.63"/><path class="cls-12" d="M171.4,184.66c1.81,1.81,2.54,4,1.63,4.92s-3.11.18-4.92-1.63-2.54-4-1.63-4.92S169.59,182.85,171.4,184.66Z"/><path class="cls-10" d="M167.46,189.52c2.56,0,4.63,1,4.63,2.32s-2.07,2.33-4.63,2.33-4.64-1-4.64-2.33,2.08-2.32,4.64-2.32"/><path class="cls-12" d="M167.46,189.52c2.56,0,4.63,1,4.63,2.32s-2.07,2.33-4.63,2.33-4.64-1-4.64-2.33S164.9,189.52,167.46,189.52Z"/><path class="cls-10" d="M168.11,195.74c1.81-1.81,4-2.54,4.92-1.63s.18,3.11-1.63,4.92-4,2.54-4.92,1.63-.18-3.11,1.63-4.92"/><path class="cls-12" d="M168.11,195.74c1.81-1.81,4-2.54,4.92-1.63s.18,3.11-1.63,4.92-4,2.54-4.92,1.63S166.3,197.55,168.11,195.74Z"/><path class="cls-10" d="M173,199.68c0-2.56,1-4.63,2.32-4.63s2.33,2.07,2.33,4.63-1,4.63-2.33,4.63-2.32-2.07-2.32-4.63"/><ellipse class="cls-12" cx="175.29" cy="199.68" rx="2.33" ry="4.63"/><path class="cls-10" d="M179.19,199c-1.81-1.81-2.54-4-1.63-4.92s3.11-.18,4.92,1.63,2.54,4,1.63,4.92-3.11.18-4.92-1.63"/><path class="cls-12" d="M179.19,199c-1.81-1.81-2.54-4-1.63-4.92s3.11-.18,4.92,1.63,2.54,4,1.63,4.92S181,200.84,179.19,199Z"/><path class="cls-10" d="M183.13,194.17c-2.56,0-4.63-1-4.63-2.32s2.07-2.33,4.63-2.33,4.63,1,4.63,2.33-2.07,2.32-4.63,2.32"/><path class="cls-12" d="M183.13,194.17c-2.56,0-4.63-1-4.63-2.32s2.07-2.33,4.63-2.33,4.63,1,4.63,2.33S185.69,194.17,183.13,194.17Z"/><path class="cls-10" d="M182.48,188c-1.81,1.81-4,2.54-4.92,1.63s-.18-3.11,1.63-4.92,4-2.54,4.92-1.63.18,3.11-1.63,4.92"/><path class="cls-12" d="M182.48,188c-1.81,1.81-4,2.54-4.92,1.63s-.18-3.11,1.63-4.92,4-2.54,4.92-1.63S184.29,186.14,182.48,188Z"/><path class="cls-12" d="M138.05,178.92c3.95,10,5.94,17.78,3,28-1.63,5.67-4.51,14.12-4.79,19.59"/><path class="cls-12" d="M173,200.24c-2.4,9.19-3.71,14.53-3.38,18.56a67.63,67.63,0,0,1,.16,7.73"/><path class="cls-12" d="M166.72,166.88c-4,8.86-9.3,13.85-10.61,20.3-1.72,8.41,3.19,16,3.82,22.27,1,9.62-.47,12.44-2.13,17.08"/><path class="cls-12" d="M199.32,180c-4.09,12-6.5,17.09-6.12,27.8s1,14,1,18.77"/><line class="cls-9" x1="209.74" y1="226.26" x2="218.01" y2="214.61"/><line class="cls-9" x1="209.74" y1="226.26" x2="212.89" y2="207.46"/><line class="cls-9" x1="209.74" y1="226.26" x2="207.39" y2="220.24"/><line class="cls-9" x1="206.39" y1="218.04" x2="204.72" y2="214.52"/><line class="cls-9" x1="118.63" y1="226.53" x2="119.9" y2="216.28"/><line class="cls-9" x1="118.63" y1="226.53" x2="115.67" y2="213.38"/><path class="cls-12" d="M233.6,118.15l-24.18-2.55a2.54,2.54,0,0,1-2.25-2.79l.65-6.13a2.53,2.53,0,0,1,2.78-2.26L234.78,107a2.55,2.55,0,0,1,2.26,2.79l-.65,6.14A2.54,2.54,0,0,1,233.6,118.15Z"/><rect class="cls-12" x="209.6" y="113.9" width="5.54" height="9.41" rx="1.03" transform="translate(72.14 317.37) rotate(-83.98)"/><line class="cls-14" x1="206.39" y1="122.85" x2="171.25" y2="136.45"/><line class="cls-14" x1="216.27" y1="124.45" x2="237.51" y2="163.17"/><line class="cls-14" x1="212.89" y1="124.85" x2="218.07" y2="158.12"/><line class="cls-14" x1="210.5" y1="124.25" x2="204.45" y2="151.91"/><line class="cls-14" x1="207.47" y1="125.25" x2="187.76" y2="152.31"/><path class="cls-10" d="M251.65,110.7c-.2,2.48-.82,3.37-1.18,2.88-.66-.92-1.4-3-.76-4.09a2.6,2.6,0,0,1,2.42-.81,11.89,11.89,0,0,1,4.29,2l-4.77,0"/><path class="cls-9" d="M256.42,110.44a11.94,11.94,0,0,0-4.28-2,2.61,2.61,0,0,0-2.43.81,4.33,4.33,0,0,0,.27,4c.41.57,2.19,1.26,2-2.65"/><path class="cls-12" d="M297.72,7.7C294.79,12.2,281,23.87,272.8,24.13s-7.26-1.41-7.26-1.41,5.84-5.89,8-9.15C277.27,8,281.66-4.69,301,3.9"/></g></g></svg>