<svg xmlns="http://www.w3.org/2000/svg" xmlns:xlink="http://www.w3.org/1999/xlink" viewBox="0 0 766 282.91"><defs><style>.cls-1,.cls-3,.cls-7,.cls-8{fill:none;}.cls-2{clip-path:url(#clip-path);}.cls-3{stroke:#475a6c;stroke-miterlimit:10;}.cls-3,.cls-7,.cls-8{stroke-width:2px;}.cls-4{fill:url(#Unnamed_Pattern);}.cls-5{fill:#b1dff3;}.cls-6{fill:#00aadb;}.cls-7{stroke:#fff;}.cls-7,.cls-8{stroke-linecap:round;stroke-linejoin:round;}.cls-8{stroke:#b1dff3;stroke-dasharray:0.8 6.39;}.cls-9{fill:#fff;}.cls-10{fill:#263b4e;}</style><clipPath id="clip-path"><rect class="cls-1" width="240.95" height="141.73"/></clipPath><pattern id="Unnamed_Pattern" data-name="Unnamed Pattern" width="240.95" height="141.73" patternTransform="matrix(0.71, -0.71, -0.71, -0.71, 11650.24, 11801.06)" patternUnits="userSpaceOnUse" viewBox="0 0 240.94 141.73"><rect class="cls-1" width="240.95" height="141.73"/><g class="cls-2"><line class="cls-3" y1="14.17" x2="240.94" y2="14.17"/><line class="cls-3" y1="42.52" x2="240.94" y2="42.52"/><line class="cls-3" y1="70.87" x2="240.94" y2="70.87"/><line class="cls-3" y1="99.21" x2="240.94" y2="99.21"/><line class="cls-3" y1="127.56" x2="240.94" y2="127.56"/></g></pattern></defs><g id="Layer_2" data-name="Layer 2"><g id="Layer_1-2" data-name="Layer 1"><polygon class="cls-4" points="260.28 138.52 260.28 273.24 104 273.24 104 138.52 1 138.52 1 282.91 766 282.91 622 138.52 260.28 138.52"/><path class="cls-5" d="M243,147.2c-6.12,0-11.87-2.19-17.15-2.19a20.22,20.22,0,0,0-9.13,2.19,24.12,24.12,0,0,1-9.87,2.12c-5.66,0-11.16-4.31-16-4.31s-6.36,1.4-8.44,2.19c-2.63,1-5.26,1.74-10.88,0A45.19,45.19,0,0,0,154.37,145a29.89,29.89,0,0,0-9.13,2.19,24.06,24.06,0,0,1-9.87,2.12c-5.66,0-11.16-4.31-16-4.31a17.65,17.65,0,0,0-8.45,2.19V266.35h143V144.05A21.75,21.75,0,0,1,243,147.2"/><path class="cls-6" d="M370.42,123.45l4-2.55V86.4l-4-2.55H358.26V79.38H359l-.05-8.15-2.78-.33H344.83l-22.61,2.88,0,5.6h.71V87H310.82v-9h-6.58v2.4l-5.41,0-8.91,2.15h-5V79.18h-8v3.26H255v.28h-3.27v8H255v27.1l.29,0v9.84h43.47l2.06.43h3.39v1.41h3.68v.72h13V128h-3l-5.66-7.63H351.8v4L350.1,128h-2.16v2.26h9.9V128h-2l-1.7-3.68v-4h2.69v3.11Zm-47.51-13.88-12.09,3.7v-7.5h12.09Zm0-8H310.82V94l12.09,3.7Z"/><line class="cls-7" x1="298.83" y1="127.69" x2="300.85" y2="128.11"/><line class="cls-7" x1="300.85" y1="128.11" x2="304.24" y2="128.11"/><line class="cls-7" x1="356.85" y1="123.45" x2="357.7" y2="123.45"/><line class="cls-7" x1="357.69" y1="83.85" x2="356.85" y2="83.85"/><line class="cls-7" x1="320.93" y1="130.24" x2="320.93" y2="127.97"/><line class="cls-7" x1="322.91" y1="120.34" x2="356.85" y2="120.34"/><line class="cls-7" x1="356.85" y1="90.23" x2="322.91" y2="90.23"/><path class="cls-7" d="M357.84,128.82A.85.85,0,0,0,357,128"/><path class="cls-7" d="M348.79,128a.85.85,0,0,0-.85.85"/><line class="cls-7" x1="357.84" y1="130.23" x2="357.84" y2="128.82"/><line class="cls-7" x1="347.94" y1="128.82" x2="347.94" y2="130.23"/><line class="cls-7" x1="289.92" y1="82.44" x2="259.62" y2="82.44"/><line class="cls-7" x1="255.32" y1="127.69" x2="298.84" y2="127.69"/><line class="cls-7" x1="354.16" y1="124.29" x2="354.16" y2="120.34"/><line class="cls-7" x1="322.91" y1="101.53" x2="310.82" y2="101.53"/><line class="cls-7" x1="310.82" y1="105.77" x2="322.91" y2="105.77"/><line class="cls-7" x1="370.42" y1="123.45" x2="374.38" y2="120.9"/><line class="cls-7" x1="374.38" y1="86.4" x2="370.42" y2="83.85"/><line class="cls-7" x1="357.69" y1="123.45" x2="370.42" y2="123.45"/><line class="cls-7" x1="370.42" y1="83.85" x2="357.69" y2="83.85"/><line class="cls-7" x1="309.62" y1="118.36" x2="307.92" y2="118.36"/><line class="cls-7" x1="304.24" y1="85.83" x2="304.24" y2="121.47"/><line class="cls-7" x1="317.95" y1="127.97" x2="310.82" y2="118.36"/><line class="cls-7" x1="310.42" y1="130.24" x2="307.92" y2="130.24"/><line class="cls-7" x1="307.92" y1="118.36" x2="307.92" y2="130.24"/><path class="cls-7" d="M280.35,123.31l2.14.46,2.14.48,2.13.49,2.14.5,2.11.5,2.1.51,2.1.52,1,.26,1,.25.46.12.43.11.24.06.21.05.21.06h0"/><path class="cls-7" d="M255.32,117.85l12.51,2.74,12.52,2.72"/><path class="cls-7" d="M255,117.81l.29,0"/><line class="cls-7" x1="255.03" y1="115.78" x2="255.03" y2="117.81"/><path class="cls-7" d="M304.24,80.31l-5.41,0"/><line class="cls-7" x1="304.24" y1="127.47" x2="304.24" y2="121.47"/><line class="cls-7" x1="304.24" y1="79.83" x2="304.24" y2="85.83"/><line class="cls-7" x1="356.85" y1="83.85" x2="356.85" y2="123.45"/><polyline class="cls-7" points="320.93 127.97 320.92 127.97 320.83 127.97 320.64 127.97 320.41 127.97 320.17 127.97 318.52 127.97 317.95 127.97"/><polyline class="cls-7" points="320.93 130.24 320.92 130.24 320.83 130.24 320.64 130.24 320.41 130.24 320.17 130.24 318.52 130.24 318.09 130.24 317.66 130.24 317.2 130.24 316.89 130.24"/><line class="cls-7" x1="310.42" y1="130.24" x2="316.89" y2="130.24"/><line class="cls-7" x1="304.24" y1="77.91" x2="304.24" y2="79.83"/><line class="cls-7" x1="255.03" y1="94.76" x2="255.03" y2="96.37"/><line class="cls-7" x1="255.03" y1="115.78" x2="255.03" y2="96.36"/><line class="cls-7" x1="356.99" y1="127.97" x2="348.79" y2="127.97"/><line class="cls-7" x1="357.84" y1="130.23" x2="347.94" y2="130.23"/><line class="cls-7" x1="255.03" y1="82.72" x2="255.03" y2="94.76"/><line class="cls-7" x1="255.03" y1="82.44" x2="259.62" y2="82.44"/><line class="cls-7" x1="255.32" y1="127.69" x2="255.32" y2="123.31"/><line class="cls-7" x1="255.32" y1="123.31" x2="255.32" y2="117.85"/><line class="cls-7" x1="255.03" y1="82.44" x2="255.03" y2="82.72"/><line class="cls-7" x1="353.73" y1="79.39" x2="352.73" y2="79.39"/><path class="cls-7" d="M322.33,73.71a.14.14,0,0,0-.13.14"/><line class="cls-7" x1="322.33" y1="73.71" x2="323.6" y2="73.55"/><line class="cls-7" x1="322.2" y1="79.39" x2="322.2" y2="73.85"/><line class="cls-7" x1="323.62" y1="79.39" x2="322.2" y2="79.39"/><line class="cls-7" x1="352.73" y1="79.39" x2="323.62" y2="79.39"/><line class="cls-7" x1="323.6" y1="73.55" x2="338.86" y2="71.65"/><path class="cls-7" d="M338.86,71.65h0"/><line class="cls-7" x1="338.86" y1="71.65" x2="344.83" y2="70.9"/><line class="cls-7" x1="344.83" y1="70.9" x2="356.14" y2="70.9"/><line class="cls-7" x1="358.79" y1="71.19" x2="356.14" y2="70.9"/><line class="cls-7" x1="358.55" y1="79.39" x2="353.73" y2="79.39"/><polyline class="cls-7" points="358.79 71.19 358.79 71.19 358.8 71.19 358.8 71.19"/><path class="cls-7" d="M358.8,71.19l0,0a.05.05,0,0,1,0,0l0,0s0,0,0,0h0"/><line class="cls-7" x1="358.97" y1="71.34" x2="358.97" y2="79.39"/><line class="cls-7" x1="358.97" y1="79.39" x2="358.55" y2="79.39"/><line class="cls-7" x1="358.8" y1="71.19" x2="358.84" y2="71.2"/><path class="cls-7" d="M359,71.34a.15.15,0,0,0-.13-.14"/><line class="cls-7" x1="358.26" y1="83" x2="357.85" y2="83"/><line class="cls-7" x1="358.26" y1="83" x2="358.26" y2="83.85"/><line class="cls-7" x1="322.91" y1="83" x2="322.91" y2="120.34"/><polyline class="cls-7" points="354.16 93.37 353.41 93.37 347.54 93.37 340.08 93.37 330.47 93.37 325.6 93.37"/><polyline class="cls-7" points="354.16 98.07 353.41 98.07 347.54 98.07 340.08 98.07 330.47 98.07 325.6 98.07"/><polyline class="cls-7" points="354.16 102.78 353.41 102.78 347.54 102.78 340.08 102.78 330.47 102.78 325.6 102.78"/><polyline class="cls-7" points="354.16 107.48 353.41 107.48 347.54 107.48 340.08 107.48 330.47 107.48 325.6 107.48"/><polyline class="cls-7" points="354.16 112.19 353.41 112.19 347.54 112.19 340.08 112.19 330.47 112.19 325.6 112.19"/><polyline class="cls-7" points="354.16 116.89 353.41 116.89 347.54 116.89 340.08 116.89 330.47 116.89 325.6 116.89"/><line class="cls-7" x1="354.16" y1="124.29" x2="355.86" y2="127.97"/><line class="cls-7" x1="351.8" y1="124.29" x2="351.8" y2="120.34"/><line class="cls-7" x1="351.8" y1="124.29" x2="350.1" y2="127.97"/><line class="cls-7" x1="345.53" y1="90.23" x2="345.53" y2="82.83"/><path class="cls-7" d="M328.57,86.53a2.26,2.26,0,1,1,2.26,2.27A2.26,2.26,0,0,1,328.57,86.53Z"/><path class="cls-7" d="M336.2,86.53a2.27,2.27,0,1,1,2.26,2.27A2.26,2.26,0,0,1,336.2,86.53Z"/><polyline class="cls-7" points="374.38 103.65 374.38 106.18 374.38 108.66 374.38 111.03 374.38 113.23 374.38 115.24 374.38 116.99 374.38 118.45 374.38 119.59 374.38 120.39 374.38 120.82 374.38 120.86"/><polyline class="cls-7" points="374.38 103.65 374.38 91.45 374.38 86.61 374.38 86.52 374.38 86.45 374.38 86.41 374.38 86.4"/><line class="cls-7" x1="370.42" y1="123.45" x2="370.42" y2="83.85"/><line class="cls-7" x1="358.97" y1="71.34" x2="358.92" y2="71.33"/><rect class="cls-7" x="304.24" y="77.91" width="3.68" height="51.62"/><rect class="cls-7" x="307.92" y="77.91" width="2.9" height="40.45"/><line class="cls-7" x1="298.83" y1="80.29" x2="255.03" y2="90.85"/><rect class="cls-7" x="251.75" y="82.72" width="3.26" height="7.99"/><rect class="cls-7" x="276.89" y="79.18" width="7.99" height="3.26"/><rect class="cls-7" x="322.91" y="79.39" width="35.35" height="3.45"/><line class="cls-7" x1="322.91" y1="97.73" x2="310.82" y2="94.03"/><line class="cls-7" x1="322.91" y1="109.57" x2="310.82" y2="113.27"/><line class="cls-7" x1="322.91" y1="86.96" x2="310.82" y2="86.96"/><line class="cls-7" x1="322.91" y1="120.34" x2="312.15" y2="120.34"/><line class="cls-7" x1="253.91" y1="266.34" x2="253.91" y2="131.63"/><line class="cls-7" x1="110.89" y1="266.34" x2="110.89" y2="131.63"/><line class="cls-7" x1="253.91" y1="131.63" x2="621.2" y2="131.63"/><line class="cls-7" x1="1" y1="131.63" x2="110.89" y2="131.63"/><line class="cls-7" x1="253.91" y1="266.34" x2="110.89" y2="266.34"/><rect class="cls-7" x="448.43" y="118.34" width="5.3" height="3.84"/><rect class="cls-7" x="446.33" y="105.65" width="9.5" height="12.68"/><line class="cls-8" x1="451.07" y1="101.53" x2="451.07" y2="13.95"/><path class="cls-8" d="M450,85.13c-4.65-18.39-5.41-40-33.58-64.92"/><path class="cls-8" d="M451.07,104.79c0-16-26.5-53.6-37.51-57.81"/><path class="cls-8" d="M450,102.28c-3.67-9.53-21.57-24.62-35.33-23.47"/><path class="cls-8" d="M451.07,96.21C451.07,78,457,47,482,20.21"/><path class="cls-8" d="M451.11,98.65c0-16,26.47-47.46,37.48-51.67"/><path class="cls-8" d="M452.5,98.65c3.67-9.53,19.25-20.93,33-19.78"/><path class="cls-8" d="M429.54,94.76c-7.34-2.65-19.43-.92-24.4.27"/><path class="cls-8" d="M419,69c-4.1-.65-16.41-2.6-21.37-1.73"/><path class="cls-8" d="M414.62,37.05c-2.14-1.72-8.86-3.67-10.79-4.31"/><path class="cls-8" d="M399.1,52.67a57.74,57.74,0,0,0-10.8-2.23"/><path class="cls-8" d="M475.31,73.78c5-1.1,17.05-3,20.51-2.13"/><path class="cls-8" d="M465.66,95.75c6.64.46,14,2,15.49,2.19"/><path class="cls-8" d="M485.51,32.74c4.26-3.67,14.34-10.58,18.26-11"/><path class="cls-8" d="M460.63,16.33C462.14,9.85,463.33,1,463.33,1"/><path class="cls-8" d="M443.14,38.35c-1.73-4.53-4.75-23.53-7.56-24.4"/><path class="cls-9" d="M209.22,225.32a2.45,2.45,0,0,1-2.44-2.44V103.51a19,19,0,0,1,19-19h26.48v4.89H225.77a14.11,14.11,0,0,0-14.1,14.1V222.88a2.45,2.45,0,0,1-2.45,2.44"/><path class="cls-10" d="M251.75,85v3.89h-26a14.62,14.62,0,0,0-14.6,14.6V222.88a1.95,1.95,0,0,1-3.89,0V103.51A18.52,18.52,0,0,1,225.77,85h26m1-1h-27a19.51,19.51,0,0,0-19.49,19.49V222.88a2.95,2.95,0,0,0,5.89,0V103.51a13.61,13.61,0,0,1,13.6-13.6h27V84Z"/><rect class="cls-10" x="204.58" y="222.88" width="9.28" height="18.14"/><rect class="cls-7" x="204.58" y="222.88" width="9.28" height="18.13"/><line class="cls-7" x1="204.58" y1="231.94" x2="213.86" y2="231.94"/><path class="cls-9" d="M208.52,234.89a1,1,0,1,1-1-1,1,1,0,0,1,1,1"/><path class="cls-9" d="M211.92,234.89a1,1,0,1,1-1-1,1,1,0,0,1,1,1"/><path class="cls-9" d="M211.92,237.85a1,1,0,1,1-1-1,1,1,0,0,1,1,1"/><path class="cls-9" d="M208.52,237.85a1,1,0,1,1-1-1,1,1,0,0,1,1,1"/><path class="cls-9" d="M443.37,128c-87.87,0-111.37-30.55-124-47C312.53,72.14,307.58,65.7,298,65.7c-9.8,0-14.56,4.94-14.56,15.11v.5h-5.05v-.5c0-13.19,6.78-20.16,19.61-20.16,12.09,0,18,7.64,25.41,17.32,12.1,15.73,34.6,45,120,45h.5V128Z"/><path class="cls-10" d="M298,61.15c11.85,0,17.66,7.56,25,17.13,13.83,18,37,45.19,120.38,45.19v4c-85.38,0-109.27-28.15-123.6-46.77-6.93-9-11.95-15.55-21.8-15.55-10.14,0-15.06,5.11-15.06,15.61h-4.05c0-12.86,6.6-19.66,19.11-19.66m0-1c-13,0-20.11,7.34-20.11,20.66v1h6.05v-1c0-10,4.47-14.61,14.06-14.61,9.36,0,14.25,6.36,21,15.15,7.71,10,17.44,21.49,35.49,30.66,21.87,11.11,50.95,16.51,88.9,16.51h1v-6.05h-1c-85.14,0-107.55-29.15-119.59-44.8-7.53-9.79-13.47-17.52-25.81-17.52"/><path class="cls-10" d="M454,122.31h-5.88a9.31,9.31,0,0,0-9.31,9.32h24.51a9.32,9.32,0,0,0-9.32-9.32"/><path class="cls-7" d="M454,122.31h-5.88a9.31,9.31,0,0,0-9.31,9.32h24.51A9.32,9.32,0,0,0,454,122.31Z"/><rect class="cls-6" x="276.89" y="79.18" width="7.99" height="3.26"/><rect class="cls-7" x="276.89" y="79.18" width="7.99" height="3.26"/><rect class="cls-7" x="251.75" y="82.72" width="3.26" height="7.99"/></g></g></svg>