<svg xmlns="http://www.w3.org/2000/svg" xmlns:xlink="http://www.w3.org/1999/xlink" viewBox="0 0 719.4 265"><defs><style>.cls-1,.cls-12,.cls-15,.cls-16,.cls-2,.cls-26,.cls-27,.cls-3,.cls-45,.cls-46,.cls-5,.cls-6,.cls-64,.cls-65,.cls-7{fill:none;}.cls-10,.cls-11,.cls-12,.cls-13,.cls-15,.cls-16,.cls-2,.cls-3,.cls-75,.cls-76,.cls-8{stroke:#fff;}.cls-18,.cls-2,.cls-37,.cls-56{stroke-width:1.44px;}.cls-2,.cls-3,.cls-6,.cls-7{opacity:0.2;}.cls-3{stroke-width:0.65px;}.cls-4{clip-path:url(#clip-path);}.cls-5{stroke:#475a6c;}.cls-10,.cls-11,.cls-12,.cls-13,.cls-16,.cls-17,.cls-19,.cls-20,.cls-21,.cls-22,.cls-23,.cls-24,.cls-25,.cls-26,.cls-27,.cls-28,.cls-29,.cls-30,.cls-31,.cls-32,.cls-33,.cls-34,.cls-35,.cls-36,.cls-38,.cls-39,.cls-40,.cls-41,.cls-42,.cls-43,.cls-44,.cls-45,.cls-46,.cls-47,.cls-48,.cls-49,.cls-5,.cls-50,.cls-51,.cls-52,.cls-53,.cls-54,.cls-55,.cls-57,.cls-58,.cls-59,.cls-60,.cls-61,.cls-62,.cls-63,.cls-64,.cls-65,.cls-66,.cls-67,.cls-68,.cls-69,.cls-70,.cls-71,.cls-72,.cls-73,.cls-75,.cls-76,.cls-8{stroke-miterlimit:10;}.cls-11,.cls-16,.cls-34,.cls-35,.cls-5,.cls-53,.cls-54,.cls-72,.cls-73,.cls-75,.cls-76{stroke-width:2px;}.cls-6,.cls-7{stroke:#f2f2f2;}.cls-7{stroke-linecap:square;}.cls-76,.cls-8{fill:url(#Wall);}.cls-9{fill:url(#Unnamed_Pattern);}.cls-10,.cls-74,.cls-75{fill:#b2dff4;}.cls-11{fill:#00aadc;}.cls-13,.cls-14{fill:#00aadb;}.cls-15{stroke-linecap:round;stroke-linejoin:round;}.cls-17,.cls-36,.cls-55{fill:url(#_10_lpi_20_);}.cls-17{stroke:url(#linear-gradient);}.cls-18,.cls-37,.cls-56{fill:url(#Scotch_Rule_1);}.cls-18{stroke:url(#linear-gradient-2);}.cls-19,.cls-20,.cls-21,.cls-22,.cls-23,.cls-24,.cls-25,.cls-28,.cls-29,.cls-30,.cls-31,.cls-32,.cls-33,.cls-34,.cls-35,.cls-38,.cls-39,.cls-40,.cls-41,.cls-42,.cls-43,.cls-44,.cls-47,.cls-48,.cls-49,.cls-50,.cls-51,.cls-52,.cls-53,.cls-54,.cls-57,.cls-58,.cls-59,.cls-60,.cls-61,.cls-62,.cls-63,.cls-66,.cls-67,.cls-68,.cls-69,.cls-70,.cls-71,.cls-72,.cls-73{fill:#273a4e;}.cls-19{stroke:url(#linear-gradient-3);}.cls-20{stroke:url(#linear-gradient-4);}.cls-21{stroke:url(#linear-gradient-5);}.cls-22{stroke:url(#linear-gradient-6);}.cls-23{stroke:url(#linear-gradient-7);}.cls-24{stroke:url(#linear-gradient-8);}.cls-25{stroke:url(#linear-gradient-9);}.cls-26{stroke:url(#linear-gradient-10);}.cls-27{stroke:url(#linear-gradient-11);}.cls-28{stroke:url(#linear-gradient-12);}.cls-29{stroke:url(#linear-gradient-13);}.cls-30{stroke:url(#linear-gradient-14);}.cls-31{stroke:url(#linear-gradient-15);}.cls-32{stroke:url(#linear-gradient-16);}.cls-33{stroke:url(#linear-gradient-17);}.cls-34{stroke:url(#linear-gradient-18);}.cls-35{stroke:url(#linear-gradient-19);}.cls-36{stroke:url(#linear-gradient-20);}.cls-37{stroke:url(#linear-gradient-21);}.cls-38{stroke:url(#linear-gradient-22);}.cls-39{stroke:url(#linear-gradient-23);}.cls-40{stroke:url(#linear-gradient-24);}.cls-41{stroke:url(#linear-gradient-25);}.cls-42{stroke:url(#linear-gradient-26);}.cls-43{stroke:url(#linear-gradient-27);}.cls-44{stroke:url(#linear-gradient-28);}.cls-45{stroke:url(#linear-gradient-29);}.cls-46{stroke:url(#linear-gradient-30);}.cls-47{stroke:url(#linear-gradient-31);}.cls-48{stroke:url(#linear-gradient-32);}.cls-49{stroke:url(#linear-gradient-33);}.cls-50{stroke:url(#linear-gradient-34);}.cls-51{stroke:url(#linear-gradient-35);}.cls-52{stroke:url(#linear-gradient-36);}.cls-53{stroke:url(#linear-gradient-37);}.cls-54{stroke:url(#linear-gradient-38);}.cls-55{stroke:url(#linear-gradient-39);}.cls-56{stroke:url(#linear-gradient-40);}.cls-57{stroke:url(#linear-gradient-41);}.cls-58{stroke:url(#linear-gradient-42);}.cls-59{stroke:url(#linear-gradient-43);}.cls-60{stroke:url(#linear-gradient-44);}.cls-61{stroke:url(#linear-gradient-45);}.cls-62{stroke:url(#linear-gradient-46);}.cls-63{stroke:url(#linear-gradient-47);}.cls-64{stroke:url(#linear-gradient-48);}.cls-65{stroke:url(#linear-gradient-49);}.cls-66{stroke:url(#linear-gradient-50);}.cls-67{stroke:url(#linear-gradient-51);}.cls-68{stroke:url(#linear-gradient-52);}.cls-69{stroke:url(#linear-gradient-53);}.cls-70{stroke:url(#linear-gradient-54);}.cls-71{stroke:url(#linear-gradient-55);}.cls-72{stroke:url(#linear-gradient-56);}.cls-73{stroke:url(#linear-gradient-57);}</style><clipPath id="clip-path"><rect class="cls-1" width="240.95" height="141.73"/></clipPath><pattern id="Wall" data-name="Wall" width="53.55" height="40.07" patternUnits="userSpaceOnUse" viewBox="0 0 53.55 40.08"><rect class="cls-1" width="53.55" height="40.07"/><line class="cls-6" x1="49.72" y1="7.08" x2="49.72" y2="13.63"/><line class="cls-6" x1="36.59" y1="7.08" x2="36.59" y2="13.63"/><line class="cls-6" x1="23.46" y1="7.08" x2="23.46" y2="13.63"/><line class="cls-6" x1="10.33" y1="7.08" x2="10.33" y2="13.63"/><line class="cls-6" x1="49.72" y1="20.18" x2="49.72" y2="26.74"/><line class="cls-6" x1="36.59" y1="20.18" x2="36.59" y2="26.74"/><line class="cls-6" x1="23.46" y1="20.18" x2="23.46" y2="26.74"/><line class="cls-6" x1="10.33" y1="20.18" x2="10.33" y2="26.74"/><line class="cls-6" x1="49.72" y1="33.35" x2="49.72" y2="40.08"/><line class="cls-6" x1="36.59" y1="33.35" x2="36.59" y2="40.08"/><line class="cls-6" x1="23.46" y1="33.35" x2="23.46" y2="40.08"/><line class="cls-6" x1="10.33" y1="33.35" x2="10.33" y2="40.08"/><line class="cls-6" x1="43.14" y1="26.74" x2="43.14" y2="33.29"/><line class="cls-6" x1="30.01" y1="26.74" x2="30.01" y2="33.29"/><line class="cls-6" x1="16.88" y1="26.74" x2="16.88" y2="33.29"/><line class="cls-6" x1="3.75" y1="26.74" x2="3.75" y2="33.29"/><line class="cls-6" x1="43.14" y1="13.63" x2="43.14" y2="20.18"/><line class="cls-6" x1="30.01" y1="13.63" x2="30.01" y2="20.18"/><line class="cls-6" x1="16.88" y1="13.63" x2="16.88" y2="20.18"/><line class="cls-6" x1="3.75" y1="13.63" x2="3.75" y2="20.18"/><line class="cls-6" x1="43.14" y1="0.52" x2="43.14" y2="7.08"/><line class="cls-6" x1="30.01" y1="0.52" x2="30.01" y2="7.08"/><line class="cls-6" x1="16.88" y1="0.52" x2="16.88" y2="7.08"/><line class="cls-6" x1="3.75" y1="0.52" x2="3.75" y2="7.08"/><line class="cls-7" x1="0.5" y1="0.5" x2="53.05" y2="0.5"/><line class="cls-7" x1="0.5" y1="7.07" x2="53.05" y2="7.07"/><line class="cls-7" x1="0.5" y1="13.63" x2="53.05" y2="13.63"/><line class="cls-7" x1="0.5" y1="20.2" x2="53.05" y2="20.2"/><line class="cls-7" x1="0.5" y1="26.77" x2="53.05" y2="26.77"/><line class="cls-7" x1="0.5" y1="33.33" x2="53.05" y2="33.33"/></pattern><pattern id="Unnamed_Pattern" data-name="Unnamed Pattern" width="240.95" height="141.73" patternTransform="matrix(0.71, -0.71, -0.71, -0.71, 11700.8, 11594.08)" patternUnits="userSpaceOnUse" viewBox="0 0 240.94 141.73"><rect class="cls-1" width="240.95" height="141.73"/><g class="cls-4"><line class="cls-5" y1="14.17" x2="240.94" y2="14.17"/><line class="cls-5" y1="42.52" x2="240.94" y2="42.52"/><line class="cls-5" y1="70.87" x2="240.94" y2="70.87"/><line class="cls-5" y1="99.21" x2="240.94" y2="99.21"/><line class="cls-5" y1="127.56" x2="240.94" y2="127.56"/></g></pattern><pattern id="_10_lpi_20_" data-name="10 lpi 20%" width="72" height="72" patternUnits="userSpaceOnUse" viewBox="0 0 72 72"><rect class="cls-1" width="72" height="72"/><line class="cls-2" y1="68.4" x2="72" y2="68.4"/><line class="cls-2" y1="54" x2="72" y2="54"/><line class="cls-2" y1="39.6" x2="72" y2="39.6"/><line class="cls-2" y1="25.2" x2="72" y2="25.2"/><line class="cls-2" y1="10.8" x2="72" y2="10.8"/><line class="cls-2" y1="61.2" x2="72" y2="61.2"/><line class="cls-2" y1="46.8" x2="72" y2="46.8"/><line class="cls-2" y1="32.4" x2="72" y2="32.4"/><line class="cls-2" y1="18" x2="72" y2="18"/><line class="cls-2" y1="3.6" x2="72" y2="3.6"/></pattern><linearGradient id="linear-gradient" x1="266.9" y1="152.5" x2="266.9" y2="23" gradientUnits="userSpaceOnUse"><stop offset="0" stop-color="#fff"/><stop offset="0.12" stop-color="#fff" stop-opacity="0.98"/><stop offset="0.25" stop-color="#fff" stop-opacity="0.93"/><stop offset="0.37" stop-color="#fff" stop-opacity="0.85"/><stop offset="0.5" stop-color="#fff" stop-opacity="0.74"/><stop offset="0.63" stop-color="#fff" stop-opacity="0.59"/><stop offset="0.76" stop-color="#fff" stop-opacity="0.41"/><stop offset="0.89" stop-color="#fff" stop-opacity="0.2"/><stop offset="1" stop-color="#fff" stop-opacity="0"/></linearGradient><pattern id="Scotch_Rule_1" data-name="Scotch Rule 1" width="73.12" height="72" patternUnits="userSpaceOnUse" viewBox="0 0 73.12 72"><rect class="cls-1" width="73.12" height="72"/><line class="cls-3" x1="12.74" y1="72" x2="12.74"/><line class="cls-3" x1="31.02" y1="72" x2="31.02"/><line class="cls-3" x1="49.3" y1="72" x2="49.3"/><line class="cls-3" x1="67.58" y1="72" x2="67.58"/><line class="cls-3" x1="5.54" y1="72" x2="5.54"/><line class="cls-3" x1="23.82" y1="72" x2="23.82"/><line class="cls-3" x1="42.1" y1="72" x2="42.1"/><line class="cls-3" x1="60.38" y1="72" x2="60.38"/></pattern><linearGradient id="linear-gradient-2" x1="266.9" y1="161.22" x2="266.9" y2="150.78" xlink:href="#linear-gradient"/><linearGradient id="linear-gradient-3" x1="245.4" y1="131" x2="245.4" y2="126" xlink:href="#linear-gradient"/><linearGradient id="linear-gradient-4" x1="288.4" y1="152" x2="288.4" y2="99" xlink:href="#linear-gradient"/><linearGradient id="linear-gradient-5" x1="288.4" y1="157" x2="288.4" y2="151" xlink:href="#linear-gradient"/><linearGradient id="linear-gradient-6" x1="288.4" y1="161" x2="288.4" y2="156" xlink:href="#linear-gradient"/><linearGradient id="linear-gradient-7" x1="245.4" y1="127" x2="245.4" y2="99" xlink:href="#linear-gradient"/><linearGradient id="linear-gradient-8" x1="245.4" y1="126.5" x2="245.4" y2="99.5" xlink:href="#linear-gradient"/><linearGradient id="linear-gradient-9" x1="251.65" y1="109.12" x2="251.65" y2="108.12" xlink:href="#linear-gradient"/><linearGradient id="linear-gradient-10" x1="237.79" y1="125.24" x2="237.79" y2="99.45" xlink:href="#linear-gradient"/><linearGradient id="linear-gradient-11" x1="252.84" y1="125.33" x2="252.84" y2="99.41" xlink:href="#linear-gradient"/><linearGradient id="linear-gradient-12" x1="280.9" y1="128" x2="280.9" y2="123" xlink:href="#linear-gradient"/><linearGradient id="linear-gradient-13" x1="266.4" y1="86" x2="266.4" y2="21" xlink:href="#linear-gradient"/><linearGradient id="linear-gradient-14" x1="266.4" y1="86" x2="266.4" y2="16.88" xlink:href="#linear-gradient"/><linearGradient id="linear-gradient-15" x1="266.9" y1="72" x2="266.9" y2="52" xlink:href="#linear-gradient"/><linearGradient id="linear-gradient-16" x1="266.9" y1="76" x2="266.9" y2="71" xlink:href="#linear-gradient"/><linearGradient id="linear-gradient-17" x1="262.05" y1="71.5" x2="262.05" y2="52.5" xlink:href="#linear-gradient"/><linearGradient id="linear-gradient-18" x1="271.75" y1="71.5" x2="271.75" y2="52.5" xlink:href="#linear-gradient"/><linearGradient id="linear-gradient-19" x1="266.9" y1="88.75" x2="266.9" y2="86.75" xlink:href="#linear-gradient"/><linearGradient id="linear-gradient-20" x1="384.35" y1="157.2" x2="481.45" y2="60.1" gradientUnits="userSpaceOnUse"><stop offset="0" stop-color="#fff"/><stop offset="0.11" stop-color="#fff" stop-opacity="0.8"/><stop offset="0.24" stop-color="#fff" stop-opacity="0.59"/><stop offset="0.37" stop-color="#fff" stop-opacity="0.41"/><stop offset="0.5" stop-color="#fff" stop-opacity="0.26"/><stop offset="0.63" stop-color="#fff" stop-opacity="0.15"/><stop offset="0.75" stop-color="#fff" stop-opacity="0.07"/><stop offset="0.88" stop-color="#fff" stop-opacity="0.02"/><stop offset="1" stop-color="#fff" stop-opacity="0"/></linearGradient><linearGradient id="linear-gradient-21" x1="403.93" y1="185.72" x2="461.87" y2="127.78" xlink:href="#linear-gradient-20"/><linearGradient id="linear-gradient-22" x1="402.15" y1="138.5" x2="420.65" y2="120" xlink:href="#linear-gradient-20"/><linearGradient id="linear-gradient-23" x1="434.65" y1="146" x2="474.15" y2="106.5" xlink:href="#linear-gradient-20"/><linearGradient id="linear-gradient-24" x1="444.9" y1="164.25" x2="463.9" y2="145.25" xlink:href="#linear-gradient-20"/><linearGradient id="linear-gradient-25" x1="444.15" y1="169.5" x2="464.65" y2="149" xlink:href="#linear-gradient-20"/><linearGradient id="linear-gradient-26" x1="397.9" y1="127.25" x2="424.9" y2="100.25" xlink:href="#linear-gradient-20"/><linearGradient id="linear-gradient-27" x1="404.4" y1="120.75" x2="418.4" y2="106.75" xlink:href="#linear-gradient-20"/><linearGradient id="linear-gradient-28" x1="414.27" y1="112.75" x2="421.02" y2="106" xlink:href="#linear-gradient-20"/><linearGradient id="linear-gradient-29" x1="394.99" y1="121.77" x2="412.75" y2="104.01" xlink:href="#linear-gradient-20"/><linearGradient id="linear-gradient-30" x1="414.56" y1="117.24" x2="423.07" y2="108.72" xlink:href="#linear-gradient-20"/><linearGradient id="linear-gradient-31" x1="445.13" y1="128.02" x2="448.67" y2="124.48" xlink:href="#linear-gradient-20"/><linearGradient id="linear-gradient-32" x1="390.18" y1="104.53" x2="474.77" y2="19.94" xlink:href="#linear-gradient-20"/><linearGradient id="linear-gradient-33" x1="400.24" y1="114.6" x2="465.06" y2="49.78" xlink:href="#linear-gradient-20"/><linearGradient id="linear-gradient-34" x1="421.15" y1="74.5" x2="444.65" y2="51" xlink:href="#linear-gradient-20"/><linearGradient id="linear-gradient-35" x1="423.9" y1="83.25" x2="441.9" y2="65.25" xlink:href="#linear-gradient-20"/><linearGradient id="linear-gradient-36" x1="423.05" y1="67.75" x2="433.05" y2="57.75" xlink:href="#linear-gradient-20"/><linearGradient id="linear-gradient-37" x1="432.5" y1="68" x2="443" y2="57.5" xlink:href="#linear-gradient-20"/><linearGradient id="linear-gradient-38" x1="406.4" y1="115" x2="459.4" y2="62" xlink:href="#linear-gradient-20"/><linearGradient id="linear-gradient-39" x1="52.35" y1="59.1" x2="149.45" y2="156.2" gradientUnits="userSpaceOnUse"><stop offset="0" stop-color="#fff" stop-opacity="0"/><stop offset="1" stop-color="#fff"/></linearGradient><linearGradient id="linear-gradient-40" x1="71.93" y1="126.78" x2="129.87" y2="184.72" xlink:href="#linear-gradient-39"/><linearGradient id="linear-gradient-41" x1="70.15" y1="119" x2="88.65" y2="137.5" xlink:href="#linear-gradient-39"/><linearGradient id="linear-gradient-42" x1="102.65" y1="105.5" x2="142.15" y2="145" xlink:href="#linear-gradient-39"/><linearGradient id="linear-gradient-43" x1="112.9" y1="144.25" x2="131.9" y2="163.25" xlink:href="#linear-gradient-39"/><linearGradient id="linear-gradient-44" x1="112.15" y1="148" x2="132.65" y2="168.5" xlink:href="#linear-gradient-39"/><linearGradient id="linear-gradient-45" x1="65.9" y1="99.25" x2="92.9" y2="126.25" xlink:href="#linear-gradient-39"/><linearGradient id="linear-gradient-46" x1="72.4" y1="105.75" x2="86.4" y2="119.75" xlink:href="#linear-gradient-39"/><linearGradient id="linear-gradient-47" x1="82.27" y1="105" x2="89.02" y2="111.75" xlink:href="#linear-gradient-39"/><linearGradient id="linear-gradient-48" x1="67.62" y1="107.64" x2="76.12" y2="116.14" xlink:href="#linear-gradient-39"/><linearGradient id="linear-gradient-49" x1="77.85" y1="103.02" x2="95.78" y2="120.94" xlink:href="#linear-gradient-39"/><linearGradient id="linear-gradient-50" x1="113.13" y1="123.48" x2="116.67" y2="127.02" xlink:href="#linear-gradient-39"/><linearGradient id="linear-gradient-51" x1="58.25" y1="19.02" x2="142.7" y2="103.46" xlink:href="#linear-gradient-39"/><linearGradient id="linear-gradient-52" x1="68.49" y1="49.03" x2="132.81" y2="113.35" xlink:href="#linear-gradient-39"/><linearGradient id="linear-gradient-53" x1="89.15" y1="50" x2="112.65" y2="73.5" xlink:href="#linear-gradient-39"/><linearGradient id="linear-gradient-54" x1="91.9" y1="64.25" x2="109.9" y2="82.25" xlink:href="#linear-gradient-39"/><linearGradient id="linear-gradient-55" x1="91.05" y1="56.75" x2="101.05" y2="66.75" xlink:href="#linear-gradient-39"/><linearGradient id="linear-gradient-56" x1="100.5" y1="56.5" x2="111" y2="67" xlink:href="#linear-gradient-39"/><linearGradient id="linear-gradient-57" x1="74.4" y1="61" x2="127.4" y2="114" xlink:href="#linear-gradient-39"/></defs><g id="Layer_2" data-name="Layer 2"><g id="Layer_3" data-name="Layer 3"><rect class="cls-8" x="214.9" y="161" width="104" height="77.5"/><polygon class="cls-9" points="326.34 166.26 326.34 243.82 206.72 243.82 206.72 166.26 0 166.26 0.4 254 709.4 254 619.4 166.26 326.34 166.26"/><path class="cls-10" d="M244.25,184.29h-5.32c-6.37,0-11.53,5.8-11.53,13V255h-2V196.7c0-8.11,5.82-14.7,13-14.7h6"/><rect class="cls-11" x="253.4" y="204" width="40" height="28" rx="6.7"/><rect class="cls-11" x="249.4" y="210" width="4" height="16"/><rect class="cls-11" x="245.4" y="215" width="4" height="6" rx="1"/><rect class="cls-11" x="293.4" y="214" width="4" height="8"/><rect class="cls-11" x="258.4" y="232" width="6" height="5"/><rect class="cls-11" x="281.4" y="232" width="6" height="5"/><rect class="cls-12" x="264.9" y="200.5" width="21" height="4"/><rect class="cls-13" x="261.18" y="175.18" width="3.19" height="6.15"/><path class="cls-14" d="M290.72,197.84l1.55-1V183.33l-1.55-1H286v-1.75h.28l0-3.2-1.09-.13H280.7l-8.85,1.13v2.2h.27v3h-4.73V180H264.8V181h-2.11l-3.49.84h-2V180.5h-3.13v1.28h-8.56v.11h-1.28V185h1.28v10.62h.11v3.85h17l.8.17h1.33v.55h1.44v.28h5.1v-.88h-1.17l-2.22-3h15.48v1.55l-.67,1.44h-.84v.89h3.87v-.89H285l-.67-1.44v-1.55h1.06v1.22Zm-18.61-5.43-4.73,1.45v-2.94h4.73Zm0-3.15h-4.73v-2.94l4.73,1.45Z"/><line class="cls-15" x1="262.69" y1="199.5" x2="263.47" y2="199.67"/><line class="cls-15" x1="263.48" y1="199.67" x2="264.8" y2="199.67"/><line class="cls-15" x1="285.41" y1="197.84" x2="285.74" y2="197.84"/><line class="cls-15" x1="285.74" y1="182.34" x2="285.41" y2="182.34"/><line class="cls-15" x1="271.34" y1="200.5" x2="271.34" y2="199.62"/><line class="cls-15" x1="272.11" y1="196.62" x2="285.41" y2="196.62"/><line class="cls-15" x1="285.41" y1="184.84" x2="272.11" y2="184.84"/><path class="cls-15" d="M285.79,200a.34.34,0,0,0-.33-.34"/><path class="cls-15" d="M282.25,199.61a.34.34,0,0,0-.33.34"/><line class="cls-15" x1="285.79" y1="200.5" x2="285.79" y2="199.95"/><line class="cls-15" x1="281.92" y1="199.95" x2="281.92" y2="200.5"/><line class="cls-15" x1="259.2" y1="181.78" x2="247.33" y2="181.78"/><line class="cls-15" x1="245.64" y1="199.5" x2="262.69" y2="199.5"/><line class="cls-15" x1="284.35" y1="198.17" x2="284.35" y2="196.62"/><line class="cls-15" x1="272.11" y1="189.26" x2="267.38" y2="189.26"/><line class="cls-15" x1="267.38" y1="190.92" x2="272.11" y2="190.92"/><line class="cls-15" x1="290.72" y1="197.84" x2="292.27" y2="196.85"/><line class="cls-15" x1="292.27" y1="183.33" x2="290.72" y2="182.34"/><line class="cls-15" x1="285.74" y1="197.84" x2="290.72" y2="197.84"/><line class="cls-15" x1="290.72" y1="182.34" x2="285.74" y2="182.34"/><line class="cls-15" x1="266.91" y1="195.85" x2="266.24" y2="195.85"/><line class="cls-15" x1="264.8" y1="183.11" x2="264.8" y2="197.07"/><line class="cls-15" x1="270.17" y1="199.62" x2="267.38" y2="195.85"/><line class="cls-15" x1="267.22" y1="200.5" x2="266.24" y2="200.5"/><line class="cls-15" x1="266.24" y1="195.85" x2="266.24" y2="200.5"/><path class="cls-15" d="M255.44,197.79l.84.18.84.19.84.19.83.19.83.2.82.2.82.2.41.11.39.09.18,0,.17,0,.09,0,.09,0,.08,0h0"/><path class="cls-15" d="M245.64,195.65l4.9,1.07,4.91,1.07"/><path class="cls-15" d="M245.53,195.64h.11"/><line class="cls-15" x1="245.53" y1="194.84" x2="245.53" y2="195.64"/><path class="cls-15" d="M264.8,181h-2.11"/><line class="cls-15" x1="264.8" y1="199.42" x2="264.8" y2="197.07"/><line class="cls-15" x1="264.8" y1="180.76" x2="264.8" y2="183.11"/><line class="cls-15" x1="285.41" y1="182.34" x2="285.41" y2="197.84"/><polyline class="cls-15" points="271.34 199.62 271.34 199.62 271.3 199.62 271.23 199.62 271.14 199.62 271.04 199.62 270.4 199.62 270.17 199.62"/><polyline class="cls-15" points="271.34 200.5 271.34 200.5 271.3 200.5 271.23 200.5 271.14 200.5 271.04 200.5 270.4 200.5 270.23 200.5 270.06 200.5 269.88 200.5 269.76 200.5"/><line class="cls-15" x1="267.22" y1="200.5" x2="269.76" y2="200.5"/><line class="cls-15" x1="264.8" y1="180.01" x2="264.8" y2="180.76"/><line class="cls-15" x1="245.53" y1="186.61" x2="245.53" y2="187.24"/><line class="cls-15" x1="245.53" y1="194.84" x2="245.53" y2="187.24"/><line class="cls-15" x1="285.46" y1="199.61" x2="282.25" y2="199.61"/><line class="cls-15" x1="285.79" y1="200.5" x2="281.92" y2="200.5"/><line class="cls-15" x1="245.53" y1="181.89" x2="245.53" y2="186.61"/><line class="cls-15" x1="245.53" y1="181.78" x2="247.33" y2="181.78"/><line class="cls-15" x1="245.64" y1="199.5" x2="245.64" y2="197.79"/><line class="cls-15" x1="245.64" y1="197.79" x2="245.64" y2="195.65"/><line class="cls-15" x1="245.53" y1="181.78" x2="245.53" y2="181.89"/><line class="cls-15" x1="284.18" y1="180.59" x2="283.79" y2="180.59"/><path class="cls-15" d="M271.89,178.37a0,0,0,0,0-.05,0"/><line class="cls-15" x1="271.89" y1="178.37" x2="272.38" y2="178.3"/><line class="cls-15" x1="271.84" y1="180.59" x2="271.84" y2="178.42"/><line class="cls-15" x1="272.39" y1="180.59" x2="271.84" y2="180.59"/><line class="cls-15" x1="283.79" y1="180.59" x2="272.39" y2="180.59"/><line class="cls-15" x1="272.38" y1="178.3" x2="278.36" y2="177.56"/><path class="cls-15" d="M278.36,177.56h0"/><line class="cls-15" x1="278.36" y1="177.56" x2="280.7" y2="177.26"/><line class="cls-15" x1="280.7" y1="177.26" x2="285.13" y2="177.26"/><line class="cls-15" x1="286.17" y1="177.38" x2="285.13" y2="177.26"/><line class="cls-15" x1="286.07" y1="180.59" x2="284.18" y2="180.59"/><polyline class="cls-15" points="286.17 177.38 286.17 177.38 286.17 177.38 286.17 177.38"/><path class="cls-15" d="M286.17,177.38h0v0s0,0,0,0h0"/><line class="cls-15" x1="286.24" y1="177.43" x2="286.24" y2="180.59"/><line class="cls-15" x1="286.24" y1="180.59" x2="286.07" y2="180.59"/><line class="cls-15" x1="286.17" y1="177.38" x2="286.19" y2="177.38"/><path class="cls-15" d="M286.24,177.43a.05.05,0,0,0-.05-.05"/><line class="cls-15" x1="285.96" y1="182" x2="285.8" y2="182"/><line class="cls-15" x1="285.96" y1="182" x2="285.96" y2="182.34"/><line class="cls-15" x1="272.11" y1="182" x2="272.11" y2="196.62"/><polyline class="cls-15" points="284.35 186.06 284.06 186.06 281.76 186.06 278.84 186.06 275.08 186.06 273.17 186.06"/><polyline class="cls-15" points="284.35 187.91 284.06 187.91 281.76 187.91 278.84 187.91 275.08 187.91 273.17 187.91"/><polyline class="cls-15" points="284.35 189.75 284.06 189.75 281.76 189.75 278.84 189.75 275.08 189.75 273.17 189.75"/><polyline class="cls-15" points="284.35 191.59 284.06 191.59 281.76 191.59 278.84 191.59 275.08 191.59 273.17 191.59"/><polyline class="cls-15" points="284.35 193.43 284.06 193.43 281.76 193.43 278.84 193.43 275.08 193.43 273.17 193.43"/><polyline class="cls-15" points="284.35 195.28 284.06 195.28 281.76 195.28 278.84 195.28 275.08 195.28 273.17 195.28"/><line class="cls-15" x1="284.35" y1="198.17" x2="285.02" y2="199.61"/><line class="cls-15" x1="283.43" y1="198.17" x2="283.43" y2="196.62"/><line class="cls-15" x1="283.43" y1="198.17" x2="282.76" y2="199.61"/><line class="cls-15" x1="280.98" y1="184.84" x2="280.98" y2="181.94"/><path class="cls-15" d="M274.33,183.39a.89.89,0,1,1,1.77,0,.89.89,0,0,1-1.77,0Z"/><path class="cls-15" d="M277.32,183.39a.89.89,0,1,1,1.77,0,.89.89,0,0,1-1.77,0Z"/><polyline class="cls-15" points="292.27 190.09 292.27 191.08 292.27 192.05 292.27 192.98 292.27 193.84 292.27 194.63 292.27 195.31 292.27 195.88 292.27 196.33 292.27 196.64 292.27 196.81 292.27 196.83"/><polyline class="cls-15" points="292.27 190.09 292.27 185.31 292.27 183.42 292.27 183.38 292.27 183.35 292.27 183.34 292.27 183.33"/><line class="cls-15" x1="290.72" y1="197.84" x2="290.72" y2="182.34"/><line class="cls-15" x1="286.24" y1="177.43" x2="286.22" y2="177.43"/><rect class="cls-15" x="273.72" y="180.01" width="1.44" height="20.22"/><line class="cls-15" x1="262.69" y1="180.94" x2="245.53" y2="185.08"/><rect class="cls-15" x="244.25" y="181.89" width="1.28" height="3.13"/><rect class="cls-15" x="254.09" y="180.5" width="3.13" height="1.28"/><rect class="cls-15" x="272.11" y="180.59" width="13.85" height="1.35"/><line class="cls-15" x1="272.11" y1="187.77" x2="267.38" y2="186.32"/><line class="cls-15" x1="272.11" y1="192.41" x2="267.38" y2="193.86"/><line class="cls-15" x1="272.11" y1="183.55" x2="267.38" y2="183.55"/><line class="cls-15" x1="272.11" y1="196.62" x2="267.9" y2="196.62"/><rect class="cls-14" x="254.09" y="180.5" width="3.13" height="1.28"/><rect class="cls-15" x="254.09" y="180.5" width="3.13" height="1.28"/><rect class="cls-15" x="244.25" y="181.89" width="1.28" height="3.13"/><rect class="cls-13" x="258.8" y="172.19" width="6.56" height="3.51"/><rect class="cls-13" x="253.06" y="169" width="5.11" height="2.23" rx="0.84"/><rect class="cls-13" x="249.87" y="172.51" width="2.87" height="3.19" rx="1"/><rect class="cls-13" x="252.1" y="170.91" width="7.02" height="6.38" rx="1"/><rect class="cls-13" x="265.36" y="180.17" width="2.39" height="20.33"/><line class="cls-16" x1="0.4" y1="161" x2="621.4" y2="161"/><path class="cls-17" d="M318.9,152h-104V63.5l40-40h24l40,40Z"/><rect class="cls-18" x="214.9" y="151.5" width="104" height="9"/><rect class="cls-19" x="229.9" y="126.5" width="31" height="4"/><rect class="cls-20" x="275.9" y="99.5" width="25" height="52"/><rect class="cls-21" x="272.9" y="151.5" width="31" height="5"/><rect class="cls-22" x="270.9" y="156.5" width="35" height="4"/><rect class="cls-23" x="232.9" y="99.5" width="25" height="27"/><line class="cls-24" x1="245.4" y1="99.5" x2="245.4" y2="126.5"/><line class="cls-25" x1="257.9" y1="108.62" x2="245.4" y2="108.62"/><path class="cls-26" d="M242.55,99.5s-1.65,16.8-9.65,25.4"/><path class="cls-27" d="M248,99.5s3.88,21.8,9.88,25.4"/><circle class="cls-28" cx="280.9" cy="125.5" r="2"/><polygon class="cls-29" points="206.9 85.5 206.9 80.4 222.9 21.5 310.2 21.5 325.9 79.5 325.9 85.5 315.6 85.5 315.6 76.5 266.9 25.6 217.9 76.5 217.9 85.5 206.9 85.5"/><polygon class="cls-30" points="206.9 80.4 266.9 17.6 325.9 79.5 325.9 85.5 315.6 85.5 315.6 76.5 266.9 25.6 217.9 76.5 217.9 85.5 206.9 85.5 206.9 80.4"/><rect class="cls-31" x="253.9" y="52.5" width="26" height="19"/><rect class="cls-32" x="251.9" y="71.5" width="30" height="4"/><line class="cls-33" x1="262.05" y1="52.5" x2="262.05" y2="71.5"/><line class="cls-34" x1="271.75" y1="52.5" x2="271.75" y2="71.5"/><line class="cls-35" x1="214.9" y1="87.75" x2="318.9" y2="87.75"/><path class="cls-36" d="M484.9,152.75h-104V64.25l40-40h24l40,40Z"/><rect class="cls-37" x="380.9" y="152.25" width="104" height="9"/><rect class="cls-38" x="395.9" y="127.25" width="31" height="4"/><rect class="cls-39" x="441.9" y="100.25" width="25" height="52"/><rect class="cls-40" x="438.9" y="152.25" width="31" height="5"/><rect class="cls-41" x="436.9" y="157.25" width="35" height="4"/><rect class="cls-42" x="398.9" y="100.25" width="25" height="27"/><line class="cls-43" x1="411.4" y1="100.25" x2="411.4" y2="127.25"/><line class="cls-44" x1="423.9" y1="109.38" x2="411.4" y2="109.38"/><path class="cls-45" d="M408.55,100.25s-1.65,16.8-9.65,25.4"/><path class="cls-46" d="M414,100.25s3.88,21.8,9.88,25.4"/><circle class="cls-47" cx="446.9" cy="126.25" r="2"/><polygon class="cls-48" points="372.9 86.25 372.9 81.15 388.9 22.25 476.2 22.25 491.9 80.25 491.9 86.25 481.6 86.25 481.6 77.25 432.9 26.35 383.9 77.25 383.9 86.25 372.9 86.25"/><polygon class="cls-49" points="372.9 81.15 432.9 18.35 491.9 80.25 491.9 86.25 481.6 86.25 481.6 77.25 432.9 26.35 383.9 77.25 383.9 86.25 372.9 86.25 372.9 81.15"/><rect class="cls-50" x="419.9" y="53.25" width="26" height="19"/><rect class="cls-51" x="417.9" y="72.25" width="30" height="4"/><line class="cls-52" x1="428.05" y1="53.25" x2="428.05" y2="72.25"/><line class="cls-53" x1="437.75" y1="53.25" x2="437.75" y2="72.25"/><line class="cls-54" x1="380.9" y1="88.5" x2="484.9" y2="88.5"/><path class="cls-55" d="M152.9,151.75H48.9V63.25l40-40h24l40,40Z"/><rect class="cls-56" x="48.9" y="151.25" width="104" height="9"/><rect class="cls-57" x="63.9" y="126.25" width="31" height="4"/><rect class="cls-58" x="109.9" y="99.25" width="25" height="52"/><rect class="cls-59" x="106.9" y="151.25" width="31" height="5"/><rect class="cls-60" x="104.9" y="156.25" width="35" height="4"/><rect class="cls-61" x="66.9" y="99.25" width="25" height="27"/><line class="cls-62" x1="79.4" y1="99.25" x2="79.4" y2="126.25"/><line class="cls-63" x1="91.9" y1="108.38" x2="79.4" y2="108.38"/><path class="cls-64" d="M76.55,99.25s-1.65,16.8-9.65,25.4"/><path class="cls-65" d="M82,99.25s3.88,21.8,9.88,25.4"/><circle class="cls-66" cx="114.9" cy="125.25" r="2"/><polygon class="cls-67" points="40.9 85.25 40.9 80.15 56.9 21.25 144.2 21.25 159.9 79.25 159.9 85.25 149.6 85.25 149.6 76.25 100.9 25.35 51.9 76.25 51.9 85.25 40.9 85.25"/><polygon class="cls-68" points="40.9 80.15 100.9 17.35 159.9 79.25 159.9 85.25 149.6 85.25 149.6 76.25 100.9 25.35 51.9 76.25 51.9 85.25 40.9 85.25 40.9 80.15"/><rect class="cls-69" x="87.9" y="52.25" width="26" height="19"/><rect class="cls-70" x="85.9" y="71.25" width="30" height="4"/><line class="cls-71" x1="96.05" y1="52.25" x2="96.05" y2="71.25"/><line class="cls-72" x1="105.75" y1="52.25" x2="105.75" y2="71.25"/><line class="cls-73" x1="48.9" y1="87.5" x2="152.9" y2="87.5"/><polygon class="cls-74" points="710.4 254 0.4 255 0.4 264 719.4 263 710.4 254"/><line class="cls-16" x1="0.4" y1="264" x2="719.4" y2="264"/><line class="cls-16" x1="710.4" y1="255" x2="0.4" y2="255"/><rect class="cls-75" x="142.4" y="161.5" width="3" height="93"/><rect class="cls-75" x="388.9" y="161.5" width="3" height="93"/><path class="cls-16" d="M249.4,174s-10.5.55-10.5-12.95"/><path class="cls-76" d="M245.53,197.5c-12.63,0-14.63,20.5-.13,20.5"/><rect class="cls-1" x="0.4" width="352" height="161"/></g></g></svg>