<svg xmlns="http://www.w3.org/2000/svg" xmlns:xlink="http://www.w3.org/1999/xlink" viewBox="0 0 603.4 290.98"><defs><style>.a,.c,.e,.g,.i,.j,.k{fill:none;}.b{clip-path:url(#a);}.c{stroke:#475a6c;}.c,.e{stroke-miterlimit:10;}.c,.e,.g,.i,.j{stroke-width:2px;}.d{fill:#263b4e;}.e,.g,.j,.k{stroke:#fff;}.f{fill:#b1dff3;}.g,.i{stroke-linecap:round;}.g,.i,.j{stroke-linejoin:round;}.h{fill:#fff;}.i{stroke:#263b4e;}.k{stroke-miterlimit:10;stroke-width:2px;}.l{fill:url(#b);}</style><clipPath id="a"><rect class="a" x="0.01" width="240.95" height="141.73"/></clipPath><pattern id="b" width="240.95" height="141.73" patternTransform="translate(11775.15 -10692.77) rotate(-45)" patternUnits="userSpaceOnUse" viewBox="0 0 240.95 141.73"><rect class="a" width="240.95" height="141.73"/><rect class="a" x="0.01" width="240.95" height="141.73"/><g class="b"><line class="c" x1="0.01" y1="127.56" x2="240.95" y2="127.56"/><line class="c" x1="0.01" y1="99.21" x2="240.95" y2="99.21"/><line class="c" x1="0.01" y1="70.86" x2="240.95" y2="70.86"/><line class="c" x1="0.01" y1="42.52" x2="240.95" y2="42.52"/><line class="c" x1="0.01" y1="14.17" x2="240.95" y2="14.17"/></g></pattern></defs><path class="d" d="M451.35,87a11.33,11.33,0,0,1-11.29,11.37H425.69A11.33,11.33,0,0,1,414.36,87v0c0-6.26,10-11.33,16.28-11.33H440A11.33,11.33,0,0,1,451.35,87v0"/><path class="e" d="M451.35,87a11.33,11.33,0,0,1-11.29,11.37H425.69A11.33,11.33,0,0,1,414.36,87v0c0-6.26,10-11.33,16.28-11.33H440A11.33,11.33,0,0,1,451.35,87Z"/><path class="f" d="M345.25,155.84a25.43,25.43,0,0,1-12.65,3.64c-7.11,0-13.79-2.54-19.92-2.54a23.43,23.43,0,0,0-10.61,2.54V290h43.18Z"/><path class="d" d="M421.37,94a4.47,4.47,0,0,1-4.47,4.47h-5.65A4.47,4.47,0,0,1,406.78,94h0c0-2.47,4-4.47,6.42-4.47h3.7A4.47,4.47,0,0,1,421.37,94"/><path class="e" d="M421.37,94a4.47,4.47,0,0,1-4.47,4.47h-5.65A4.47,4.47,0,0,1,406.78,94h0c0-2.47,4-4.47,6.42-4.47h3.7A4.47,4.47,0,0,1,421.37,94Z"/><path class="f" d="M262.66,58.12A5.14,5.14,0,0,1,257.51,53c0-2.19,3.1-8.45,4.06-10.31l1.51-2.95,1.32,3c.79,1.83,3.39,8,3.41,10.11a5.16,5.16,0,0,1-5.09,5.2h-.06m.18-10.86A25.63,25.63,0,0,0,260.65,53a2,2,0,0,0,.6,1.41,2,2,0,0,0,1.41.58h0a2,2,0,0,0,2-2,28.39,28.39,0,0,0-1.83-5.69"/><path class="e" d="M152.83,79.5a3.19,3.19,0,0,1-2-1.44,17.21,17.21,0,0,1-1.33-3.13c-.27-.85-1-3.12.46-4,1.22-.76,2.8.32,3.89,1.19a13.27,13.27,0,0,1,2.47,2.55,3.21,3.21,0,0,1-1,4.43,3.12,3.12,0,0,1-1.45.48A3.06,3.06,0,0,1,152.83,79.5Z"/><rect class="g" x="301.51" y="101.83" width="43.71" height="188.15"/><line class="g" x1="1" y1="101.5" x2="602.4" y2="101.5"/><rect class="h" x="314.11" y="192.38" width="18.49" height="80.71"/><rect class="i" x="314.11" y="192.38" width="18.5" height="80.71"/><polygon class="d" points="326.48 179.85 320.24 179.85 318.77 182.28 318.77 186.69 327.95 186.69 327.95 182.28 326.48 179.85"/><polygon class="g" points="326.48 179.85 320.24 179.85 318.77 182.28 318.77 186.69 327.95 186.69 327.95 182.28 326.48 179.85"/><polygon class="h" points="330.11 186.69 316.61 186.69 314.11 192.38 332.61 192.38 330.11 186.69"/><polygon class="i" points="330.11 186.69 316.61 186.69 314.11 192.38 332.61 192.38 330.11 186.69"/><line class="a" x1="312.08" y1="232.73" x2="334.64" y2="232.73"/><line class="i" x1="312.08" y1="232.73" x2="334.64" y2="232.73"/><line class="a" x1="312.08" y1="192.38" x2="334.64" y2="192.38"/><line class="i" x1="312.08" y1="192.38" x2="334.64" y2="192.38"/><path class="d" d="M325.53,179.85H321.2V31.69a13,13,0,0,0-13-13H278.06a13,13,0,0,0-13,13v6.48h-4.33V31.69a17.34,17.34,0,0,1,17.33-17.33h30.13a17.35,17.35,0,0,1,17.34,17.33Z"/><path class="e" d="M325.53,179.85H321.2V31.69a13,13,0,0,0-13-13H278.06a13,13,0,0,0-13,13v6.48h-4.33V31.69a17.34,17.34,0,0,1,17.33-17.33h30.13a17.35,17.35,0,0,1,17.34,17.33Z"/><rect class="j" x="245.17" y="60.61" width="35.44" height="38.05" rx="3.09"/><path class="j" d="M283.8,89.88h-3.19V64.4h3.19a5.51,5.51,0,0,1,5.51,5.51h0V84.37a5.51,5.51,0,0,1-5.51,5.51Z"/><path class="j" d="M245.17,69.24l-26.42-13A1.45,1.45,0,0,0,217,58.52l28.16,32.35"/><path class="g" d="M162,98.22c1.08-5.26.09-13.06-1.44-19.71S158.18,66.35,162,59.58"/><line class="g" x1="475.36" y1="98.22" x2="470.02" y2="87.57"/><line class="g" x1="478.61" y1="98.93" x2="477.23" y2="84.92"/><line class="g" x1="476.85" y1="82.32" x2="476.33" y2="78.51"/><line class="g" x1="480.93" y1="98.93" x2="482.82" y2="94.39"/><line class="g" x1="483.82" y1="91.66" x2="487.34" y2="84.03"/><line class="g" x1="173.85" y1="98.99" x2="171.96" y2="94.53"/><line class="g" x1="177.73" y1="98.99" x2="176.56" y2="88.79"/><path class="g" d="M169.36,51.63A3.61,3.61,0,1,1,165.75,48a3.61,3.61,0,0,1,3.61,3.63Z"/><ellipse class="g" cx="165.75" cy="42.54" rx="3.04" ry="4.68"/><path class="g" d="M161.47,43.05c1.83,1.83,2.35,4.28,1.16,5.46s-3.63.67-5.45-1.16-2.35-4.27-1.17-5.46S159.64,41.23,161.47,43.05Z"/><ellipse class="g" cx="156.66" cy="51.63" rx="4.68" ry="3.04"/><path class="g" d="M157.18,55.91c1.82-1.82,4.27-2.35,5.45-1.16s.67,3.63-1.16,5.46-4.27,2.34-5.46,1.16S155.35,57.74,157.18,55.91Z"/><ellipse class="g" cx="165.75" cy="60.72" rx="3.03" ry="4.68"/><path class="g" d="M170,60.21c-1.82-1.83-2.34-4.28-1.16-5.46s3.63-.66,5.46,1.16,2.35,4.27,1.16,5.46S171.86,62,170,60.21Z"/><ellipse class="g" cx="174.84" cy="51.63" rx="4.68" ry="3.03"/><path class="g" d="M174.33,47.35c-1.83,1.83-4.27,2.35-5.46,1.16s-.66-3.63,1.17-5.46,4.27-2.34,5.45-1.16S176.16,45.52,174.33,47.35Z"/><rect class="d" x="295.45" y="91.66" width="55.82" height="9.83"/><rect class="g" x="295.45" y="91.66" width="55.81" height="9.83"/><rect class="d" x="316.89" y="81.71" width="12.93" height="9.83"/><rect class="g" x="316.89" y="81.71" width="12.93" height="9.83"/><path class="d" d="M302.07,88.36a3.31,3.31,0,1,0-3.31,3.31h0a3.31,3.31,0,0,0,3.31-3.31"/><path class="g" d="M302.07,88.36a3.31,3.31,0,1,0-3.31,3.31h0A3.31,3.31,0,0,0,302.07,88.36Z"/><path class="d" d="M351.27,88.36A3.31,3.31,0,1,0,348,91.67h0a3.31,3.31,0,0,0,3.31-3.31"/><path class="g" d="M351.27,88.36A3.31,3.31,0,1,0,348,91.67h0A3.31,3.31,0,0,0,351.27,88.36Z"/><path class="d" d="M291.09,16.59A6.14,6.14,0,1,0,285,22.73H285a6.12,6.12,0,0,0,6.13-6.11v0"/><circle class="k" cx="284.96" cy="16.58" r="6.14" transform="translate(1.03 45.87) rotate(-9.22)"/><line class="e" x1="276.09" y1="4.28" x2="293.83" y2="4.28"/><path class="d" d="M288.24,4.28A3.28,3.28,0,1,0,285,7.56h0a3.28,3.28,0,0,0,3.28-3.28"/><path class="e" d="M288.24,4.28A3.28,3.28,0,1,0,285,7.56h0A3.27,3.27,0,0,0,288.24,4.28Z"/><path class="h" d="M278.43,4.28a2.35,2.35,0,1,0-2.36,2.34h0a2.36,2.36,0,0,0,2.34-2.34"/><path class="h" d="M296.18,4.28a2.35,2.35,0,1,0-2.36,2.34h0a2.36,2.36,0,0,0,2.35-2.34"/><rect class="l" x="1" y="108.73" width="293.27" height="181.24"/><polygon class="l" points="352.45 108.73 602.4 108.73 602.4 289.98 352.45 289.98 352.45 108.73"/></svg>