<svg xmlns="http://www.w3.org/2000/svg" viewBox="0 0 80.96 80.96"><defs><style>.a{fill:#fff;}</style></defs><path class="a" d="M40.48,78.72A38.24,38.24,0,1,1,78.72,40.48,38.28,38.28,0,0,1,40.48,78.72M40.48,0A40.48,40.48,0,1,0,81,40.48,40.53,40.53,0,0,0,40.48,0"/><path class="a" d="M40.48,52.77a1.18,1.18,0,1,0,1.17,1.17,1.17,1.17,0,0,0-1.17-1.17"/><path class="a" d="M40.48,50.62a1.18,1.18,0,1,0-1.17-1.17,1.17,1.17,0,0,0,1.17,1.17"/><path class="a" d="M46.11,23.59H34.88V21.35H46.11Zm-11.23,36H46.11v2.25H34.88Zm0-33.73H46.11v2.26H34.88Zm0,4.5H46.11v2.25H34.88Zm11.23,27H34.88V46.07H46.11ZM34.88,34.82H46.11v9H34.88ZM37.12,14.6h2.26v4.5H37.12Zm6.74,4.5H41.62V14.6h2.24Zm0,47.21H37.12V64.06h6.74ZM46.1,13.48A1.12,1.12,0,0,0,45,12.36H36a1.12,1.12,0,0,0-1.12,1.12v5.63H32.63v45h2.25v3.37A1.12,1.12,0,0,0,36,68.55h9a1.12,1.12,0,0,0,1.12-1.12V64.06h2.25V19.11H46.1Z"/></svg>