<svg xmlns="http://www.w3.org/2000/svg" viewBox="0 0 440.33 219"><defs><style>.a{fill:none;}.b{fill:#fff;}.c{fill:#d0050c;}</style></defs><rect class="a" y="26.7" width="440.33" height="192.3"/><rect class="b" x="157.6" y="25.91" width="125.12" height="125.12" transform="translate(1.92 181.59) rotate(-45)"/><path class="b" d="M220,173.7l3.66-3.82-13.31-13.32-3.95,4,13.35,13.18m85.26-85c-3.27-3.25-6.52-6.54-9.83-9.76a5,5,0,0,0-5.83-1.27,6.59,6.59,0,0,0-4,6.24c-.11,2.27,2.19,2.81,3.22,4.27.24-2.38.54-3.51,1.67-4.69A5.3,5.3,0,0,1,292,82.7a5,5,0,0,1,.57,1.76,23.43,23.43,0,0,1-.74,3.4,6.48,6.48,0,0,0,2.48,7.06,4.28,4.28,0,0,0,4.31.92A4,4,0,0,0,301,92c0-.07.06-.14-.06.12a7.34,7.34,0,0,0,1.37-.66c.93-.82,1.82-1.69,2.72-2.54m-38.7.9-.57.61c-.12.11-.26.21-.37.32L229.13,127c-.22.23-.4.49-.61.73l.36-.23,3.5,4.06c.38-.37.66-.61.92-.88q13.6-13.6,27.22-27.22l9-9,1-1,19.35-19.33s.05-.15,0-.13l-3.82-3.89ZM228,123.88c2.14-1.3,2.81-3,2.79-5.45-.11-19.83-.06-39.67-.06-59.5V57.34h42.66l.23-.38c-2.29-2.18-4.56-4.39-6.89-6.53a2.32,2.32,0,0,0-1.46-.44q-18.06,0-36.12,0c-.36,0-.73.05-1.15.07Zm-3-76.74h38.21c-2.25-2.31-4.27-4.46-6.4-6.51a3,3,0,0,0-1.93-.79c-10.38-.05-20.75,0-31.12,0-.44,0-.88,0-1.41.07V129.6c1.63-1.47,3-2.63,2.93-5.15-.18-17.25-.15-34.49-.2-51.74q0-9.31-.08-18.62C225,51.85,225,49.61,225,47.14Zm8.34,13.08v58.44c1.61-1.38,2.76-2.55,2.73-4.9C236,98.93,236,84.09,236,69.25V67.62h47.23c-2-2.11-4-4.37-6.13-6.54a2.8,2.8,0,0,0-1.83-.74q-20.33-.11-40.63-.12ZM238.8,113l.39.27a5.83,5.83,0,0,1,.91-1.16,4.08,4.08,0,0,0,1.56-3.67c-.07-9.62,0-19.25,0-28.87V78.05h1.67c9.82,0,19.65,0,29.48,0a2.91,2.91,0,0,0,2.29-1c1.86-1.91,3.78-3.75,5.68-5.63.2-.21.37-.46.59-.74H238.8Zm37.56,4.17c-.13-.15-.29-.35-.46-.52-2.76-2.77-5.56-5.51-8.26-8.34-.37-.38-.26-1.22-.37-1.84a4.33,4.33,0,0,1,1.56.58c1.67,1.57,3.26,3.21,4.88,4.84l3.88,3.9,4-3.8c-1.46-1.42-2.92-2.84-4.36-4.27-2.18-2.17-4.33-4.39-6.55-6.52s-4.64-2-6.24.38a10.5,10.5,0,0,0-.9,2.74c-.23,0-.76-.14-1,.07-1.17,1-2.27,2-3.36,3.06l13.33,13.7Zm-35.9,35.94c-3.43-3.45-6.73-6.87-10.14-10.17a4.87,4.87,0,0,0-5.22-1.12,6.9,6.9,0,0,0-4.33,7,1.34,1.34,0,0,0,.25.68c.93,1,1.89,2,2.84,3.06a7.58,7.58,0,0,1,1.86-4.91,2.19,2.19,0,0,1,1.68-.64c.3,0,.68,1,.63,1.52a25.58,25.58,0,0,1-.76,3.66,6.33,6.33,0,0,0,2.48,6.95,4.1,4.1,0,0,0,4.3.95,3.9,3.9,0,0,0,2.35-3.81c0-.07.07-.14.1-.21C238.37,155.84,239.14,154.16,240.46,153.15Zm17.18-27.06a21.72,21.72,0,0,0-6.44-5.73,5.12,5.12,0,0,0-6.14.71,5.88,5.88,0,0,0-1.17,7.51,19.08,19.08,0,0,0,8.93,7.88c3.78,1.76,8.07-1.86,8.16-5.38a1.94,1.94,0,0,0-.25-1.16c-.76-1-1.6-1.86-2.51-2.9a35.36,35.36,0,0,1-1.3,3.29c-1,2-2.5,2.19-4.34.63C254.27,129.33,255.94,127.73,257.64,126.09Zm-34.57,7,18.57,18.56c1.26-1.27,2.61-2.61,3.72-3.74L226.9,129.26Zm-15.24,22.59,17.41-17.41-3.45-3.56L201.45,155l1.35,1.27a2.73,2.73,0,0,1,.73-3.39,2.55,2.55,0,0,1,2.92-.29A2.67,2.67,0,0,1,207.83,155.71Zm78.55-66.64c-1-1-1.85-1.91-2.81-2.67a2.79,2.79,0,0,0-1.77-.62c-3.38.29-5.9,4.15-4.53,7.28a18.18,18.18,0,0,0,9.85,9.74c3.09,1.31,6.89-1.21,7.11-4.82A1.83,1.83,0,0,0,294,96.8c-.89-1-1.87-2-2.92-3-.11.52-.16.81-.22,1.09-.5,2.4-2,3.16-4.09,1.84a12.24,12.24,0,0,1-3.16-2.93c-1.81-2.4-1-4.14,2-4.57C285.81,89.19,286,89.15,286.38,89.07ZM266.77,118c-.09.57-.13.85-.18,1.14-.39,2.28-1.95,3.07-4,2a9,9,0,0,1-3.79-3.86,2.27,2.27,0,0,1,1.56-3.56c.5-.14,1-.22,1.7-.36a30.85,30.85,0,0,0-2.73-2.6,3,3,0,0,0-2-.63c-3.37.43-5.71,4.18-4.34,7.28a17.84,17.84,0,0,0,10,9.75c3.28,1.32,7-1.66,6.94-5.14a1.84,1.84,0,0,0-.37-1.12C268.74,119.91,267.84,119.05,266.77,118Zm-48.85,31.19-6,6c3.38,3.37,6.86,6.82,10.32,10.3a4.36,4.36,0,0,0,4.53,1.32,4.86,4.86,0,0,0,3.64-3.72,2,2,0,0,0-.12-1.41,34,34,0,0,0-2.21-2.72c-.38.92-.52,1.36-.74,1.75-.44.77-1.09,1-1.74.33-2.05-2-4.06-4.12-6.37-6.48l2.32-1.72Zm15.77-16c3.47,3.45,6.93,6.87,10.36,10.33a4.26,4.26,0,0,0,4.65,1.25,5.09,5.09,0,0,0,3.71-4,1.42,1.42,0,0,0-.18-1c-.69-.84-1.48-1.62-2.3-2.49a15.23,15.23,0,0,1-.63,1.48c-.44.81-1.12,1.09-1.82.4-2-2-4-4.08-6.28-6.38l2.12-1.61-3.79-3.77Zm49.2-22.59,3.61-3.6L273.29,93.69l-3.68,3.57Z"/><path d="M305,88.93c-.9.85-1.79,1.72-2.72,2.54a7.34,7.34,0,0,1-1.37.66c.12-.26.06-.19.06-.12a4,4,0,0,1-2.35,3.83,4.28,4.28,0,0,1-4.31-.92,6.48,6.48,0,0,1-2.48-7.06,23.43,23.43,0,0,0,.74-3.4A5,5,0,0,0,292,82.7a5.3,5.3,0,0,0-1.79.77c-1.13,1.18-1.43,2.31-1.67,4.69-1-1.46-3.33-2-3.22-4.27a6.59,6.59,0,0,1,4-6.24,5,5,0,0,1,5.83,1.27c3.31,3.22,6.56,6.51,9.83,9.76Zm-9.11-2.78c-.23,1.53-.5,2.67.39,3.65.45.49,1.14,1,1.7.33a1.76,1.76,0,0,0,0-1.64A17.69,17.69,0,0,0,295.9,86.15Z"/><path d="M219.75,173.7,206.4,160.52l3.95-4,13.31,13.32L220,173.7Z"/><path d="M219.5,132.67c-6.77,6.72-13.51,13.47-20.16,20.11L160.51,114l20.35-20.36,17,17V78.17h-32.1L179.3,91.71l-20.52,20.52L135.32,88.75,155.68,68.4c-.05,0,0,0,.09,0,1.42,2.18,3.55,2.25,5.89,2.24,12.5-.08,25,0,37.5,0h1.64c0,.55.07,1,.07,1.51,0,13.2-.06,26.41-.15,39.62a3.37,3.37,0,0,0,1.26,3,8.74,8.74,0,0,1,1.19,1.37l.27-.21V67.75H156.18a7.16,7.16,0,0,1,.62-.8c2-1.93,3.9-3.88,5.93-5.74a3.63,3.63,0,0,1,2-.86c1.7-.13,3.41,0,5.12,0l34.75-.09h1.61V61.8c0,18.34.05,36.68-.06,55,0,2.16.93,3.34,2.53,4.54V57.45H166.65l-.18-.3L170,53.72c1.25-1.22,2.28-2.95,3.77-3.55s3.53-.2,5.32-.2h32.54v1.82c0,23.33,0,46.67-.06,70a5.53,5.53,0,0,0,2.74,5.08V47.23H176.53c1.75-1.82,3.4-3.28,4.74-5,1.6-2.05,3.52-2.53,6-2.49,9.37.14,18.75,0,28.13,0h1.77v1.72q0,43.44,0,86.89a3,3,0,0,0,1.57,2.94"/><path class="c" d="M218.75,131.09V36.92H187.07l32.67-32.8,32.77,32.77H222.16c-1.64,0-1.64,0-1.64,1.62q0,45.77,0,91.52a3.39,3.39,0,0,1-.8,2.38"/><path d="M228,123.88V50c.42,0,.79-.07,1.15-.07q18.06,0,36.12,0a2.32,2.32,0,0,1,1.46.44c2.33,2.14,4.6,4.35,6.89,6.53l-.23.38H230.75v1.59c0,19.83-.05,39.67.06,59.5C230.83,120.87,230.16,122.58,228,123.88Z"/><path d="M225,47.14c0,2.47,0,4.71,0,7q0,9.31.08,18.62c0,17.25,0,34.49.2,51.74,0,2.52-1.3,3.68-2.93,5.15V39.88c.53,0,1-.07,1.41-.07,10.37,0,20.74,0,31.12,0a3,3,0,0,1,1.93.79c2.13,2,4.15,4.2,6.4,6.51Z"/><path d="M233.38,60.22h1.3q20.31,0,40.63.12a2.8,2.8,0,0,1,1.83.74c2.13,2.17,4.17,4.43,6.13,6.54H236v1.63c0,14.84-.07,29.68.07,44.51,0,2.35-1.12,3.52-2.73,4.9Z"/><path d="M238.8,113V70.74h42.53c-.22.28-.39.53-.59.74-1.9,1.88-3.82,3.72-5.68,5.63a2.91,2.91,0,0,1-2.29,1c-9.83,0-19.66,0-29.48,0h-1.67v1.56c0,9.62,0,19.25,0,28.87a4.08,4.08,0,0,1-1.56,3.67,5.83,5.83,0,0,0-.91,1.16Z"/><path class="c" d="M269.51,94.43l-9,9L233.3,130.69c-.26.27-.54.51-.92.88l-3.5-4.06-.36.23c.21-.24.39-.5.61-.73l36.24-36.25c.11-.11.25-.21.37-.32-.66,2.2-.12,3.72,1.59,4.13A7.39,7.39,0,0,0,269.51,94.43Z"/><path d="M276.36,117.21l-3.86,4-13.33-13.7c1.09-1,2.19-2.08,3.36-3.06.25-.21.78-.06,1-.07a10.5,10.5,0,0,1,.9-2.74c1.6-2.41,4-2.53,6.24-.38s4.37,4.35,6.55,6.52c1.44,1.43,2.9,2.85,4.36,4.27l-4,3.8-3.88-3.9c-1.62-1.63-3.21-3.27-4.88-4.84a4.33,4.33,0,0,0-1.56-.58c.11.62,0,1.46.37,1.84,2.7,2.83,5.5,5.57,8.26,8.34C276.07,116.86,276.23,117.06,276.36,117.21Z"/><path d="M240.46,153.15c-1.32,1-2.09,2.69-4,3,0,.07-.1.14-.1.21a3.9,3.9,0,0,1-2.35,3.81,4.1,4.1,0,0,1-4.3-.95,6.33,6.33,0,0,1-2.48-6.95,25.58,25.58,0,0,0,.76-3.66c.05-.51-.33-1.47-.63-1.52a2.19,2.19,0,0,0-1.68.64,7.58,7.58,0,0,0-1.86,4.91c-1-1-1.91-2-2.84-3.06a1.34,1.34,0,0,1-.25-.68,6.9,6.9,0,0,1,4.33-7,4.87,4.87,0,0,1,5.22,1.12C233.73,146.28,237,149.7,240.46,153.15Zm-9.09-2.51c-.32,1.42-.56,2.63.46,3.49.4.34,1.15.27,1.74.39,0-.58.14-1.29-.13-1.7A17.15,17.15,0,0,0,231.37,150.64Z"/><path d="M257.64,126.09c-1.7,1.64-3.37,3.24-5.06,4.85,1.84,1.56,3.32,1.34,4.34-.63a35.36,35.36,0,0,0,1.3-3.29c.91,1,1.75,1.94,2.51,2.9a1.94,1.94,0,0,1,.25,1.16c-.09,3.52-4.38,7.14-8.16,5.38a19.08,19.08,0,0,1-8.93-7.88,5.88,5.88,0,0,1,1.17-7.51,5.12,5.12,0,0,1,6.14-.71A21.72,21.72,0,0,1,257.64,126.09Zm-6.21-.48c-1.49-1.48-2.63-1.78-3.41-1s-.34,2,1.12,3.27Z"/><path d="M223.07,133.12l3.83-3.86,18.46,18.68c-1.11,1.13-2.46,2.47-3.72,3.74Z"/><path class="c" d="M266.31,89.83l19.75-19.74L289.88,74s0,.08,0,.13L270.49,93.44a7.33,7.33,0,0,0,.13-2.07C270.19,89.5,268.56,89,266.31,89.83Z"/><path class="c" d="M207.83,155.71a2.67,2.67,0,0,0-1.38-3.08,2.55,2.55,0,0,0-2.92.29,2.73,2.73,0,0,0-.73,3.39L201.45,155l20.34-20.3,3.45,3.56Z"/><path d="M286.38,89.07c-.42.08-.57.12-.73.14-3,.43-3.84,2.17-2,4.57a12.24,12.24,0,0,0,3.16,2.93c2.08,1.32,3.59.56,4.09-1.84.06-.28.11-.57.22-1.09,1.05,1.07,2,2,2.92,3a1.83,1.83,0,0,1,.22,1.18c-.22,3.61-4,6.13-7.11,4.82a18.18,18.18,0,0,1-9.85-9.74c-1.37-3.13,1.15-7,4.53-7.28a2.79,2.79,0,0,1,1.77.62C284.53,87.16,285.36,88.08,286.38,89.07Z"/><path d="M266.77,118c1.07,1.1,2,2,2.8,2.88a1.84,1.84,0,0,1,.37,1.12c0,3.48-3.66,6.46-6.94,5.14a17.84,17.84,0,0,1-10-9.75c-1.37-3.1,1-6.85,4.34-7.28a3,3,0,0,1,2,.63,30.85,30.85,0,0,1,2.73,2.6c-.69.14-1.2.22-1.7.36a2.27,2.27,0,0,0-1.56,3.56,9,9,0,0,0,3.79,3.86c2,1.09,3.6.3,4-2C266.64,118.8,266.68,118.52,266.77,118Z"/><path d="M217.92,149.14l3.65,3.63-2.32,1.72c2.31,2.36,4.32,4.44,6.37,6.48.65.65,1.3.44,1.74-.33.22-.39.36-.83.74-1.75a34,34,0,0,1,2.21,2.72,2,2,0,0,1,.12,1.41,4.86,4.86,0,0,1-3.64,3.72,4.36,4.36,0,0,1-4.53-1.32c-3.46-3.48-6.94-6.93-10.32-10.3Z"/><path d="M233.69,133.13l5.84-5.82,3.79,3.77-2.12,1.61c2.26,2.3,4.24,4.37,6.28,6.38.7.69,1.38.41,1.82-.4a15.23,15.23,0,0,0,.63-1.48c.82.87,1.61,1.65,2.3,2.49a1.42,1.42,0,0,1,.18,1,5.09,5.09,0,0,1-3.71,4,4.26,4.26,0,0,1-4.65-1.25C240.62,140,237.16,136.58,233.69,133.13Z"/><path d="M282.89,110.54,269.61,97.26l3.68-3.57,13.21,13.25Z"/><path class="b" d="M266.31,89.83c2.25-.86,3.88-.33,4.31,1.54a7.33,7.33,0,0,1-.13,2.07l-1,1a7.39,7.39,0,0,1-2.18.14c-1.71-.41-2.25-1.93-1.59-4.13Z"/><path class="c" d="M204,157.52a3.73,3.73,0,0,0,2.15,0c-.45.4-.58.55-1.08,1C204.74,158.23,204.38,157.86,204,157.52Z"/><path class="a" d="M295.9,86.15A17.69,17.69,0,0,1,298,88.49a1.76,1.76,0,0,1,0,1.64c-.56.67-1.25.16-1.7-.33C295.4,88.82,295.67,87.68,295.9,86.15Z"/><path class="b" d="M231.37,150.64a17.15,17.15,0,0,1,2.07,2.18c.27.41.1,1.12.13,1.7-.59-.12-1.34-.05-1.74-.39C230.81,153.27,231.05,152.06,231.37,150.64Z"/></svg>