<svg xmlns="http://www.w3.org/2000/svg" viewBox="0 0 81.03 81.03"><defs><style>.a{fill:#fff;}</style></defs><path class="a" d="M51.82,24.77A1.18,1.18,0,1,1,53,23.59a1.18,1.18,0,0,1-1.18,1.18"/><path class="a" d="M51.82,58.56A1.17,1.17,0,1,1,53,57.39a1.17,1.17,0,0,1-1.18,1.17"/><path class="a" d="M40.51,2.24A38.28,38.28,0,1,0,78.78,40.51,38.32,38.32,0,0,0,40.51,2.24m0,78.79A40.52,40.52,0,1,1,81,40.51,40.57,40.57,0,0,1,40.51,81"/><path class="a" d="M49.06,69.73H42.32a1.13,1.13,0,0,1-1.13-1.12V63h2.25v4.47h4.5V62.55h2.25v6.06a1.13,1.13,0,0,1-1.13,1.12"/><path class="a" d="M50.19,18.71H47.94V13.49h-4.5V18.1H41.19V12.37a1.13,1.13,0,0,1,1.13-1.12h6.74a1.13,1.13,0,0,1,1.13,1.12Z"/><path class="a" d="M40.51,64.14c-12.17,0-15.08-2.34-15.37-2.61l-.22-.2-.09-.3c0-.08-.63-2.06-1.39-5.19l2.18-.53c.56,2.29,1,4,1.24,4.69.85.46,4.24,1.9,13.65,1.9s12.9-1.47,13.7-1.92A63.69,63.69,0,0,0,57.4,40.49,63.91,63.91,0,0,0,54.21,21c-.73-.43-3.94-1.9-13.69-1.9s-13,1.49-13.67,1.88c-.21.66-.76,2.45-1.46,5.49L23.2,26a45.39,45.39,0,0,1,1.59-5.88l0-.08h0a2.88,2.88,0,0,1,.27-.49h0l.06-.06.14-.12c.88-.68,4.23-2.47,15.22-2.47,12.23,0,15,2.21,15.43,2.65l.16.17.08.22a63.86,63.86,0,0,1,3.45,20.61A63.79,63.79,0,0,1,56.19,61.1l-.09.25-.2.19c-.29.26-3.22,2.6-15.39,2.6"/><path class="a" d="M40,52.42H21.35V50.18H40c4.33,0,7.86-4.34,7.86-9.68S44.36,30.83,40,30.83h-19V28.59H40c5.57,0,10.1,5.34,10.1,11.91S45.6,52.42,40,52.42"/><path class="a" d="M23,54.06H40c6.48,0,11.75-6.08,11.75-13.56S46.5,27,40,27H23a57.25,57.25,0,0,0-1.58,13.58A59.51,59.51,0,0,0,23,54.06M40,56.3H21.32l-.23-.81a60,60,0,0,1-1.89-15,54.63,54.63,0,0,1,1.91-15l.25-.79H40c7.72,0,14,7.09,14,15.8S47.74,56.3,40,56.3"/><path class="a" d="M30.4,38.7H36V36.22H30.4ZM38.27,41H28.15V34H38.27Z"/><path class="a" d="M40.51,2.24A38.28,38.28,0,1,0,78.78,40.51,38.32,38.32,0,0,0,40.51,2.24m0,78.79A40.52,40.52,0,1,1,81,40.51,40.57,40.57,0,0,1,40.51,81"/></svg>