<?xml version="1.0" encoding="utf-8"?>
<!-- Generator: Adobe Illustrator 26.0.2, SVG Export Plug-In . SVG Version: 6.00 Build 0)  -->
<svg version="1.1" id="Layer_1" xmlns="http://www.w3.org/2000/svg" xmlns:xlink="http://www.w3.org/1999/xlink" x="0px" y="0px"
	 width="647.658px" height="628.028px" viewBox="0 0 647.658 628.028" style="enable-background:new 0 0 647.658 628.028;"
	 xml:space="preserve">
<style type="text/css">
	.st0{clip-path:url(#SVGID_00000105392604099764983460000007033018058085869697_);}
</style>
<g>
	<path d="M259.156,118.804l3.639-6.205h0.932l-3.674,6.205l3.964,6.645h-0.993l-3.867-6.574v6.574h-0.861v-12.85h0.861V118.804z"/>
	<path d="M268.358,125.624c-0.48,0-0.918-0.134-1.314-0.4c-0.395-0.266-0.695-0.631-0.9-1.094h-0.079l0.062,1.046v4.597h-0.835
		v-13.86h0.686l0.088,1.31h0.079c0.234-0.48,0.534-0.85,0.9-1.107s0.767-0.387,1.2-0.387c1.863,0,2.795,1.644,2.795,4.931
		c0,1.588-0.229,2.812-0.686,3.674S269.231,125.624,268.358,125.624z M268.191,116.519c-0.697,0-1.216,0.308-1.556,0.923
		s-0.51,1.579-0.51,2.892v0.272c0,1.465,0.173,2.542,0.519,3.229c0.346,0.689,0.873,1.033,1.582,1.033
		c0.656,0,1.144-0.341,1.464-1.023c0.318-0.683,0.479-1.745,0.479-3.187c0-1.377-0.149-2.411-0.448-3.103
		S268.912,116.519,268.191,116.519z"/>
	<path d="M278.51,120.658c0,1.605-0.254,2.835-0.76,3.687c-0.508,0.854-1.232,1.279-2.176,1.279c-0.932,0-1.646-0.426-2.141-1.279
		c-0.495-0.852-0.742-2.081-0.742-3.687c0-3.287,0.973-4.931,2.918-4.931c0.914,0,1.626,0.431,2.136,1.292
		S278.51,119.094,278.51,120.658z M273.561,120.658c0,1.377,0.164,2.417,0.492,3.12s0.841,1.055,1.538,1.055
		c1.365,0,2.048-1.392,2.048-4.175c0-2.76-0.683-4.14-2.048-4.14c-0.715,0-1.232,0.346-1.551,1.037
		C273.721,118.247,273.561,119.281,273.561,120.658z"/>
	<path d="M281.445,115.912v4.175h3.542v-4.175h0.826v9.536h-0.826v-4.605h-3.542v4.605h-0.835v-9.536H281.445z"/>
	<path d="M288.371,125.448v-9.536h0.835v8.745h2.663v-8.745h0.826v8.745h2.663v-8.745h0.826v9.536H288.371z"/>
	<path d="M301.827,115.912v0.756h-1.696v8.78h-0.826v-8.78h-1.696v-0.756H301.827z"/>
	<path d="M305.661,125.624c-1.008,0-1.783-0.429-2.325-1.287s-0.812-2.056-0.812-3.591c0-1.629,0.242-2.872,0.725-3.731
		c0.484-0.857,1.18-1.287,2.088-1.287c0.791,0,1.415,0.377,1.872,1.129c0.457,0.754,0.686,1.769,0.686,3.046v0.773h-4.518
		c0.012,1.389,0.208,2.429,0.589,3.12s0.958,1.037,1.731,1.037c0.598,0,1.228-0.196,1.89-0.589v0.809
		C306.976,125.434,306.335,125.624,305.661,125.624z M305.283,116.483c-1.148,0-1.778,1.146-1.89,3.437h3.665
		c0-1.049-0.16-1.884-0.479-2.505C306.26,116.794,305.828,116.483,305.283,116.483z"/>
	<path d="M310.847,115.912v6.442l-0.062,1.802l3.384-8.244h1.046v9.536h-0.826v-6.17l0.035-2.074l-3.384,8.244h-1.028v-9.536
		H310.847z M312.657,114.541c-0.715,0-1.26-0.194-1.635-0.585c-0.375-0.389-0.592-1.018-0.65-1.885h0.809
		c0.064,0.662,0.209,1.131,0.436,1.406c0.225,0.275,0.572,0.413,1.041,0.413c0.492,0,0.851-0.146,1.076-0.439
		s0.365-0.753,0.418-1.38h0.809C314.86,113.718,314.093,114.541,312.657,114.541z"/>
	<path d="M318.607,115.912v4.175h3.542v-4.175h0.826v9.536h-0.826v-4.605h-3.542v4.605h-0.835v-9.536H318.607z"/>
	<path d="M334.12,115.912v9.536h-0.826v-8.78h-3.542v8.78h-0.835v-9.536H334.12z"/>
	<path d="M339.745,125.624c-0.48,0-0.918-0.134-1.314-0.4c-0.395-0.266-0.695-0.631-0.9-1.094h-0.079l0.062,1.046v4.597h-0.835
		v-13.86h0.686l0.088,1.31h0.079c0.234-0.48,0.534-0.85,0.9-1.107s0.767-0.387,1.2-0.387c1.863,0,2.795,1.644,2.795,4.931
		c0,1.588-0.229,2.812-0.686,3.674S340.618,125.624,339.745,125.624z M339.578,116.519c-0.697,0-1.216,0.308-1.556,0.923
		s-0.51,1.579-0.51,2.892v0.272c0,1.465,0.173,2.542,0.519,3.229c0.346,0.689,0.873,1.033,1.582,1.033
		c0.656,0,1.144-0.341,1.464-1.023c0.318-0.683,0.479-1.745,0.479-3.187c0-1.377-0.149-2.411-0.448-3.103
		S340.299,116.519,339.578,116.519z"/>
	<path d="M347.233,125.624c-1.008,0-1.783-0.429-2.325-1.287s-0.812-2.056-0.812-3.591c0-1.629,0.242-2.872,0.725-3.731
		c0.484-0.857,1.18-1.287,2.088-1.287c0.791,0,1.415,0.377,1.872,1.129c0.457,0.754,0.686,1.769,0.686,3.046v0.773h-4.518
		c0.012,1.389,0.208,2.429,0.589,3.12s0.958,1.037,1.731,1.037c0.598,0,1.228-0.196,1.89-0.589v0.809
		C348.549,125.434,347.907,125.624,347.233,125.624z M346.855,116.483c-1.148,0-1.778,1.146-1.89,3.437h3.665
		c0-1.049-0.16-1.884-0.479-2.505C347.832,116.794,347.4,116.483,346.855,116.483z"/>
	<path d="M356.444,128.691h-0.826v-3.243h-4.79v3.243h-0.826v-4.034h0.738c0.492-1.143,0.864-2.464,1.116-3.964
		s0.378-3.094,0.378-4.781h3.243v8.745h0.967V128.691z M354.651,124.657v-7.989h-1.644c-0.018,1.406-0.166,2.878-0.443,4.417
		c-0.279,1.537-0.617,2.729-1.016,3.572H354.651z"/>
	<path d="M358.949,115.912v4.175h3.542v-4.175h0.826v9.536h-0.826v-4.605h-3.542v4.605h-0.835v-9.536H358.949z"/>
	<path d="M369.566,125.448l-0.105-1.336h-0.035c-0.457,1.008-1.148,1.512-2.074,1.512c-0.621,0-1.12-0.247-1.499-0.742
		c-0.377-0.495-0.566-1.159-0.566-1.991c0-0.908,0.272-1.627,0.817-2.157s1.31-0.819,2.294-0.866l1.028-0.053v-0.791
		c0-0.891-0.111-1.539-0.334-1.946s-0.592-0.611-1.107-0.611c-0.545,0-1.102,0.179-1.67,0.536l-0.36-0.659
		c0.662-0.41,1.356-0.615,2.083-0.615c0.785,0,1.351,0.248,1.696,0.742c0.346,0.496,0.519,1.323,0.519,2.483v6.495H369.566z
		 M367.536,124.912c0.598,0,1.062-0.294,1.393-0.884c0.331-0.588,0.497-1.422,0.497-2.5v-0.993l-0.993,0.053
		c-0.768,0.041-1.338,0.254-1.709,0.638c-0.373,0.384-0.559,0.944-0.559,1.683c0,0.691,0.123,1.198,0.369,1.521
		S367.114,124.912,367.536,124.912z"/>
	<path d="M373.759,120.017c0.27,0,0.52-0.076,0.752-0.229c0.23-0.152,0.412-0.37,0.545-0.654c0.131-0.284,0.197-0.614,0.197-0.989
		c0-0.562-0.127-0.982-0.383-1.261c-0.254-0.278-0.596-0.418-1.023-0.418c-0.445,0-0.894,0.144-1.345,0.431l-0.396-0.65
		c0.551-0.346,1.163-0.519,1.837-0.519c0.686,0,1.219,0.208,1.6,0.624s0.571,0.999,0.571,1.749c0,0.521-0.122,0.978-0.365,1.367
		s-0.552,0.66-0.927,0.812v0.07c0.498,0.164,0.88,0.451,1.147,0.861c0.266,0.41,0.399,0.929,0.399,1.556
		c0,0.873-0.233,1.567-0.698,2.083c-0.467,0.516-1.074,0.773-1.824,0.773c-0.82,0-1.456-0.208-1.907-0.624v-0.87
		c0.246,0.193,0.521,0.365,0.826,0.514c0.305,0.15,0.665,0.225,1.081,0.225c0.527,0,0.936-0.179,1.227-0.536
		c0.289-0.357,0.435-0.879,0.435-1.564c0-0.604-0.161-1.087-0.483-1.45s-0.762-0.545-1.318-0.545h-0.431v-0.756H373.759z"/>
	<path d="M379.252,115.912v4.175h3.542v-4.175h0.826v9.536h-0.826v-4.605h-3.542v4.605h-0.835v-9.536H379.252z"/>
	<path d="M389.869,125.448l-0.105-1.336h-0.035c-0.457,1.008-1.148,1.512-2.074,1.512c-0.621,0-1.12-0.247-1.499-0.742
		c-0.377-0.495-0.566-1.159-0.566-1.991c0-0.908,0.272-1.627,0.817-2.157s1.31-0.819,2.294-0.866l1.028-0.053v-0.791
		c0-0.891-0.111-1.539-0.334-1.946s-0.592-0.611-1.107-0.611c-0.545,0-1.102,0.179-1.67,0.536l-0.36-0.659
		c0.662-0.41,1.356-0.615,2.083-0.615c0.785,0,1.351,0.248,1.696,0.742c0.346,0.496,0.519,1.323,0.519,2.483v6.495H389.869z
		 M387.839,124.912c0.598,0,1.062-0.294,1.393-0.884c0.331-0.588,0.497-1.422,0.497-2.5v-0.993l-0.993,0.053
		c-0.768,0.041-1.338,0.254-1.709,0.638c-0.373,0.384-0.559,0.944-0.559,1.683c0,0.691,0.123,1.198,0.369,1.521
		S387.417,124.912,387.839,124.912z"/>
	<path d="M393.701,115.912v3.938c0,0.539,0.114,0.932,0.343,1.178s0.533,0.369,0.914,0.369c0.445,0,0.867-0.115,1.266-0.347
		s0.747-0.523,1.046-0.875v-4.263h0.826v9.536h-0.826v-4.377c-0.299,0.346-0.661,0.615-1.085,0.809
		c-0.426,0.193-0.875,0.29-1.35,0.29c-1.307,0-1.96-0.838-1.96-2.514v-3.744H393.701z"/>
	<path d="M403.351,125.624c-1.008,0-1.783-0.429-2.325-1.287s-0.812-2.056-0.812-3.591c0-1.629,0.242-2.872,0.725-3.731
		c0.484-0.857,1.18-1.287,2.088-1.287c0.791,0,1.415,0.377,1.872,1.129c0.457,0.754,0.686,1.769,0.686,3.046v0.773h-4.518
		c0.012,1.389,0.208,2.429,0.589,3.12s0.958,1.037,1.731,1.037c0.598,0,1.228-0.196,1.89-0.589v0.809
		C404.667,125.434,404.025,125.624,403.351,125.624z M402.973,116.483c-1.148,0-1.778,1.146-1.89,3.437h3.665
		c0-1.049-0.16-1.884-0.479-2.505C403.95,116.794,403.518,116.483,402.973,116.483z"/>
	<path d="M408.537,115.912v4.175h3.542v-4.175h0.826v9.536h-0.826v-4.605h-3.542v4.605h-0.835v-9.536H408.537z"/>
	<path d="M424.102,128.691h-0.826v-3.243h-4.79v3.243h-0.826v-4.034h0.738c0.492-1.143,0.864-2.464,1.116-3.964
		s0.378-3.094,0.378-4.781h3.243v8.745h0.967V128.691z M422.309,124.657v-7.989h-1.644c-0.018,1.406-0.166,2.878-0.443,4.417
		c-0.279,1.537-0.617,2.729-1.016,3.572H422.309z"/>
	<path d="M427.682,116.703c-0.064,1.623-0.155,3.008-0.272,4.153s-0.258,2.057-0.422,2.732c-0.164,0.678-0.371,1.171-0.619,1.481
		c-0.25,0.311-0.597,0.466-1.042,0.466c-0.141,0-0.272-0.023-0.396-0.07v-0.773c0.07,0.035,0.173,0.053,0.308,0.053
		c0.346,0,0.622-0.293,0.831-0.879c0.207-0.586,0.379-1.506,0.514-2.76s0.243-2.985,0.325-5.194h3.656v9.536h-0.826v-8.745H427.682z
		"/>
	<path d="M436.735,121.238h-1.099l-2.391,4.21h-0.976l2.54-4.263c-0.715-0.129-1.257-0.414-1.626-0.856s-0.554-1.027-0.554-1.754
		c0-0.855,0.264-1.513,0.791-1.973s1.26-0.69,2.197-0.69h1.942v9.536h-0.826V121.238z M436.735,120.482v-3.814h-1.116
		c-1.418,0-2.127,0.636-2.127,1.907s0.703,1.907,2.109,1.907H436.735z"/>
	<path d="M444.338,115.912v4.175h3.542v-4.175h0.826v9.536h-0.826v-4.605h-3.542v4.605h-0.835v-9.536H444.338z"/>
	<path d="M454.955,125.448l-0.105-1.336h-0.035c-0.457,1.008-1.148,1.512-2.074,1.512c-0.621,0-1.12-0.247-1.499-0.742
		c-0.377-0.495-0.566-1.159-0.566-1.991c0-0.908,0.272-1.627,0.817-2.157s1.31-0.819,2.294-0.866l1.028-0.053v-0.791
		c0-0.891-0.111-1.539-0.334-1.946s-0.592-0.611-1.107-0.611c-0.545,0-1.102,0.179-1.67,0.536l-0.36-0.659
		c0.662-0.41,1.356-0.615,2.083-0.615c0.785,0,1.351,0.248,1.696,0.742c0.346,0.496,0.519,1.323,0.519,2.483v6.495H454.955z
		 M452.925,124.912c0.598,0,1.062-0.294,1.393-0.884c0.331-0.588,0.497-1.422,0.497-2.5v-0.993l-0.993,0.053
		c-0.768,0.041-1.338,0.254-1.709,0.638c-0.373,0.384-0.559,0.944-0.559,1.683c0,0.691,0.123,1.198,0.369,1.521
		S452.503,124.912,452.925,124.912z"/>
	<path d="M460.606,125.624c-0.955,0-1.674-0.414-2.158-1.244c-0.482-0.828-0.725-2.046-0.725-3.651c0-1.629,0.244-2.87,0.734-3.722
		c0.488-0.854,1.211-1.279,2.166-1.279c0.592,0,1.084,0.108,1.477,0.325l-0.325,0.738c-0.393-0.182-0.753-0.272-1.081-0.272
		c-1.4,0-2.101,1.397-2.101,4.192c0,2.771,0.7,4.157,2.101,4.157c0.416,0,0.867-0.094,1.354-0.281v0.703
		c-0.193,0.105-0.431,0.188-0.712,0.246S460.811,125.624,460.606,125.624z"/>
	<path d="M466.551,115.912v0.756h-1.696v8.78h-0.826v-8.78h-1.696v-0.756H466.551z"/>
	<path d="M470.385,125.624c-1.008,0-1.783-0.429-2.325-1.287s-0.812-2.056-0.812-3.591c0-1.629,0.242-2.872,0.725-3.731
		c0.484-0.857,1.18-1.287,2.088-1.287c0.791,0,1.415,0.377,1.872,1.129c0.457,0.754,0.686,1.769,0.686,3.046v0.773h-4.518
		c0.012,1.389,0.208,2.429,0.589,3.12s0.958,1.037,1.731,1.037c0.598,0,1.228-0.196,1.89-0.589v0.809
		C471.7,125.434,471.058,125.624,470.385,125.624z M470.007,116.483c-1.148,0-1.778,1.146-1.89,3.437h3.665
		c0-1.049-0.16-1.884-0.479-2.505C470.983,116.794,470.552,116.483,470.007,116.483z"/>
	<path d="M475.57,115.912v4.175h3.542v-4.175h0.826v9.536h-0.826v-4.605h-3.542v4.605h-0.835v-9.536H475.57z"/>
	<path d="M483.331,115.912v4.175h3.542v-4.175h0.826v9.536h-0.826v-4.605h-3.542v4.605h-0.835v-9.536H483.331z"/>
	<path d="M495.627,120.658c0,1.605-0.254,2.835-0.76,3.687c-0.508,0.854-1.232,1.279-2.176,1.279c-0.932,0-1.646-0.426-2.141-1.279
		c-0.495-0.852-0.742-2.081-0.742-3.687c0-3.287,0.973-4.931,2.918-4.931c0.914,0,1.626,0.431,2.136,1.292
		S495.627,119.094,495.627,120.658z M490.679,120.658c0,1.377,0.164,2.417,0.492,3.12s0.841,1.055,1.538,1.055
		c1.365,0,2.048-1.392,2.048-4.175c0-2.76-0.683-4.14-2.048-4.14c-0.715,0-1.232,0.346-1.551,1.037
		C490.838,118.247,490.679,119.281,490.679,120.658z"/>
	<path d="M501.507,115.912v0.791h-2.944v8.745h-0.835v-9.536H501.507z"/>
	<path d="M508.03,120.658c0,1.605-0.254,2.835-0.76,3.687c-0.508,0.854-1.232,1.279-2.176,1.279c-0.932,0-1.646-0.426-2.141-1.279
		c-0.495-0.852-0.742-2.081-0.742-3.687c0-3.287,0.973-4.931,2.918-4.931c0.914,0,1.626,0.431,2.136,1.292
		S508.03,119.094,508.03,120.658z M503.082,120.658c0,1.377,0.164,2.417,0.492,3.12s0.841,1.055,1.538,1.055
		c1.365,0,2.048-1.392,2.048-4.175c0-2.76-0.683-4.14-2.048-4.14c-0.715,0-1.232,0.346-1.551,1.037
		C503.241,118.247,503.082,119.281,503.082,120.658z"/>
	<path d="M517.048,115.912h0.949l-2.804,4.482l3.041,5.054h-0.993l-2.892-4.983v4.983h-0.835v-9.536h0.835v4.482L517.048,115.912z"
		/>
	<path d="M522.664,125.624c-0.48,0-0.918-0.134-1.314-0.4c-0.395-0.266-0.695-0.631-0.9-1.094h-0.079l0.062,1.046v4.597h-0.835
		v-13.86h0.686l0.088,1.31h0.079c0.234-0.48,0.534-0.85,0.9-1.107s0.767-0.387,1.2-0.387c1.863,0,2.795,1.644,2.795,4.931
		c0,1.588-0.229,2.812-0.686,3.674S523.537,125.624,522.664,125.624z M522.497,116.519c-0.697,0-1.216,0.308-1.556,0.923
		s-0.51,1.579-0.51,2.892v0.272c0,1.465,0.173,2.542,0.519,3.229c0.346,0.689,0.873,1.033,1.582,1.033
		c0.656,0,1.144-0.341,1.464-1.023c0.318-0.683,0.479-1.745,0.479-3.187c0-1.377-0.149-2.411-0.448-3.103
		S523.218,116.519,522.497,116.519z"/>
	<path d="M530.152,125.624c-1.008,0-1.783-0.429-2.325-1.287s-0.812-2.056-0.812-3.591c0-1.629,0.242-2.872,0.725-3.731
		c0.484-0.857,1.18-1.287,2.088-1.287c0.791,0,1.415,0.377,1.872,1.129c0.457,0.754,0.686,1.769,0.686,3.046v0.773h-4.518
		c0.012,1.389,0.208,2.429,0.589,3.12s0.958,1.037,1.731,1.037c0.598,0,1.228-0.196,1.89-0.589v0.809
		C531.468,125.434,530.826,125.624,530.152,125.624z M529.774,116.483c-1.148,0-1.778,1.146-1.89,3.437h3.665
		c0-1.049-0.16-1.884-0.479-2.505C530.751,116.794,530.319,116.483,529.774,116.483z"/>
	<path d="M539.706,115.912v9.536h-0.826v-8.78h-3.542v8.78h-0.835v-9.536H539.706z"/>
	<path d="M543.652,116.703c-0.064,1.623-0.155,3.008-0.272,4.153s-0.258,2.057-0.422,2.732c-0.164,0.678-0.371,1.171-0.619,1.481
		c-0.25,0.311-0.597,0.466-1.042,0.466c-0.141,0-0.272-0.023-0.396-0.07v-0.773c0.07,0.035,0.173,0.053,0.308,0.053
		c0.346,0,0.622-0.293,0.831-0.879c0.207-0.586,0.379-1.506,0.514-2.76s0.243-2.985,0.325-5.194h3.656v9.536h-0.826v-8.745H543.652z
		"/>
	<path d="M551.791,125.624c-1.008,0-1.783-0.429-2.325-1.287s-0.812-2.056-0.812-3.591c0-1.629,0.242-2.872,0.725-3.731
		c0.484-0.857,1.18-1.287,2.088-1.287c0.791,0,1.415,0.377,1.872,1.129c0.457,0.754,0.686,1.769,0.686,3.046v0.773h-4.518
		c0.012,1.389,0.208,2.429,0.589,3.12s0.958,1.037,1.731,1.037c0.598,0,1.228-0.196,1.89-0.589v0.809
		C553.106,125.434,552.465,125.624,551.791,125.624z M551.413,116.483c-1.148,0-1.778,1.146-1.89,3.437h3.665
		c0-1.049-0.16-1.884-0.479-2.505C552.39,116.794,551.958,116.483,551.413,116.483z"/>
	<path d="M555.333,121.036v-0.896h3.604v0.896H555.333z"/>
</g>
<g>
	<path d="M258.998,135.709v4.175h3.542v-4.175h0.826v9.536h-0.826v-4.605h-3.542v4.605h-0.835v-9.536H258.998z"/>
	<path d="M266.759,135.709v6.442l-0.062,1.802l3.384-8.244h1.046v9.536h-0.826v-6.17l0.035-2.074l-3.384,8.244h-1.028v-9.536
		H266.759z"/>
	<path d="M277.306,141.035h-1.099l-2.391,4.21h-0.976l2.54-4.263c-0.715-0.129-1.257-0.414-1.626-0.856s-0.554-1.027-0.554-1.754
		c0-0.855,0.264-1.513,0.791-1.973s1.26-0.69,2.197-0.69h1.942v9.536h-0.826V141.035z M277.306,140.279v-3.814h-1.116
		c-1.418,0-2.127,0.636-2.127,1.907s0.703,1.907,2.109,1.907H277.306z"/>
	<path d="M287.606,135.709h0.949l-2.804,4.482l3.041,5.054H287.8l-2.892-4.983v4.983h-0.835v-9.536h0.835v4.482L287.606,135.709z"/>
	<path d="M295.327,140.455c0,1.605-0.254,2.835-0.76,3.687c-0.508,0.854-1.232,1.279-2.176,1.279c-0.932,0-1.646-0.426-2.141-1.279
		c-0.495-0.852-0.742-2.081-0.742-3.687c0-3.287,0.973-4.931,2.918-4.931c0.914,0,1.626,0.431,2.136,1.292
		S295.327,138.891,295.327,140.455z M290.379,140.455c0,1.377,0.164,2.417,0.492,3.12s0.841,1.055,1.538,1.055
		c1.365,0,2.048-1.392,2.048-4.175c0-2.76-0.683-4.14-2.048-4.14c-0.715,0-1.232,0.346-1.551,1.037
		C290.538,138.044,290.379,139.078,290.379,140.455z"/>
	<path d="M300.275,145.245l-2.074-8.244h-0.07c0.064,1.354,0.097,2.171,0.097,2.452v5.792h-0.8v-9.536h1.213l1.582,6.223
		c0.229,0.943,0.396,1.737,0.501,2.382h0.07c0.006-0.088,0.06-0.355,0.162-0.805c0.103-0.447,0.764-3.048,1.982-7.8h1.204v9.536
		h-0.826v-5.739c0-0.439,0.029-1.274,0.088-2.505h-0.07l-2.083,8.244H300.275z"/>
	<path d="M311.903,135.709v9.536h-0.826v-8.78h-3.542v8.78H306.7v-9.536H311.903z"/>
	<path d="M315.849,136.5c-0.064,1.623-0.155,3.008-0.272,4.153s-0.258,2.057-0.422,2.732c-0.164,0.678-0.371,1.171-0.619,1.481
		c-0.25,0.311-0.597,0.466-1.042,0.466c-0.141,0-0.272-0.023-0.396-0.07v-0.773c0.07,0.035,0.173,0.053,0.308,0.053
		c0.346,0,0.622-0.293,0.831-0.879c0.207-0.586,0.379-1.506,0.514-2.76s0.243-2.985,0.325-5.194h3.656v9.536h-0.826V136.5H315.849z"
		/>
	<path d="M323.988,145.421c-1.008,0-1.783-0.429-2.325-1.287s-0.812-2.056-0.812-3.591c0-1.629,0.242-2.872,0.725-3.731
		c0.484-0.857,1.18-1.287,2.088-1.287c0.791,0,1.415,0.377,1.872,1.129c0.457,0.754,0.686,1.769,0.686,3.046v0.773h-4.518
		c0.012,1.389,0.208,2.429,0.589,3.12s0.958,1.037,1.731,1.037c0.598,0,1.228-0.196,1.89-0.589v0.809
		C325.304,145.23,324.662,145.421,323.988,145.421z M323.61,136.28c-1.148,0-1.778,1.146-1.89,3.437h3.665
		c0-1.049-0.16-1.884-0.479-2.505C324.587,136.591,324.155,136.28,323.61,136.28z"/>
	<path d="M331.872,135.709h0.949l-2.804,4.482l3.041,5.054h-0.993l-2.892-4.983v4.983h-0.835v-9.536h0.835v4.482L331.872,135.709z"
		/>
	<path d="M337.506,135.709v0.756h-1.696v8.78h-0.826v-8.78h-1.696v-0.756H337.506z"/>
	<path d="M344.003,140.455c0,1.605-0.254,2.835-0.76,3.687c-0.508,0.854-1.232,1.279-2.176,1.279c-0.932,0-1.646-0.426-2.141-1.279
		c-0.495-0.852-0.742-2.081-0.742-3.687c0-3.287,0.973-4.931,2.918-4.931c0.914,0,1.626,0.431,2.136,1.292
		S344.003,138.891,344.003,140.455z M339.055,140.455c0,1.377,0.164,2.417,0.492,3.12s0.841,1.055,1.538,1.055
		c1.365,0,2.048-1.392,2.048-4.175c0-2.76-0.683-4.14-2.048-4.14c-0.715,0-1.232,0.346-1.551,1.037
		C339.214,138.044,339.055,139.078,339.055,140.455z"/>
	<path d="M350.7,137.994c0,0.58-0.105,1.045-0.316,1.394s-0.545,0.596-1.002,0.742v0.079c0.516,0.088,0.908,0.325,1.178,0.712
		s0.404,0.873,0.404,1.459c0,0.902-0.231,1.605-0.694,2.109s-1.119,0.756-1.969,0.756h-2.197v-9.536h2.021
		c0.838,0,1.477,0.198,1.916,0.593C350.48,136.698,350.7,137.262,350.7,137.994z M349.83,137.994c0-1.02-0.562-1.529-1.688-1.529
		h-1.204v3.384h1.38c0.545,0,0.933-0.146,1.165-0.439C349.714,139.116,349.83,138.645,349.83,137.994z M350.102,142.362
		c0-0.645-0.148-1.104-0.443-1.38c-0.297-0.275-0.731-0.413-1.306-0.413h-1.415v3.92h1.38c0.621,0,1.073-0.168,1.358-0.506
		C349.96,143.647,350.102,143.106,350.102,142.362z"/>
	<path d="M360.069,145.245l-0.105-1.336h-0.035c-0.457,1.008-1.148,1.512-2.074,1.512c-0.621,0-1.12-0.247-1.499-0.742
		c-0.377-0.495-0.566-1.159-0.566-1.991c0-0.908,0.272-1.627,0.817-2.157s1.31-0.819,2.294-0.866l1.028-0.053v-0.791
		c0-0.891-0.111-1.539-0.334-1.946s-0.592-0.611-1.107-0.611c-0.545,0-1.102,0.179-1.67,0.536l-0.36-0.659
		c0.662-0.41,1.356-0.615,2.083-0.615c0.785,0,1.351,0.248,1.696,0.742c0.346,0.496,0.519,1.323,0.519,2.483v6.495H360.069z
		 M358.039,144.709c0.598,0,1.062-0.294,1.393-0.884c0.331-0.588,0.497-1.422,0.497-2.5v-0.993l-0.993,0.053
		c-0.768,0.041-1.338,0.254-1.709,0.638c-0.373,0.384-0.559,0.944-0.559,1.683c0,0.691,0.123,1.198,0.369,1.521
		S357.617,144.709,358.039,144.709z"/>
	<path d="M367.865,137.994c0,0.58-0.105,1.045-0.316,1.394s-0.545,0.596-1.002,0.742v0.079c0.516,0.088,0.908,0.325,1.178,0.712
		s0.404,0.873,0.404,1.459c0,0.902-0.231,1.605-0.694,2.109s-1.119,0.756-1.969,0.756h-2.197v-9.536h2.021
		c0.838,0,1.477,0.198,1.916,0.593C367.645,136.698,367.865,137.262,367.865,137.994z M366.995,137.994
		c0-1.02-0.562-1.529-1.688-1.529h-1.204v3.384h1.38c0.545,0,0.933-0.146,1.165-0.439
		C366.879,139.116,366.995,138.645,366.995,137.994z M367.267,142.362c0-0.645-0.148-1.104-0.443-1.38
		c-0.297-0.275-0.731-0.413-1.306-0.413h-1.415v3.92h1.38c0.621,0,1.073-0.168,1.358-0.506
		C367.125,143.647,367.267,143.106,367.267,142.362z"/>
	<path d="M373.244,135.709v0.756h-1.696v8.78h-0.826v-8.78h-1.696v-0.756H373.244z"/>
	<path d="M379.741,140.455c0,1.605-0.254,2.835-0.76,3.687c-0.508,0.854-1.232,1.279-2.176,1.279c-0.932,0-1.646-0.426-2.141-1.279
		c-0.495-0.852-0.742-2.081-0.742-3.687c0-3.287,0.973-4.931,2.918-4.931c0.914,0,1.626,0.431,2.136,1.292
		S379.741,138.891,379.741,140.455z M374.793,140.455c0,1.377,0.164,2.417,0.492,3.12s0.841,1.055,1.538,1.055
		c1.365,0,2.048-1.392,2.048-4.175c0-2.76-0.683-4.14-2.048-4.14c-0.715,0-1.232,0.346-1.551,1.037
		C374.952,138.044,374.793,139.078,374.793,140.455z"/>
	<path d="M384.689,145.245l-2.074-8.244h-0.07c0.064,1.354,0.097,2.171,0.097,2.452v5.792h-0.8v-9.536h1.213l1.582,6.223
		c0.229,0.943,0.396,1.737,0.501,2.382h0.07c0.006-0.088,0.06-0.355,0.162-0.805c0.103-0.447,0.764-3.048,1.982-7.8h1.204v9.536
		h-0.826v-5.739c0-0.439,0.029-1.274,0.088-2.505h-0.07l-2.083,8.244H384.689z"/>
	<path d="M394.806,145.245l-0.105-1.336h-0.035c-0.457,1.008-1.148,1.512-2.074,1.512c-0.621,0-1.12-0.247-1.499-0.742
		c-0.377-0.495-0.566-1.159-0.566-1.991c0-0.908,0.272-1.627,0.817-2.157s1.31-0.819,2.294-0.866l1.028-0.053v-0.791
		c0-0.891-0.111-1.539-0.334-1.946s-0.592-0.611-1.107-0.611c-0.545,0-1.102,0.179-1.67,0.536l-0.36-0.659
		c0.662-0.41,1.356-0.615,2.083-0.615c0.785,0,1.351,0.248,1.696,0.742c0.346,0.496,0.519,1.323,0.519,2.483v6.495H394.806z
		 M392.775,144.709c0.598,0,1.062-0.294,1.393-0.884c0.331-0.588,0.497-1.422,0.497-2.5v-0.993l-0.993,0.053
		c-0.768,0.041-1.338,0.254-1.709,0.638c-0.373,0.384-0.559,0.944-0.559,1.683c0,0.691,0.123,1.198,0.369,1.521
		S392.353,144.709,392.775,144.709z"/>
	<path d="M401.09,135.709v0.756h-1.696v8.78h-0.826v-8.78h-1.696v-0.756H401.09z"/>
	<path d="M403.34,135.709v6.442l-0.062,1.802l3.384-8.244h1.046v9.536h-0.826v-6.17l0.035-2.074l-3.384,8.244h-1.028v-9.536H403.34z
		"/>
	<path d="M413.799,135.709h0.949l-2.804,4.482l3.041,5.054h-0.993l-2.892-4.983v4.983h-0.835v-9.536h0.835v4.482L413.799,135.709z"
		/>
	<path d="M417.182,135.709v6.442l-0.062,1.802l3.384-8.244h1.046v9.536h-0.826v-6.17l0.035-2.074l-3.384,8.244h-1.028v-9.536
		H417.182z"/>
	<path d="M429.944,145.421c-0.955,0-1.674-0.414-2.158-1.244c-0.482-0.828-0.725-2.046-0.725-3.651c0-1.629,0.244-2.87,0.734-3.722
		c0.488-0.854,1.211-1.279,2.166-1.279c0.592,0,1.084,0.108,1.477,0.325l-0.325,0.738c-0.393-0.182-0.753-0.272-1.081-0.272
		c-1.4,0-2.101,1.397-2.101,4.192c0,2.771,0.7,4.157,2.101,4.157c0.416,0,0.867-0.094,1.354-0.281v0.703
		c-0.193,0.105-0.431,0.188-0.712,0.246S430.149,145.421,429.944,145.421z"/>
	<path d="M441.528,135.709v0.791h-2.944v8.745h-0.835v-9.536H441.528z"/>
	<path d="M443.787,135.709v6.442l-0.062,1.802l3.384-8.244h1.046v9.536h-0.826v-6.17l0.035-2.074l-3.384,8.244h-1.028v-9.536
		H443.787z"/>
	<path d="M455.969,148.488h-0.826v-3.243h-4.79v3.243h-0.826v-4.034h0.738c0.492-1.143,0.864-2.464,1.116-3.964
		s0.378-3.094,0.378-4.781h3.243v8.745h0.967V148.488z M454.176,144.454v-7.989h-1.644c-0.018,1.406-0.166,2.878-0.443,4.417
		c-0.279,1.537-0.617,2.729-1.016,3.572H454.176z"/>
	<path d="M460.706,145.421c-0.48,0-0.918-0.134-1.314-0.4c-0.395-0.266-0.695-0.631-0.9-1.094h-0.079l0.062,1.046v4.597h-0.835
		v-13.86h0.686l0.088,1.31h0.079c0.234-0.48,0.534-0.85,0.9-1.107s0.767-0.387,1.2-0.387c1.863,0,2.795,1.644,2.795,4.931
		c0,1.588-0.229,2.812-0.686,3.674S461.579,145.421,460.706,145.421z M460.539,136.315c-0.697,0-1.216,0.308-1.556,0.923
		s-0.51,1.579-0.51,2.892v0.272c0,1.465,0.173,2.542,0.519,3.229c0.346,0.689,0.873,1.033,1.582,1.033
		c0.656,0,1.144-0.341,1.464-1.023c0.318-0.683,0.479-1.745,0.479-3.187c0-1.377-0.149-2.411-0.448-3.103
		S461.26,136.315,460.539,136.315z"/>
	<path d="M470.857,140.455c0,1.605-0.254,2.835-0.76,3.687c-0.508,0.854-1.232,1.279-2.176,1.279c-0.932,0-1.646-0.426-2.141-1.279
		c-0.495-0.852-0.742-2.081-0.742-3.687c0-3.287,0.973-4.931,2.918-4.931c0.914,0,1.626,0.431,2.136,1.292
		S470.857,138.891,470.857,140.455z M465.909,140.455c0,1.377,0.164,2.417,0.492,3.12s0.841,1.055,1.538,1.055
		c1.365,0,2.048-1.392,2.048-4.175c0-2.76-0.683-4.14-2.048-4.14c-0.715,0-1.232,0.346-1.551,1.037
		C466.068,138.044,465.909,139.078,465.909,140.455z"/>
	<path d="M476.649,145.245l-0.105-1.336h-0.035c-0.457,1.008-1.148,1.512-2.074,1.512c-0.621,0-1.12-0.247-1.499-0.742
		c-0.377-0.495-0.566-1.159-0.566-1.991c0-0.908,0.272-1.627,0.817-2.157s1.31-0.819,2.294-0.866l1.028-0.053v-0.791
		c0-0.891-0.111-1.539-0.334-1.946s-0.592-0.611-1.107-0.611c-0.545,0-1.102,0.179-1.67,0.536l-0.36-0.659
		c0.662-0.41,1.356-0.615,2.083-0.615c0.785,0,1.351,0.248,1.696,0.742c0.346,0.496,0.519,1.323,0.519,2.483v6.495H476.649z
		 M474.619,144.709c0.598,0,1.062-0.294,1.393-0.884c0.331-0.588,0.497-1.422,0.497-2.5v-0.993l-0.993,0.053
		c-0.768,0.041-1.338,0.254-1.709,0.638c-0.373,0.384-0.559,0.944-0.559,1.683c0,0.691,0.123,1.198,0.369,1.521
		S474.197,144.709,474.619,144.709z"/>
	<path d="M483.382,135.709h0.949l-2.804,4.482l3.041,5.054h-0.993l-2.892-4.983v4.983h-0.835v-9.536h0.835v4.482L483.382,135.709z"
		/>
	<path d="M489.464,135.709h0.949l-2.804,4.482l3.041,5.054h-0.993l-2.892-4.983v4.983h-0.835v-9.536h0.835v4.482L489.464,135.709z"
		/>
	<path d="M493.208,145.228l-2.382-9.519h0.844l1.441,5.95c0.17,0.715,0.334,1.521,0.492,2.417h0.07
		c0.111-0.779,0.267-1.591,0.466-2.435l1.406-5.933h0.844l-2.786,11.338c-0.205,0.838-0.474,1.468-0.805,1.89
		s-0.771,0.633-1.322,0.633c-0.223,0-0.475-0.05-0.756-0.149v-0.756c0.234,0.082,0.463,0.123,0.686,0.123
		c0.352,0,0.63-0.151,0.835-0.452c0.205-0.303,0.387-0.787,0.545-1.455L493.208,145.228z"/>
	<path d="M500.599,145.245l-2.074-8.244h-0.07c0.064,1.354,0.097,2.171,0.097,2.452v5.792h-0.8v-9.536h1.213l1.582,6.223
		c0.229,0.943,0.396,1.737,0.501,2.382h0.07c0.006-0.088,0.06-0.355,0.162-0.805c0.103-0.447,0.764-3.048,1.982-7.8h1.204v9.536
		h-0.826v-5.739c0-0.439,0.029-1.274,0.088-2.505h-0.07l-2.083,8.244H500.599z"/>
	<path d="M508.22,145.228l-2.382-9.519h0.844l1.441,5.95c0.17,0.715,0.334,1.521,0.492,2.417h0.07
		c0.111-0.779,0.267-1.591,0.466-2.435l1.406-5.933h0.844l-2.786,11.338c-0.205,0.838-0.474,1.468-0.805,1.89
		s-0.771,0.633-1.322,0.633c-0.223,0-0.475-0.05-0.756-0.149v-0.756c0.234,0.082,0.463,0.123,0.686,0.123
		c0.352,0,0.63-0.151,0.835-0.452c0.205-0.303,0.387-0.787,0.545-1.455L508.22,145.228z"/>
	<path d="M513.9,136.5c-0.064,1.623-0.155,3.008-0.272,4.153s-0.258,2.057-0.422,2.732c-0.164,0.678-0.371,1.171-0.619,1.481
		c-0.25,0.311-0.597,0.466-1.042,0.466c-0.141,0-0.272-0.023-0.396-0.07v-0.773c0.07,0.035,0.173,0.053,0.308,0.053
		c0.346,0,0.622-0.293,0.831-0.879c0.207-0.586,0.379-1.506,0.514-2.76s0.243-2.985,0.325-5.194h3.656v9.536h-0.826V136.5H513.9z"/>
	<path d="M522.953,141.035h-1.099l-2.391,4.21h-0.976l2.54-4.263c-0.715-0.129-1.257-0.414-1.626-0.856s-0.554-1.027-0.554-1.754
		c0-0.855,0.264-1.513,0.791-1.973s1.26-0.69,2.197-0.69h1.942v9.536h-0.826V141.035z M522.953,140.279v-3.814h-1.116
		c-1.418,0-2.127,0.636-2.127,1.907s0.703,1.907,2.109,1.907H522.953z"/>
	<path d="M529.422,135.709v0.756h-1.696v8.78h-0.826v-8.78h-1.696v-0.756H529.422z"/>
	<path d="M535.919,140.455c0,1.605-0.254,2.835-0.76,3.687c-0.508,0.854-1.232,1.279-2.176,1.279c-0.932,0-1.646-0.426-2.141-1.279
		c-0.495-0.852-0.742-2.081-0.742-3.687c0-3.287,0.973-4.931,2.918-4.931c0.914,0,1.626,0.431,2.136,1.292
		S535.919,138.891,535.919,140.455z M530.971,140.455c0,1.377,0.164,2.417,0.492,3.12s0.841,1.055,1.538,1.055
		c1.365,0,2.048-1.392,2.048-4.175c0-2.76-0.683-4.14-2.048-4.14c-0.715,0-1.232,0.346-1.551,1.037
		C531.13,138.044,530.971,139.078,530.971,140.455z"/>
	<path d="M537.211,140.833v-0.896h3.604v0.896H537.211z"/>
</g>
<g>
	<path d="M261.23,165.216c-0.48,0-0.918-0.134-1.314-0.4c-0.395-0.266-0.695-0.631-0.9-1.094h-0.079l0.062,1.046v4.597h-0.835
		v-13.86h0.686l0.088,1.31h0.079c0.234-0.48,0.534-0.85,0.9-1.107s0.767-0.387,1.2-0.387c1.863,0,2.795,1.644,2.795,4.931
		c0,1.588-0.229,2.812-0.686,3.674S262.103,165.216,261.23,165.216z M261.063,156.11c-0.697,0-1.216,0.308-1.556,0.923
		s-0.51,1.579-0.51,2.892v0.272c0,1.465,0.173,2.542,0.519,3.229c0.346,0.689,0.873,1.033,1.582,1.033
		c0.656,0,1.144-0.341,1.464-1.023c0.318-0.683,0.479-1.745,0.479-3.187c0-1.377-0.149-2.411-0.448-3.103
		S261.784,156.11,261.063,156.11z"/>
	<path d="M271.382,160.25c0,1.605-0.254,2.835-0.76,3.687c-0.508,0.854-1.232,1.279-2.176,1.279c-0.932,0-1.646-0.426-2.141-1.279
		c-0.495-0.852-0.742-2.081-0.742-3.687c0-3.287,0.973-4.931,2.918-4.931c0.914,0,1.626,0.431,2.136,1.292
		S271.382,158.686,271.382,160.25z M266.433,160.25c0,1.377,0.164,2.417,0.492,3.12s0.841,1.055,1.538,1.055
		c1.365,0,2.048-1.392,2.048-4.175c0-2.76-0.683-4.14-2.048-4.14c-0.715,0-1.232,0.346-1.551,1.037
		C266.593,157.839,266.433,158.873,266.433,160.25z"/>
	<path d="M276.33,165.04l-2.074-8.244h-0.07c0.064,1.354,0.097,2.171,0.097,2.452v5.792h-0.8v-9.536h1.213l1.582,6.223
		c0.229,0.943,0.396,1.737,0.501,2.382h0.07c0.006-0.088,0.06-0.355,0.162-0.805c0.103-0.447,0.764-3.048,1.982-7.8h1.204v9.536
		h-0.826v-5.739c0-0.439,0.029-1.274,0.088-2.505h-0.07l-2.083,8.244H276.33z"/>
	<path d="M291.394,168.283h-0.826v-3.243h-4.79v3.243h-0.826v-4.034h0.738c0.492-1.143,0.864-2.464,1.116-3.964
		s0.378-3.094,0.378-4.781h3.243v8.745h0.967V168.283z M289.601,164.249v-7.989h-1.644c-0.018,1.406-0.166,2.878-0.443,4.417
		c-0.279,1.537-0.617,2.729-1.016,3.572H289.601z"/>
	<path d="M298.434,160.25c0,1.605-0.254,2.835-0.76,3.687c-0.508,0.854-1.232,1.279-2.176,1.279c-0.932,0-1.646-0.426-2.141-1.279
		c-0.495-0.852-0.742-2.081-0.742-3.687c0-3.287,0.973-4.931,2.918-4.931c0.914,0,1.626,0.431,2.136,1.292
		S298.434,158.686,298.434,160.25z M293.486,160.25c0,1.377,0.164,2.417,0.492,3.12s0.841,1.055,1.538,1.055
		c1.365,0,2.048-1.392,2.048-4.175c0-2.76-0.683-4.14-2.048-4.14c-0.715,0-1.232,0.346-1.551,1.037
		C293.645,157.839,293.486,158.873,293.486,160.25z"/>
	<path d="M305.852,158.114c-0.598,0-1.204,0.088-1.819,0.264l-0.431-0.554l0.378-5.634h4.351v0.826h-3.639l-0.316,4.518
		c0.527-0.117,1.037-0.176,1.529-0.176c0.961,0,1.723,0.319,2.285,0.958s0.844,1.518,0.844,2.637c0,1.295-0.308,2.329-0.923,3.103
		s-1.436,1.16-2.461,1.16c-0.914,0-1.629-0.161-2.145-0.483v-0.967c0.645,0.451,1.348,0.677,2.109,0.677
		c0.779,0,1.397-0.319,1.854-0.958s0.686-1.471,0.686-2.496c0-0.961-0.205-1.68-0.615-2.157S306.567,158.114,305.852,158.114z"/>
	<path d="M315.889,156.295c-0.064,1.623-0.155,3.008-0.272,4.153s-0.258,2.057-0.422,2.732c-0.164,0.678-0.371,1.171-0.619,1.481
		c-0.25,0.311-0.597,0.466-1.042,0.466c-0.141,0-0.272-0.023-0.396-0.07v-0.773c0.07,0.035,0.173,0.053,0.308,0.053
		c0.346,0,0.622-0.293,0.831-0.879c0.207-0.586,0.379-1.506,0.514-2.76s0.243-2.985,0.325-5.194h3.656v9.536h-0.826v-8.745H315.889z
		"/>
	<path d="M322.156,155.504v6.442l-0.062,1.802l3.384-8.244h1.046v9.536h-0.826v-6.17l0.035-2.074l-3.384,8.244h-1.028v-9.536
		H322.156z"/>
	<path d="M332.167,155.504v0.756h-1.696v8.78h-0.826v-8.78h-1.696v-0.756H332.167z"/>
	<path d="M336.649,165.216c-0.48,0-0.918-0.134-1.314-0.4c-0.395-0.266-0.695-0.631-0.9-1.094h-0.079l0.062,1.046v4.597h-0.835
		v-13.86h0.686l0.088,1.31h0.079c0.234-0.48,0.534-0.85,0.9-1.107s0.767-0.387,1.2-0.387c1.863,0,2.795,1.644,2.795,4.931
		c0,1.588-0.229,2.812-0.686,3.674S337.522,165.216,336.649,165.216z M336.482,156.11c-0.697,0-1.216,0.308-1.556,0.923
		s-0.51,1.579-0.51,2.892v0.272c0,1.465,0.173,2.542,0.519,3.229c0.346,0.689,0.873,1.033,1.582,1.033
		c0.656,0,1.144-0.341,1.464-1.023c0.318-0.683,0.479-1.745,0.479-3.187c0-1.377-0.149-2.411-0.448-3.103
		S337.203,156.11,336.482,156.11z"/>
	<path d="M346.801,160.25c0,1.605-0.254,2.835-0.76,3.687c-0.508,0.854-1.232,1.279-2.176,1.279c-0.932,0-1.646-0.426-2.141-1.279
		c-0.495-0.852-0.742-2.081-0.742-3.687c0-3.287,0.973-4.931,2.918-4.931c0.914,0,1.626,0.431,2.136,1.292
		S346.801,158.686,346.801,160.25z M341.852,160.25c0,1.377,0.164,2.417,0.492,3.12s0.841,1.055,1.538,1.055
		c1.365,0,2.048-1.392,2.048-4.175c0-2.76-0.683-4.14-2.048-4.14c-0.715,0-1.232,0.346-1.551,1.037
		C342.012,157.839,341.852,158.873,341.852,160.25z"/>
	<path d="M353.498,157.789c0,0.58-0.105,1.045-0.316,1.394s-0.545,0.596-1.002,0.742v0.079c0.516,0.088,0.908,0.325,1.178,0.712
		s0.404,0.873,0.404,1.459c0,0.902-0.231,1.605-0.694,2.109s-1.119,0.756-1.969,0.756h-2.197v-9.536h2.021
		c0.838,0,1.477,0.198,1.916,0.593C353.278,156.493,353.498,157.057,353.498,157.789z M352.628,157.789
		c0-1.02-0.562-1.529-1.688-1.529h-1.204v3.384h1.38c0.545,0,0.933-0.146,1.165-0.439
		C352.512,158.911,352.628,158.439,352.628,157.789z M352.9,162.157c0-0.645-0.148-1.104-0.443-1.38
		c-0.297-0.275-0.731-0.413-1.306-0.413h-1.415v3.92h1.38c0.621,0,1.073-0.168,1.358-0.506
		C352.758,163.442,352.9,162.901,352.9,162.157z"/>
	<path d="M355.686,164.249c0-0.627,0.229-0.94,0.686-0.94c0.188,0,0.349,0.07,0.483,0.211s0.202,0.384,0.202,0.729
		c0,0.334-0.067,0.573-0.202,0.717c-0.135,0.143-0.296,0.215-0.483,0.215C355.915,165.181,355.686,164.87,355.686,164.249z"/>
</g>
<g>
	<defs>
		<rect id="SVGID_1_" y="5.354" width="190.208" height="171.549"/>
	</defs>
	<clipPath id="SVGID_00000028283299802154085610000017705712886928703922_">
		<use xlink:href="#SVGID_1_"  style="overflow:visible;"/>
	</clipPath>
	<g style="clip-path:url(#SVGID_00000028283299802154085610000017705712886928703922_);">
		<defs>
			<rect id="SVGID_00000182494824874688917770000006813707458844677279_" x="0.001" y="5.354" width="190.207" height="171.55"/>
		</defs>
		<clipPath id="SVGID_00000077317059221585769520000015048919209618706862_">
			<use xlink:href="#SVGID_00000182494824874688917770000006813707458844677279_"  style="overflow:visible;"/>
		</clipPath>
		<g transform="matrix(1 0 0 1 0 0)" style="clip-path:url(#SVGID_00000077317059221585769520000015048919209618706862_);">
			
				<image style="overflow:visible;" width="221" height="199" xlink:href="F6E14096.jpg"  transform="matrix(0.8607 0 0 0.8621 0.001 5.3536)">
			</image>
		</g>
	</g>
</g>
<g>
	<path d="M273.13,28.798h-4.616l-5.677-11.216v11.216h-4.086V6.668h4.086v10.717l5.768-10.717h4.404l-6.069,10.656L273.13,28.798z"
		/>
	<path d="M287.146,13.48c0,2.352-0.593,4.155-1.778,5.411c-1.187,1.257-2.898,1.885-5.139,1.885H279.2v8.022h-4.117V6.668h5.615
		C284.997,6.668,287.146,8.939,287.146,13.48z M279.2,17.204h0.787c1.009,0,1.761-0.277,2.255-0.833
		c0.494-0.555,0.741-1.463,0.741-2.725c0-1.16-0.227-2.021-0.681-2.581c-0.454-0.561-1.155-0.84-2.104-0.84H279.2V17.204z"/>
	<path d="M305.159,17.703c0,3.663-0.686,6.479-2.059,8.446c-1.372,1.968-3.335,2.952-5.888,2.952c-2.563,0-4.531-0.981-5.903-2.944
		c-1.372-1.962-2.059-4.791-2.059-8.484c0-3.663,0.687-6.471,2.059-8.423c1.372-1.953,3.351-2.929,5.934-2.929
		c2.553,0,4.511,0.981,5.873,2.944C304.478,11.227,305.159,14.04,305.159,17.703z M293.459,17.703c0,2.523,0.317,4.445,0.954,5.767
		c0.635,1.322,1.568,1.983,2.8,1.983c2.482,0,3.724-2.583,3.724-7.75c0-5.167-1.231-7.75-3.693-7.75
		c-1.251,0-2.195,0.659-2.83,1.975C293.776,13.246,293.459,15.17,293.459,17.703z"/>
	<path d="M322.052,28.798h-4.117v-9.703h-5.434v9.703h-4.117V6.668h4.117v8.794h5.434V6.668h4.117V28.798z"/>
	<path d="M338.944,25.166h4.783V6.668h4.117v22.13h-21.887V6.668h4.117v18.497h4.783V6.668h4.086V25.166z"/>
	<path d="M358.547,28.798h-4.103V10.286h-4.238V6.668h12.579v3.618h-4.238V28.798z"/>
	<path d="M375.122,28.798h-9.975V6.668h9.975v3.557h-5.857v5.268h5.434v3.572h-5.434v6.13h5.857V28.798z"/>
	<path d="M378.347,6.668h3.814v12.155c0,1.262-0.097,2.508-0.288,3.739h0.167l6.75-15.894h5.057v22.13h-3.785V16.674
		c0-1.493,0.116-2.805,0.349-3.936h-0.196l-6.781,16.06h-5.086V6.668z M391.621-0.007c-0.202,1.695-0.755,2.937-1.657,3.724
		c-0.903,0.787-2.232,1.181-3.988,1.181c-1.716,0-3.003-0.386-3.86-1.158c-0.857-0.772-1.367-2.021-1.528-3.747h3.345
		c0.111,1.009,0.325,1.69,0.644,2.043c0.317,0.354,0.814,0.53,1.49,0.53c0.666,0,1.163-0.202,1.491-0.605
		c0.328-0.403,0.548-1.06,0.659-1.968H391.621z"/>
	<path d="M411.419,28.798h-4.117v-9.703h-5.434v9.703h-4.117V6.668h4.117v8.794h5.434V6.668h4.117V28.798z"/>
	<path d="M437.424,28.798h-4.616l-5.677-11.216v11.216h-4.086V6.668h4.086v10.717l5.768-10.717h4.404l-6.069,10.656L437.424,28.798z
		"/>
	<path d="M451.441,13.48c0,2.352-0.593,4.155-1.778,5.411c-1.187,1.257-2.898,1.885-5.139,1.885h-1.029v8.022h-4.117V6.668h5.615
		C449.292,6.668,451.441,8.939,451.441,13.48z M443.495,17.204h0.787c1.009,0,1.761-0.277,2.255-0.833
		c0.494-0.555,0.741-1.463,0.741-2.725c0-1.16-0.227-2.021-0.681-2.581c-0.454-0.561-1.155-0.84-2.104-0.84h-0.998V17.204z"/>
	<path d="M464.201,28.798h-9.975V6.668h9.975v3.557h-5.857v5.268h5.434v3.572h-5.434v6.13h5.857V28.798z"/>
	<path d="M481.094,28.798h-4.087V10.286h-5.464v18.512h-4.117V6.668h13.668V28.798z"/>
	<path d="M498.667,28.798h-4.117V10.286h-3.314c-0.455,5.106-0.908,9.324-1.363,12.654c-0.303,2.129-0.85,3.688-1.642,4.677
		c-0.793,0.989-1.85,1.483-3.171,1.483c-0.818,0-1.489-0.111-2.014-0.333v-3.406c0.303,0.121,0.676,0.182,1.12,0.182
		c0.565,0,0.996-0.444,1.294-1.332c0.298-0.888,0.636-2.881,1.015-5.979c0.378-3.098,0.774-6.953,1.188-11.564h11.004V28.798z"/>
	<path d="M512.548,28.798h-9.975V6.668h9.975v3.557h-5.857v5.268h5.434v3.572h-5.434v6.13h5.857V28.798z"/>
	<path d="M529.44,28.798h-4.117v-9.703h-5.434v9.703h-4.117V6.668h4.117v8.794h5.434V6.668h4.117V28.798z"/>
	<path d="M533.347,6.668h3.814v12.155c0,1.262-0.097,2.508-0.288,3.739h0.167l6.75-15.894h5.057v22.13h-3.785V16.674
		c0-1.493,0.116-2.805,0.349-3.936h-0.196l-6.781,16.06h-5.086V6.668z"/>
	<path d="M558.729,20.186l-3.436,8.613h-4.436l4.223-9.672c-0.979-0.605-1.689-1.37-2.134-2.293
		c-0.444-0.923-0.666-2.051-0.666-3.383c0-4.521,2.245-6.781,6.735-6.781h5.328v22.13h-4.117v-8.613H558.729z M560.227,10.226
		h-0.998c-0.939,0-1.633,0.24-2.082,0.719c-0.449,0.479-0.674,1.284-0.674,2.414c0,1.09,0.205,1.91,0.613,2.46
		c0.409,0.55,1.103,0.825,2.082,0.825h1.059V10.226z"/>
	<path d="M274.81,64.125h-3.996v-6.327h-9.93v6.327h-3.996v-9.96h1.302c2.079-5.52,3.411-11.686,3.996-18.497h10.111v18.497h2.513
		V64.125z M268.181,54.166V39.286h-2.513c-0.252,2.452-0.658,4.998-1.219,7.636c-0.56,2.639-1.218,5.054-1.976,7.243H268.181z"/>
	<path d="M291.37,57.798h-4.117V39.286h-3.314c-0.455,5.106-0.908,9.324-1.363,12.654c-0.303,2.129-0.85,3.688-1.642,4.677
		c-0.793,0.989-1.85,1.483-3.171,1.483c-0.818,0-1.489-0.111-2.014-0.333v-3.406c0.303,0.121,0.676,0.182,1.12,0.182
		c0.565,0,0.996-0.444,1.294-1.332c0.298-0.888,0.636-2.881,1.015-5.979c0.378-3.098,0.774-6.953,1.188-11.564h11.004V57.798z"/>
	<path d="M301.255,49.186l-3.436,8.613h-4.436l4.223-9.672c-0.979-0.605-1.689-1.37-2.134-2.293
		c-0.444-0.923-0.666-2.051-0.666-3.383c0-4.521,2.245-6.781,6.735-6.781h5.328v22.13h-4.117v-8.613H301.255z M302.753,39.226
		h-0.998c-0.939,0-1.633,0.24-2.082,0.719c-0.449,0.479-0.674,1.284-0.674,2.414c0,1.09,0.205,1.91,0.613,2.46
		c0.409,0.55,1.103,0.825,2.082,0.825h1.059V39.226z"/>
	<path d="M332.874,57.798h-4.616l-5.677-11.216v11.216h-4.086v-22.13h4.086v10.717l5.768-10.717h4.404l-6.069,10.656L332.874,57.798
		z"/>
	<path d="M349.782,46.703c0,3.663-0.686,6.479-2.059,8.446c-1.372,1.968-3.335,2.952-5.888,2.952c-2.563,0-4.531-0.981-5.903-2.944
		c-1.372-1.962-2.059-4.791-2.059-8.484c0-3.663,0.687-6.471,2.059-8.423c1.372-1.953,3.351-2.929,5.934-2.929
		c2.553,0,4.511,0.981,5.873,2.944C349.101,40.227,349.782,43.04,349.782,46.703z M338.082,46.703c0,2.523,0.317,4.445,0.954,5.767
		c0.635,1.322,1.568,1.983,2.8,1.983c2.482,0,3.724-2.583,3.724-7.75c0-5.167-1.231-7.75-3.693-7.75
		c-1.251,0-2.195,0.659-2.83,1.975C338.399,42.246,338.082,44.17,338.082,46.703z"/>
	<path d="M360.907,57.798L356.7,38.953h-0.167c0.191,1.453,0.288,2.785,0.288,3.996v14.849h-3.814v-22.13h6.326l3.785,17.392h0.121
		l3.754-17.392h6.418v22.13h-3.906v-15c0-1.241,0.071-2.513,0.213-3.814h-0.121l-4.193,18.815H360.907z"/>
	<path d="M390.985,57.798h-4.087V39.286h-5.464v18.512h-4.117v-22.13h13.668V57.798z"/>
	<path d="M408.558,57.798h-4.117V39.286h-3.314c-0.455,5.106-0.908,9.324-1.363,12.654c-0.303,2.129-0.85,3.688-1.642,4.677
		c-0.793,0.989-1.85,1.483-3.171,1.483c-0.818,0-1.489-0.111-2.014-0.333v-3.406c0.303,0.121,0.676,0.182,1.12,0.182
		c0.565,0,0.996-0.444,1.294-1.332c0.298-0.888,0.636-2.881,1.015-5.979c0.378-3.098,0.774-6.953,1.188-11.564h11.004V57.798z"/>
	<path d="M422.438,57.798h-9.975v-22.13h9.975v3.557h-5.857v5.268h5.434v3.572h-5.434v6.13h5.857V57.798z"/>
	<path d="M440.102,57.798h-4.616l-5.677-11.216v11.216h-4.086v-22.13h4.086v10.717l5.768-10.717h4.404l-6.069,10.656L440.102,57.798
		z"/>
	<path d="M448.852,57.798h-4.103V39.286h-4.238v-3.618h12.579v3.618h-4.238V57.798z"/>
	<path d="M464.413,57.798l-1.271-5.585h-5.768l-1.271,5.585h-4.117l5.479-22.221h5.585l5.495,22.221H464.413z M462.369,48.565
		l-1.181-5.146c-0.07-0.312-0.229-1.098-0.477-2.354c-0.248-1.257-0.396-2.097-0.447-2.521c-0.131,0.868-0.297,1.824-0.499,2.868
		c-0.202,1.045-0.727,3.429-1.574,7.152H462.369z"/>
	<path d="M488.632,57.798l-1.271-5.585h-5.768l-1.271,5.585h-4.117l5.479-22.221h5.585l5.495,22.221H488.632z M486.588,48.565
		l-1.181-5.146c-0.07-0.312-0.229-1.098-0.477-2.354c-0.248-1.257-0.396-2.097-0.447-2.521c-0.131,0.868-0.297,1.824-0.499,2.868
		c-0.202,1.045-0.727,3.429-1.574,7.152H486.588z"/>
	<path d="M494.718,35.668h5.646c2.301,0,3.976,0.446,5.025,1.34c1.05,0.893,1.574,2.313,1.574,4.261
		c0,1.282-0.277,2.354-0.833,3.217c-0.555,0.862-1.312,1.385-2.27,1.566v0.151c1.251,0.313,2.154,0.898,2.709,1.756
		c0.555,0.858,0.832,1.998,0.832,3.421c0,2.008-0.537,3.58-1.611,4.715c-1.075,1.136-2.546,1.703-4.412,1.703h-6.66V35.668z
		 M498.593,44.569h1.892c0.868,0,1.479-0.232,1.831-0.696c0.354-0.464,0.53-1.155,0.53-2.074c0-0.918-0.202-1.577-0.605-1.975
		c-0.403-0.399-1.039-0.598-1.907-0.598h-1.74V44.569z M498.593,48.005v6.191h2.073c0.857,0,1.496-0.262,1.915-0.787
		c0.418-0.524,0.628-1.337,0.628-2.437c0-1.978-0.868-2.967-2.604-2.967H498.593z"/>
	<path d="M517.224,57.798h-4.103V39.286h-4.238v-3.618h12.579v3.618h-4.238V57.798z"/>
	<path d="M538.462,46.703c0,3.663-0.686,6.479-2.059,8.446c-1.372,1.968-3.335,2.952-5.888,2.952c-2.563,0-4.531-0.981-5.903-2.944
		c-1.372-1.962-2.059-4.791-2.059-8.484c0-3.663,0.687-6.471,2.059-8.423c1.372-1.953,3.351-2.929,5.934-2.929
		c2.553,0,4.511,0.981,5.873,2.944C537.781,40.227,538.462,43.04,538.462,46.703z M526.762,46.703c0,2.523,0.317,4.445,0.954,5.767
		c0.635,1.322,1.568,1.983,2.8,1.983c2.482,0,3.724-2.583,3.724-7.75c0-5.167-1.231-7.75-3.693-7.75
		c-1.251,0-2.195,0.659-2.83,1.975C527.079,42.246,526.762,44.17,526.762,46.703z"/>
	<path d="M549.587,57.798l-4.207-18.845h-0.167c0.191,1.453,0.288,2.785,0.288,3.996v14.849h-3.814v-22.13h6.326l3.785,17.392h0.121
		l3.754-17.392h6.418v22.13h-3.906v-15c0-1.241,0.071-2.513,0.213-3.814h-0.121l-4.193,18.815H549.587z"/>
	<path d="M576.471,57.798l-1.271-5.585h-5.768l-1.271,5.585h-4.117l5.479-22.221h5.585l5.495,22.221H576.471z M574.427,48.565
		l-1.181-5.146c-0.07-0.312-0.229-1.098-0.477-2.354c-0.248-1.257-0.396-2.097-0.447-2.521c-0.131,0.868-0.297,1.824-0.499,2.868
		c-0.202,1.045-0.727,3.429-1.574,7.152H574.427z"/>
	<path d="M587.807,57.798h-4.103V39.286h-4.238v-3.618h12.579v3.618h-4.238V57.798z"/>
	<path d="M594.407,35.668h3.814v12.155c0,1.262-0.097,2.508-0.288,3.739h0.167l6.75-15.894h5.057v22.13h-3.785V45.674
		c0-1.493,0.116-2.805,0.349-3.936h-0.196l-6.781,16.06h-5.086V35.668z"/>
	<path d="M628.253,57.798h-4.616l-5.677-11.216v11.216h-4.086v-22.13h4.086v10.717l5.768-10.717h4.404l-6.069,10.656L628.253,57.798
		z"/>
	<path d="M630.206,35.668h3.814v12.155c0,1.262-0.097,2.508-0.288,3.739h0.167l6.75-15.894h5.057v22.13h-3.785V45.674
		c0-1.493,0.116-2.805,0.349-3.936h-0.196l-6.781,16.06h-5.086V35.668z"/>
</g>
</svg>
