<svg xmlns="http://www.w3.org/2000/svg" viewBox="0 0 80.96 80.96"><defs><style>.a{fill:#fff;}</style></defs><path class="a" d="M40.48,20.21A7.89,7.89,0,1,1,32.6,28.1a7.89,7.89,0,0,1,7.88-7.89m0,18A10.13,10.13,0,1,0,30.36,28.1,10.13,10.13,0,0,0,40.48,38.22"/><path class="a" d="M40.48,26.89a1.21,1.21,0,1,1-1.21,1.2,1.21,1.21,0,0,1,1.21-1.2m0,4.65a3.45,3.45,0,0,0,3.45-3.45,3.38,3.38,0,0,0-.42-1.61l2-2.13-1.64-1.53-2,2.13a3.44,3.44,0,1,0-1.4,6.59"/><path class="a" d="M40.48,78.72A38.24,38.24,0,1,1,78.72,40.48,38.28,38.28,0,0,1,40.48,78.72M40.48,0A40.48,40.48,0,1,0,81,40.48,40.53,40.53,0,0,0,40.48,0"/><path class="a" d="M47.16,65.18H33.83C29,65.18,22.5,62.56,22.5,39.91c0-21.31,5.73-24.18,11.33-24.18H47.16c5.6,0,11.33,2.86,11.33,24.12,0,22.7-6.47,25.33-11.33,25.33m0-51.69H33.83c-9.38,0-13.57,8.15-13.57,26.42,0,11.81,1.41,27.51,13.57,27.51H47.16c12.16,0,13.57-15.73,13.57-27.57,0-18.48-4.06-26.36-13.57-26.36"/><path class="a" d="M31.48,47.19a1.12,1.12,0,1,1,1.11-1.11,1.11,1.11,0,0,1-1.11,1.11m3.35-1.11a3.35,3.35,0,1,0-3.35,3.35,3.36,3.36,0,0,0,3.35-3.35"/><path class="a" d="M49.48,47.19a1.11,1.11,0,1,1,1.11-1.11,1.11,1.11,0,0,1-1.11,1.11m0-4.47a3.36,3.36,0,1,0,3.35,3.36,3.36,3.36,0,0,0-3.35-3.36"/><path class="a" d="M40.49,60.69a5.06,5.06,0,1,1,5.06-5.06,5.07,5.07,0,0,1-5.06,5.06m0-12.36a7.3,7.3,0,1,0,7.3,7.3,7.3,7.3,0,0,0-7.3-7.3"/><rect class="a" x="39.37" y="53.04" width="2.24" height="5.18" transform="translate(-27.48 44.91) rotate(-44.99)"/></svg>