<?xml version="1.0" encoding="utf-8"?>
<!-- Generator: Adobe Illustrator 26.0.2, SVG Export Plug-In . SVG Version: 6.00 Build 0)  -->
<svg version="1.1" id="Layer_1" xmlns="http://www.w3.org/2000/svg" xmlns:xlink="http://www.w3.org/1999/xlink" x="0px" y="0px"
	 width="707.8px" height="698.6px" viewBox="0 0 707.8 698.6" style="enable-background:new 0 0 707.8 698.6;" xml:space="preserve"
	>
<style type="text/css">
	.st0{clip-path:url(#SVGID_00000019671931038664636990000014187600788395094170_);}
	.st1{enable-background:new    ;}
	.st2{clip-path:url(#SVGID_00000042005749387983065830000010860839732294305941_);}
</style>
<g>
	<g>
		<defs>
			<rect id="SVGID_1_" y="12.7" width="300" height="200.2"/>
		</defs>
		<clipPath id="SVGID_00000175320087271122730560000012541301332289709958_">
			<use xlink:href="#SVGID_1_"  style="overflow:visible;"/>
		</clipPath>
		<g style="clip-path:url(#SVGID_00000175320087271122730560000012541301332289709958_);">
			
				<image style="overflow:visible;enable-background:new    ;" width="400" height="267" xlink:href="220e4dcfb3116e.jpg"  transform="matrix(0.75 0 0 0.75 0 12.7006)">
			</image>
		</g>
	</g>
</g>
<g class="st1">
	<path d="M395.292,26.565h-4.617l-5.676-11.217v11.217h-4.087V4.435h4.087v10.717l5.767-10.717h4.405l-6.07,10.656L395.292,26.565z"
		/>
	<path d="M409.49,18.104c0,2.765-0.586,4.917-1.756,6.455c-1.171,1.539-2.775,2.309-4.813,2.309c-1.292,0-2.433-0.354-3.421-1.06
		c-0.989-0.706-1.751-1.723-2.286-3.05s-0.802-2.879-0.802-4.654c0-2.735,0.58-4.872,1.74-6.411c1.16-1.538,2.771-2.308,4.829-2.308
		c1.987,0,3.569,0.784,4.745,2.354S409.49,15.429,409.49,18.104z M400.529,18.104c0,1.756,0.191,3.082,0.575,3.98
		c0.383,0.898,0.999,1.348,1.847,1.348c1.614,0,2.422-1.776,2.422-5.328c0-1.767-0.194-3.086-0.583-3.959
		c-0.389-0.872-1.002-1.309-1.839-1.309c-0.848,0-1.464,0.437-1.847,1.309C400.721,15.018,400.529,16.337,400.529,18.104z"/>
	<path d="M429.743,26.565h-3.603V12.866c-0.293,1.635-0.707,3.472-1.241,5.51l-2.195,8.189h-3.421l-2.194-8.219
		c-0.475-1.767-0.889-3.593-1.241-5.48v13.699h-3.527V9.703h5.798l2.043,7.871c0.444,1.756,0.712,3.391,0.803,4.904
		c0.04-0.515,0.148-1.236,0.325-2.165c0.177-0.928,0.376-1.841,0.598-2.739l2.089-7.871h5.768V26.565z"/>
	<path d="M445.758,9.703v16.862h-4.057V12.958h-4.557v13.607h-4.026V9.703H445.758z"/>
	<path d="M461.394,26.565h-4.041V12.958h-2.256c-0.202,3.42-0.527,6.135-0.977,8.143c-0.448,2.009-1.049,3.467-1.801,4.375
		s-1.748,1.362-2.989,1.362c-0.757,0-1.378-0.111-1.862-0.333V23.19c0.303,0.101,0.61,0.15,0.924,0.15
		c0.848,0,1.508-1.082,1.982-3.246c0.475-2.165,0.838-5.629,1.09-10.392h9.93V26.565z"/>
	<path d="M471.021,26.868c-2.109,0-3.771-0.749-4.987-2.248c-1.216-1.498-1.824-3.62-1.824-6.365c0-2.785,0.55-4.959,1.65-6.523
		c1.1-1.564,2.634-2.346,4.602-2.346c1.836,0,3.284,0.668,4.344,2.005c1.06,1.338,1.59,3.212,1.59,5.624v2.148h-8.099
		c0.03,1.504,0.338,2.622,0.924,3.354c0.585,0.731,1.393,1.098,2.422,1.098c1.312,0,2.653-0.409,4.026-1.227v3.314
		C474.376,26.479,472.827,26.868,471.021,26.868z M470.431,12.488c-0.575,0-1.05,0.306-1.423,0.916
		c-0.374,0.61-0.591,1.557-0.651,2.838h4.087c-0.021-1.231-0.207-2.165-0.56-2.8C471.53,12.805,471.046,12.488,470.431,12.488z"/>
	<path d="M487.398,9.703h4.238l-4.616,7.992l4.904,8.87h-4.436l-4.404-8.674v8.674h-4.026V9.703h4.026v8.053L487.398,9.703z"/>
	<path d="M504.049,9.703v3.255h-3.754v13.607h-4.026V12.958h-3.754V9.703H504.049z"/>
	<path d="M528.389,32.575h-3.996v-6.01h-7.689v6.01h-3.996v-9.174h1.015c0.807-1.624,1.447-3.612,1.922-5.963
		c0.475-2.352,0.777-4.93,0.908-7.735h9.643v13.698h2.194V32.575z M522.122,23.401V12.897h-1.982
		c-0.384,4.359-1.115,7.86-2.195,10.504H522.122z"/>
	<path d="M542.754,26.565h-4.042V12.958h-2.255c-0.202,3.42-0.527,6.135-0.977,8.143c-0.449,2.009-1.05,3.467-1.801,4.375
		c-0.752,0.908-1.749,1.362-2.99,1.362c-0.757,0-1.377-0.111-1.861-0.333V23.19c0.303,0.101,0.61,0.15,0.923,0.15
		c0.848,0,1.509-1.082,1.983-3.246c0.474-2.165,0.837-5.629,1.09-10.392h9.93V26.565z"/>
	<path d="M549.096,26.565h-4.556l4.192-6.918c-2.028-0.807-3.042-2.376-3.042-4.707c0-1.645,0.547-2.929,1.643-3.853
		c1.095-0.923,2.601-1.385,4.518-1.385h6.206v16.862h-4.026v-6.357h-1.453L549.096,26.565z M549.777,14.97
		c0,1.514,0.837,2.271,2.513,2.271h1.74v-4.525h-2.073C550.504,12.715,549.777,13.466,549.777,14.97z"/>
	<path d="M576.66,26.868c-0.727,0-1.37-0.164-1.93-0.492c-0.561-0.327-1.083-0.905-1.567-1.732h-0.212
		c0.161,1.372,0.242,2.199,0.242,2.482v6.887h-4.057V9.703h3.118l0.696,2.194h0.182c0.838-1.675,2.054-2.512,3.648-2.512
		c1.533,0,2.734,0.759,3.603,2.277c0.867,1.52,1.302,3.666,1.302,6.441c0,2.734-0.449,4.879-1.348,6.433
		S578.214,26.868,576.66,26.868z M575.419,12.805c-0.787,0-1.354,0.366-1.703,1.098c-0.348,0.732-0.532,1.945-0.553,3.641v0.529
		c0,1.857,0.177,3.209,0.53,4.057c0.353,0.848,0.938,1.271,1.756,1.271c1.412,0,2.119-1.785,2.119-5.357
		c0-1.756-0.174-3.068-0.522-3.936C576.698,13.24,576.155,12.805,575.419,12.805z"/>
	<path d="M590.737,26.868c-2.109,0-3.771-0.749-4.987-2.248c-1.217-1.498-1.824-3.62-1.824-6.365c0-2.785,0.55-4.959,1.649-6.523
		s2.634-2.346,4.602-2.346c1.837,0,3.285,0.668,4.345,2.005c1.06,1.338,1.589,3.212,1.589,5.624v2.148h-8.098
		c0.03,1.504,0.338,2.622,0.923,3.354s1.393,1.098,2.422,1.098c1.312,0,2.654-0.409,4.026-1.227v3.314
		C594.092,26.479,592.543,26.868,590.737,26.868z M590.146,12.488c-0.575,0-1.05,0.306-1.423,0.916s-0.59,1.557-0.65,2.838h4.087
		c-0.021-1.231-0.207-2.165-0.561-2.8C591.246,12.805,590.762,12.488,590.146,12.488z"/>
	<path d="M616.197,26.565h-3.603V12.866c-0.293,1.635-0.707,3.472-1.241,5.51l-2.195,8.189h-3.421l-2.194-8.219
		c-0.475-1.767-0.889-3.593-1.241-5.48v13.699h-3.527V9.703h5.798l2.043,7.871c0.444,1.756,0.712,3.391,0.803,4.904
		c0.04-0.515,0.148-1.236,0.325-2.165c0.177-0.928,0.376-1.841,0.598-2.739l2.089-7.871h5.768V26.565z"/>
	<path d="M632.061,18.104c0,2.765-0.586,4.917-1.756,6.455c-1.171,1.539-2.775,2.309-4.813,2.309c-1.292,0-2.433-0.354-3.421-1.06
		c-0.989-0.706-1.751-1.723-2.286-3.05s-0.802-2.879-0.802-4.654c0-2.735,0.58-4.872,1.74-6.411c1.16-1.538,2.771-2.308,4.829-2.308
		c1.987,0,3.569,0.784,4.745,2.354S632.061,15.429,632.061,18.104z M623.1,18.104c0,1.756,0.191,3.082,0.575,3.98
		c0.383,0.898,0.999,1.348,1.847,1.348c1.614,0,2.422-1.776,2.422-5.328c0-1.767-0.194-3.086-0.583-3.959
		c-0.389-0.872-1.002-1.309-1.839-1.309c-0.848,0-1.464,0.437-1.847,1.309C623.291,15.018,623.1,16.337,623.1,18.104z"/>
	<path d="M638.917,9.703v6.569h4.557V9.703h4.057v16.862h-4.057v-7.068h-4.557v7.068h-4.026V9.703H638.917z"/>
	<path d="M661.305,9.703v3.255h-3.754v13.607h-4.026V12.958h-3.754V9.703H661.305z"/>
	<path d="M671.37,26.565l-0.802-2.301h-0.091c-0.596,0.989-1.211,1.67-1.847,2.043c-0.636,0.374-1.438,0.561-2.407,0.561
		c-1.241,0-2.217-0.464-2.929-1.393c-0.711-0.929-1.067-2.22-1.067-3.875c0-1.776,0.487-3.096,1.461-3.958
		c0.974-0.863,2.43-1.34,4.367-1.431l2.24-0.091V14.91c0-1.574-0.682-2.361-2.044-2.361c-1.009,0-2.17,0.394-3.481,1.181
		l-1.393-2.785c1.675-1.06,3.497-1.59,5.465-1.59c1.786,0,3.146,0.513,4.079,1.537s1.4,2.475,1.4,4.352v11.322H671.37z
		 M667.874,23.719c0.736,0,1.324-0.33,1.764-0.991c0.438-0.661,0.658-1.542,0.658-2.642v-1.423l-1.241,0.061
		c-0.919,0.051-1.592,0.312-2.021,0.787c-0.43,0.475-0.644,1.181-0.644,2.119C666.391,23.023,666.885,23.719,667.874,23.719z"/>
</g>
<g class="st1">
	<path d="M382.305,53.868c-0.465,0-0.938-0.053-1.423-0.159c-0.484-0.105-0.889-0.244-1.211-0.416v-1.378
		c0.857,0.395,1.705,0.591,2.543,0.591c1.321,0,2.315-0.547,2.981-1.643c0.666-1.095,1.024-2.838,1.075-5.229h-4.45v-1.302h4.42
		c-0.172-4.097-1.443-6.146-3.814-6.146c-0.323,0-0.682,0.059-1.075,0.174c-0.394,0.116-0.687,0.234-0.878,0.355l-0.545-1.301
		c0.817-0.395,1.705-0.591,2.664-0.591c1.686,0,2.97,0.712,3.853,2.134c0.883,1.424,1.324,3.522,1.324,6.297
		c0,2.826-0.456,4.968-1.37,6.426C385.485,53.139,384.121,53.868,382.305,53.868z"/>
	<path d="M393.809,38.504c-0.111,2.795-0.268,5.179-0.47,7.151c-0.202,1.974-0.444,3.542-0.727,4.708
		c-0.282,1.165-0.638,2.016-1.067,2.551c-0.429,0.534-1.026,0.802-1.793,0.802c-0.242,0-0.47-0.04-0.682-0.121v-1.332
		c0.121,0.061,0.298,0.091,0.53,0.091c0.595,0,1.072-0.505,1.43-1.514c0.358-1.009,0.653-2.594,0.886-4.753s0.419-5.142,0.561-8.946
		h6.297v16.424h-1.423V38.504H393.809z"/>
	<path d="M407.825,53.868c-1.736,0-3.07-0.739-4.004-2.218c-0.934-1.478-1.4-3.539-1.4-6.183c0-2.806,0.416-4.947,1.249-6.426
		c0.832-1.479,2.03-2.218,3.595-2.218c1.362,0,2.438,0.648,3.225,1.945s1.181,3.045,1.181,5.245v1.332h-7.78
		c0.02,2.391,0.357,4.183,1.014,5.373s1.65,1.786,2.982,1.786c1.029,0,2.113-0.338,3.254-1.015v1.393
		C410.09,53.54,408.985,53.868,407.825,53.868z M407.174,38.125c-1.978,0-3.062,1.973-3.254,5.918h6.312
		c0-1.806-0.274-3.244-0.825-4.313C408.856,38.661,408.112,38.125,407.174,38.125z"/>
	<path d="M421.402,37.141h1.635l-4.828,7.721l5.237,8.703h-1.711l-4.979-8.582v8.582h-1.438V37.141h1.438v7.721L421.402,37.141z"/>
	<path d="M431.105,37.141v1.303h-2.922v15.121h-1.423V38.444h-2.921v-1.303H431.105z"/>
	<path d="M438.825,53.868c-0.828,0-1.582-0.229-2.263-0.688c-0.682-0.459-1.199-1.088-1.552-1.885h-0.137l0.106,1.802v7.916h-1.438
		V37.141h1.181l0.151,2.256h0.137c0.403-0.827,0.921-1.463,1.552-1.907c0.63-0.444,1.318-0.666,2.065-0.666
		c3.209,0,4.813,2.831,4.813,8.491c0,2.735-0.394,4.844-1.181,6.328C441.474,53.125,440.328,53.868,438.825,53.868z M438.537,38.186
		c-1.201,0-2.094,0.529-2.679,1.59c-0.586,1.059-0.878,2.719-0.878,4.979v0.47c0,2.522,0.297,4.377,0.893,5.562
		s1.504,1.778,2.725,1.778c1.13,0,1.971-0.588,2.521-1.764c0.55-1.175,0.825-3.005,0.825-5.487c0-2.371-0.258-4.152-0.772-5.343
		S439.778,38.186,438.537,38.186z"/>
	<path d="M456.308,45.315c0,2.766-0.437,4.882-1.31,6.351c-0.872,1.468-2.121,2.202-3.746,2.202c-1.604,0-2.833-0.734-3.686-2.202
		c-0.853-1.469-1.279-3.585-1.279-6.351c0-5.66,1.675-8.491,5.025-8.491c1.574,0,2.801,0.741,3.679,2.226
		C455.869,40.532,456.308,42.622,456.308,45.315z M447.786,45.315c0,2.372,0.282,4.163,0.848,5.374
		c0.564,1.211,1.447,1.816,2.648,1.816c2.352,0,3.527-2.396,3.527-7.19c0-4.752-1.176-7.129-3.527-7.129
		c-1.231,0-2.121,0.596-2.672,1.786C448.061,41.163,447.786,42.944,447.786,45.315z"/>
	<path d="M461.363,37.141v7.19h6.101v-7.19h1.423v16.424h-1.423v-7.932h-6.101v7.932h-1.438V37.141H461.363z"/>
	<path d="M479.648,53.565l-0.182-2.301h-0.061c-0.787,1.735-1.978,2.604-3.572,2.604c-1.069,0-1.93-0.426-2.58-1.279
		c-0.651-0.853-0.977-1.995-0.977-3.428c0-1.564,0.469-2.803,1.407-3.717c0.938-0.913,2.256-1.41,3.951-1.49l1.771-0.092V42.5
		c0-1.534-0.191-2.651-0.575-3.354c-0.384-0.701-1.02-1.052-1.907-1.052c-0.938,0-1.897,0.308-2.876,0.923l-0.62-1.135
		c1.14-0.706,2.336-1.06,3.587-1.06c1.353,0,2.326,0.427,2.922,1.279c0.595,0.853,0.893,2.278,0.893,4.276v11.186H479.648z
		 M476.152,52.641c1.029,0,1.829-0.507,2.399-1.521c0.569-1.015,0.854-2.45,0.854-4.307v-1.71l-1.71,0.09
		c-1.322,0.071-2.304,0.438-2.944,1.098c-0.641,0.661-0.961,1.627-0.961,2.898c0,1.191,0.212,2.064,0.636,2.619
		S475.426,52.641,476.152,52.641z"/>
	<path d="M489.382,53.868c-1.646,0-2.884-0.714-3.716-2.142c-0.833-1.428-1.249-3.524-1.249-6.29c0-2.805,0.421-4.941,1.264-6.41
		c0.843-1.468,2.086-2.202,3.731-2.202c1.019,0,1.866,0.187,2.543,0.56l-0.561,1.271c-0.676-0.312-1.297-0.469-1.861-0.469
		c-2.412,0-3.618,2.406-3.618,7.221c0,4.772,1.206,7.159,3.618,7.159c0.716,0,1.493-0.161,2.331-0.484v1.211
		c-0.333,0.182-0.742,0.323-1.227,0.424S489.734,53.868,489.382,53.868z"/>
	<path d="M504.019,45.315c0,2.766-0.437,4.882-1.31,6.351c-0.872,1.468-2.121,2.202-3.746,2.202c-1.604,0-2.833-0.734-3.686-2.202
		c-0.853-1.469-1.279-3.585-1.279-6.351c0-5.66,1.675-8.491,5.025-8.491c1.574,0,2.801,0.741,3.679,2.226
		C503.58,40.532,504.019,42.622,504.019,45.315z M495.497,45.315c0,2.372,0.282,4.163,0.848,5.374
		c0.564,1.211,1.447,1.816,2.648,1.816c2.352,0,3.527-2.396,3.527-7.19c0-4.752-1.176-7.129-3.527-7.129
		c-1.231,0-2.121,0.596-2.672,1.786C495.771,41.163,495.497,42.944,495.497,45.315z"/>
	<path d="M511.859,53.868c-1.645,0-2.884-0.714-3.716-2.142c-0.833-1.428-1.249-3.524-1.249-6.29c0-2.805,0.422-4.941,1.264-6.41
		c0.843-1.468,2.087-2.202,3.731-2.202c1.02,0,1.867,0.187,2.543,0.56l-0.56,1.271c-0.677-0.312-1.297-0.469-1.862-0.469
		c-2.412,0-3.617,2.406-3.617,7.221c0,4.772,1.205,7.159,3.617,7.159c0.717,0,1.493-0.161,2.331-0.484v1.211
		c-0.333,0.182-0.741,0.323-1.226,0.424S512.213,53.868,511.859,53.868z"/>
	<path d="M523.605,53.565l-0.182-2.301h-0.061c-0.787,1.735-1.978,2.604-3.572,2.604c-1.069,0-1.93-0.426-2.58-1.279
		c-0.651-0.853-0.977-1.995-0.977-3.428c0-1.564,0.469-2.803,1.407-3.717c0.938-0.913,2.256-1.41,3.951-1.49l1.771-0.092V42.5
		c0-1.534-0.191-2.651-0.575-3.354c-0.384-0.701-1.02-1.052-1.907-1.052c-0.938,0-1.897,0.308-2.876,0.923l-0.62-1.135
		c1.14-0.706,2.336-1.06,3.587-1.06c1.353,0,2.326,0.427,2.922,1.279c0.595,0.853,0.893,2.278,0.893,4.276v11.186H523.605z
		 M520.109,52.641c1.029,0,1.829-0.507,2.399-1.521c0.569-1.015,0.854-2.45,0.854-4.307v-1.71l-1.71,0.09
		c-1.322,0.071-2.304,0.438-2.944,1.098c-0.641,0.661-0.961,1.627-0.961,2.898c0,1.191,0.212,2.064,0.636,2.619
		S519.383,52.641,520.109,52.641z"/>
	<path d="M536.623,31.435l-0.438,7.992h-0.924l-0.499-7.992H536.623z M541.119,31.435l-0.439,7.992h-0.923l-0.5-7.992H541.119z"/>
	<path d="M547.037,32.858v8.4h2.361c1.978,0,3.438,0.492,4.382,1.477c0.944,0.983,1.416,2.525,1.416,4.624
		c0,1.938-0.513,3.456-1.537,4.556c-1.023,1.101-2.435,1.65-4.23,1.65h-3.875v-22.13h8.644v1.423H547.037z M547.037,52.203h2.452
		c1.353,0,2.387-0.416,3.104-1.249c0.716-0.832,1.074-2.03,1.074-3.595c0-1.625-0.338-2.82-1.014-3.587
		c-0.677-0.768-1.741-1.15-3.194-1.15h-2.422V52.203z"/>
	<path d="M564.763,53.565l-0.182-2.301h-0.061c-0.787,1.735-1.979,2.604-3.572,2.604c-1.07,0-1.931-0.426-2.581-1.279
		c-0.651-0.853-0.977-1.995-0.977-3.428c0-1.564,0.47-2.803,1.408-3.717c0.938-0.913,2.255-1.41,3.95-1.49l1.771-0.092V42.5
		c0-1.534-0.192-2.651-0.575-3.354c-0.384-0.701-1.02-1.052-1.907-1.052c-0.938,0-1.897,0.308-2.876,0.923l-0.621-1.135
		c1.141-0.706,2.336-1.06,3.588-1.06c1.352,0,2.325,0.427,2.921,1.279s0.894,2.278,0.894,4.276v11.186H564.763z M561.266,52.641
		c1.029,0,1.829-0.507,2.399-1.521c0.57-1.015,0.855-2.45,0.855-4.307v-1.71l-1.711,0.09c-1.322,0.071-2.303,0.438-2.944,1.098
		c-0.641,0.661-0.961,1.627-0.961,2.898c0,1.191,0.212,2.064,0.636,2.619S560.539,52.641,561.266,52.641z"/>
	<path d="M578.188,41.077c0,1-0.182,1.8-0.545,2.399c-0.363,0.601-0.938,1.027-1.726,1.279v0.136
		c0.888,0.152,1.564,0.561,2.028,1.227s0.696,1.504,0.696,2.513c0,1.554-0.398,2.765-1.195,3.633
		c-0.798,0.868-1.928,1.302-3.391,1.302h-3.784V37.141h3.481c1.442,0,2.543,0.341,3.3,1.022
		C577.811,38.844,578.188,39.816,578.188,41.077z M576.69,41.077c0-1.756-0.969-2.633-2.906-2.633h-2.074v5.827h2.377
		c0.938,0,1.606-0.252,2.005-0.757C576.491,43.009,576.69,42.198,576.69,41.077z M577.159,48.6c0-1.11-0.255-1.902-0.765-2.377
		c-0.509-0.474-1.259-0.711-2.247-0.711h-2.438v6.751h2.377c1.069,0,1.849-0.29,2.338-0.87
		C576.915,50.813,577.159,49.881,577.159,48.6z"/>
	<path d="M584.531,38.504c-0.111,2.795-0.268,5.179-0.47,7.151c-0.202,1.974-0.444,3.542-0.727,4.708
		c-0.282,1.165-0.638,2.016-1.067,2.551c-0.429,0.534-1.026,0.802-1.793,0.802c-0.242,0-0.47-0.04-0.682-0.121v-1.332
		c0.121,0.061,0.298,0.091,0.53,0.091c0.595,0,1.072-0.505,1.43-1.514c0.358-1.009,0.653-2.594,0.886-4.753s0.419-5.142,0.561-8.946
		h6.297v16.424h-1.423V38.504H584.531z"/>
	<path d="M598.548,53.868c-1.736,0-3.07-0.739-4.004-2.218c-0.934-1.478-1.4-3.539-1.4-6.183c0-2.806,0.416-4.947,1.249-6.426
		c0.832-1.479,2.03-2.218,3.595-2.218c1.362,0,2.438,0.648,3.225,1.945s1.181,3.045,1.181,5.245v1.332h-7.78
		c0.02,2.391,0.357,4.183,1.014,5.373s1.65,1.786,2.982,1.786c1.029,0,2.113-0.338,3.254-1.015v1.393
		C600.812,53.54,599.708,53.868,598.548,53.868z M597.896,38.125c-1.978,0-3.062,1.973-3.254,5.918h6.312
		c0-1.806-0.274-3.244-0.825-4.313C599.579,38.661,598.835,38.125,597.896,38.125z"/>
	<path d="M607.479,37.141v7.19h6.1v-7.19h1.423v16.424h-1.423v-7.932h-6.1v7.932h-1.438V37.141H607.479z"/>
	<path d="M624.068,53.868c-1.736,0-3.07-0.739-4.004-2.218c-0.934-1.478-1.4-3.539-1.4-6.183c0-2.806,0.416-4.947,1.249-6.426
		c0.832-1.479,2.03-2.218,3.595-2.218c1.362,0,2.438,0.648,3.225,1.945s1.181,3.045,1.181,5.245v1.332h-7.78
		c0.02,2.391,0.357,4.183,1.014,5.373s1.65,1.786,2.982,1.786c1.029,0,2.113-0.338,3.254-1.015v1.393
		C626.333,53.54,625.229,53.868,624.068,53.868z M623.417,38.125c-1.978,0-3.062,1.973-3.254,5.918h6.312
		c0-1.806-0.274-3.244-0.825-4.313C625.1,38.661,624.355,38.125,623.417,38.125z"/>
	<path d="M640.521,52.203h1.681v6.948h-1.423v-5.586h-9.219V37.141h1.438v15.062h6.1V37.141h1.423V52.203z"/>
	<path d="M646.758,31.435l-0.438,7.992h-0.924l-0.499-7.992H646.758z M651.254,31.435l-0.439,7.992h-0.923l-0.5-7.992H651.254z"/>
</g>
<g class="st1">
	<path d="M388.874,90.297c0,2.127-0.398,3.762-1.195,4.904s-1.937,1.714-3.419,1.714c-1.488,0-2.631-0.569-3.428-1.709
		s-1.195-2.782-1.195-4.927c0-2.127,0.398-3.757,1.195-4.892c0.797-1.133,1.945-1.7,3.445-1.7c1.482,0,2.619,0.57,3.41,1.71
		S388.874,88.17,388.874,90.297z M382.08,90.297c0,1.465,0.185,2.581,0.554,3.349s0.911,1.151,1.626,1.151
		c1.441,0,2.162-1.5,2.162-4.5s-0.715-4.5-2.145-4.5c-0.727,0-1.274,0.382-1.644,1.147C382.265,87.708,382.08,88.827,382.08,90.297z
		"/>
	<path d="M397.944,86.949v9.791h-2.355v-7.901h-2.646v7.901h-2.338v-9.791H397.944z"/>
	<path d="M402.102,86.949v4.535c0,0.562-0.07,1.497-0.211,2.804l3.182-7.339h2.865v9.791h-2.18v-4.605
		c0-0.691,0.067-1.623,0.202-2.795l-3.19,7.4h-2.839v-9.791H402.102z"/>
	<path d="M413.158,96.916c-1.166,0-2.054-0.425-2.663-1.274s-0.914-2.098-0.914-3.744c0-1.723,0.289-3.009,0.866-3.858
		s1.469-1.274,2.676-1.274c0.363,0,0.744,0.053,1.143,0.158s0.756,0.258,1.072,0.457l-0.668,1.819
		c-0.486-0.287-0.917-0.431-1.292-0.431c-0.498,0-0.856,0.259-1.076,0.778c-0.22,0.518-0.33,1.296-0.33,2.333
		c0,1.014,0.108,1.771,0.325,2.272c0.217,0.5,0.571,0.751,1.063,0.751c0.586,0,1.198-0.205,1.837-0.615v2.057
		C414.582,96.725,413.902,96.916,413.158,96.916z"/>
	<path d="M421.402,96.74l-0.466-1.336h-0.053c-0.346,0.574-0.703,0.97-1.072,1.187s-0.835,0.325-1.397,0.325
		c-0.721,0-1.287-0.27-1.7-0.809s-0.62-1.289-0.62-2.25c0-1.031,0.283-1.797,0.849-2.299c0.565-0.5,1.41-0.777,2.535-0.83
		l1.301-0.053v-0.703c0-0.914-0.396-1.371-1.187-1.371c-0.586,0-1.26,0.229-2.021,0.686l-0.809-1.617
		c0.973-0.615,2.03-0.923,3.173-0.923c1.037,0,1.827,0.298,2.369,0.892c0.542,0.596,0.812,1.438,0.812,2.527v6.574H421.402z
		 M419.372,95.087c0.428,0,0.77-0.191,1.024-0.576c0.255-0.383,0.382-0.895,0.382-1.533v-0.826l-0.721,0.035
		c-0.533,0.029-0.924,0.182-1.173,0.457s-0.374,0.686-0.374,1.23C418.511,94.683,418.798,95.087,419.372,95.087z"/>
	<path d="M427.344,86.949v3.814h2.646v-3.814h2.355v9.791h-2.355v-4.104h-2.646v4.104h-2.338v-9.791H427.344z"/>
	<path d="M436.484,86.949v4.535c0,0.562-0.07,1.497-0.211,2.804l3.182-7.339h2.865v9.791h-2.18v-4.605
		c0-0.691,0.067-1.623,0.202-2.795l-3.19,7.4h-2.839v-9.791H436.484z"/>
	<path d="M447.919,96.916c-1.225,0-2.189-0.436-2.896-1.305c-0.706-0.871-1.06-2.103-1.06-3.696c0-1.617,0.319-2.88,0.958-3.788
		s1.529-1.362,2.672-1.362c1.066,0,1.907,0.389,2.522,1.165s0.923,1.864,0.923,3.265v1.248h-4.702
		c0.018,0.873,0.196,1.522,0.536,1.946c0.34,0.426,0.809,0.638,1.406,0.638c0.762,0,1.541-0.237,2.338-0.712v1.925
		C449.867,96.69,448.968,96.916,447.919,96.916z M447.576,88.566c-0.334,0-0.609,0.178-0.826,0.531
		c-0.217,0.355-0.343,0.904-0.378,1.648h2.373c-0.012-0.715-0.12-1.257-0.325-1.626S447.934,88.566,447.576,88.566z"/>
	<path d="M461.876,86.949h2.461l-2.681,4.641l2.848,5.15h-2.575l-2.558-5.036v5.036h-2.338v-9.791h2.338v4.676L461.876,86.949z"/>
	<path d="M472.607,91.827c0,1.605-0.34,2.855-1.02,3.749s-1.611,1.34-2.795,1.34c-0.75,0-1.412-0.205-1.986-0.615
		s-1.017-1-1.327-1.771c-0.311-0.77-0.466-1.671-0.466-2.702c0-1.588,0.337-2.828,1.011-3.722s1.608-1.341,2.804-1.341
		c1.154,0,2.073,0.456,2.756,1.366C472.267,89.042,472.607,90.274,472.607,91.827z M467.404,91.827c0,1.02,0.111,1.79,0.334,2.312
		s0.58,0.782,1.072,0.782c0.938,0,1.406-1.031,1.406-3.094c0-1.025-0.112-1.791-0.338-2.298s-0.582-0.761-1.068-0.761
		c-0.492,0-0.85,0.254-1.072,0.761S467.404,90.801,467.404,91.827z"/>
	<path d="M484.367,96.74h-2.092v-7.954c-0.17,0.949-0.41,2.016-0.721,3.199l-1.274,4.755h-1.986l-1.274-4.772
		c-0.275-1.025-0.516-2.086-0.721-3.182v7.954h-2.048v-9.791h3.366l1.187,4.57c0.258,1.02,0.413,1.969,0.466,2.848
		c0.023-0.299,0.087-0.718,0.189-1.257s0.218-1.069,0.347-1.591l1.213-4.57h3.349V96.74z"/>
	<path d="M493.666,86.949v9.791h-2.355v-7.901h-2.646v7.901h-2.338v-9.791H493.666z"/>
	<path d="M502.745,96.74h-2.347v-7.901h-1.31c-0.117,1.986-0.306,3.562-0.566,4.729s-0.609,2.013-1.046,2.54
		s-1.016,0.791-1.736,0.791c-0.439,0-0.8-0.064-1.081-0.193V94.78c0.176,0.059,0.354,0.088,0.536,0.088
		c0.492,0,0.876-0.628,1.151-1.886c0.275-1.256,0.486-3.268,0.633-6.033h5.766V96.74z"/>
	<path d="M508.335,96.916c-1.225,0-2.189-0.436-2.896-1.305c-0.706-0.871-1.06-2.103-1.06-3.696c0-1.617,0.319-2.88,0.958-3.788
		s1.529-1.362,2.672-1.362c1.066,0,1.907,0.389,2.522,1.165s0.923,1.864,0.923,3.265v1.248h-4.702
		c0.018,0.873,0.196,1.522,0.536,1.946c0.34,0.426,0.809,0.638,1.406,0.638c0.762,0,1.541-0.237,2.338-0.712v1.925
		C510.283,96.69,509.384,96.916,508.335,96.916z M507.992,88.566c-0.334,0-0.609,0.178-0.826,0.531
		c-0.217,0.355-0.343,0.904-0.378,1.648h2.373c-0.012-0.715-0.12-1.257-0.325-1.626S508.35,88.566,507.992,88.566z"/>
	<path d="M517.845,86.949h2.461l-2.681,4.641l2.848,5.15h-2.575l-2.558-5.036v5.036h-2.338v-9.791h2.338v4.676L517.845,86.949z"/>
	<path d="M527.513,86.949v1.89h-2.18v7.901h-2.338v-7.901h-2.18v-1.89H527.513z"/>
	<path d="M533.357,96.74l-0.466-1.336h-0.053c-0.346,0.574-0.703,0.97-1.072,1.187s-0.835,0.325-1.397,0.325
		c-0.721,0-1.287-0.27-1.7-0.809s-0.62-1.289-0.62-2.25c0-1.031,0.283-1.797,0.849-2.299c0.565-0.5,1.41-0.777,2.535-0.83
		l1.301-0.053v-0.703c0-0.914-0.396-1.371-1.187-1.371c-0.586,0-1.26,0.229-2.021,0.686l-0.809-1.617
		c0.973-0.615,2.03-0.923,3.173-0.923c1.037,0,1.827,0.298,2.369,0.892c0.542,0.596,0.812,1.438,0.812,2.527v6.574H533.357z
		 M531.327,95.087c0.428,0,0.77-0.191,1.024-0.576c0.255-0.383,0.382-0.895,0.382-1.533v-0.826l-0.721,0.035
		c-0.533,0.029-0.924,0.182-1.173,0.457s-0.374,0.686-0.374,1.23C530.466,94.683,530.753,95.087,531.327,95.087z"/>
</g>
<g class="st1">
	<path d="M386.51,139.939h-0.861v-12.023h-4.482v12.023h-0.861v-12.85h6.205V139.939z"/>
	<path d="M394.561,135.149c0,1.605-0.253,2.835-0.76,3.687c-0.507,0.854-1.232,1.279-2.176,1.279c-0.932,0-1.645-0.426-2.14-1.279
		c-0.495-0.852-0.743-2.081-0.743-3.687c0-3.287,0.973-4.931,2.918-4.931c0.914,0,1.626,0.431,2.136,1.292
		S394.561,133.585,394.561,135.149z M389.612,135.149c0,1.377,0.164,2.417,0.492,3.12s0.841,1.055,1.538,1.055
		c1.365,0,2.048-1.392,2.048-4.175c0-2.76-0.683-4.14-2.048-4.14c-0.715,0-1.231,0.346-1.551,1.037S389.612,133.772,389.612,135.149
		z"/>
	<path d="M399.729,140.115c-0.48,0-0.918-0.134-1.313-0.4c-0.396-0.266-0.696-0.631-0.901-1.094h-0.079l0.062,1.046v4.597h-0.835
		v-13.86h0.686l0.088,1.31h0.079c0.234-0.48,0.535-0.85,0.901-1.107s0.766-0.387,1.199-0.387c1.863,0,2.795,1.644,2.795,4.931
		c0,1.588-0.229,2.812-0.686,3.674S400.602,140.115,399.729,140.115z M399.562,131.01c-0.697,0-1.216,0.308-1.556,0.923
		s-0.51,1.579-0.51,2.892v0.272c0,1.465,0.173,2.542,0.519,3.229c0.346,0.689,0.873,1.033,1.582,1.033
		c0.656,0,1.145-0.341,1.464-1.023s0.479-1.745,0.479-3.187c0-1.377-0.149-2.411-0.448-3.103S400.282,131.01,399.562,131.01z"/>
	<path d="M404.51,139.939v-9.536h0.835v8.745h2.663v-8.745h0.826v8.745h2.663v-8.745h0.826v9.536H404.51z"/>
	<path d="M417.588,140.115c-1.008,0-1.782-0.429-2.324-1.287s-0.813-2.056-0.813-3.591c0-1.629,0.242-2.872,0.726-3.731
		c0.483-0.857,1.179-1.287,2.087-1.287c0.791,0,1.415,0.377,1.872,1.129c0.457,0.754,0.686,1.769,0.686,3.046v0.773h-4.518
		c0.012,1.389,0.208,2.429,0.589,3.12s0.958,1.037,1.731,1.037c0.598,0,1.228-0.196,1.89-0.589v0.809
		C418.903,139.925,418.262,140.115,417.588,140.115z M417.21,130.975c-1.148,0-1.778,1.146-1.89,3.437h3.665
		c0-1.049-0.159-1.884-0.479-2.505S417.755,130.975,417.21,130.975z"/>
	<path d="M422.773,130.403v4.175h3.542v-4.175h0.826v9.536h-0.826v-4.605h-3.542v4.605h-0.835v-9.536H422.773z"/>
	<path d="M430.534,134.578h1.239c0.926,0,1.635,0.232,2.127,0.699c0.492,0.465,0.738,1.126,0.738,1.981
		c0,0.85-0.252,1.509-0.756,1.978s-1.213,0.703-2.127,0.703h-2.057v-9.536h0.835V134.578z M430.534,135.334v3.85h1.222
		c1.342,0,2.013-0.642,2.013-1.925s-0.665-1.925-1.995-1.925H430.534z"/>
	<path d="M439.165,135.527v-0.896h3.604v0.896H439.165z"/>
	<path d="M451.118,139.939h-0.844v-9.448c0-0.768,0.023-1.597,0.07-2.487c-0.123,0.164-0.41,0.472-0.861,0.923l-1.099,1.002
		l-0.448-0.554l2.479-2.285h0.703V139.939z"/>
	<path d="M458.475,139.939v-9.536h0.835v8.745h2.663v-8.745h0.826v8.745h2.663v-8.745h0.826v9.536H458.475z"/>
	<path d="M471.931,130.403v0.756h-1.696v8.78h-0.826v-8.78h-1.696v-0.756H471.931z"/>
	<path d="M473.24,139.148c0-0.627,0.229-0.94,0.686-0.94c0.188,0,0.349,0.07,0.483,0.211s0.202,0.384,0.202,0.729
		c0,0.334-0.067,0.573-0.202,0.717c-0.135,0.143-0.296,0.215-0.483,0.215C473.469,140.08,473.24,139.77,473.24,139.148z"/>
</g>
<g class="st1">
	<path d="M381.166,154.895l3.639-6.205h0.932l-3.674,6.205l3.964,6.645h-0.993l-3.867-6.574v6.574h-0.861v-12.85h0.861V154.895z"/>
	<path d="M388.689,152.794c-0.064,1.623-0.155,3.008-0.272,4.153s-0.258,2.057-0.422,2.732c-0.164,0.678-0.37,1.171-0.619,1.481
		s-0.597,0.466-1.042,0.466c-0.141,0-0.272-0.023-0.396-0.07v-0.773c0.07,0.035,0.173,0.053,0.308,0.053
		c0.346,0,0.623-0.293,0.831-0.879s0.379-1.506,0.514-2.76s0.243-2.985,0.325-5.194h3.656v9.536h-0.826v-8.745H388.689z"/>
	<path d="M397.812,161.54l-0.105-1.336h-0.035c-0.457,1.008-1.148,1.512-2.074,1.512c-0.621,0-1.12-0.247-1.498-0.742
		s-0.567-1.159-0.567-1.991c0-0.908,0.272-1.627,0.817-2.157s1.31-0.819,2.294-0.866l1.028-0.053v-0.791
		c0-0.891-0.111-1.539-0.334-1.946s-0.592-0.611-1.107-0.611c-0.545,0-1.102,0.179-1.67,0.536l-0.36-0.659
		c0.662-0.41,1.356-0.615,2.083-0.615c0.785,0,1.351,0.248,1.696,0.742c0.346,0.496,0.519,1.323,0.519,2.483v6.495H397.812z
		 M395.782,161.003c0.598,0,1.062-0.294,1.394-0.884c0.331-0.588,0.496-1.422,0.496-2.5v-0.993l-0.993,0.053
		c-0.768,0.041-1.337,0.254-1.709,0.638s-0.559,0.944-0.559,1.683c0,0.691,0.123,1.198,0.369,1.521S395.36,161.003,395.782,161.003z
		"/>
	<path d="M406.215,152.003v9.536h-0.826v-8.78h-3.542v8.78h-0.835v-9.536H406.215z"/>
	<path d="M412.464,161.54l-0.105-1.336h-0.035c-0.457,1.008-1.148,1.512-2.074,1.512c-0.621,0-1.12-0.247-1.498-0.742
		s-0.567-1.159-0.567-1.991c0-0.908,0.272-1.627,0.817-2.157s1.31-0.819,2.294-0.866l1.028-0.053v-0.791
		c0-0.891-0.111-1.539-0.334-1.946s-0.592-0.611-1.107-0.611c-0.545,0-1.102,0.179-1.67,0.536l-0.36-0.659
		c0.662-0.41,1.356-0.615,2.083-0.615c0.785,0,1.351,0.248,1.696,0.742c0.346,0.496,0.519,1.323,0.519,2.483v6.495H412.464z
		 M410.434,161.003c0.598,0,1.062-0.294,1.394-0.884c0.331-0.588,0.496-1.422,0.496-2.5v-0.993l-0.993,0.053
		c-0.768,0.041-1.337,0.254-1.709,0.638s-0.559,0.944-0.559,1.683c0,0.691,0.123,1.198,0.369,1.521S410.012,161.003,410.434,161.003
		z"/>
	<path d="M416.498,152.003v4.175h3.542v-4.175h0.826v9.536h-0.826v-4.605h-3.542v4.605h-0.835v-9.536H416.498z"/>
	<path d="M425.999,157.127v-0.896h3.604v0.896H425.999z"/>
	<path d="M437.952,161.54h-0.844v-9.448c0-0.768,0.023-1.597,0.07-2.487c-0.123,0.164-0.41,0.472-0.861,0.923l-1.099,1.002
		l-0.448-0.554l2.479-2.285h0.703V161.54z"/>
	<path d="M445.309,161.54v-9.536h0.835v8.745h2.663v-8.745h0.826v8.745h2.663v-8.745h0.826v9.536H445.309z"/>
	<path d="M458.765,152.003v0.756h-1.696v8.78h-0.826v-8.78h-1.696v-0.756H458.765z"/>
	<path d="M460.074,160.749c0-0.627,0.229-0.94,0.686-0.94c0.188,0,0.349,0.07,0.483,0.211s0.202,0.384,0.202,0.729
		c0,0.334-0.067,0.573-0.202,0.717c-0.135,0.143-0.296,0.215-0.483,0.215C460.303,161.68,460.074,161.37,460.074,160.749z"/>
</g>
<g class="st1">
	<path d="M380.305,170.29h2.461c1.008,0,1.783,0.258,2.325,0.773s0.812,1.277,0.812,2.285c0,1.74-0.636,2.736-1.907,2.988v0.07
		c0.732,0.152,1.277,0.479,1.635,0.98c0.357,0.5,0.536,1.199,0.536,2.096c0,1.148-0.255,2.045-0.765,2.689s-1.225,0.967-2.145,0.967
		h-2.953V170.29z M381.166,176.012h1.617c0.803,0,1.376-0.221,1.719-0.663s0.514-1.115,0.514-2.018c0-0.727-0.188-1.283-0.566-1.67
		s-0.939-0.58-1.684-0.58h-1.6V176.012z M381.166,176.803v5.546h1.978c1.418,0,2.127-0.961,2.127-2.883
		c0-0.855-0.208-1.513-0.624-1.973s-0.999-0.69-1.749-0.69H381.166z"/>
	<path d="M388.979,173.604v6.442l-0.062,1.802l3.384-8.244h1.046v9.536h-0.826v-6.17l0.035-2.074l-3.384,8.244h-1.028v-9.536
		H388.979z"/>
	<path d="M396.74,173.604v4.175h3.542v-4.175h0.826v9.536h-0.826v-4.605h-3.542v4.605h-0.835v-9.536H396.74z"/>
	<path d="M406.751,173.604v0.756h-1.696v8.78h-0.826v-8.78h-1.696v-0.756H406.751z"/>
	<path d="M415.083,173.604h0.949l-2.804,4.482l3.041,5.054h-0.993l-2.892-4.983v4.983h-0.835v-9.536h0.835v4.482L415.083,173.604z"
		/>
	<path d="M419.021,174.395c-0.064,1.623-0.155,3.008-0.272,4.153s-0.258,2.057-0.422,2.732c-0.164,0.678-0.37,1.171-0.619,1.481
		s-0.597,0.466-1.042,0.466c-0.141,0-0.272-0.023-0.396-0.07v-0.773c0.07,0.035,0.173,0.053,0.308,0.053
		c0.346,0,0.623-0.293,0.831-0.879s0.379-1.506,0.514-2.76s0.243-2.985,0.325-5.194h3.656v9.536h-0.826v-8.745H419.021z"/>
	<path d="M428.144,183.14l-0.105-1.336h-0.035c-0.457,1.008-1.148,1.512-2.074,1.512c-0.621,0-1.12-0.247-1.498-0.742
		s-0.567-1.159-0.567-1.991c0-0.908,0.272-1.627,0.817-2.157s1.31-0.819,2.294-0.866l1.028-0.053v-0.791
		c0-0.891-0.111-1.539-0.334-1.946s-0.592-0.611-1.107-0.611c-0.545,0-1.102,0.179-1.67,0.536l-0.36-0.659
		c0.662-0.41,1.356-0.615,2.083-0.615c0.785,0,1.351,0.248,1.696,0.742c0.346,0.496,0.519,1.323,0.519,2.483v6.495H428.144z
		 M426.113,182.604c0.598,0,1.062-0.294,1.394-0.884c0.331-0.588,0.496-1.422,0.496-2.5v-0.993l-0.993,0.053
		c-0.768,0.041-1.337,0.254-1.709,0.638s-0.559,0.944-0.559,1.683c0,0.691,0.123,1.198,0.369,1.521S425.691,182.604,426.113,182.604
		z"/>
	<path d="M436.546,173.604v9.536h-0.826v-8.78h-3.542v8.78h-0.835v-9.536H436.546z"/>
	<path d="M442.795,183.14l-0.105-1.336h-0.035c-0.457,1.008-1.148,1.512-2.074,1.512c-0.621,0-1.12-0.247-1.498-0.742
		s-0.567-1.159-0.567-1.991c0-0.908,0.272-1.627,0.817-2.157s1.31-0.819,2.294-0.866l1.028-0.053v-0.791
		c0-0.891-0.111-1.539-0.334-1.946s-0.592-0.611-1.107-0.611c-0.545,0-1.102,0.179-1.67,0.536l-0.36-0.659
		c0.662-0.41,1.356-0.615,2.083-0.615c0.785,0,1.351,0.248,1.696,0.742c0.346,0.496,0.519,1.323,0.519,2.483v6.495H442.795z
		 M440.765,182.604c0.598,0,1.062-0.294,1.394-0.884c0.331-0.588,0.496-1.422,0.496-2.5v-0.993l-0.993,0.053
		c-0.768,0.041-1.337,0.254-1.709,0.638s-0.559,0.944-0.559,1.683c0,0.691,0.123,1.198,0.369,1.521S440.343,182.604,440.765,182.604
		z"/>
	<path d="M446.829,173.604v4.175h3.542v-4.175h0.826v9.536h-0.826v-4.605h-3.542v4.605h-0.835v-9.536H446.829z"/>
	<path d="M457.446,183.14l-0.105-1.336h-0.035c-0.457,1.008-1.148,1.512-2.074,1.512c-0.621,0-1.12-0.247-1.498-0.742
		s-0.567-1.159-0.567-1.991c0-0.908,0.272-1.627,0.817-2.157s1.31-0.819,2.294-0.866l1.028-0.053v-0.791
		c0-0.891-0.111-1.539-0.334-1.946s-0.592-0.611-1.107-0.611c-0.545,0-1.102,0.179-1.67,0.536l-0.36-0.659
		c0.662-0.41,1.356-0.615,2.083-0.615c0.785,0,1.351,0.248,1.696,0.742c0.346,0.496,0.519,1.323,0.519,2.483v6.495H457.446z
		 M455.416,182.604c0.598,0,1.062-0.294,1.394-0.884c0.331-0.588,0.496-1.422,0.496-2.5v-0.993l-0.993,0.053
		c-0.768,0.041-1.337,0.254-1.709,0.638s-0.559,0.944-0.559,1.683c0,0.691,0.123,1.198,0.369,1.521S454.994,182.604,455.416,182.604
		z"/>
	<path d="M463.221,178.728v-0.896h3.604v0.896H463.221z"/>
	<path d="M475.174,183.14h-0.844v-9.448c0-0.768,0.023-1.597,0.07-2.487c-0.123,0.164-0.41,0.472-0.861,0.923l-1.099,1.002
		l-0.448-0.554l2.479-2.285h0.703V183.14z"/>
	<path d="M482.53,183.14v-9.536h0.835v8.745h2.663v-8.745h0.826v8.745h2.663v-8.745h0.826v9.536H482.53z"/>
	<path d="M495.986,173.604v0.756h-1.696v8.78h-0.826v-8.78h-1.696v-0.756H495.986z"/>
	<path d="M497.296,182.349c0-0.627,0.229-0.94,0.686-0.94c0.188,0,0.349,0.07,0.483,0.211s0.202,0.384,0.202,0.729
		c0,0.334-0.067,0.573-0.202,0.717c-0.135,0.143-0.296,0.215-0.483,0.215C497.524,183.28,497.296,182.97,497.296,182.349z"/>
</g>
<g class="st1">
	<path d="M380.305,191.89h2.461c1.008,0,1.783,0.258,2.325,0.773s0.812,1.277,0.812,2.285c0,1.74-0.636,2.736-1.907,2.988v0.07
		c0.732,0.152,1.277,0.479,1.635,0.98c0.357,0.5,0.536,1.199,0.536,2.096c0,1.148-0.255,2.045-0.765,2.689s-1.225,0.967-2.145,0.967
		h-2.953V191.89z M381.166,197.612h1.617c0.803,0,1.376-0.221,1.719-0.663s0.514-1.115,0.514-2.018c0-0.727-0.188-1.283-0.566-1.67
		s-0.939-0.58-1.684-0.58h-1.6V197.612z M381.166,198.403v5.546h1.978c1.418,0,2.127-0.961,2.127-2.883
		c0-0.855-0.208-1.513-0.624-1.973s-0.999-0.69-1.749-0.69H381.166z"/>
	<path d="M388.979,195.204v6.442l-0.062,1.802l3.384-8.244h1.046v9.536h-0.826v-6.17l0.035-2.074l-3.384,8.244h-1.028v-9.536
		H388.979z"/>
	<path d="M396.74,195.204v4.175h3.542v-4.175h0.826v9.536h-0.826v-4.605h-3.542v4.605h-0.835v-9.536H396.74z"/>
	<path d="M406.751,195.204v0.756h-1.696v8.78h-0.826v-8.78h-1.696v-0.756H406.751z"/>
	<path d="M415.909,204.74l-3.419-11.698h-0.07c0.059,1.23,0.088,2.01,0.088,2.338v9.36h-0.826v-12.85h1.274l2.883,9.826
		c0.258,0.867,0.425,1.605,0.501,2.215h0.07c0.059-0.434,0.24-1.166,0.545-2.197l2.856-9.844h1.318v12.85h-0.861v-9.29
		c0-0.363,0.029-1.16,0.088-2.391h-0.07l-3.401,11.681H415.909z"/>
	<path d="M426.157,191.706c0.809,0,1.461,0.263,1.956,0.786c0.495,0.525,0.742,1.247,0.742,2.167c0,1.418-0.703,2.546-2.109,3.384
		c0.627,0.422,1.096,0.797,1.406,1.125s0.551,0.688,0.721,1.076c0.17,0.391,0.255,0.828,0.255,1.314
		c0,0.979-0.271,1.783-0.812,2.412c-0.542,0.631-1.232,0.945-2.07,0.945c-0.902,0-1.641-0.3-2.215-0.9s-0.861-1.385-0.861-2.352
		c0-0.738,0.16-1.396,0.479-1.973s0.877-1.127,1.674-1.648c-1.236-0.949-1.854-2.065-1.854-3.349c0-0.885,0.251-1.604,0.752-2.157
		C424.721,191.982,425.366,191.706,426.157,191.706z M424.065,201.681c0,0.738,0.193,1.33,0.58,1.775s0.896,0.668,1.529,0.668
		c0.621,0,1.118-0.232,1.49-0.699c0.372-0.465,0.558-1.103,0.558-1.911c0-1.043-0.606-1.983-1.819-2.821l-0.431-0.29
		c-0.709,0.457-1.204,0.931-1.485,1.419C424.206,200.312,424.065,200.931,424.065,201.681z M426.14,192.497
		c-0.551,0-0.985,0.196-1.305,0.589s-0.479,0.94-0.479,1.644c0,0.604,0.132,1.131,0.396,1.582s0.727,0.896,1.389,1.336
		c0.639-0.381,1.104-0.812,1.394-1.292s0.435-1.022,0.435-1.626c0-0.703-0.159-1.251-0.479-1.644S426.72,192.497,426.14,192.497z"/>
	<path d="M433.549,191.064l-0.246,2.188l2.03-0.501l0.123,0.94l-1.995,0.07l1.371,1.995l-0.853,0.396l-0.949-2.083l-1.028,2.101
		l-0.809-0.413l1.31-1.995l-1.942-0.053l0.149-0.94l2.013,0.483l-0.237-2.188H433.549z"/>
	<path d="M443.252,201.822h-1.371v2.918h-0.844v-2.918h-4.43v-0.738l4.21-9.343h1.063v9.29h1.371V201.822z M441.037,201.031v-6.205
		c0-0.715,0.023-1.412,0.07-2.092h-0.053l-0.65,1.652l-2.918,6.645H441.037z"/>
	<path d="M446.688,197.814c-0.598,0-1.204,0.088-1.819,0.264l-0.431-0.554l0.378-5.634h4.351v0.826h-3.639l-0.316,4.518
		c0.527-0.117,1.037-0.176,1.529-0.176c0.961,0,1.723,0.319,2.285,0.958s0.844,1.518,0.844,2.637c0,1.295-0.308,2.329-0.923,3.103
		s-1.436,1.16-2.461,1.16c-0.914,0-1.629-0.161-2.145-0.483v-0.967c0.645,0.451,1.348,0.677,2.109,0.677
		c0.779,0,1.397-0.319,1.854-0.958s0.686-1.471,0.686-2.496c0-0.961-0.205-1.68-0.615-2.157S447.403,197.814,446.688,197.814z"/>
	<path d="M454.528,200.328v-0.896h3.604v0.896H454.528z"/>
	<path d="M468.951,201.822h-1.371v2.918h-0.844v-2.918h-4.43v-0.738l4.21-9.343h1.063v9.29h1.371V201.822z M466.736,201.031v-6.205
		c0-0.715,0.023-1.412,0.07-2.092h-0.053l-0.65,1.652l-2.918,6.645H466.736z"/>
	<path d="M473.838,204.74v-9.536h0.835v8.745h2.663v-8.745h0.826v8.745h2.663v-8.745h0.826v9.536H473.838z"/>
	<path d="M487.294,195.204v0.756h-1.696v8.78h-0.826v-8.78h-1.696v-0.756H487.294z"/>
	<path d="M488.604,203.949c0-0.627,0.229-0.94,0.686-0.94c0.188,0,0.349,0.07,0.483,0.211s0.202,0.384,0.202,0.729
		c0,0.334-0.067,0.573-0.202,0.717c-0.135,0.143-0.296,0.215-0.483,0.215C488.832,204.88,488.604,204.57,488.604,203.949z"/>
</g>
<g class="st1">
	<path d="M384.787,213.49v0.826h-3.621v12.023h-0.861v-12.85H384.787z"/>
	<path d="M389.894,226.34l-0.105-1.336h-0.035c-0.457,1.008-1.148,1.512-2.074,1.512c-0.621,0-1.12-0.247-1.498-0.742
		s-0.567-1.159-0.567-1.991c0-0.908,0.272-1.627,0.817-2.157s1.31-0.819,2.294-0.866l1.028-0.053v-0.791
		c0-0.891-0.111-1.539-0.334-1.946s-0.592-0.611-1.107-0.611c-0.545,0-1.102,0.179-1.67,0.536l-0.36-0.659
		c0.662-0.41,1.356-0.615,2.083-0.615c0.785,0,1.351,0.248,1.696,0.742c0.346,0.496,0.519,1.323,0.519,2.483v6.495H389.894z
		 M387.863,225.804c0.598,0,1.062-0.294,1.394-0.884c0.331-0.588,0.496-1.422,0.496-2.5v-0.993l-0.993,0.053
		c-0.768,0.041-1.337,0.254-1.709,0.638s-0.559,0.944-0.559,1.683c0,0.691,0.123,1.198,0.369,1.521S387.441,225.804,387.863,225.804
		z"/>
	<path d="M393.928,216.804v6.442l-0.062,1.802l3.384-8.244h1.046v9.536h-0.826v-6.17l0.035-2.074l-3.384,8.244h-1.028v-9.536
		H393.928z M395.738,215.433c-0.715,0-1.26-0.194-1.635-0.585c-0.375-0.389-0.592-1.018-0.65-1.885h0.809
		c0.064,0.662,0.21,1.131,0.436,1.406s0.572,0.413,1.041,0.413c0.492,0,0.852-0.146,1.077-0.439s0.364-0.753,0.417-1.38h0.809
		C397.941,214.609,397.174,215.433,395.738,215.433z"/>
	<path d="M404.387,216.804h0.949l-2.804,4.482l3.041,5.054h-0.993l-2.892-4.983v4.983h-0.835v-9.536h0.835v4.482L404.387,216.804z"
		/>
	<path d="M410.627,226.34l-0.105-1.336h-0.035c-0.457,1.008-1.148,1.512-2.074,1.512c-0.621,0-1.12-0.247-1.498-0.742
		s-0.567-1.159-0.567-1.991c0-0.908,0.272-1.627,0.817-2.157s1.31-0.819,2.294-0.866l1.028-0.053v-0.791
		c0-0.891-0.111-1.539-0.334-1.946s-0.592-0.611-1.107-0.611c-0.545,0-1.102,0.179-1.67,0.536l-0.36-0.659
		c0.662-0.41,1.356-0.615,2.083-0.615c0.785,0,1.351,0.248,1.696,0.742c0.346,0.496,0.519,1.323,0.519,2.483v6.495H410.627z
		 M408.597,225.804c0.598,0,1.062-0.294,1.394-0.884c0.331-0.588,0.496-1.422,0.496-2.5v-0.993l-0.993,0.053
		c-0.768,0.041-1.337,0.254-1.709,0.638s-0.559,0.944-0.559,1.683c0,0.691,0.123,1.198,0.369,1.521S408.175,225.804,408.597,225.804
		z"/>
	<path d="M421.569,226.34l-3.419-11.698h-0.07c0.059,1.23,0.088,2.01,0.088,2.338v9.36h-0.826v-12.85h1.274l2.883,9.826
		c0.258,0.867,0.425,1.605,0.501,2.215h0.07c0.059-0.434,0.24-1.166,0.545-2.197l2.856-9.844h1.318v12.85h-0.861v-9.29
		c0-0.363,0.029-1.16,0.088-2.391h-0.07l-3.401,11.681H421.569z"/>
	<path d="M429.075,220.864c0-2.572,0.313-4.475,0.94-5.708s1.556-1.851,2.786-1.851c0.451,0,0.823,0.067,1.116,0.202v0.844
		c-0.34-0.146-0.735-0.22-1.187-0.22c-0.844,0-1.504,0.485-1.981,1.454c-0.478,0.971-0.746,2.384-0.805,4.241h0.07
		c0.199-0.445,0.472-0.794,0.817-1.046s0.744-0.378,1.195-0.378c0.797,0,1.426,0.354,1.886,1.063s0.689,1.685,0.689,2.927
		c0,1.283-0.243,2.291-0.729,3.023s-1.143,1.099-1.969,1.099c-0.92,0-1.621-0.483-2.104-1.45S429.075,222.698,429.075,220.864z
		 M431.923,225.689c0.58,0,1.025-0.27,1.336-0.809s0.466-1.354,0.466-2.443c0-1.043-0.152-1.842-0.457-2.395
		c-0.305-0.555-0.759-0.831-1.362-0.831c-0.586,0-1.056,0.237-1.41,0.712s-0.532,1.078-0.532,1.811s0.084,1.414,0.251,2.043
		c0.167,0.631,0.396,1.106,0.686,1.429S431.53,225.689,431.923,225.689z"/>
	<path d="M439.244,221.928v-0.896h3.604v0.896H439.244z"/>
	<path d="M451.197,226.34h-0.844v-9.448c0-0.768,0.023-1.597,0.07-2.487c-0.123,0.164-0.41,0.472-0.861,0.923l-1.099,1.002
		l-0.448-0.554l2.479-2.285h0.703V226.34z"/>
	<path d="M458.554,226.34v-9.536h0.835v8.745h2.663v-8.745h0.826v8.745h2.663v-8.745h0.826v9.536H458.554z"/>
	<path d="M472.01,216.804v0.756h-1.696v8.78h-0.826v-8.78h-1.696v-0.756H472.01z"/>
	<path d="M473.319,225.549c0-0.627,0.229-0.94,0.686-0.94c0.188,0,0.349,0.07,0.483,0.211s0.202,0.384,0.202,0.729
		c0,0.334-0.067,0.573-0.202,0.717c-0.135,0.143-0.296,0.215-0.483,0.215C473.548,226.48,473.319,226.17,473.319,225.549z"/>
</g>
<g class="st1">
	<path d="M384.787,235.09v0.826h-3.621v12.023h-0.861v-12.85H384.787z"/>
	<path d="M389.894,247.939l-0.105-1.336h-0.035c-0.457,1.008-1.148,1.512-2.074,1.512c-0.621,0-1.12-0.247-1.498-0.742
		s-0.567-1.159-0.567-1.991c0-0.908,0.272-1.627,0.817-2.157s1.31-0.819,2.294-0.866l1.028-0.053v-0.791
		c0-0.891-0.111-1.539-0.334-1.946s-0.592-0.611-1.107-0.611c-0.545,0-1.102,0.179-1.67,0.536l-0.36-0.659
		c0.662-0.41,1.356-0.615,2.083-0.615c0.785,0,1.351,0.248,1.696,0.742c0.346,0.496,0.519,1.323,0.519,2.483v6.495H389.894z
		 M387.863,247.403c0.598,0,1.062-0.294,1.394-0.884c0.331-0.588,0.496-1.422,0.496-2.5v-0.993l-0.993,0.053
		c-0.768,0.041-1.337,0.254-1.709,0.638s-0.559,0.944-0.559,1.683c0,0.691,0.123,1.198,0.369,1.521S387.441,247.403,387.863,247.403
		z"/>
	<path d="M393.928,238.403v6.442l-0.062,1.802l3.384-8.244h1.046v9.536h-0.826v-6.17l0.035-2.074l-3.384,8.244h-1.028v-9.536
		H393.928z M395.738,237.032c-0.715,0-1.26-0.194-1.635-0.585c-0.375-0.389-0.592-1.018-0.65-1.885h0.809
		c0.064,0.662,0.21,1.131,0.436,1.406s0.572,0.413,1.041,0.413c0.492,0,0.852-0.146,1.077-0.439s0.364-0.753,0.417-1.38h0.809
		C397.941,236.209,397.174,237.032,395.738,237.032z"/>
	<path d="M404.387,238.403h0.949l-2.804,4.482l3.041,5.054h-0.993l-2.892-4.983v4.983h-0.835v-9.536h0.835v4.482L404.387,238.403z"
		/>
	<path d="M410.627,247.939l-0.105-1.336h-0.035c-0.457,1.008-1.148,1.512-2.074,1.512c-0.621,0-1.12-0.247-1.498-0.742
		s-0.567-1.159-0.567-1.991c0-0.908,0.272-1.627,0.817-2.157s1.31-0.819,2.294-0.866l1.028-0.053v-0.791
		c0-0.891-0.111-1.539-0.334-1.946s-0.592-0.611-1.107-0.611c-0.545,0-1.102,0.179-1.67,0.536l-0.36-0.659
		c0.662-0.41,1.356-0.615,2.083-0.615c0.785,0,1.351,0.248,1.696,0.742c0.346,0.496,0.519,1.323,0.519,2.483v6.495H410.627z
		 M408.597,247.403c0.598,0,1.062-0.294,1.394-0.884c0.331-0.588,0.496-1.422,0.496-2.5v-0.993l-0.993,0.053
		c-0.768,0.041-1.337,0.254-1.709,0.638s-0.559,0.944-0.559,1.683c0,0.691,0.123,1.198,0.369,1.521S408.175,247.403,408.597,247.403
		z"/>
	<path d="M421.569,247.939l-3.419-11.698h-0.07c0.059,1.23,0.088,2.01,0.088,2.338v9.36h-0.826v-12.85h1.274l2.883,9.826
		c0.258,0.867,0.425,1.605,0.501,2.215h0.07c0.059-0.434,0.24-1.166,0.545-2.197l2.856-9.844h1.318v12.85h-0.861v-9.29
		c0-0.363,0.029-1.16,0.088-2.391h-0.07l-3.401,11.681H421.569z"/>
	<path d="M431.817,234.905c0.809,0,1.461,0.263,1.956,0.786c0.495,0.525,0.742,1.247,0.742,2.167c0,1.418-0.703,2.546-2.109,3.384
		c0.627,0.422,1.096,0.797,1.406,1.125s0.551,0.688,0.721,1.076c0.17,0.391,0.255,0.828,0.255,1.314
		c0,0.979-0.271,1.783-0.812,2.412c-0.542,0.631-1.232,0.945-2.07,0.945c-0.902,0-1.641-0.3-2.215-0.9s-0.861-1.385-0.861-2.352
		c0-0.738,0.16-1.396,0.479-1.973s0.877-1.127,1.674-1.648c-1.236-0.949-1.854-2.065-1.854-3.349c0-0.885,0.251-1.604,0.752-2.157
		C430.381,235.182,431.026,234.905,431.817,234.905z M429.726,244.881c0,0.738,0.193,1.33,0.58,1.775s0.896,0.668,1.529,0.668
		c0.621,0,1.118-0.232,1.49-0.699c0.372-0.465,0.558-1.103,0.558-1.911c0-1.043-0.606-1.983-1.819-2.821l-0.431-0.29
		c-0.709,0.457-1.204,0.931-1.485,1.419C429.866,243.512,429.726,244.131,429.726,244.881z M431.8,235.696
		c-0.551,0-0.985,0.196-1.305,0.589s-0.479,0.94-0.479,1.644c0,0.604,0.132,1.131,0.396,1.582s0.727,0.896,1.389,1.336
		c0.639-0.381,1.104-0.812,1.394-1.292s0.435-1.022,0.435-1.626c0-0.703-0.159-1.251-0.479-1.644S432.38,235.696,431.8,235.696z"/>
	<path d="M439.244,243.527v-0.896h3.604v0.896H439.244z"/>
	<path d="M453.667,245.021h-1.371v2.918h-0.844v-2.918h-4.43v-0.738l4.21-9.343h1.063v9.29h1.371V245.021z M451.452,244.23v-6.205
		c0-0.715,0.023-1.412,0.07-2.092h-0.053l-0.65,1.652l-2.918,6.645H451.452z"/>
	<path d="M458.554,247.939v-9.536h0.835v8.745h2.663v-8.745h0.826v8.745h2.663v-8.745h0.826v9.536H458.554z"/>
	<path d="M472.01,238.403v0.756h-1.696v8.78h-0.826v-8.78h-1.696v-0.756H472.01z"/>
	<path d="M473.319,247.148c0-0.627,0.229-0.94,0.686-0.94c0.188,0,0.349,0.07,0.483,0.211s0.202,0.384,0.202,0.729
		c0,0.334-0.067,0.573-0.202,0.717c-0.135,0.143-0.296,0.215-0.483,0.215C473.548,248.08,473.319,247.77,473.319,247.148z"/>
</g>
<g>
	<g>
		<defs>
			<rect id="SVGID_00000147936986194502402790000004491957921699088806_" x="40" y="484.4" width="233.9" height="178.4"/>
		</defs>
		<clipPath id="SVGID_00000140710396162706607570000010069693537697046945_">
			<use xlink:href="#SVGID_00000147936986194502402790000004491957921699088806_"  style="overflow:visible;"/>
		</clipPath>
		<g style="clip-path:url(#SVGID_00000140710396162706607570000010069693537697046945_);">
			
				<image style="overflow:visible;enable-background:new    ;" width="350" height="267" xlink:href="456.jpg"  transform="matrix(0.6682 0 0 0.6682 40.0323 484.3562)">
			</image>
		</g>
	</g>
</g>
<g class="st1">
	<path d="M389.611,579.691c0,2.127-0.398,3.762-1.195,4.904s-1.937,1.714-3.419,1.714c-1.488,0-2.631-0.569-3.428-1.709
		s-1.195-2.782-1.195-4.927c0-2.127,0.398-3.757,1.195-4.892c0.797-1.133,1.945-1.7,3.445-1.7c1.482,0,2.619,0.57,3.41,1.71
		S389.611,577.564,389.611,579.691z M382.817,579.691c0,1.465,0.185,2.581,0.554,3.349s0.911,1.151,1.626,1.151
		c1.441,0,2.162-1.5,2.162-4.5s-0.715-4.5-2.145-4.5c-0.727,0-1.274,0.382-1.644,1.147
		C383.002,577.103,382.817,578.221,382.817,579.691z"/>
	<path d="M398.682,576.343v9.791h-2.355v-7.901h-2.646v7.901h-2.338v-9.791H398.682z"/>
	<path d="M402.839,576.343v4.535c0,0.562-0.07,1.497-0.211,2.804l3.182-7.339h2.865v9.791h-2.18v-4.605
		c0-0.691,0.067-1.623,0.202-2.795l-3.19,7.4h-2.839v-9.791H402.839z"/>
	<path d="M413.896,586.31c-1.166,0-2.054-0.425-2.663-1.274s-0.914-2.098-0.914-3.744c0-1.723,0.289-3.009,0.866-3.858
		s1.469-1.274,2.676-1.274c0.363,0,0.744,0.053,1.143,0.158s0.756,0.258,1.072,0.457l-0.668,1.819
		c-0.486-0.287-0.917-0.431-1.292-0.431c-0.498,0-0.856,0.259-1.076,0.778c-0.22,0.518-0.33,1.296-0.33,2.333
		c0,1.014,0.108,1.771,0.325,2.272c0.217,0.5,0.571,0.751,1.063,0.751c0.586,0,1.198-0.205,1.837-0.615v2.057
		C415.319,586.119,414.64,586.31,413.896,586.31z"/>
	<path d="M422.14,586.134l-0.466-1.336h-0.053c-0.346,0.574-0.703,0.97-1.072,1.187s-0.835,0.325-1.397,0.325
		c-0.721,0-1.287-0.27-1.7-0.809s-0.62-1.289-0.62-2.25c0-1.031,0.283-1.797,0.849-2.299c0.565-0.5,1.41-0.777,2.535-0.83
		l1.301-0.053v-0.703c0-0.914-0.396-1.371-1.187-1.371c-0.586,0-1.26,0.229-2.021,0.686l-0.809-1.617
		c0.973-0.615,2.03-0.923,3.173-0.923c1.037,0,1.827,0.298,2.369,0.892c0.542,0.596,0.812,1.438,0.812,2.527v6.574H422.14z
		 M420.109,584.481c0.428,0,0.77-0.191,1.024-0.576c0.255-0.383,0.382-0.895,0.382-1.533v-0.826l-0.721,0.035
		c-0.533,0.029-0.924,0.182-1.173,0.457s-0.374,0.686-0.374,1.23C419.248,584.077,419.535,584.481,420.109,584.481z"/>
	<path d="M428.081,576.343v3.814h2.646v-3.814h2.355v9.791h-2.355v-4.104h-2.646v4.104h-2.338v-9.791H428.081z"/>
	<path d="M437.222,576.343v4.535c0,0.562-0.07,1.497-0.211,2.804l3.182-7.339h2.865v9.791h-2.18v-4.605
		c0-0.691,0.067-1.623,0.202-2.795l-3.19,7.4h-2.839v-9.791H437.222z"/>
	<path d="M448.656,586.31c-1.225,0-2.189-0.436-2.896-1.305c-0.706-0.871-1.06-2.103-1.06-3.696c0-1.617,0.319-2.88,0.958-3.788
		s1.529-1.362,2.672-1.362c1.066,0,1.907,0.389,2.522,1.165s0.923,1.864,0.923,3.265v1.248h-4.702
		c0.018,0.873,0.196,1.522,0.536,1.946c0.34,0.426,0.809,0.638,1.406,0.638c0.762,0,1.541-0.237,2.338-0.712v1.925
		C450.604,586.084,449.705,586.31,448.656,586.31z M448.313,577.96c-0.334,0-0.609,0.178-0.826,0.531
		c-0.217,0.355-0.343,0.904-0.378,1.648h2.373c-0.012-0.715-0.12-1.257-0.325-1.626S448.671,577.96,448.313,577.96z"/>
	<path d="M462.613,576.343h2.461l-2.681,4.641l2.848,5.15h-2.575l-2.558-5.036v5.036h-2.338v-9.791h2.338v4.676L462.613,576.343z"/>
	<path d="M473.345,581.221c0,1.605-0.34,2.855-1.02,3.749s-1.611,1.34-2.795,1.34c-0.75,0-1.412-0.205-1.986-0.615
		s-1.017-1-1.327-1.771c-0.311-0.77-0.466-1.671-0.466-2.702c0-1.588,0.337-2.828,1.011-3.722s1.608-1.341,2.804-1.341
		c1.154,0,2.073,0.456,2.756,1.366C473.004,578.437,473.345,579.668,473.345,581.221z M468.142,581.221
		c0,1.02,0.111,1.79,0.334,2.312s0.58,0.782,1.072,0.782c0.938,0,1.406-1.031,1.406-3.094c0-1.025-0.112-1.791-0.338-2.298
		s-0.582-0.761-1.068-0.761c-0.492,0-0.85,0.254-1.072,0.761S468.142,580.195,468.142,581.221z"/>
	<path d="M485.104,586.134h-2.092v-7.954c-0.17,0.949-0.41,2.016-0.721,3.199l-1.274,4.755h-1.986l-1.274-4.772
		c-0.275-1.025-0.516-2.086-0.721-3.182v7.954h-2.048v-9.791h3.366l1.187,4.57c0.258,1.02,0.413,1.969,0.466,2.848
		c0.023-0.299,0.087-0.718,0.189-1.257s0.218-1.069,0.347-1.591l1.213-4.57h3.349V586.134z"/>
	<path d="M494.403,576.343v9.791h-2.355v-7.901h-2.646v7.901h-2.338v-9.791H494.403z"/>
	<path d="M503.482,586.134h-2.347v-7.901h-1.31c-0.117,1.986-0.306,3.562-0.566,4.729s-0.609,2.013-1.046,2.54
		s-1.016,0.791-1.736,0.791c-0.439,0-0.8-0.064-1.081-0.193v-1.925c0.176,0.059,0.354,0.088,0.536,0.088
		c0.492,0,0.876-0.628,1.151-1.886c0.275-1.256,0.486-3.268,0.633-6.033h5.766V586.134z"/>
	<path d="M509.072,586.31c-1.225,0-2.189-0.436-2.896-1.305c-0.706-0.871-1.06-2.103-1.06-3.696c0-1.617,0.319-2.88,0.958-3.788
		s1.529-1.362,2.672-1.362c1.066,0,1.907,0.389,2.522,1.165s0.923,1.864,0.923,3.265v1.248h-4.702
		c0.018,0.873,0.196,1.522,0.536,1.946c0.34,0.426,0.809,0.638,1.406,0.638c0.762,0,1.541-0.237,2.338-0.712v1.925
		C511.021,586.084,510.121,586.31,509.072,586.31z M508.729,577.96c-0.334,0-0.609,0.178-0.826,0.531
		c-0.217,0.355-0.343,0.904-0.378,1.648h2.373c-0.012-0.715-0.12-1.257-0.325-1.626S509.087,577.96,508.729,577.96z"/>
	<path d="M518.582,576.343h2.461l-2.681,4.641l2.848,5.15h-2.575l-2.558-5.036v5.036h-2.338v-9.791h2.338v4.676L518.582,576.343z"/>
	<path d="M528.25,576.343v1.89h-2.18v7.901h-2.338v-7.901h-2.18v-1.89H528.25z"/>
	<path d="M534.095,586.134l-0.466-1.336h-0.053c-0.346,0.574-0.703,0.97-1.072,1.187s-0.835,0.325-1.397,0.325
		c-0.721,0-1.287-0.27-1.7-0.809s-0.62-1.289-0.62-2.25c0-1.031,0.283-1.797,0.849-2.299c0.565-0.5,1.41-0.777,2.535-0.83
		l1.301-0.053v-0.703c0-0.914-0.396-1.371-1.187-1.371c-0.586,0-1.26,0.229-2.021,0.686l-0.809-1.617
		c0.973-0.615,2.03-0.923,3.173-0.923c1.037,0,1.827,0.298,2.369,0.892c0.542,0.596,0.812,1.438,0.812,2.527v6.574H534.095z
		 M532.064,584.481c0.428,0,0.77-0.191,1.024-0.576c0.255-0.383,0.382-0.895,0.382-1.533v-0.826l-0.721,0.035
		c-0.533,0.029-0.924,0.182-1.173,0.457s-0.374,0.686-0.374,1.23C531.203,584.077,531.49,584.481,532.064,584.481z"/>
</g>
<g class="st1">
	<path d="M388.021,622.892c0,2.127-0.317,3.762-0.953,4.904s-1.555,1.714-2.756,1.714c-1.213,0-2.133-0.576-2.76-1.727
		c-0.627-1.152-0.94-2.788-0.94-4.909c0-2.215,0.311-3.864,0.932-4.948s1.553-1.626,2.795-1.626c1.195,0,2.108,0.57,2.738,1.71
		S388.021,620.776,388.021,622.892z M381.508,622.892c0,1.91,0.239,3.353,0.717,4.329c0.478,0.975,1.173,1.463,2.087,1.463
		c0.92,0,1.619-0.483,2.097-1.45s0.716-2.414,0.716-4.342c0-1.904-0.234-3.341-0.703-4.312c-0.469-0.969-1.163-1.454-2.083-1.454
		c-0.943,0-1.65,0.491-2.122,1.472C381.744,619.58,381.508,621.011,381.508,622.892z"/>
	<path d="M392.723,629.51c-0.955,0-1.674-0.414-2.157-1.244c-0.483-0.828-0.726-2.046-0.726-3.651c0-1.629,0.245-2.87,0.734-3.722
		c0.489-0.854,1.211-1.279,2.166-1.279c0.592,0,1.084,0.108,1.477,0.325l-0.325,0.738c-0.393-0.182-0.753-0.272-1.081-0.272
		c-1.4,0-2.101,1.397-2.101,4.192c0,2.771,0.7,4.157,2.101,4.157c0.416,0,0.867-0.094,1.354-0.281v0.703
		c-0.193,0.105-0.431,0.188-0.712,0.246S392.928,629.51,392.723,629.51z"/>
	<path d="M396.687,619.798v4.175h3.542v-4.175h0.826v9.536h-0.826v-4.605h-3.542v4.605h-0.835v-9.536H396.687z"/>
	<path d="M408.982,624.544c0,1.605-0.253,2.835-0.76,3.687c-0.507,0.854-1.232,1.279-2.176,1.279c-0.932,0-1.645-0.426-2.14-1.279
		c-0.495-0.852-0.743-2.081-0.743-3.687c0-3.287,0.973-4.931,2.918-4.931c0.914,0,1.626,0.431,2.136,1.292
		S408.982,622.979,408.982,624.544z M404.034,624.544c0,1.377,0.164,2.417,0.492,3.12s0.841,1.055,1.538,1.055
		c1.365,0,2.048-1.392,2.048-4.175c0-2.76-0.683-4.14-2.048-4.14c-0.715,0-1.231,0.346-1.551,1.037S404.034,623.167,404.034,624.544
		z"/>
	<path d="M415.68,622.083c0,0.58-0.105,1.045-0.316,1.394s-0.545,0.596-1.002,0.742v0.079c0.516,0.088,0.908,0.325,1.178,0.712
		s0.404,0.873,0.404,1.459c0,0.902-0.231,1.605-0.694,2.109s-1.119,0.756-1.969,0.756h-2.197v-9.536h2.021
		c0.838,0,1.477,0.198,1.916,0.593C415.46,620.787,415.68,621.351,415.68,622.083z M414.81,622.083c0-1.02-0.562-1.529-1.688-1.529
		h-1.204v3.384h1.38c0.545,0,0.934-0.146,1.165-0.439S414.81,622.733,414.81,622.083z M415.082,626.451
		c0-0.645-0.147-1.104-0.443-1.38s-0.731-0.413-1.306-0.413h-1.415v3.92h1.38c0.621,0,1.074-0.168,1.358-0.506
		C414.94,627.736,415.082,627.195,415.082,626.451z"/>
	<path d="M421.665,629.334l-0.105-1.336h-0.035c-0.457,1.008-1.148,1.512-2.074,1.512c-0.621,0-1.12-0.247-1.498-0.742
		s-0.567-1.159-0.567-1.991c0-0.908,0.272-1.627,0.817-2.157s1.31-0.819,2.294-0.866l1.028-0.053v-0.791
		c0-0.891-0.111-1.539-0.334-1.946s-0.592-0.611-1.107-0.611c-0.545,0-1.102,0.179-1.67,0.536l-0.36-0.659
		c0.662-0.41,1.356-0.615,2.083-0.615c0.785,0,1.351,0.248,1.696,0.742c0.346,0.496,0.519,1.323,0.519,2.483v6.495H421.665z
		 M419.635,628.798c0.598,0,1.062-0.294,1.394-0.884c0.331-0.588,0.496-1.422,0.496-2.5v-0.993l-0.993,0.053
		c-0.768,0.041-1.337,0.254-1.709,0.638s-0.559,0.944-0.559,1.683c0,0.691,0.123,1.198,0.369,1.521S419.213,628.798,419.635,628.798
		z"/>
	<path d="M425.699,619.798v4.175h3.542v-4.175h0.826v9.536h-0.826v-4.605h-3.542v4.605h-0.835v-9.536H425.699z"/>
	<path d="M433.46,619.798v6.442l-0.062,1.802l3.384-8.244h1.046v9.536h-0.826v-6.17l0.035-2.074l-3.384,8.244h-1.028v-9.536H433.46z
		"/>
	<path d="M443.093,629.51c-1.008,0-1.782-0.429-2.324-1.287s-0.813-2.056-0.813-3.591c0-1.629,0.242-2.872,0.726-3.731
		c0.483-0.857,1.179-1.287,2.087-1.287c0.791,0,1.415,0.377,1.872,1.129c0.457,0.754,0.686,1.769,0.686,3.046v0.773h-4.518
		c0.012,1.389,0.208,2.429,0.589,3.12s0.958,1.037,1.731,1.037c0.598,0,1.228-0.196,1.89-0.589v0.809
		C444.408,629.319,443.767,629.51,443.093,629.51z M442.715,620.369c-1.148,0-1.778,1.146-1.89,3.437h3.665
		c0-1.049-0.159-1.884-0.479-2.505S443.26,620.369,442.715,620.369z"/>
	<path d="M450.019,624.922v-0.896h3.604v0.896H450.019z"/>
	<path d="M461.972,629.334h-0.844v-9.448c0-0.768,0.023-1.597,0.07-2.487c-0.123,0.164-0.41,0.472-0.861,0.923l-1.099,1.002
		l-0.448-0.554l2.479-2.285h0.703V629.334z"/>
	<path d="M469.328,629.334v-9.536h0.835v8.745h2.663v-8.745h0.826v8.745h2.663v-8.745h0.826v9.536H469.328z"/>
	<path d="M482.784,619.798v0.756h-1.696v8.78h-0.826v-8.78h-1.696v-0.756H482.784z"/>
	<path d="M484.094,628.543c0-0.627,0.229-0.94,0.686-0.94c0.188,0,0.349,0.07,0.483,0.211s0.202,0.384,0.202,0.729
		c0,0.334-0.067,0.573-0.202,0.717c-0.135,0.143-0.296,0.215-0.483,0.215C484.322,629.475,484.094,629.164,484.094,628.543z"/>
</g>
<g class="st1">
	<path d="M381.903,644.289l3.639-6.205h0.932l-3.674,6.205l3.964,6.645h-0.993l-3.867-6.574v6.574h-0.861v-12.85h0.861V644.289z"/>
	<path d="M389.427,642.188c-0.064,1.623-0.155,3.008-0.272,4.153s-0.258,2.057-0.422,2.732c-0.164,0.678-0.37,1.171-0.619,1.481
		s-0.597,0.466-1.042,0.466c-0.141,0-0.272-0.023-0.396-0.07v-0.773c0.07,0.035,0.173,0.053,0.308,0.053
		c0.346,0,0.623-0.293,0.831-0.879s0.379-1.506,0.514-2.76s0.243-2.985,0.325-5.194h3.656v9.536h-0.826v-8.745H389.427z"/>
	<path d="M398.55,650.934l-0.105-1.336h-0.035c-0.457,1.008-1.148,1.512-2.074,1.512c-0.621,0-1.12-0.247-1.498-0.742
		s-0.567-1.159-0.567-1.991c0-0.908,0.272-1.627,0.817-2.157s1.31-0.819,2.294-0.866l1.028-0.053v-0.791
		c0-0.891-0.111-1.539-0.334-1.946s-0.592-0.611-1.107-0.611c-0.545,0-1.102,0.179-1.67,0.536l-0.36-0.659
		c0.662-0.41,1.356-0.615,2.083-0.615c0.785,0,1.351,0.248,1.696,0.742c0.346,0.496,0.519,1.323,0.519,2.483v6.495H398.55z
		 M396.52,650.397c0.598,0,1.062-0.294,1.394-0.884c0.331-0.588,0.496-1.422,0.496-2.5v-0.993l-0.993,0.053
		c-0.768,0.041-1.337,0.254-1.709,0.638s-0.559,0.944-0.559,1.683c0,0.691,0.123,1.198,0.369,1.521S396.098,650.397,396.52,650.397z
		"/>
	<path d="M406.952,641.397v9.536h-0.826v-8.78h-3.542v8.78h-0.835v-9.536H406.952z"/>
	<path d="M413.201,650.934l-0.105-1.336h-0.035c-0.457,1.008-1.148,1.512-2.074,1.512c-0.621,0-1.12-0.247-1.498-0.742
		s-0.567-1.159-0.567-1.991c0-0.908,0.272-1.627,0.817-2.157s1.31-0.819,2.294-0.866l1.028-0.053v-0.791
		c0-0.891-0.111-1.539-0.334-1.946s-0.592-0.611-1.107-0.611c-0.545,0-1.102,0.179-1.67,0.536l-0.36-0.659
		c0.662-0.41,1.356-0.615,2.083-0.615c0.785,0,1.351,0.248,1.696,0.742c0.346,0.496,0.519,1.323,0.519,2.483v6.495H413.201z
		 M411.171,650.397c0.598,0,1.062-0.294,1.394-0.884c0.331-0.588,0.496-1.422,0.496-2.5v-0.993l-0.993,0.053
		c-0.768,0.041-1.337,0.254-1.709,0.638s-0.559,0.944-0.559,1.683c0,0.691,0.123,1.198,0.369,1.521S410.749,650.397,411.171,650.397
		z"/>
	<path d="M417.235,641.397v4.175h3.542v-4.175h0.826v9.536h-0.826v-4.605h-3.542v4.605H416.4v-9.536H417.235z"/>
	<path d="M426.736,646.521v-0.896h3.604v0.896H426.736z"/>
	<path d="M438.689,650.934h-0.844v-9.448c0-0.768,0.023-1.597,0.07-2.487c-0.123,0.164-0.41,0.472-0.861,0.923l-1.099,1.002
		l-0.448-0.554l2.479-2.285h0.703V650.934z"/>
	<path d="M446.046,650.934v-9.536h0.835v8.745h2.663v-8.745h0.826v8.745h2.663v-8.745h0.826v9.536H446.046z"/>
	<path d="M459.502,641.397v0.756h-1.696v8.78h-0.826v-8.78h-1.696v-0.756H459.502z"/>
	<path d="M460.812,650.143c0-0.627,0.229-0.94,0.686-0.94c0.188,0,0.349,0.07,0.483,0.211s0.202,0.384,0.202,0.729
		c0,0.334-0.067,0.573-0.202,0.717c-0.135,0.143-0.296,0.215-0.483,0.215C461.04,651.074,460.812,650.764,460.812,650.143z"/>
</g>
<g class="st1">
	<path d="M381.042,659.685h2.461c1.008,0,1.783,0.258,2.325,0.773s0.812,1.277,0.812,2.285c0,1.74-0.636,2.736-1.907,2.988v0.07
		c0.732,0.152,1.277,0.479,1.635,0.98c0.357,0.5,0.536,1.199,0.536,2.096c0,1.148-0.255,2.045-0.765,2.689s-1.225,0.967-2.145,0.967
		h-2.953V659.685z M381.903,665.406h1.617c0.803,0,1.376-0.221,1.719-0.663s0.514-1.115,0.514-2.018c0-0.727-0.188-1.283-0.566-1.67
		s-0.939-0.58-1.684-0.58h-1.6V665.406z M381.903,666.197v5.546h1.978c1.418,0,2.127-0.961,2.127-2.883
		c0-0.855-0.208-1.513-0.624-1.973s-0.999-0.69-1.749-0.69H381.903z"/>
	<path d="M389.717,662.998v6.442l-0.062,1.802l3.384-8.244h1.046v9.536h-0.826v-6.17l0.035-2.074l-3.384,8.244h-1.028v-9.536
		H389.717z"/>
	<path d="M397.478,662.998v4.175h3.542v-4.175h0.826v9.536h-0.826v-4.605h-3.542v4.605h-0.835v-9.536H397.478z"/>
	<path d="M407.488,662.998v0.756h-1.696v8.78h-0.826v-8.78h-1.696v-0.756H407.488z"/>
	<path d="M415.82,662.998h0.949l-2.804,4.482l3.041,5.054h-0.993l-2.892-4.983v4.983h-0.835v-9.536h0.835v4.482L415.82,662.998z"/>
	<path d="M419.758,663.789c-0.064,1.623-0.155,3.008-0.272,4.153s-0.258,2.057-0.422,2.732c-0.164,0.678-0.37,1.171-0.619,1.481
		s-0.597,0.466-1.042,0.466c-0.141,0-0.272-0.023-0.396-0.07v-0.773c0.07,0.035,0.173,0.053,0.308,0.053
		c0.346,0,0.623-0.293,0.831-0.879s0.379-1.506,0.514-2.76s0.243-2.985,0.325-5.194h3.656v9.536h-0.826v-8.745H419.758z"/>
	<path d="M428.881,672.534l-0.105-1.336h-0.035c-0.457,1.008-1.148,1.512-2.074,1.512c-0.621,0-1.12-0.247-1.498-0.742
		s-0.567-1.159-0.567-1.991c0-0.908,0.272-1.627,0.817-2.157s1.31-0.819,2.294-0.866l1.028-0.053v-0.791
		c0-0.891-0.111-1.539-0.334-1.946s-0.592-0.611-1.107-0.611c-0.545,0-1.102,0.179-1.67,0.536l-0.36-0.659
		c0.662-0.41,1.356-0.615,2.083-0.615c0.785,0,1.351,0.248,1.696,0.742c0.346,0.496,0.519,1.323,0.519,2.483v6.495H428.881z
		 M426.851,671.998c0.598,0,1.062-0.294,1.394-0.884c0.331-0.588,0.496-1.422,0.496-2.5v-0.993l-0.993,0.053
		c-0.768,0.041-1.337,0.254-1.709,0.638s-0.559,0.944-0.559,1.683c0,0.691,0.123,1.198,0.369,1.521S426.429,671.998,426.851,671.998
		z"/>
	<path d="M437.283,662.998v9.536h-0.826v-8.78h-3.542v8.78h-0.835v-9.536H437.283z"/>
	<path d="M443.532,672.534l-0.105-1.336h-0.035c-0.457,1.008-1.148,1.512-2.074,1.512c-0.621,0-1.12-0.247-1.498-0.742
		s-0.567-1.159-0.567-1.991c0-0.908,0.272-1.627,0.817-2.157s1.31-0.819,2.294-0.866l1.028-0.053v-0.791
		c0-0.891-0.111-1.539-0.334-1.946s-0.592-0.611-1.107-0.611c-0.545,0-1.102,0.179-1.67,0.536l-0.36-0.659
		c0.662-0.41,1.356-0.615,2.083-0.615c0.785,0,1.351,0.248,1.696,0.742c0.346,0.496,0.519,1.323,0.519,2.483v6.495H443.532z
		 M441.502,671.998c0.598,0,1.062-0.294,1.394-0.884c0.331-0.588,0.496-1.422,0.496-2.5v-0.993l-0.993,0.053
		c-0.768,0.041-1.337,0.254-1.709,0.638s-0.559,0.944-0.559,1.683c0,0.691,0.123,1.198,0.369,1.521S441.08,671.998,441.502,671.998z
		"/>
	<path d="M447.566,662.998v4.175h3.542v-4.175h0.826v9.536h-0.826v-4.605h-3.542v4.605h-0.835v-9.536H447.566z"/>
	<path d="M458.184,672.534l-0.105-1.336h-0.035c-0.457,1.008-1.148,1.512-2.074,1.512c-0.621,0-1.12-0.247-1.498-0.742
		s-0.567-1.159-0.567-1.991c0-0.908,0.272-1.627,0.817-2.157s1.31-0.819,2.294-0.866l1.028-0.053v-0.791
		c0-0.891-0.111-1.539-0.334-1.946s-0.592-0.611-1.107-0.611c-0.545,0-1.102,0.179-1.67,0.536l-0.36-0.659
		c0.662-0.41,1.356-0.615,2.083-0.615c0.785,0,1.351,0.248,1.696,0.742c0.346,0.496,0.519,1.323,0.519,2.483v6.495H458.184z
		 M456.153,671.998c0.598,0,1.062-0.294,1.394-0.884c0.331-0.588,0.496-1.422,0.496-2.5v-0.993l-0.993,0.053
		c-0.768,0.041-1.337,0.254-1.709,0.638s-0.559,0.944-0.559,1.683c0,0.691,0.123,1.198,0.369,1.521S455.731,671.998,456.153,671.998
		z"/>
	<path d="M463.958,668.122v-0.896h3.604v0.896H463.958z"/>
	<path d="M475.911,672.534h-0.844v-9.448c0-0.768,0.023-1.597,0.07-2.487c-0.123,0.164-0.41,0.472-0.861,0.923l-1.099,1.002
		l-0.448-0.554l2.479-2.285h0.703V672.534z"/>
	<path d="M483.268,672.534v-9.536h0.835v8.745h2.663v-8.745h0.826v8.745h2.663v-8.745h0.826v9.536H483.268z"/>
	<path d="M496.724,662.998v0.756h-1.696v8.78h-0.826v-8.78h-1.696v-0.756H496.724z"/>
	<path d="M498.033,671.743c0-0.627,0.229-0.94,0.686-0.94c0.188,0,0.349,0.07,0.483,0.211s0.202,0.384,0.202,0.729
		c0,0.334-0.067,0.573-0.202,0.717c-0.135,0.143-0.296,0.215-0.483,0.215C498.262,672.675,498.033,672.364,498.033,671.743z"/>
</g>
<g class="st1">
	<path d="M385.524,681.284v0.826h-3.621v12.023h-0.861v-12.85H385.524z"/>
	<path d="M390.631,694.134l-0.105-1.336h-0.035c-0.457,1.008-1.148,1.512-2.074,1.512c-0.621,0-1.12-0.247-1.498-0.742
		s-0.567-1.159-0.567-1.991c0-0.908,0.272-1.627,0.817-2.157s1.31-0.819,2.294-0.866l1.028-0.053v-0.791
		c0-0.891-0.111-1.539-0.334-1.946s-0.592-0.611-1.107-0.611c-0.545,0-1.102,0.179-1.67,0.536l-0.36-0.659
		c0.662-0.41,1.356-0.615,2.083-0.615c0.785,0,1.351,0.248,1.696,0.742c0.346,0.496,0.519,1.323,0.519,2.483v6.495H390.631z
		 M388.601,693.598c0.598,0,1.062-0.294,1.394-0.884c0.331-0.588,0.496-1.422,0.496-2.5v-0.993l-0.993,0.053
		c-0.768,0.041-1.337,0.254-1.709,0.638s-0.559,0.944-0.559,1.683c0,0.691,0.123,1.198,0.369,1.521S388.179,693.598,388.601,693.598
		z"/>
	<path d="M394.665,684.598v6.442l-0.062,1.802l3.384-8.244h1.046v9.536h-0.826v-6.17l0.035-2.074l-3.384,8.244h-1.028v-9.536
		H394.665z M396.476,683.227c-0.715,0-1.26-0.194-1.635-0.585c-0.375-0.389-0.592-1.018-0.65-1.885h0.809
		c0.064,0.662,0.21,1.131,0.436,1.406s0.572,0.413,1.041,0.413c0.492,0,0.852-0.146,1.077-0.439s0.364-0.753,0.417-1.38h0.809
		C398.679,682.403,397.911,683.227,396.476,683.227z"/>
	<path d="M405.124,684.598h0.949l-2.804,4.482l3.041,5.054h-0.993l-2.892-4.983v4.983h-0.835v-9.536h0.835v4.482L405.124,684.598z"
		/>
	<path d="M411.364,694.134l-0.105-1.336h-0.035c-0.457,1.008-1.148,1.512-2.074,1.512c-0.621,0-1.12-0.247-1.498-0.742
		s-0.567-1.159-0.567-1.991c0-0.908,0.272-1.627,0.817-2.157s1.31-0.819,2.294-0.866l1.028-0.053v-0.791
		c0-0.891-0.111-1.539-0.334-1.946s-0.592-0.611-1.107-0.611c-0.545,0-1.102,0.179-1.67,0.536l-0.36-0.659
		c0.662-0.41,1.356-0.615,2.083-0.615c0.785,0,1.351,0.248,1.696,0.742c0.346,0.496,0.519,1.323,0.519,2.483v6.495H411.364z
		 M409.334,693.598c0.598,0,1.062-0.294,1.394-0.884c0.331-0.588,0.496-1.422,0.496-2.5v-0.993l-0.993,0.053
		c-0.768,0.041-1.337,0.254-1.709,0.638s-0.559,0.944-0.559,1.683c0,0.691,0.123,1.198,0.369,1.521S408.912,693.598,409.334,693.598
		z"/>
	<path d="M417.139,689.722v-0.896h3.604v0.896H417.139z"/>
	<path d="M429.092,694.134h-0.844v-9.448c0-0.768,0.023-1.597,0.07-2.487c-0.123,0.164-0.41,0.472-0.861,0.923l-1.099,1.002
		l-0.448-0.554l2.479-2.285h0.703V694.134z"/>
	<path d="M436.448,694.134v-9.536h0.835v8.745h2.663v-8.745h0.826v8.745h2.663v-8.745h0.826v9.536H436.448z"/>
	<path d="M449.904,684.598v0.756h-1.696v8.78h-0.826v-8.78h-1.696v-0.756H449.904z"/>
	<path d="M451.214,693.343c0-0.627,0.229-0.94,0.686-0.94c0.188,0,0.349,0.07,0.483,0.211s0.202,0.384,0.202,0.729
		c0,0.334-0.067,0.573-0.202,0.717c-0.135,0.143-0.296,0.215-0.483,0.215C451.442,694.274,451.214,693.964,451.214,693.343z"/>
</g>
<g class="st1">
	<path d="M396.029,489.959h-4.617l-5.676-11.217v11.217h-4.087v-22.13h4.087v10.717l5.767-10.717h4.405l-6.07,10.656
		L396.029,489.959z"/>
	<path d="M410.228,481.498c0,2.765-0.586,4.917-1.756,6.455c-1.171,1.539-2.775,2.309-4.813,2.309c-1.292,0-2.433-0.354-3.421-1.06
		c-0.989-0.706-1.751-1.723-2.286-3.05s-0.802-2.879-0.802-4.654c0-2.735,0.58-4.872,1.74-6.411c1.16-1.538,2.771-2.308,4.829-2.308
		c1.987,0,3.569,0.784,4.745,2.354S410.228,478.823,410.228,481.498z M401.267,481.498c0,1.756,0.191,3.082,0.575,3.98
		c0.383,0.898,0.999,1.348,1.847,1.348c1.614,0,2.422-1.776,2.422-5.328c0-1.767-0.194-3.086-0.583-3.959
		c-0.389-0.872-1.002-1.309-1.839-1.309c-0.848,0-1.464,0.437-1.847,1.309C401.458,478.412,401.267,479.731,401.267,481.498z"/>
	<path d="M430.48,489.959h-3.603V476.26c-0.293,1.635-0.707,3.472-1.241,5.51l-2.195,8.189h-3.421l-2.194-8.219
		c-0.475-1.767-0.889-3.593-1.241-5.48v13.699h-3.527v-16.862h5.798l2.043,7.871c0.444,1.756,0.712,3.391,0.803,4.904
		c0.04-0.515,0.148-1.236,0.325-2.165c0.177-0.928,0.376-1.841,0.598-2.739l2.089-7.871h5.768V489.959z"/>
	<path d="M446.495,473.097v16.862h-4.057v-13.607h-4.557v13.607h-4.026v-16.862H446.495z"/>
	<path d="M462.131,489.959h-4.041v-13.607h-2.256c-0.202,3.42-0.527,6.135-0.977,8.143c-0.448,2.009-1.049,3.467-1.801,4.375
		s-1.748,1.362-2.989,1.362c-0.757,0-1.378-0.111-1.862-0.333v-3.314c0.303,0.101,0.61,0.15,0.924,0.15
		c0.848,0,1.508-1.082,1.982-3.246c0.475-2.165,0.838-5.629,1.09-10.392h9.93V489.959z"/>
	<path d="M471.758,490.262c-2.109,0-3.771-0.749-4.987-2.248c-1.216-1.498-1.824-3.62-1.824-6.365c0-2.785,0.55-4.959,1.65-6.523
		c1.1-1.564,2.634-2.346,4.602-2.346c1.836,0,3.284,0.668,4.344,2.005c1.06,1.338,1.59,3.212,1.59,5.624v2.148h-8.099
		c0.03,1.504,0.338,2.622,0.924,3.354c0.585,0.731,1.393,1.098,2.422,1.098c1.312,0,2.653-0.409,4.026-1.227v3.314
		C475.113,489.873,473.564,490.262,471.758,490.262z M471.168,475.882c-0.575,0-1.05,0.306-1.423,0.916
		c-0.374,0.61-0.591,1.557-0.651,2.838h4.087c-0.021-1.231-0.207-2.165-0.56-2.8C472.268,476.199,471.783,475.882,471.168,475.882z"
		/>
	<path d="M488.136,473.097h4.238l-4.616,7.992l4.904,8.87h-4.436l-4.404-8.674v8.674h-4.026v-16.862h4.026v8.053L488.136,473.097z"
		/>
	<path d="M504.786,473.097v3.255h-3.754v13.607h-4.026v-13.607h-3.754v-3.255H504.786z"/>
	<path d="M518.152,479.666c0.918,0,1.602-0.146,2.051-0.439c0.449-0.292,0.674-0.797,0.674-1.514c0-1.16-0.772-1.74-2.316-1.74
		c-0.545,0-1.05,0.078-1.514,0.234c-0.464,0.157-0.964,0.401-1.498,0.734l-1.453-2.922c1.402-0.827,2.961-1.24,4.677-1.24
		c1.786,0,3.209,0.398,4.269,1.195s1.59,1.887,1.59,3.27c0,1.928-1.065,3.188-3.194,3.784v0.121c1.171,0.272,2.063,0.772,2.68,1.499
		c0.615,0.727,0.923,1.654,0.923,2.785c0,1.493-0.567,2.671-1.702,3.534c-1.136,0.862-2.708,1.294-4.716,1.294
		c-0.929,0-1.813-0.104-2.656-0.311c-0.843-0.206-1.552-0.472-2.127-0.795v-3.375c1.402,0.777,2.871,1.166,4.405,1.166
		c1.836,0,2.755-0.682,2.755-2.044c0-0.727-0.22-1.279-0.658-1.657c-0.439-0.379-1.169-0.568-2.188-0.568h-1.65v-3.012H518.152z"/>
	<path d="M538.45,467.829l-8.249,22.13h-3.875l8.249-22.13H538.45z"/>
	<path d="M544.218,473.097v6.267c0,0.777,0.126,1.342,0.378,1.695s0.651,0.529,1.196,0.529c0.564,0,1.062-0.115,1.49-0.348
		c0.43-0.232,0.86-0.52,1.295-0.863v-7.28h4.071v16.862h-4.071v-6.826c-1.393,1.079-2.785,1.619-4.178,1.619
		c-1.383,0-2.433-0.424-3.148-1.271c-0.717-0.848-1.075-2.109-1.075-3.784v-6.6H544.218z"/>
</g>
<g class="st1">
	<path d="M389.432,521.824h-1.239v-4.865h-7.186v4.865h-1.239v-6.052h1.107c0.738-1.714,1.297-3.695,1.675-5.946
		c0.378-2.249,0.566-4.641,0.566-7.172h4.865v13.118h1.45V521.824z M386.742,515.772v-11.983h-2.466
		c-0.026,2.109-0.248,4.317-0.666,6.624c-0.417,2.308-0.925,4.094-1.522,5.359H386.742z"/>
	<path d="M394.02,503.842c-0.097,2.435-0.233,4.511-0.409,6.229c-0.176,1.719-0.387,3.085-0.633,4.101
		c-0.246,1.015-0.556,1.756-0.93,2.222c-0.373,0.466-0.894,0.698-1.562,0.698c-0.211,0-0.409-0.035-0.594-0.105v-1.16
		c0.105,0.053,0.26,0.079,0.462,0.079c0.519,0,0.934-0.439,1.245-1.318c0.312-0.879,0.569-2.259,0.771-4.14s0.365-4.478,0.488-7.792
		h5.484v14.305h-1.239v-13.117H394.02z"/>
	<path d="M407.599,510.645h-1.648l-3.586,6.314h-1.463l3.81-6.395c-1.072-0.192-1.885-0.621-2.438-1.285
		c-0.554-0.663-0.831-1.54-0.831-2.63c0-1.283,0.396-2.27,1.187-2.96c0.791-0.689,1.89-1.035,3.296-1.035h2.914v14.305h-1.239
		V510.645z M407.599,509.51v-5.721h-1.675c-2.127,0-3.19,0.953-3.19,2.86s1.055,2.86,3.164,2.86H407.599z"/>
	<path d="M422.351,517.223c-0.721,0-1.378-0.2-1.971-0.6c-0.594-0.4-1.044-0.947-1.352-1.642h-0.118l0.092,1.569v6.895h-1.252
		v-20.791h1.028l0.132,1.965h0.118c0.352-0.721,0.802-1.274,1.352-1.661c0.549-0.387,1.149-0.58,1.8-0.58
		c2.795,0,4.192,2.466,4.192,7.396c0,2.383-0.343,4.219-1.028,5.512C424.658,516.576,423.66,517.223,422.351,517.223z
		 M422.101,503.564c-1.046,0-1.824,0.461-2.334,1.385c-0.51,0.922-0.765,2.368-0.765,4.337v0.409c0,2.197,0.26,3.812,0.778,4.845
		c0.519,1.032,1.31,1.549,2.373,1.549c0.984,0,1.716-0.512,2.194-1.536c0.479-1.023,0.719-2.617,0.719-4.779
		c0-2.064-0.224-3.616-0.672-4.653S423.182,503.564,422.101,503.564z"/>
	<path d="M433.583,517.223c-1.512,0-2.674-0.644-3.486-1.932c-0.813-1.287-1.22-3.082-1.22-5.385c0-2.443,0.362-4.31,1.088-5.597
		c0.725-1.288,1.769-1.932,3.131-1.932c1.187,0,2.122,0.564,2.808,1.694c0.686,1.129,1.028,2.652,1.028,4.568v1.16h-6.776
		c0.018,2.082,0.312,3.643,0.884,4.68s1.437,1.556,2.597,1.556c0.896,0,1.842-0.294,2.835-0.884v1.213
		C435.557,516.938,434.594,517.223,433.583,517.223z M433.017,503.512c-1.723,0-2.668,1.719-2.835,5.154h5.498
		c0-1.572-0.24-2.825-0.719-3.757C434.481,503.978,433.834,503.512,433.017,503.512z"/>
	<path d="M444.381,516.959l-3.111-12.366h-0.105c0.097,2.03,0.145,3.257,0.145,3.679v8.688h-1.199v-14.305h1.819l2.373,9.334
		c0.343,1.416,0.593,2.606,0.751,3.573h0.105c0.009-0.132,0.09-0.534,0.244-1.206c0.153-0.673,1.145-4.572,2.973-11.701h1.807
		v14.305h-1.239v-8.609c0-0.658,0.044-1.911,0.132-3.757h-0.105l-3.125,12.366H444.381z"/>
	<path d="M462.073,509.773c0,2.409-0.381,4.252-1.141,5.531c-0.761,1.278-1.848,1.918-3.263,1.918c-1.397,0-2.468-0.64-3.21-1.918
		c-0.743-1.279-1.114-3.122-1.114-5.531c0-4.93,1.459-7.396,4.377-7.396c1.371,0,2.438,0.646,3.203,1.938
		C461.69,505.607,462.073,507.428,462.073,509.773z M454.65,509.773c0,2.066,0.246,3.626,0.738,4.681s1.262,1.582,2.308,1.582
		c2.048,0,3.071-2.087,3.071-6.263c0-4.139-1.023-6.209-3.071-6.209c-1.072,0-1.849,0.519-2.327,1.556
		C454.89,506.157,454.65,507.709,454.65,509.773z"/>
	<path d="M466.477,502.654v6.263h5.312v-6.263h1.239v14.305h-1.239v-6.908h-5.312v6.908h-1.253v-14.305H466.477z"/>
	<path d="M481.492,502.654v1.135h-2.544v13.17h-1.239v-13.17h-2.545v-1.135H481.492z"/>
	<path d="M489.152,516.959l-0.158-2.004h-0.053c-0.686,1.512-1.723,2.268-3.111,2.268c-0.932,0-1.682-0.371-2.248-1.114
		c-0.567-0.742-0.851-1.737-0.851-2.985c0-1.362,0.409-2.441,1.227-3.237c0.817-0.795,1.964-1.228,3.44-1.298l1.543-0.08v-1.186
		c0-1.336-0.167-2.31-0.501-2.921c-0.334-0.61-0.888-0.916-1.661-0.916c-0.817,0-1.652,0.269-2.505,0.804l-0.541-0.988
		c0.993-0.615,2.035-0.923,3.125-0.923c1.178,0,2.025,0.371,2.544,1.114c0.519,0.742,0.778,1.984,0.778,3.725v9.742H489.152z
		 M486.106,516.154c0.896,0,1.593-0.441,2.09-1.324c0.496-0.884,0.745-2.134,0.745-3.751v-1.489l-1.49,0.078
		c-1.151,0.062-2.006,0.381-2.564,0.956c-0.558,0.576-0.837,1.417-0.837,2.524c0,1.038,0.185,1.798,0.554,2.281
		S485.474,516.154,486.106,516.154z"/>
	<path d="M500.279,502.654v6.263h5.312v-6.263h1.239v14.305h-1.239v-6.908h-5.312v6.908h-1.253v-14.305H500.279z"/>
	<path d="M516.205,516.959l-0.158-2.004h-0.053c-0.686,1.512-1.723,2.268-3.111,2.268c-0.932,0-1.682-0.371-2.248-1.114
		c-0.567-0.742-0.851-1.737-0.851-2.985c0-1.362,0.409-2.441,1.227-3.237c0.817-0.795,1.964-1.228,3.44-1.298l1.543-0.08v-1.186
		c0-1.336-0.167-2.31-0.501-2.921c-0.334-0.61-0.888-0.916-1.661-0.916c-0.817,0-1.652,0.269-2.505,0.804l-0.541-0.988
		c0.993-0.615,2.035-0.923,3.125-0.923c1.178,0,2.025,0.371,2.544,1.114c0.519,0.742,0.778,1.984,0.778,3.725v9.742H516.205z
		 M513.159,516.154c0.896,0,1.593-0.441,2.09-1.324c0.496-0.884,0.745-2.134,0.745-3.751v-1.489l-1.49,0.078
		c-1.151,0.062-2.006,0.381-2.564,0.956c-0.558,0.576-0.837,1.417-0.837,2.524c0,1.038,0.185,1.798,0.554,2.281
		S512.526,516.154,513.159,516.154z"/>
	<path d="M524.682,517.223c-1.433,0-2.512-0.622-3.236-1.865c-0.726-1.244-1.088-3.069-1.088-5.479c0-2.442,0.367-4.304,1.101-5.583
		c0.734-1.278,1.817-1.918,3.25-1.918c0.888,0,1.626,0.163,2.215,0.487l-0.487,1.107c-0.589-0.271-1.13-0.408-1.622-0.408
		c-2.101,0-3.15,2.096-3.15,6.289c0,4.157,1.05,6.235,3.15,6.235c0.624,0,1.301-0.141,2.03-0.422v1.055
		c-0.29,0.158-0.646,0.281-1.067,0.369S524.989,517.223,524.682,517.223z"/>
	<path d="M537.431,509.773c0,2.409-0.381,4.252-1.141,5.531c-0.761,1.278-1.848,1.918-3.263,1.918c-1.397,0-2.468-0.64-3.21-1.918
		c-0.743-1.279-1.114-3.122-1.114-5.531c0-4.93,1.459-7.396,4.377-7.396c1.371,0,2.438,0.646,3.203,1.938
		C537.048,505.607,537.431,507.428,537.431,509.773z M530.008,509.773c0,2.066,0.246,3.626,0.738,4.681s1.262,1.582,2.308,1.582
		c2.048,0,3.071-2.087,3.071-6.263c0-4.139-1.023-6.209-3.071-6.209c-1.072,0-1.849,0.519-2.327,1.556
		C530.247,506.157,530.008,507.709,530.008,509.773z"/>
	<path d="M544.26,517.223c-1.433,0-2.512-0.622-3.236-1.865c-0.726-1.244-1.088-3.069-1.088-5.479c0-2.442,0.366-4.304,1.101-5.583
		c0.733-1.278,1.817-1.918,3.25-1.918c0.888,0,1.626,0.163,2.215,0.487l-0.488,1.107c-0.589-0.271-1.129-0.408-1.621-0.408
		c-2.101,0-3.151,2.096-3.151,6.289c0,4.157,1.051,6.235,3.151,6.235c0.624,0,1.301-0.141,2.03-0.422v1.055
		c-0.29,0.158-0.646,0.281-1.068,0.369S544.567,517.223,544.26,517.223z"/>
	<path d="M557.008,509.773c0,2.409-0.38,4.252-1.141,5.531c-0.76,1.278-1.848,1.918-3.263,1.918c-1.397,0-2.468-0.64-3.21-1.918
		c-0.743-1.279-1.114-3.122-1.114-5.531c0-4.93,1.459-7.396,4.377-7.396c1.371,0,2.439,0.646,3.204,1.938
		C556.626,505.607,557.008,507.428,557.008,509.773z M549.586,509.773c0,2.066,0.246,3.626,0.738,4.681s1.261,1.582,2.307,1.582
		c2.048,0,3.072-2.087,3.072-6.263c0-4.139-1.024-6.209-3.072-6.209c-1.072,0-1.848,0.519-2.327,1.556
		C549.825,506.157,549.586,507.709,549.586,509.773z"/>
	<path d="M567.054,506.082c0,0.871-0.158,1.567-0.475,2.09c-0.316,0.523-0.817,0.895-1.503,1.114v0.118
		c0.773,0.133,1.362,0.488,1.767,1.068s0.606,1.31,0.606,2.188c0,1.354-0.347,2.408-1.041,3.164s-1.679,1.134-2.953,1.134h-3.296
		v-14.305h3.032c1.257,0,2.215,0.297,2.874,0.891C566.725,504.138,567.054,504.984,567.054,506.082z M565.749,506.082
		c0-1.529-0.844-2.293-2.531-2.293h-1.807v5.075h2.07c0.817,0,1.399-0.22,1.746-0.659
		C565.575,507.766,565.749,507.059,565.749,506.082z M566.157,512.635c0-0.967-0.222-1.656-0.666-2.07
		c-0.443-0.412-1.096-0.619-1.957-0.619h-2.123v5.88h2.07c0.932,0,1.61-0.253,2.036-0.758
		C565.944,514.562,566.157,513.751,566.157,512.635z"/>
</g>
<g class="st1">
	<path d="M383.037,525.924v7.316h2.057c1.723,0,2.995,0.429,3.816,1.286c0.822,0.856,1.233,2.199,1.233,4.027
		c0,1.688-0.446,3.011-1.339,3.968c-0.892,0.959-2.12,1.438-3.685,1.438h-3.375v-19.274h7.528v1.239H383.037z M383.037,542.772
		h2.136c1.178,0,2.079-0.362,2.703-1.088c0.624-0.725,0.936-1.769,0.936-3.131c0-1.415-0.294-2.456-0.883-3.124
		s-1.517-1.002-2.782-1.002h-2.109V542.772z"/>
	<path d="M398.476,543.959l-0.158-2.004h-0.053c-0.686,1.512-1.723,2.268-3.111,2.268c-0.932,0-1.682-0.371-2.248-1.114
		c-0.567-0.742-0.851-1.737-0.851-2.985c0-1.362,0.409-2.441,1.227-3.237c0.817-0.795,1.964-1.228,3.44-1.298l1.543-0.08v-1.186
		c0-1.336-0.167-2.31-0.501-2.921c-0.334-0.61-0.888-0.916-1.661-0.916c-0.817,0-1.652,0.269-2.505,0.804l-0.541-0.988
		c0.993-0.615,2.035-0.923,3.125-0.923c1.178,0,2.025,0.371,2.544,1.114c0.519,0.742,0.778,1.984,0.778,3.725v9.742H398.476z
		 M395.43,543.154c0.896,0,1.593-0.441,2.09-1.324c0.496-0.884,0.745-2.134,0.745-3.751v-1.489l-1.49,0.078
		c-1.151,0.062-2.006,0.381-2.564,0.956c-0.558,0.576-0.837,1.417-0.837,2.524c0,1.038,0.185,1.798,0.554,2.281
		S394.797,543.154,395.43,543.154z"/>
	<path d="M410.169,533.082c0,0.871-0.158,1.567-0.475,2.09c-0.316,0.523-0.817,0.895-1.503,1.114v0.118
		c0.773,0.133,1.362,0.488,1.767,1.068s0.606,1.31,0.606,2.188c0,1.354-0.347,2.408-1.041,3.164s-1.679,1.134-2.953,1.134h-3.296
		v-14.305h3.032c1.257,0,2.215,0.297,2.874,0.891C409.84,531.138,410.169,531.984,410.169,533.082z M408.864,533.082
		c0-1.529-0.844-2.293-2.531-2.293h-1.807v5.075h2.07c0.817,0,1.399-0.22,1.746-0.659
		C408.69,534.766,408.864,534.059,408.864,533.082z M409.272,539.635c0-0.967-0.222-1.656-0.666-2.07
		c-0.443-0.412-1.096-0.619-1.957-0.619h-2.123v5.88h2.07c0.932,0,1.61-0.253,2.036-0.758
		C409.06,541.562,409.272,540.751,409.272,539.635z"/>
	<path d="M415.693,530.842c-0.097,2.435-0.233,4.511-0.409,6.229c-0.176,1.719-0.387,3.085-0.633,4.101
		c-0.246,1.015-0.556,1.756-0.93,2.222c-0.373,0.466-0.894,0.698-1.562,0.698c-0.211,0-0.409-0.035-0.594-0.105v-1.16
		c0.105,0.053,0.26,0.079,0.462,0.079c0.519,0,0.934-0.439,1.245-1.318c0.312-0.879,0.569-2.259,0.771-4.14s0.365-4.478,0.488-7.792
		h5.484v14.305h-1.239v-13.117H415.693z"/>
	<path d="M427.901,544.223c-1.512,0-2.675-0.644-3.487-1.932c-0.813-1.287-1.22-3.082-1.22-5.385c0-2.443,0.362-4.31,1.088-5.597
		c0.725-1.288,1.769-1.932,3.131-1.932c1.187,0,2.123,0.564,2.809,1.694c0.686,1.129,1.028,2.652,1.028,4.568v1.16h-6.776
		c0.018,2.082,0.312,3.643,0.883,4.68s1.438,1.556,2.598,1.556c0.896,0,1.841-0.294,2.834-0.884v1.213
		C429.874,543.938,428.912,544.223,427.901,544.223z M427.334,530.512c-1.723,0-2.667,1.719-2.834,5.154h5.497
		c0-1.572-0.239-2.825-0.719-3.757C428.8,530.978,428.151,530.512,427.334,530.512z"/>
	<path d="M435.68,529.654v6.263h5.312v-6.263h1.239v14.305h-1.239v-6.908h-5.312v6.908h-1.253v-14.305H435.68z"/>
	<path d="M450.129,544.223c-1.512,0-2.675-0.644-3.487-1.932c-0.813-1.287-1.22-3.082-1.22-5.385c0-2.443,0.362-4.31,1.088-5.597
		c0.725-1.288,1.769-1.932,3.131-1.932c1.187,0,2.123,0.564,2.809,1.694c0.686,1.129,1.028,2.652,1.028,4.568v1.16h-6.776
		c0.018,2.082,0.312,3.643,0.883,4.68s1.438,1.556,2.598,1.556c0.896,0,1.841-0.294,2.834-0.884v1.213
		C452.102,543.938,451.14,544.223,450.129,544.223z M449.562,530.512c-1.723,0-2.667,1.719-2.834,5.154h5.497
		c0-1.572-0.239-2.825-0.719-3.757C451.027,530.978,450.379,530.512,449.562,530.512z"/>
	<path d="M464.459,542.772h1.464v6.052h-1.239v-4.865h-8.029v-14.305h1.253v13.118h5.312v-13.118h1.239V542.772z"/>
	<path d="M474.756,529.654v9.664l-0.093,2.703l5.076-12.367h1.568v14.305h-1.239v-9.255l0.053-3.111l-5.075,12.366h-1.543v-14.305
		H474.756z"/>
	<path d="M491.71,525.924v7.316h2.057c1.723,0,2.994,0.429,3.816,1.286c0.821,0.856,1.232,2.199,1.232,4.027
		c0,1.688-0.446,3.011-1.338,3.968c-0.893,0.959-2.12,1.438-3.685,1.438h-3.375v-19.274h7.527v1.239H491.71z M491.71,542.772h2.136
		c1.178,0,2.078-0.362,2.702-1.088c0.624-0.725,0.937-1.769,0.937-3.131c0-1.415-0.295-2.456-0.884-3.124s-1.516-1.002-2.781-1.002
		h-2.109V542.772z"/>
	<path d="M507.147,543.959l-0.158-2.004h-0.053c-0.686,1.512-1.723,2.268-3.111,2.268c-0.932,0-1.681-0.371-2.247-1.114
		c-0.567-0.742-0.851-1.737-0.851-2.985c0-1.362,0.408-2.441,1.226-3.237c0.817-0.795,1.965-1.228,3.441-1.298l1.542-0.08v-1.186
		c0-1.336-0.167-2.31-0.501-2.921c-0.334-0.61-0.888-0.916-1.661-0.916c-0.817,0-1.652,0.269-2.505,0.804l-0.54-0.988
		c0.993-0.615,2.034-0.923,3.124-0.923c1.178,0,2.026,0.371,2.545,1.114c0.519,0.742,0.777,1.984,0.777,3.725v9.742H507.147z
		 M504.103,543.154c0.896,0,1.593-0.441,2.09-1.324c0.496-0.884,0.744-2.134,0.744-3.751v-1.489l-1.489,0.078
		c-1.151,0.062-2.007,0.381-2.564,0.956c-0.559,0.576-0.837,1.417-0.837,2.524c0,1.038,0.185,1.798,0.554,2.281
		S503.47,543.154,504.103,543.154z"/>
	<path d="M518.842,533.082c0,0.871-0.158,1.567-0.475,2.09c-0.316,0.523-0.817,0.895-1.503,1.114v0.118
		c0.773,0.133,1.362,0.488,1.767,1.068s0.606,1.31,0.606,2.188c0,1.354-0.348,2.408-1.042,3.164s-1.679,1.134-2.953,1.134h-3.296
		v-14.305h3.032c1.257,0,2.215,0.297,2.874,0.891C518.512,531.138,518.842,531.984,518.842,533.082z M517.536,533.082
		c0-1.529-0.844-2.293-2.531-2.293h-1.806v5.075h2.069c0.817,0,1.399-0.22,1.747-0.659
		C517.362,534.766,517.536,534.059,517.536,533.082z M517.945,539.635c0-0.967-0.223-1.656-0.666-2.07
		c-0.444-0.412-1.097-0.619-1.958-0.619h-2.122v5.88h2.069c0.932,0,1.61-0.253,2.037-0.758
		C517.731,541.562,517.945,540.751,517.945,539.635z"/>
	<path d="M524.365,530.842c-0.097,2.435-0.232,4.511-0.408,6.229c-0.176,1.719-0.387,3.085-0.633,4.101
		c-0.246,1.015-0.557,1.756-0.93,2.222c-0.374,0.466-0.895,0.698-1.562,0.698c-0.211,0-0.408-0.035-0.593-0.105v-1.16
		c0.105,0.053,0.259,0.079,0.461,0.079c0.519,0,0.934-0.439,1.246-1.318c0.312-0.879,0.569-2.259,0.771-4.14
		s0.364-4.478,0.487-7.792h5.484v14.305h-1.239v-13.117H524.365z"/>
	<path d="M536.573,544.223c-1.512,0-2.674-0.644-3.486-1.932c-0.813-1.287-1.22-3.082-1.22-5.385c0-2.443,0.362-4.31,1.088-5.597
		c0.725-1.288,1.769-1.932,3.131-1.932c1.187,0,2.122,0.564,2.808,1.694c0.686,1.129,1.028,2.652,1.028,4.568v1.16h-6.776
		c0.018,2.082,0.312,3.643,0.884,4.68s1.437,1.556,2.597,1.556c0.896,0,1.842-0.294,2.835-0.884v1.213
		C538.547,543.938,537.584,544.223,536.573,544.223z M536.007,530.512c-1.723,0-2.668,1.719-2.835,5.154h5.498
		c0-1.572-0.24-2.825-0.719-3.757C537.472,530.978,536.824,530.512,536.007,530.512z"/>
	<path d="M544.352,529.654v6.263h5.313v-6.263h1.239v14.305h-1.239v-6.908h-5.313v6.908H543.1v-14.305H544.352z"/>
	<path d="M558.801,544.223c-1.512,0-2.674-0.644-3.486-1.932c-0.813-1.287-1.22-3.082-1.22-5.385c0-2.443,0.362-4.31,1.088-5.597
		c0.725-1.288,1.769-1.932,3.131-1.932c1.187,0,2.122,0.564,2.808,1.694c0.686,1.129,1.028,2.652,1.028,4.568v1.16h-6.776
		c0.018,2.082,0.312,3.643,0.884,4.68s1.437,1.556,2.597,1.556c0.896,0,1.842-0.294,2.835-0.884v1.213
		C560.774,543.938,559.812,544.223,558.801,544.223z M558.234,530.512c-1.723,0-2.668,1.719-2.835,5.154h5.498
		c0-1.572-0.24-2.825-0.719-3.757C559.699,530.978,559.052,530.512,558.234,530.512z"/>
	<path d="M573.132,542.772h1.463v6.052h-1.239v-4.865h-8.028v-14.305h1.252v13.118h5.313v-13.118h1.239V542.772z"/>
	<path d="M575.887,537.341v-1.345h5.405v1.345H575.887z"/>
	<path d="M590.441,543.959l-5.128-17.547h-0.105c0.088,1.846,0.132,3.015,0.132,3.506v14.041h-1.239v-19.274h1.911l4.324,14.739
		c0.387,1.301,0.638,2.408,0.752,3.322h0.105c0.088-0.65,0.36-1.749,0.817-3.296l4.284-14.766h1.978v19.274h-1.292v-13.936
		c0-0.544,0.044-1.74,0.132-3.586h-0.105l-5.102,17.521H590.441z"/>
</g>
</svg>
