<svg xmlns="http://www.w3.org/2000/svg" xmlns:xlink="http://www.w3.org/1999/xlink" viewBox="0 0 636.96 278.47"><defs><style>.a,.c,.e,.j,.k,.l,.m{fill:none;}.b{clip-path:url(#a);}.c,.e{stroke:#475a6c;}.c,.e,.l,.m{stroke-miterlimit:10;}.c,.j,.k,.m{stroke-width:2px;}.d{clip-path:url(#b);}.f{fill:#a2d9f1;}.g{fill:#fff;}.h{fill:#263b4e;}.i{fill:#00aadb;}.j,.k,.l,.m{stroke:#fff;}.j{stroke-linecap:round;}.j,.k{stroke-linejoin:round;}.n{fill:url(#k);}</style><clipPath id="a"><rect class="a" width="240.95" height="141.73"/></clipPath><clipPath id="b" transform="translate(0 4.08)"><rect class="a" x="228.6" y="1.15" width="376.54" height="172.73"/></clipPath><pattern id="k" width="240.95" height="141.73" patternTransform="matrix(0.71, -0.71, -0.71, -0.71, 11600.45, 11768.35)" patternUnits="userSpaceOnUse" viewBox="0 0 240.94 141.73"><rect class="a" width="240.95" height="141.73"/><g class="b"><line class="c" y1="14.17" x2="240.94" y2="14.17"/><line class="c" y1="42.52" x2="240.94" y2="42.52"/><line class="c" y1="70.87" x2="240.94" y2="70.87"/><line class="c" y1="99.21" x2="240.94" y2="99.21"/><line class="c" y1="127.56" x2="240.94" y2="127.56"/></g></pattern></defs><g class="d"><rect class="e" x="227.26" y="0.5" width="27.42" height="11.85"/><rect class="e" x="254.68" y="0.5" width="27.42" height="11.85"/><rect class="e" x="282.1" y="0.5" width="27.42" height="11.85"/><rect class="e" x="309.52" y="0.5" width="27.42" height="11.85"/><rect class="e" x="336.94" y="0.5" width="27.42" height="11.85"/><rect class="e" x="364.36" y="0.5" width="27.42" height="11.85"/><rect class="e" x="391.79" y="0.5" width="27.42" height="11.85"/><rect class="e" x="419.21" y="0.5" width="27.42" height="11.85"/><rect class="e" x="446.63" y="0.5" width="27.42" height="11.85"/><rect class="e" x="474.05" y="0.5" width="27.42" height="11.85"/><rect class="e" x="501.47" y="0.5" width="27.42" height="11.85"/><rect class="e" x="528.87" y="0.5" width="27.42" height="11.85"/></g><rect class="e" x="240.95" y="12.35" width="27.42" height="11.85"/><rect class="e" x="268.37" y="12.35" width="27.42" height="11.85"/><rect class="e" x="295.79" y="12.35" width="27.42" height="11.85"/><rect class="e" x="323.21" y="12.35" width="27.42" height="11.85"/><rect class="e" x="350.63" y="12.35" width="27.42" height="11.85"/><rect class="e" x="378.05" y="12.35" width="27.42" height="11.85"/><rect class="e" x="405.47" y="12.35" width="27.42" height="11.85"/><rect class="e" x="432.89" y="12.35" width="27.42" height="11.85"/><rect class="e" x="460.32" y="12.35" width="27.42" height="11.85"/><rect class="e" x="487.74" y="12.35" width="27.42" height="11.85"/><rect class="e" x="515.16" y="12.35" width="27.42" height="11.85"/><g class="d"><rect class="e" x="227.26" y="24.2" width="27.42" height="11.85"/></g><rect class="e" x="254.68" y="24.2" width="27.42" height="11.85"/><rect class="e" x="282.1" y="24.2" width="27.42" height="11.85"/><rect class="e" x="309.52" y="24.2" width="27.42" height="11.85"/><rect class="e" x="336.94" y="24.2" width="27.42" height="11.85"/><rect class="e" x="364.36" y="24.2" width="27.42" height="11.85"/><rect class="e" x="391.79" y="24.2" width="27.42" height="11.85"/><rect class="e" x="419.21" y="24.2" width="27.42" height="11.85"/><rect class="e" x="446.63" y="24.2" width="27.42" height="11.85"/><rect class="e" x="474.05" y="24.2" width="27.42" height="11.85"/><rect class="e" x="501.47" y="24.2" width="27.42" height="11.85"/><rect class="e" x="528.87" y="24.2" width="27.42" height="11.85"/><rect class="e" x="240.95" y="36.05" width="27.42" height="11.85"/><rect class="e" x="268.37" y="36.05" width="27.42" height="11.85"/><rect class="e" x="295.79" y="36.05" width="27.42" height="11.85"/><rect class="e" x="323.21" y="36.05" width="27.42" height="11.85"/><rect class="e" x="350.63" y="36.05" width="27.42" height="11.85"/><rect class="e" x="378.05" y="36.05" width="27.42" height="11.85"/><rect class="e" x="405.47" y="36.05" width="27.42" height="11.85"/><rect class="e" x="432.89" y="36.05" width="27.42" height="11.85"/><rect class="e" x="460.32" y="36.05" width="27.42" height="11.85"/><rect class="e" x="487.74" y="36.05" width="27.42" height="11.85"/><rect class="e" x="515.16" y="36.05" width="27.42" height="11.85"/><g class="d"><rect class="e" x="227.26" y="47.91" width="27.42" height="11.85"/></g><rect class="e" x="254.68" y="47.91" width="27.42" height="11.85"/><rect class="e" x="282.1" y="47.91" width="27.42" height="11.85"/><rect class="e" x="309.52" y="47.91" width="27.42" height="11.85"/><rect class="e" x="336.94" y="47.91" width="27.42" height="11.85"/><rect class="e" x="364.36" y="47.91" width="27.42" height="11.85"/><rect class="e" x="391.79" y="47.91" width="27.42" height="11.85"/><rect class="e" x="419.21" y="47.91" width="27.42" height="11.85"/><rect class="e" x="446.63" y="47.91" width="27.42" height="11.85"/><rect class="e" x="474.05" y="47.91" width="27.42" height="11.85"/><rect class="e" x="501.47" y="47.91" width="27.42" height="11.85"/><rect class="e" x="528.87" y="47.91" width="27.42" height="11.85"/><rect class="e" x="240.95" y="59.76" width="27.42" height="11.85"/><rect class="e" x="268.37" y="59.76" width="27.42" height="11.85"/><rect class="e" x="295.79" y="59.76" width="27.42" height="11.85"/><rect class="e" x="323.21" y="59.76" width="27.42" height="11.85"/><rect class="e" x="350.63" y="59.76" width="27.42" height="11.85"/><rect class="e" x="378.05" y="59.76" width="27.42" height="11.85"/><rect class="e" x="405.47" y="59.76" width="27.42" height="11.85"/><rect class="e" x="432.89" y="59.76" width="27.42" height="11.85"/><rect class="e" x="460.32" y="59.76" width="27.42" height="11.85"/><rect class="e" x="487.74" y="59.76" width="27.42" height="11.85"/><rect class="e" x="515.16" y="59.76" width="27.42" height="11.85"/><g class="d"><rect class="e" x="227.26" y="71.61" width="27.42" height="11.85"/></g><rect class="e" x="254.68" y="71.61" width="27.42" height="11.85"/><rect class="e" x="282.1" y="71.61" width="27.42" height="11.85"/><rect class="e" x="309.52" y="71.61" width="27.42" height="11.85"/><rect class="e" x="336.94" y="71.61" width="27.42" height="11.85"/><rect class="e" x="364.36" y="71.61" width="27.42" height="11.85"/><rect class="e" x="391.79" y="71.61" width="27.42" height="11.85"/><rect class="e" x="419.21" y="71.61" width="27.42" height="11.85"/><rect class="e" x="446.63" y="71.61" width="27.42" height="11.85"/><rect class="e" x="474.05" y="71.61" width="27.42" height="11.85"/><rect class="e" x="501.47" y="71.61" width="27.42" height="11.85"/><rect class="e" x="528.87" y="71.61" width="27.42" height="11.85"/><rect class="e" x="240.95" y="83.46" width="27.42" height="11.85"/><rect class="e" x="268.37" y="83.46" width="27.42" height="11.85"/><rect class="e" x="295.79" y="83.46" width="27.42" height="11.85"/><rect class="e" x="323.21" y="83.46" width="27.42" height="11.85"/><rect class="e" x="350.63" y="83.46" width="27.42" height="11.85"/><rect class="e" x="378.05" y="83.46" width="27.42" height="11.85"/><rect class="e" x="405.47" y="83.46" width="27.42" height="11.85"/><rect class="e" x="432.89" y="83.46" width="27.42" height="11.85"/><rect class="e" x="460.32" y="83.46" width="27.42" height="11.85"/><rect class="e" x="487.74" y="83.46" width="27.42" height="11.85"/><rect class="e" x="515.16" y="83.46" width="27.42" height="11.85"/><g class="d"><rect class="e" x="227.26" y="95.31" width="27.42" height="11.85"/></g><rect class="e" x="254.68" y="95.31" width="27.42" height="11.85"/><rect class="e" x="282.1" y="95.31" width="27.42" height="11.85"/><rect class="e" x="309.52" y="95.31" width="27.42" height="11.85"/><rect class="e" x="336.94" y="95.31" width="27.42" height="11.85"/><rect class="e" x="364.36" y="95.31" width="27.42" height="11.85"/><rect class="e" x="391.79" y="95.31" width="27.42" height="11.85"/><rect class="e" x="419.21" y="95.31" width="27.42" height="11.85"/><rect class="e" x="446.63" y="95.31" width="27.42" height="11.85"/><rect class="e" x="474.05" y="95.31" width="27.42" height="11.85"/><rect class="e" x="501.47" y="95.31" width="27.42" height="11.85"/><rect class="e" x="528.87" y="95.31" width="27.42" height="11.85"/><rect class="e" x="240.95" y="107.16" width="27.42" height="11.85"/><rect class="e" x="268.37" y="107.16" width="27.42" height="11.85"/><rect class="e" x="295.79" y="107.16" width="27.42" height="11.85"/><rect class="e" x="323.21" y="107.16" width="27.42" height="11.85"/><rect class="e" x="350.63" y="107.16" width="27.42" height="11.85"/><rect class="e" x="378.05" y="107.16" width="27.42" height="11.85"/><rect class="e" x="405.47" y="107.16" width="27.42" height="11.85"/><rect class="e" x="432.89" y="107.16" width="27.42" height="11.85"/><rect class="e" x="460.32" y="107.16" width="27.42" height="11.85"/><rect class="e" x="487.74" y="107.16" width="27.42" height="11.85"/><rect class="e" x="515.16" y="107.16" width="27.42" height="11.85"/><g class="d"><rect class="e" x="227.26" y="119.01" width="27.42" height="11.85"/></g><rect class="e" x="254.68" y="119.01" width="27.42" height="11.85"/><rect class="e" x="282.1" y="119.01" width="27.42" height="11.85"/><rect class="e" x="309.52" y="119.01" width="27.42" height="11.85"/><rect class="e" x="336.94" y="119.01" width="27.42" height="11.85"/><rect class="e" x="364.36" y="119.01" width="27.42" height="11.85"/><rect class="e" x="391.79" y="119.01" width="27.42" height="11.85"/><rect class="e" x="419.21" y="119.01" width="27.42" height="11.85"/><rect class="e" x="446.63" y="119.01" width="27.42" height="11.85"/><rect class="e" x="474.05" y="119.01" width="27.42" height="11.85"/><rect class="e" x="501.47" y="119.01" width="27.42" height="11.85"/><rect class="e" x="528.87" y="119.01" width="27.42" height="11.85"/><rect class="e" x="240.95" y="130.87" width="27.42" height="11.85"/><rect class="e" x="268.37" y="130.87" width="27.42" height="11.85"/><rect class="e" x="295.79" y="130.87" width="27.42" height="11.85"/><rect class="e" x="323.21" y="130.87" width="27.42" height="11.85"/><rect class="e" x="350.63" y="130.87" width="27.42" height="11.85"/><rect class="e" x="378.05" y="130.87" width="27.42" height="11.85"/><rect class="e" x="405.47" y="130.87" width="27.42" height="11.85"/><rect class="e" x="432.89" y="130.87" width="27.42" height="11.85"/><rect class="e" x="460.32" y="130.87" width="27.42" height="11.85"/><rect class="e" x="487.74" y="130.87" width="27.42" height="11.85"/><rect class="e" x="515.16" y="130.87" width="27.42" height="11.85"/><g class="d"><rect class="e" x="227.26" y="142.72" width="27.42" height="11.85"/></g><rect class="e" x="254.68" y="142.72" width="27.42" height="11.85"/><rect class="e" x="282.1" y="142.72" width="27.42" height="11.85"/><rect class="e" x="309.52" y="142.72" width="27.42" height="11.85"/><rect class="e" x="336.94" y="142.72" width="27.42" height="11.85"/><rect class="e" x="364.36" y="142.72" width="27.42" height="11.85"/><rect class="e" x="391.79" y="142.72" width="27.42" height="11.85"/><rect class="e" x="419.21" y="142.72" width="27.42" height="11.85"/><rect class="e" x="446.63" y="142.72" width="27.42" height="11.85"/><rect class="e" x="474.05" y="142.72" width="27.42" height="11.85"/><rect class="e" x="501.47" y="142.72" width="27.42" height="11.85"/><rect class="e" x="528.87" y="142.72" width="27.42" height="11.85"/><rect class="e" x="240.95" y="154.57" width="27.42" height="11.85"/><rect class="e" x="268.37" y="154.57" width="27.42" height="11.85"/><rect class="e" x="295.79" y="154.57" width="27.42" height="11.85"/><rect class="e" x="323.21" y="154.57" width="27.42" height="11.85"/><rect class="e" x="350.63" y="154.57" width="27.42" height="11.85"/><rect class="e" x="378.05" y="154.57" width="27.42" height="11.85"/><rect class="e" x="405.47" y="154.57" width="27.42" height="11.85"/><rect class="e" x="432.89" y="154.57" width="27.42" height="11.85"/><rect class="e" x="460.32" y="154.57" width="27.42" height="11.85"/><rect class="e" x="487.74" y="154.57" width="27.42" height="11.85"/><rect class="e" x="515.16" y="154.57" width="27.42" height="11.85"/><g class="d"><rect class="e" x="227.26" y="166.42" width="27.42" height="11.85"/><rect class="e" x="254.68" y="166.42" width="27.42" height="11.85"/><rect class="e" x="282.1" y="166.42" width="27.42" height="11.85"/><rect class="e" x="309.52" y="166.42" width="27.42" height="11.85"/><rect class="e" x="336.94" y="166.42" width="27.42" height="11.85"/><rect class="e" x="364.36" y="166.42" width="27.42" height="11.85"/><rect class="e" x="391.79" y="166.42" width="27.42" height="11.85"/><rect class="e" x="419.21" y="166.42" width="27.42" height="11.85"/><rect class="e" x="446.63" y="166.42" width="27.42" height="11.85"/><rect class="e" x="474.05" y="166.42" width="27.42" height="11.85"/><rect class="e" x="501.47" y="166.42" width="27.42" height="11.85"/><rect class="e" x="528.87" y="166.42" width="27.42" height="11.85"/><rect class="e" x="240.95" y="178.27" width="27.42" height="11.85"/><rect class="e" x="268.37" y="178.27" width="27.42" height="11.85"/><rect class="e" x="295.79" y="178.27" width="27.42" height="11.85"/><rect class="e" x="323.21" y="178.27" width="27.42" height="11.85"/><rect class="e" x="350.63" y="178.27" width="27.42" height="11.85"/><rect class="e" x="378.05" y="178.27" width="27.42" height="11.85"/><rect class="e" x="405.47" y="178.27" width="27.42" height="11.85"/><rect class="e" x="432.89" y="178.27" width="27.42" height="11.85"/><rect class="e" x="460.32" y="178.27" width="27.42" height="11.85"/><rect class="e" x="487.74" y="178.27" width="27.42" height="11.85"/><rect class="e" x="515.16" y="178.27" width="27.42" height="11.85"/><rect class="e" x="556.4" y="0.5" width="27.42" height="11.85"/><rect class="e" x="583.82" y="0.5" width="27.42" height="11.85"/></g><rect class="e" x="570.09" y="12.35" width="27.42" height="11.85"/><rect class="e" x="597.51" y="12.35" width="27.42" height="11.85"/><rect class="e" x="556.4" y="24.2" width="27.42" height="11.85"/><rect class="e" x="583.82" y="24.2" width="27.42" height="11.85"/><rect class="e" x="570.09" y="36.05" width="27.42" height="11.85"/><rect class="e" x="597.51" y="36.05" width="27.42" height="11.85"/><rect class="e" x="556.4" y="47.91" width="27.42" height="11.85"/><rect class="e" x="583.82" y="47.91" width="27.42" height="11.85"/><rect class="e" x="570.09" y="59.76" width="27.42" height="11.85"/><rect class="e" x="597.51" y="59.76" width="27.42" height="11.85"/><rect class="e" x="556.4" y="71.61" width="27.42" height="11.85"/><rect class="e" x="583.82" y="71.61" width="27.42" height="11.85"/><rect class="e" x="570.09" y="83.46" width="27.42" height="11.85"/><rect class="e" x="597.51" y="83.46" width="27.42" height="11.85"/><rect class="e" x="556.4" y="95.31" width="27.42" height="11.85"/><rect class="e" x="583.82" y="95.31" width="27.42" height="11.85"/><rect class="e" x="570.09" y="107.16" width="27.42" height="11.85"/><rect class="e" x="597.51" y="107.16" width="27.42" height="11.85"/><rect class="e" x="556.4" y="119.01" width="27.42" height="11.85"/><rect class="e" x="583.82" y="119.01" width="27.42" height="11.85"/><rect class="e" x="570.09" y="130.87" width="27.42" height="11.85"/><rect class="e" x="597.51" y="130.87" width="27.42" height="11.85"/><rect class="e" x="556.4" y="142.72" width="27.42" height="11.85"/><rect class="e" x="583.82" y="142.72" width="27.42" height="11.85"/><rect class="e" x="570.09" y="154.57" width="27.42" height="11.85"/><rect class="e" x="597.51" y="154.57" width="27.42" height="11.85"/><g class="d"><rect class="e" x="556.4" y="166.42" width="27.42" height="11.85"/><rect class="e" x="583.82" y="166.42" width="27.42" height="11.85"/><rect class="e" x="570.09" y="178.27" width="27.42" height="11.85"/><rect class="e" x="597.51" y="178.27" width="27.42" height="11.85"/></g><path class="f" d="M140,273.38V175.7s3.45,3.1,10.55,3.87c7.62.83,15-3.41,19.94-3.82,7.48-.6,10.55,3.82,10.55,3.82v93.81Z" transform="translate(0 4.08)"/><rect class="g" x="288.02" y="83.71" width="78.93" height="5.87"/><path class="h" d="M366.44,85H288.51V80.13h77.93Zm1-5.87H287.51V86h79.93V79.13Z" transform="translate(0 4.08)"/><polygon class="g" points="383.96 89.58 383.96 83.71 402.06 83.71 402.06 4.58 407.93 4.58 407.93 83.71 440.57 83.71 440.57 89.58 383.96 89.58"/><path class="h" d="M407.43,1V80.13h32.64V85H384.46V80.13h18.1V1Zm1-1h-6.87V79.13h-18.1V86h57.61V79.13H408.43V0Z" transform="translate(0 4.08)"/><path class="i" d="M384.46,86.23H369.35V78.89a20.74,20.74,0,0,1,15.11,0Z" transform="translate(0 4.08)"/><path class="j" d="M384.46,86.23H369.35V78.89a20.74,20.74,0,0,1,15.11,0Z" transform="translate(0 4.08)"/><path class="i" d="M379.83,110.23H374a3,3,0,0,1-3-2.73l-1.68-21.27h15.11l-1.67,21.27a3,3,0,0,1-3,2.73" transform="translate(0 4.08)"/><path class="j" d="M379.83,110.23H374a3,3,0,0,1-3-2.73l-1.68-21.27h15.11l-1.67,21.27A3,3,0,0,1,379.83,110.23Z" transform="translate(0 4.08)"/><path class="h" d="M365.43,125.67H323.78c-4.69,0-8.49,8.93-8.49,19.93s3.8,19.92,8.49,19.92h41.65c4.69,0,8.49-8.92,8.49-19.92s-3.8-19.93-8.49-19.93" transform="translate(0 4.08)"/><path class="k" d="M365.43,125.67H323.78c-4.69,0-8.49,8.93-8.49,19.93s3.8,19.92,8.49,19.92h41.65c4.69,0,8.49-8.92,8.49-19.92S370.12,125.67,365.43,125.67Z" transform="translate(0 4.08)"/><rect class="h" x="310.53" y="138.7" width="4.76" height="21.96"/><rect class="k" x="310.53" y="138.7" width="4.76" height="21.96"/><rect class="h" x="323.78" y="169.6" width="7.7" height="5.57"/><rect class="k" x="323.78" y="169.6" width="7.7" height="5.57"/><rect class="h" x="357.73" y="169.6" width="7.7" height="5.57"/><rect class="k" x="357.73" y="169.6" width="7.7" height="5.57"/><rect class="h" x="373.92" y="144.8" width="4.55" height="9.75"/><rect class="k" x="373.92" y="144.8" width="4.55" height="9.75"/><polyline class="k" points="333.43 135.48 333.43 124.03 355.79 124.03 355.79 135.48"/><path class="g" d="M482.38,75.58V60.34H442.5a2.93,2.93,0,0,1-2.93-2.93V.5h5.87v54h73.69V40.9H525v33h-5.87V60.34H488.25V75.58Z" transform="translate(0 4.08)"/><path class="h" d="M444.94,1V55h74.69V41.4h4.87v32h-4.87V59.84H487.75V75.08h-4.87V59.84H442.5a2.43,2.43,0,0,1-2.43-2.43V1h4.87m1-1h-6.87V57.41a3.44,3.44,0,0,0,3.43,3.43h39.38V76.08h6.87V60.84h29.88V74.41h6.87v-34h-6.87V54H445.94V0Z" transform="translate(0 4.08)"/><polygon class="j" points="228.09 177.96 228.09 5.08 216.7 5.08 216.7 177.96 216.7 189.34 635.96 189.34 635.96 177.96 228.09 177.96"/><rect class="j" x="139.98" y="127.17" width="41.04" height="150.29"/><rect class="i" x="133.6" y="117.69" width="53.8" height="9.48"/><rect class="j" x="133.6" y="117.69" width="53.8" height="9.48"/><line class="j" x1="1" y1="5.08" x2="635.96" y2="5.08"/><path class="j" d="M140,110.42a3.19,3.19,0,1,0-3.19,3.19A3.18,3.18,0,0,0,140,110.42Z" transform="translate(0 4.08)"/><path class="j" d="M187.4,110.42a3.19,3.19,0,1,0-3.19,3.19A3.18,3.18,0,0,0,187.4,110.42Z" transform="translate(0 4.08)"/><rect class="g" x="157.56" y="126.67" width="5.87" height="75.4"/><path class="h" d="M162.93,197.49h-4.87v-74.4h4.87Zm1-75.4h-6.87v76.4h6.87v-76.4Z" transform="translate(0 4.08)"/><rect class="i" x="128.16" y="162.41" width="80.78" height="2.09" transform="translate(-1.4 329.53) rotate(-87.75)"/><rect class="l" x="128.16" y="162.41" width="80.78" height="2.09" transform="translate(-1.4 329.53) rotate(-87.75)"/><rect class="h" x="247.29" y="127.17" width="9.17" height="9.17"/><rect class="k" x="247.29" y="127.17" width="9.17" height="9.17"/><path class="g" d="M254.41,127.68a2.54,2.54,0,1,0-2.53,2.53,2.54,2.54,0,0,0,2.53-2.53" transform="translate(0 4.08)"/><rect class="j" x="125.25" y="5.08" width="91.45" height="122.09"/><path class="g" d="M157.56,104.51V88.06A8.45,8.45,0,0,1,166,79.62h88.88v5.87H166a2.58,2.58,0,0,0-2.57,2.57v16.45Z" transform="translate(0 4.08)"/><path class="h" d="M254.38,80.13V85H166a3.07,3.07,0,0,0-3.07,3.06v16h-4.87v-16A7.94,7.94,0,0,1,166,80.13h88.38m1-1H166a8.94,8.94,0,0,0-8.94,8.93v17h6.87v-17A2.07,2.07,0,0,1,166,86h89.38V79.13Z" transform="translate(0 4.08)"/><rect class="h" x="153.66" y="207.89" width="13.68" height="50.33"/><rect class="j" x="153.66" y="207.89" width="13.68" height="50.33"/><rect class="i" x="277.81" y="100.55" width="11.83" height="4.17"/><rect class="j" x="277.81" y="100.55" width="11.83" height="4.17"/><rect class="i" x="306.36" y="143.77" width="4.17" height="11.83"/><rect class="j" x="306.36" y="143.77" width="4.17" height="11.83"/><rect class="i" x="277.81" y="96.38" width="11.83" height="4.17"/><rect class="j" x="277.81" y="96.38" width="11.83" height="4.17"/><rect class="i" x="253.38" y="80.85" width="4.17" height="11.83"/><rect class="j" x="253.38" y="80.85" width="4.17" height="11.83"/><rect class="i" x="305.66" y="80.85" width="4.17" height="11.83"/><rect class="j" x="305.65" y="80.85" width="4.17" height="11.83"/><rect class="i" x="279.1" y="92.2" width="9.25" height="4.17"/><rect class="j" x="279.1" y="92.2" width="9.25" height="4.17"/><rect class="i" x="257.55" y="82.03" width="48.1" height="9.45"/><rect class="j" x="257.55" y="82.03" width="48.1" height="9.45"/><path class="i" d="M302.47,82.68a6.75,6.75,0,1,0-6.75,6.75,6.75,6.75,0,0,0,6.75-6.75" transform="translate(0 4.08)"/><circle class="j" cx="295.72" cy="86.76" r="6.75"/><path class="i" d="M297,82.68A1.33,1.33,0,1,0,295.72,84,1.33,1.33,0,0,0,297,82.68" transform="translate(0 4.08)"/><path class="j" d="M297,82.68A1.33,1.33,0,1,0,295.72,84,1.33,1.33,0,0,0,297,82.68Z" transform="translate(0 4.08)"/><line class="i" x1="296.74" y1="85.93" x2="298.3" y2="84.38"/><line class="j" x1="296.74" y1="85.93" x2="298.3" y2="84.38"/><path class="i" d="M306.36,148h-1.95a23.14,23.14,0,0,1-23.12-23.12V100.64h4.87v24.27a18.27,18.27,0,0,0,18.25,18.25h1.95Z" transform="translate(0 4.08)"/><path class="m" d="M306.36,148h-1.95a23.14,23.14,0,0,1-23.12-23.12V100.64h4.87v24.27a18.27,18.27,0,0,0,18.25,18.25h1.95Z" transform="translate(0 4.08)"/><line class="j" x1="376.91" y1="111.07" x2="376.91" y2="93.56"/><path class="m" d="M271.31,96.66c.93,7.54,1.51,28.48,1.51,37.36,0,6.72.15,24.46-10.67,24.46-8.77,0-10.27-18.71-10.27-30.8" transform="translate(0 4.08)"/><rect class="i" x="261.31" y="80.01" width="12.74" height="20.73"/><rect class="j" x="261.31" y="80.01" width="12.75" height="20.73"/><path class="i" d="M271.31,88.12h-7.26V82.28a3.4,3.4,0,0,1,3.4-3.39h.46a3.4,3.4,0,0,1,3.4,3.39Z" transform="translate(0 4.08)"/><path class="j" d="M271.31,88.12h-7.26V82.28a3.4,3.4,0,0,1,3.4-3.39h.46a3.4,3.4,0,0,1,3.4,3.39Z" transform="translate(0 4.08)"/><line class="j" x1="261.31" y1="95.38" x2="274.05" y2="95.38"/><rect class="h" x="440.07" y="79.16" width="54.15" height="96.01"/><rect class="j" x="440.07" y="79.16" width="54.15" height="96.01"/><rect class="h" x="444.59" y="84.21" width="30.32" height="9.5"/><rect class="j" x="444.59" y="84.21" width="30.32" height="9.5"/><path class="h" d="M490.07,84.87a4.75,4.75,0,1,0-4.75,4.75,4.75,4.75,0,0,0,4.75-4.75" transform="translate(0 4.08)"/><path class="j" d="M490.07,84.87a4.75,4.75,0,1,0-4.75,4.75A4.75,4.75,0,0,0,490.07,84.87Z" transform="translate(0 4.08)"/><path class="h" d="M534.57,104.19V81.8c0-2.52-5.6-4.57-12.5-4.57s-12.51,2-12.51,4.57v22.39c0,2.52,5.6,4.56,12.51,4.56s12.5-2,12.5-4.56" transform="translate(0 4.08)"/><path class="k" d="M534.57,104.19V81.8c0-2.52-5.6-4.57-12.5-4.57s-12.51,2-12.51,4.57v22.39c0,2.52,5.6,4.56,12.51,4.56S534.57,106.71,534.57,104.19Z" transform="translate(0 4.08)"/><rect class="h" x="516.58" y="77.49" width="10.97" height="3.83"/><rect class="k" x="516.58" y="77.49" width="10.97" height="3.83"/><path class="i" d="M533.94,41.41H509.68a2.78,2.78,0,0,1-2.78-2.79V30.93h5.56v4.91h18.7V23.23h5.56V38.62a2.78,2.78,0,0,1-2.78,2.79" transform="translate(0 4.08)"/><path class="m" d="M533.94,41.41H509.68a2.78,2.78,0,0,1-2.78-2.79V30.93h5.56v4.91h18.7V23.23h5.56V38.62A2.78,2.78,0,0,1,533.94,41.41Z" transform="translate(0 4.08)"/><path class="i" d="M515.8,21.16a6.12,6.12,0,1,0-6.12,6.12,6.12,6.12,0,0,0,6.12-6.12" transform="translate(0 4.08)"/><path class="m" d="M515.8,21.16a6.12,6.12,0,1,0-6.12,6.12A6.12,6.12,0,0,0,515.8,21.16Z" transform="translate(0 4.08)"/><rect class="i" x="508.03" y="31.36" width="3.3" height="3.65"/><rect class="m" x="508.03" y="31.36" width="3.3" height="3.65"/><rect class="i" x="520.16" y="32.99" width="3.3" height="3.65"/><rect class="m" x="520.16" y="32.99" width="3.3" height="3.65"/><rect class="i" x="518.93" y="25.6" width="5.77" height="7.38"/><rect class="k" x="518.92" y="25.6" width="5.77" height="7.38"/><path class="g" d="M511.75,21.16a2.07,2.07,0,1,0-2.07,2.07,2.08,2.08,0,0,0,2.07-2.07" transform="translate(0 4.08)"/><line class="m" x1="509.68" y1="25.24" x2="512.51" y2="22.41"/><line class="m" x1="529.79" y1="23.97" x2="538.09" y2="23.97"/><polygon class="i" points="531.16 20.62 536.72 20.62 539.33 27.31 528.55 27.31 531.16 20.62"/><polygon class="j" points="531.16 20.62 536.72 20.62 539.33 27.31 528.55 27.31 531.16 20.62"/><path class="i" d="M527.87,38.62a6.07,6.07,0,0,0-12.13,0" transform="translate(0 4.08)"/><path class="m" d="M527.87,38.62a6.07,6.07,0,0,0-12.13,0" transform="translate(0 4.08)"/><line class="j" x1="521.81" y1="25.6" x2="521.81" y2="20.62"/><rect class="i" x="150.53" y="108.1" width="19.94" height="9.48"/><rect class="j" x="150.53" y="108.1" width="19.94" height="9.48"/><rect class="i" x="167.34" y="102.64" width="6.26" height="14.94"/><rect class="j" x="167.34" y="102.64" width="6.26" height="14.94"/><rect class="i" x="155.92" y="201.58" width="9.16" height="6.32"/><rect class="j" x="155.92" y="201.58" width="9.16" height="6.32"/><rect class="i" x="384.46" y="82.97" width="2.91" height="7.35"/><rect class="j" x="384.46" y="82.97" width="2.91" height="7.35"/><rect class="i" x="366.44" y="82.97" width="2.91" height="7.35"/><rect class="j" x="366.44" y="82.97" width="2.91" height="7.35"/><polygon class="n" points="1 276.89 1 13.09 117.25 13.09 117.25 135.13 131.97 135.13 131.97 276.89 1 276.89"/><path class="i" d="M250.81,118.56a14.21,14.21,0,0,1-14.19-14.19V96.28a6.76,6.76,0,0,0-6.75-6.75H178.16a6.76,6.76,0,0,0-6.75,6.75v2.27h-1.88V96.28a8.64,8.64,0,0,1,8.63-8.63h51.71a8.64,8.64,0,0,1,8.63,8.63v8.09a12.31,12.31,0,0,0,24.61,0V96.66H265v7.71a14.21,14.21,0,0,1-14.19,14.19" transform="translate(0 4.08)"/><path class="l" d="M250.81,118.56a14.21,14.21,0,0,1-14.19-14.19V96.28a6.76,6.76,0,0,0-6.75-6.75H178.16a6.76,6.76,0,0,0-6.75,6.75v2.27h-1.88V96.28a8.64,8.64,0,0,1,8.63-8.63h51.71a8.64,8.64,0,0,1,8.63,8.63v8.09a12.31,12.31,0,0,0,24.61,0V96.66H265v7.71A14.21,14.21,0,0,1,250.81,118.56Z" transform="translate(0 4.08)"/><polygon class="n" points="189.02 276.89 189.02 135.18 208.7 135.18 208.7 197.35 635.96 197.35 635.96 276.89 189.02 276.89"/></svg>