<svg xmlns="http://www.w3.org/2000/svg" viewBox="0 0 80.96 80.96"><defs><style>.a{fill:#fff;}</style></defs><path class="a" d="M22.73,29.13a1.21,1.21,0,0,1,0,2.42,1.21,1.21,0,0,1,0-2.42m0,4.66a3.44,3.44,0,0,0,1.12-6.69V24.37H21.61V27.1A3.4,3.4,0,0,0,19.7,32l-2,2.13,1.65,1.52,2-2.12a3.45,3.45,0,0,0,1.4.3"/><path class="a" d="M53.3,34.84l.51-2.25h9.34l.5,2.25Zm7.39,20c0,.75-.14,2.5-1.4,2.5H21.64A1.38,1.38,0,0,1,20.25,56V46.07h4.49v4.5a1.12,1.12,0,0,0,1.12,1.12H29.8a17.49,17.49,0,0,0-1.23,3l2.14.67c.94-3,3.47-8.1,9.88-8.1s8.93,5.07,9.87,8.1l2.14-.67a17.49,17.49,0,0,0-1.23-3h3.76a1.13,1.13,0,0,0,1.12-1.12l0-13.49h4.47ZM45,64H36V59.58h9ZM21.4,40.37a9.8,9.8,0,0,0,1.33.09c.31,0,.62,0,.92,0v3.41H21.4Zm-6.56-10a7.89,7.89,0,1,1,7.89,7.89,7.9,7.9,0,0,1-7.89-7.89m24.5,11.23h2.29v3.48c-.35,0-.69,0-1,0s-.84,0-1.25.06Zm4.51-2.24H37.11V27h6.74ZM61.14,23.59l.5,2.26h-6.3l.51-2.26Zm1.51,6.76H54.32l.51-2.26h7.31Zm.48-8.12A1.12,1.12,0,0,0,62,21.35H55a1.13,1.13,0,0,0-1.09.88L50.8,35.71a1.14,1.14,0,0,0,.22.95,1.09,1.09,0,0,0,.87.42H54l0,12.37h-4.1a11.45,11.45,0,0,0-6-4V41.57H45a1.12,1.12,0,0,0,1.12-1.12V27h0V24.8H41.59V21.36H39.35V24.8H34.83V27h0V40.45A1.12,1.12,0,0,0,36,41.57H37.1V45.5a11.43,11.43,0,0,0-5.9,4v-.09H27V46.07h1.16V43.83H25.89V40a10.14,10.14,0,1,0-6.73-.15v4H16.84v2.24H18V56a3.64,3.64,0,0,0,3.64,3.62H33.73v6.65H47.24V59.58h12c1.68,0,3.64-1.24,3.64-4.74V37.08h2.12a1.09,1.09,0,0,0,.87-.42,1.07,1.07,0,0,0,.22-.94Z"/><path class="a" d="M40.48,78.72A38.24,38.24,0,1,1,78.72,40.48,38.28,38.28,0,0,1,40.48,78.72M40.48,0A40.48,40.48,0,1,0,81,40.48,40.53,40.53,0,0,0,40.48,0"/></svg>