<?xml version="1.0" encoding="utf-8"?>
<!-- Generator: Adobe Illustrator 26.0.0, SVG Export Plug-In . SVG Version: 6.00 Build 0)  -->
<svg version="1.1" id="Layer_1" xmlns="http://www.w3.org/2000/svg" xmlns:xlink="http://www.w3.org/1999/xlink" x="0px" y="0px"
	 viewBox="0 0 586 287.2" style="enable-background:new 0 0 586 287.2;" xml:space="preserve">
<style type="text/css">
	.st0{fill:none;}
	.st1{clip-path:url(#SVGID_00000090997325697862787230000005949381168442334104_);}
	.st2{fill:none;stroke:#475A6C;stroke-width:2;stroke-miterlimit:10;}
	.st3{opacity:0.2;fill:none;stroke:#F2F2F2;enable-background:new    ;}
	.st4{opacity:0.2;fill:none;stroke:#F2F2F2;stroke-linecap:square;enable-background:new    ;}
	.st5{fill:#00AADB;stroke:#FFFFFF;stroke-width:3;stroke-miterlimit:10;}
	.st6{fill:url(#SVGID_00000080889723650859898690000014421273113903729067_);}
	.st7{fill:#B1DFF3;}
	.st8{fill:none;stroke:#FFFFFF;stroke-width:2;stroke-linecap:round;stroke-linejoin:round;}
	.st9{fill:none;stroke:#FFFFFF;stroke-miterlimit:10;}
	.st10{fill:url(#SVGID_00000078008405019421703690000014517821722800009099_);stroke:#FFFFFF;stroke-width:2;stroke-miterlimit:10;}
	.st11{fill:#273A4E;stroke:#FFFFFF;stroke-width:2;stroke-miterlimit:10;}
	.st12{fill:#00AADB;}
	.st13{fill:none;stroke:#FFFFFF;stroke-width:2.2089;stroke-linecap:round;stroke-linejoin:round;}
	.st14{fill:none;stroke:#FFFFFF;stroke-width:3;stroke-linecap:round;stroke-linejoin:round;}
	.st15{fill:none;stroke:#FFFFFF;stroke-width:5;stroke-miterlimit:10;}
	.st16{fill:#273A4E;stroke:#FFFFFF;stroke-width:2.025;stroke-miterlimit:10;}
	.st17{fill:none;stroke:#FFFFFF;stroke-width:2;stroke-miterlimit:10;}
	.st18{fill:#263B4E;}
	.st19{fill:#FFFFFF;}
</style>
<pattern  y="287.2" width="241" height="141.7" patternUnits="userSpaceOnUse" id="b" viewBox="0 -141.7 241 141.7" style="overflow:visible;">
	<g>
		<rect y="-141.7" class="st0" width="241" height="141.7"/>
		<rect x="0" y="-141.7" class="st0" width="240.9" height="141.7"/>
		<rect x="0" y="-141.7" class="st0" width="240.9" height="141.7"/>
		<g>
			<defs>
				<rect id="SVGID_1_" x="0" y="-141.7" width="240.9" height="141.7"/>
			</defs>
			<clipPath id="SVGID_00000106862712287280404430000017847141839544793759_">
				<use xlink:href="#SVGID_1_"  style="overflow:visible;"/>
			</clipPath>
			<g style="clip-path:url(#SVGID_00000106862712287280404430000017847141839544793759_);">
				<line class="st2" x1="0" y1="-127.6" x2="241" y2="-127.6"/>
				<line class="st2" x1="0" y1="-99.2" x2="241" y2="-99.2"/>
				<line class="st2" x1="0" y1="-70.9" x2="241" y2="-70.9"/>
				<line class="st2" x1="0" y1="-42.5" x2="241" y2="-42.5"/>
				<line class="st2" x1="0" y1="-14.2" x2="241" y2="-14.2"/>
			</g>
		</g>
	</g>
</pattern>
<pattern  y="287.2" width="135.1" height="101.2" patternUnits="userSpaceOnUse" id="d" viewBox="0 -101.2 135.1 101.2" style="overflow:visible;">
	<g>
		<rect y="-101.2" class="st0" width="135.1" height="101.2"/>
		<rect y="-101.2" class="st0" width="135.1" height="101.2"/>
		<line class="st3" x1="125.7" y1="-83.6" x2="125.7" y2="-67"/>
		<line class="st3" x1="92.4" y1="-83.6" x2="92.4" y2="-67"/>
		<line class="st3" x1="59.2" y1="-83.6" x2="59.2" y2="-67"/>
		<line class="st3" x1="25.9" y1="-83.6" x2="25.9" y2="-67"/>
		<line class="st3" x1="125.7" y1="-50.4" x2="125.7" y2="-33.8"/>
		<line class="st3" x1="92.4" y1="-50.4" x2="92.4" y2="-33.8"/>
		<line class="st3" x1="59.2" y1="-50.4" x2="59.2" y2="-33.8"/>
		<line class="st3" x1="25.9" y1="-50.4" x2="25.9" y2="-33.8"/>
		<line class="st3" x1="125.7" y1="-17" x2="125.7" y2="0"/>
		<line class="st3" x1="92.4" y1="-17" x2="92.4" y2="0"/>
		<line class="st3" x1="59.2" y1="-17" x2="59.2" y2="0"/>
		<line class="st3" x1="25.9" y1="-17" x2="25.9" y2="0"/>
		<line class="st3" x1="109" y1="-33.8" x2="109" y2="-17.2"/>
		<line class="st3" x1="75.8" y1="-33.8" x2="75.8" y2="-17.2"/>
		<line class="st3" x1="42.5" y1="-33.8" x2="42.5" y2="-17.2"/>
		<line class="st3" x1="9.2" y1="-33.8" x2="9.2" y2="-17.2"/>
		<line class="st3" x1="109" y1="-67" x2="109" y2="-50.4"/>
		<line class="st3" x1="75.8" y1="-67" x2="75.8" y2="-50.4"/>
		<line class="st3" x1="42.5" y1="-67" x2="42.5" y2="-50.4"/>
		<line class="st3" x1="9.2" y1="-67" x2="9.2" y2="-50.4"/>
		<line class="st3" x1="109" y1="-100.2" x2="109" y2="-83.6"/>
		<line class="st3" x1="75.8" y1="-100.2" x2="75.8" y2="-83.6"/>
		<line class="st3" x1="42.5" y1="-100.2" x2="42.5" y2="-83.6"/>
		<line class="st3" x1="9.2" y1="-100.2" x2="9.2" y2="-83.6"/>
		<line class="st4" x1="1" y1="-100.2" x2="134.1" y2="-100.2"/>
		<line class="st4" x1="1" y1="-83.6" x2="134.1" y2="-83.6"/>
		<line class="st4" x1="1" y1="-67" x2="134.1" y2="-67"/>
		<line class="st4" x1="1" y1="-50.3" x2="134.1" y2="-50.3"/>
		<line class="st4" x1="1" y1="-33.7" x2="134.1" y2="-33.7"/>
		<line class="st4" x1="1" y1="-17.1" x2="134.1" y2="-17.1"/>
	</g>
</pattern>
<rect x="224.2" y="130.2" class="st5" width="7.1" height="13.8"/>
<pattern  id="SVGID_00000107562377473268406920000017254301221411910799_" xlink:href="#b" patternTransform="matrix(0.7071 -0.7071 -0.7071 -0.7071 3725.2153 -8559.333)">
</pattern>
<polygon style="fill:url(#SVGID_00000107562377473268406920000017254301221411910799_);" points="163.4,203.8 163.4,277.5 
	52.4,277.5 52.4,203.8 1,203.8 1,287.2 585,287.2 585,203.8 "/>
<path class="st7" d="M149,212.4c-4.2,0-8.1-2.2-11.7-2.2c-2.3,0.1-4.4,0.8-6.2,2.2c-2,1.3-4.3,2.1-6.7,2.1c-3.8,0-7.6-4.3-10.9-4.3
	s-4.3,1.4-5.8,2.2c-1.8,1-3.6,1.7-7.4,0c-3.6-1.8-7.7-2.5-11.7-2.2c-2.2,0.3-4.3,1-6.2,2.2c-2,1.3-4.3,2.1-6.7,2.1
	c-3.9,0-7.6-4.3-10.9-4.3c-2.1,0.1-4.1,0.8-5.8,2.2v58.1h97.5v-61.3C156.4,209.3,153.1,212.4,149,212.4"/>
<polyline class="st8" points="1,196.9 58.4,196.9 58.9,196.9 58.9,270.6 155.4,270.6 155.9,270.6 155.9,196.9 585,196.9 "/>
<rect x="164.8" y="0.5" class="st9" width="338.1" height="196.5"/>
<pattern  id="SVGID_00000129925029184419228920000011914765522575791506_" xlink:href="#d" patternTransform="matrix(1 0 0 1 154.2 -2.288818e-05)">
</pattern>
<rect x="174.5" y="9.3" style="fill:url(#SVGID_00000129925029184419228920000011914765522575791506_);stroke:#FFFFFF;stroke-width:2;stroke-miterlimit:10;" width="318.4" height="178"/>
<rect x="323" y="9.3" class="st11" width="124.7" height="7.1"/>
<path class="st11" d="M309.9,16.4h151.9c0.6,0,1,0.4,1,1v5.1c0,0.6-0.4,1-1,1H309.9c-0.6,0-1-0.4-1-1v-5.1
	C308.9,16.9,309.3,16.4,309.9,16.4z"/>
<path class="st12" d="M290.5,181l3.5-2.2v-30.3l-3.5-2.2h-10.7v-3.9h0.6v-7.2l-2.4-0.3H268l-19.8,2.5v4.9h0.6v6.7h-10.7v-8h-5.8v2.1
	h-4.8l-7.8,1.9h-4.4v-2.9h-7v2.9h-19.2v0.2h-2.9v7h2.9V176h0.2v8.6h38.2l1.8,0.4h3v1.2h3.2v0.6H247v-2h-2.6l-5-6.7h34.7v3.5
	l-1.5,3.2h-1.9v2h8.7v-2h-1.7l-1.5-3.2v-3.5h2.4v2.7L290.5,181z M248.7,168.8l-10.6,3.2v-6.6h10.6V168.8z M248.7,161.8h-10.6v-6.6
	l10.6,3.2L248.7,161.8z"/>
<line class="st8" x1="227.6" y1="184.8" x2="229.4" y2="185.1"/>
<line class="st8" x1="229.4" y1="185.1" x2="232.3" y2="185.1"/>
<line class="st8" x1="278.5" y1="181" x2="279.3" y2="181"/>
<line class="st8" x1="279.3" y1="146.3" x2="278.5" y2="146.3"/>
<line class="st8" x1="247" y1="187" x2="247" y2="185"/>
<line class="st8" x1="248.7" y1="178.3" x2="278.5" y2="178.3"/>
<line class="st8" x1="278.5" y1="151.9" x2="248.7" y2="151.9"/>
<path class="st8" d="M279.4,185.8c0-0.4-0.3-0.7-0.8-0.8"/>
<path class="st8" d="M271.5,185c-0.4,0-0.7,0.3-0.7,0.8"/>
<line class="st8" x1="279.4" y1="187" x2="279.4" y2="185.8"/>
<line class="st8" x1="270.7" y1="185.8" x2="270.7" y2="187"/>
<line class="st8" x1="219.8" y1="145" x2="193.2" y2="145"/>
<line class="st8" x1="189.4" y1="184.8" x2="227.6" y2="184.8"/>
<line class="st8" x1="276.2" y1="181.8" x2="276.2" y2="178.3"/>
<line class="st8" x1="248.7" y1="161.8" x2="238.1" y2="161.8"/>
<line class="st8" x1="238.1" y1="165.5" x2="248.7" y2="165.5"/>
<line class="st8" x1="290.5" y1="181" x2="293.9" y2="178.8"/>
<line class="st8" x1="293.9" y1="148.5" x2="290.5" y2="146.3"/>
<line class="st8" x1="279.3" y1="181" x2="290.5" y2="181"/>
<line class="st8" x1="290.5" y1="146.3" x2="279.3" y2="146.3"/>
<line class="st8" x1="237.1" y1="176.6" x2="235.6" y2="176.6"/>
<line class="st8" x1="232.3" y1="148" x2="232.3" y2="179.3"/>
<line class="st8" x1="244.4" y1="185" x2="238.1" y2="176.6"/>
<line class="st8" x1="237.8" y1="187" x2="235.6" y2="187"/>
<line class="st8" x1="235.6" y1="176.6" x2="235.6" y2="187"/>
<path class="st8" d="M211.4,180.9l1.9,0.4l1.9,0.4l1.9,0.4l1.9,0.4l1.9,0.4l1.8,0.4l1.8,0.5l0.9,0.2l0.9,0.2l0.4,0.1l0.4,0.1h0.2
	h0.2h0.2"/>
<path class="st8" d="M189.4,176.1l11,2.4l11,2.4"/>
<path class="st8" d="M189.1,176.1h0.2"/>
<line class="st8" x1="189.1" y1="174.3" x2="189.1" y2="176.1"/>
<path class="st8" d="M232.3,143.2h-4.8"/>
<line class="st8" x1="232.3" y1="184.6" x2="232.3" y2="179.3"/>
<line class="st8" x1="232.3" y1="142.7" x2="232.3" y2="148"/>
<line class="st8" x1="278.5" y1="146.3" x2="278.5" y2="181"/>
<polyline class="st8" points="247,185 247,185 246.9,185 246.7,185 246.5,185 246.3,185 244.9,185 244.4,185 "/>
<polyline class="st8" points="247,187 247,187 246.9,187 246.7,187 246.5,187 246.3,187 244.9,187 244.5,187 244.1,187 243.7,187 
	243.4,187 "/>
<line class="st8" x1="237.8" y1="187" x2="243.4" y2="187"/>
<line class="st8" x1="232.3" y1="141.1" x2="232.3" y2="142.8"/>
<line class="st8" x1="189.1" y1="155.9" x2="189.1" y2="157.3"/>
<line class="st8" x1="189.1" y1="174.3" x2="189.1" y2="157.3"/>
<line class="st8" x1="278.6" y1="185" x2="271.5" y2="185"/>
<line class="st8" x1="279.4" y1="187" x2="270.7" y2="187"/>
<line class="st8" x1="189.1" y1="145.3" x2="189.1" y2="155.9"/>
<line class="st8" x1="189.1" y1="145" x2="193.2" y2="145"/>
<line class="st8" x1="189.4" y1="184.8" x2="189.4" y2="180.9"/>
<line class="st8" x1="189.4" y1="180.9" x2="189.4" y2="176.1"/>
<line class="st8" x1="189.1" y1="145" x2="189.1" y2="145.3"/>
<line class="st8" x1="275.8" y1="142.4" x2="274.9" y2="142.4"/>
<path class="st8" d="M248.2,137.4c-0.1,0-0.1,0.1-0.1,0.1"/>
<line class="st8" x1="248.2" y1="137.4" x2="249.3" y2="137.2"/>
<line class="st8" x1="248.1" y1="142.4" x2="248.1" y2="137.5"/>
<line class="st8" x1="249.4" y1="142.4" x2="248.1" y2="142.4"/>
<line class="st8" x1="274.9" y1="142.4" x2="249.4" y2="142.4"/>
<line class="st8" x1="249.3" y1="137.2" x2="262.7" y2="135.6"/>
<path class="st8" d="M262.7,135.6L262.7,135.6"/>
<line class="st8" x1="262.7" y1="135.6" x2="268" y2="134.9"/>
<line class="st8" x1="268" y1="134.9" x2="277.9" y2="134.9"/>
<line class="st8" x1="280.2" y1="135.2" x2="277.9" y2="134.9"/>
<line class="st8" x1="280" y1="142.4" x2="275.8" y2="142.4"/>
<polyline class="st8" points="280.2,135.2 280.2,135.2 280.2,135.2 280.2,135.2 "/>
<path class="st8" d="M280.2,135.2L280.2,135.2"/>
<line class="st8" x1="280.4" y1="135.3" x2="280.4" y2="142.4"/>
<line class="st8" x1="280.4" y1="142.4" x2="280" y2="142.4"/>
<line class="st8" x1="280.2" y1="135.2" x2="280.3" y2="135.2"/>
<path class="st8" d="M280.4,135.3c0-0.1,0-0.1-0.1-0.1"/>
<line class="st8" x1="279.8" y1="145.5" x2="279.4" y2="145.5"/>
<line class="st8" x1="279.8" y1="145.5" x2="279.8" y2="146.3"/>
<line class="st8" x1="248.7" y1="145.5" x2="248.7" y2="178.3"/>
<polyline class="st8" points="276.2,154.6 275.5,154.6 270.4,154.6 263.8,154.6 255.4,154.6 251.1,154.6 "/>
<polyline class="st8" points="276.2,158.8 275.5,158.8 270.4,158.8 263.8,158.8 255.4,158.8 251.1,158.8 "/>
<polyline class="st8" points="276.2,162.9 275.5,162.9 270.4,162.9 263.8,162.9 255.4,162.9 251.1,162.9 "/>
<polyline class="st8" points="276.2,167 275.5,167 270.4,167 263.8,167 255.4,167 251.1,167 "/>
<polyline class="st8" points="276.2,171.1 275.5,171.1 270.4,171.1 263.8,171.1 255.4,171.1 251.1,171.1 "/>
<polyline class="st8" points="276.2,175.3 275.5,175.3 270.4,175.3 263.8,175.3 255.4,175.3 251.1,175.3 "/>
<line class="st8" x1="276.2" y1="181.8" x2="277.7" y2="185"/>
<line class="st8" x1="274.1" y1="181.8" x2="274.1" y2="178.3"/>
<line class="st8" x1="274.1" y1="181.8" x2="272.6" y2="185"/>
<line class="st8" x1="268.6" y1="151.9" x2="268.6" y2="145.4"/>
<path class="st8" d="M253.7,148.6c0-1.1,0.9-2,2-2c1.1,0,2,0.9,2,2s-0.9,2-2,2C254.6,150.6,253.7,149.7,253.7,148.6z"/>
<path class="st8" d="M260.4,148.6c0-1.1,0.9-2,2-2s2,0.9,2,2s-0.9,2-2,2S260.4,149.7,260.4,148.6z"/>
<polyline class="st8" points="293.9,163.7 293.9,165.9 293.9,168.1 293.9,170.1 293.9,172.1 293.9,173.8 293.9,175.4 293.9,176.6 
	293.9,177.6 293.9,178.4 293.9,178.7 293.9,178.8 "/>
<polyline class="st8" points="293.9,163.7 293.9,152.9 293.9,148.7 293.9,148.6 293.9,148.6 293.9,148.5 293.9,148.5 "/>
<line class="st8" x1="290.5" y1="181" x2="290.5" y2="146.3"/>
<line class="st8" x1="280.4" y1="135.3" x2="280.4" y2="135.3"/>
<rect x="232.9" y="141.8" class="st13" width="3.9" height="45.3"/>
<line class="st8" x1="227.6" y1="143.1" x2="189.1" y2="152.4"/>
<rect x="186.2" y="145.3" class="st8" width="2.9" height="7"/>
<rect x="208.3" y="142.2" class="st8" width="7" height="2.9"/>
<rect x="248.7" y="142.4" class="st8" width="31" height="3"/>
<line class="st8" x1="248.7" y1="158.5" x2="238.1" y2="155.2"/>
<line class="st8" x1="248.7" y1="168.9" x2="238.1" y2="172.1"/>
<line class="st8" x1="248.7" y1="149" x2="238.1" y2="149"/>
<line class="st8" x1="248.7" y1="178.3" x2="239.3" y2="178.3"/>
<rect x="208.3" y="142.2" class="st12" width="7" height="2.9"/>
<rect x="208.3" y="142.2" class="st8" width="7" height="2.9"/>
<rect x="186.2" y="145.3" class="st8" width="2.9" height="7"/>
<rect x="218.9" y="123.5" class="st5" width="17.2" height="7.9"/>
<path class="st5" d="M207,116.4h9.4c0.6,0,1,0.4,1,1v3c0,0.6-0.4,1-1,1H207c-0.6,0-1-0.4-1-1v-3C206,116.8,206.4,116.4,207,116.4z"
	/>
<path class="st5" d="M199.9,124.2h4.4c0.6,0,1,0.4,1,1v5.2c0,0.6-0.4,1-1,1h-4.4c-0.6,0-1-0.4-1-1v-5.2
	C198.9,124.7,199.3,124.2,199.9,124.2z"/>
<path class="st5" d="M204.9,120.7h13.7c0.6,0,1,0.4,1,1V134c0,0.6-0.4,1-1,1h-13.7c-0.6,0-1-0.4-1-1v-12.3
	C203.9,121.1,204.3,120.7,204.9,120.7z"/>
<path class="st5" d="M236.1,118.5h16.1c5.3,0,9.7,4.3,9.7,9.6c0,0,0,0,0,0l0,0c0,5.3-4.3,9.7-9.6,9.7c0,0,0,0,0,0H236L236.1,118.5
	L236.1,118.5z"/>
<line class="st14" x1="236.1" y1="116.4" x2="236.1" y2="139.3"/>
<line class="st14" x1="261.8" y1="127.8" x2="264.7" y2="127.8"/>
<path class="st15" d="M198.3,127.7c-10.2,0-18.4-8.2-18.4-18.4V37.1c0-10.2,8.2-18.4,18.4-18.4h110.8"/>
<path class="st11" d="M315.4,115.8h7.1c2.1,0,3.8-1.7,3.8-3.8v-1.4c0-2.1-1.7-3.8-3.8-3.8h-7.1c-2.1,0-3.8,1.7-3.8,3.8c0,0,0,0,0,0
	l0,0v1.4C311.6,114.1,313.3,115.8,315.4,115.8C315.4,115.8,315.4,115.8,315.4,115.8z"/>
<path class="st11" d="M456.2,115.8h-7.1c-2.1,0-3.8-1.7-3.8-3.8v-1.4c0-2.1,1.7-3.8,3.8-3.8h7.1c2.1,0,3.8,1.7,3.8,3.8v1.4
	C460,114.1,458.3,115.8,456.2,115.8L456.2,115.8L456.2,115.8z"/>
<path class="st16" d="M432.5,173.7v8.3c0,0,0,3.8,4.3,3.8h10.7c1.9,0,3.5-1.5,3.5-3.5c0,0,0,0,0,0c0-0.1,0-0.2,0-0.3v-41"/>
<path class="st16" d="M339,173.7v8.3c0,0,0,3.8-4.3,3.8H324c-1.9,0-3.5-1.6-3.5-3.5c0,0,0,0,0,0c0-0.1,0-0.2,0-0.3c0-3.8,0-41,0-41"
	/>
<path class="st11" d="M340.9,92.2c-7.1,7.1-11.8,25.5-11.8,25.5s-11.5,1.4-9,20.8s4.7,29.3,4.7,29.3s1,5.7,8,5.7h105.9
	c7.1,0,8-5.7,8-5.7s2.2-9.9,4.7-29.3s-9-20.8-9-20.8s-4.7-18.4-11.8-25.5s-33.5-6.8-44.9-6.8S348,85.1,340.9,92.2z"/>
<path class="st17" d="M446.5,114.7L426,130.9l-6.1,9.9c0,0-1,1.9,3.3,1.9s19.4-0.4,19.4-0.4s4.7-0.1,5.7-7.6"/>
<path class="st17" d="M423.2,157.2l5.1,7.2c0,0,7.1,0.5,9.9-0.9s5.1-6.3,5.1-6.3"/>
<circle class="st17" cx="430.4" cy="136.8" r="3.5"/>
<circle class="st17" cx="439.4" cy="137.2" r="2.6"/>
<path class="st17" d="M391.5,135.1c0,0,13.9-0.7,18.4,0c2.4,0.2,4.3,2.3,4.2,4.7c0,3.3-3.3,7.6-6.6,7.6h-16.2c0,0-3.6-0.5-3.6-2.8
	v-6.4C387.7,138.2,387.7,135.6,391.5,135.1z"/>
<line class="st17" x1="392.9" y1="135.6" x2="392.9" y2="146.9"/>
<line class="st17" x1="398.1" y1="135.4" x2="398.1" y2="146.9"/>
<line class="st17" x1="403.3" y1="135.4" x2="403.4" y2="146.9"/>
<line class="st17" x1="408.6" y1="135.6" x2="408.6" y2="146.9"/>
<line class="st8" x1="407.9" y1="113.9" x2="401.4" y2="123.3"/>
<path class="st17" d="M338.8,94.5c13.1-6.1,35.1-6.3,46.9-6.4c0,0,33.9,0.3,47,6.4"/>
<path class="st17" d="M329.1,117.7c14.6-3.8,42.5-4.6,56.8-4.6s42,0.8,56.7,4.6"/>
<path class="st17" d="M325.1,114.7l20.5,16.2l6.1,9.9c0,0,0.9,1.9-3.3,1.9s-19.4-0.4-19.4-0.4s-4.7-0.1-5.7-7.6"/>
<path class="st17" d="M319.9,136.1c11.6-7.1,49.4-7.4,66-7.4s54.3,0.3,65.9,7.4"/>
<line class="st17" x1="322.9" y1="157.2" x2="448.7" y2="157.2"/>
<path class="st17" d="M356.2,157.2c-6.8,1.8-6.8,9.1-6.8,9.1l36.4-0.1h0.1l36.4,0.1c0,0,0-7.4-6.9-9.1"/>
<path class="st17" d="M348.4,157.2l-5.1,7.2c0,0-7.1,0.5-9.9-0.9s-5.1-6.3-5.1-6.3"/>
<circle class="st17" cx="341.1" cy="136.8" r="3.5"/>
<circle class="st17" cx="332.1" cy="137.2" r="2.6"/>
<path class="st17" d="M380.1,135.1c0,0-13.9-0.7-18.4,0c-2.4,0.2-4.3,2.3-4.2,4.7c0,3.3,3.3,7.6,6.6,7.6h16.2c0,0,3.6-0.5,3.6-2.8
	v-6.4C383.8,138.2,383.8,135.6,380.1,135.1z"/>
<line class="st17" x1="378.6" y1="135.6" x2="378.6" y2="146.9"/>
<line class="st17" x1="373.5" y1="135.4" x2="373.5" y2="146.9"/>
<line class="st17" x1="368.2" y1="135.4" x2="368.1" y2="146.9"/>
<line class="st17" x1="362.9" y1="135.6" x2="362.9" y2="146.9"/>
<line class="st8" x1="363.6" y1="113.9" x2="370.1" y2="123.3"/>
<line class="st8" x1="359.4" y1="94" x2="340" y2="105.4"/>
<line class="st8" x1="365.8" y1="97.1" x2="354.9" y2="103.2"/>
<line class="st14" x1="316" y1="54.8" x2="316" y2="55.8"/>
<line class="st14" x1="323.4" y1="54.8" x2="323.4" y2="55.8"/>
<line class="st14" x1="330.7" y1="54.8" x2="330.7" y2="55.8"/>
<line class="st14" x1="338.1" y1="54.8" x2="338.1" y2="55.8"/>
<line class="st14" x1="345.4" y1="54.8" x2="345.4" y2="55.8"/>
<line class="st14" x1="352.7" y1="54.8" x2="352.7" y2="55.8"/>
<line class="st14" x1="360.1" y1="54.8" x2="360.1" y2="55.8"/>
<line class="st14" x1="367.4" y1="54.8" x2="367.4" y2="55.8"/>
<line class="st14" x1="374.8" y1="54.8" x2="374.8" y2="55.8"/>
<line class="st14" x1="382.1" y1="54.8" x2="382.1" y2="55.8"/>
<line class="st14" x1="389.5" y1="54.8" x2="389.5" y2="55.8"/>
<line class="st14" x1="396.8" y1="54.8" x2="396.8" y2="55.8"/>
<line class="st14" x1="404.1" y1="54.8" x2="404.1" y2="55.8"/>
<line class="st14" x1="411.5" y1="54.8" x2="411.5" y2="55.8"/>
<line class="st14" x1="418.8" y1="54.8" x2="418.8" y2="55.8"/>
<line class="st14" x1="426.2" y1="54.8" x2="426.2" y2="55.8"/>
<line class="st14" x1="433.5" y1="54.8" x2="433.5" y2="55.8"/>
<line class="st14" x1="440.9" y1="54.8" x2="440.9" y2="55.8"/>
<line class="st14" x1="448.2" y1="54.8" x2="448.2" y2="55.8"/>
<line class="st14" x1="455.5" y1="54.8" x2="455.5" y2="55.8"/>
<line class="st14" x1="316" y1="64" x2="316" y2="65"/>
<line class="st14" x1="323.4" y1="64" x2="323.4" y2="65"/>
<line class="st14" x1="330.7" y1="64" x2="330.7" y2="65"/>
<line class="st14" x1="338.1" y1="64" x2="338.1" y2="65"/>
<line class="st14" x1="345.4" y1="64" x2="345.4" y2="65"/>
<line class="st14" x1="352.7" y1="64" x2="352.7" y2="65"/>
<line class="st14" x1="360.1" y1="64" x2="360.1" y2="65"/>
<line class="st14" x1="367.4" y1="64" x2="367.4" y2="65"/>
<line class="st14" x1="374.8" y1="64" x2="374.8" y2="65"/>
<line class="st14" x1="382.1" y1="64" x2="382.1" y2="65"/>
<line class="st14" x1="389.5" y1="64" x2="389.5" y2="65"/>
<line class="st14" x1="396.8" y1="64" x2="396.8" y2="65"/>
<line class="st14" x1="404.1" y1="64" x2="404.1" y2="65"/>
<line class="st14" x1="411.5" y1="64" x2="411.5" y2="65"/>
<line class="st14" x1="418.8" y1="64" x2="418.8" y2="65"/>
<line class="st14" x1="426.2" y1="64" x2="426.2" y2="65"/>
<line class="st14" x1="433.5" y1="64" x2="433.5" y2="65"/>
<line class="st14" x1="440.9" y1="64" x2="440.9" y2="65"/>
<line class="st14" x1="448.2" y1="64" x2="448.2" y2="65"/>
<line class="st14" x1="455.5" y1="64" x2="455.5" y2="65"/>
<line class="st14" x1="316" y1="73.3" x2="316" y2="74.3"/>
<line class="st14" x1="323.4" y1="73.3" x2="323.4" y2="74.3"/>
<line class="st14" x1="330.7" y1="73.3" x2="330.7" y2="74.3"/>
<line class="st14" x1="338.1" y1="73.3" x2="338.1" y2="74.3"/>
<line class="st14" x1="345.4" y1="73.3" x2="345.4" y2="74.3"/>
<line class="st14" x1="352.7" y1="73.3" x2="352.7" y2="74.3"/>
<line class="st14" x1="360.1" y1="73.3" x2="360.1" y2="74.3"/>
<line class="st14" x1="367.4" y1="73.3" x2="367.4" y2="74.3"/>
<line class="st14" x1="374.8" y1="73.3" x2="374.8" y2="74.3"/>
<line class="st14" x1="382.1" y1="73.3" x2="382.1" y2="74.3"/>
<line class="st14" x1="389.5" y1="73.3" x2="389.5" y2="74.3"/>
<line class="st14" x1="396.8" y1="73.3" x2="396.8" y2="74.3"/>
<line class="st14" x1="404.1" y1="73.3" x2="404.1" y2="74.3"/>
<line class="st14" x1="411.5" y1="73.3" x2="411.5" y2="74.3"/>
<line class="st14" x1="418.8" y1="73.3" x2="418.8" y2="74.3"/>
<line class="st14" x1="426.2" y1="73.3" x2="426.2" y2="74.3"/>
<line class="st14" x1="433.5" y1="73.3" x2="433.5" y2="74.3"/>
<line class="st14" x1="440.9" y1="73.3" x2="440.9" y2="74.3"/>
<line class="st14" x1="448.2" y1="73.3" x2="448.2" y2="74.3"/>
<line class="st14" x1="455.5" y1="73.3" x2="455.5" y2="74.3"/>
<line class="st14" x1="316" y1="82.5" x2="316" y2="83.5"/>
<line class="st14" x1="323.4" y1="82.5" x2="323.4" y2="83.5"/>
<line class="st14" x1="330.7" y1="82.5" x2="330.7" y2="83.5"/>
<line class="st14" x1="338.1" y1="82.5" x2="338.1" y2="83.5"/>
<line class="st14" x1="345.4" y1="82.5" x2="345.4" y2="83.5"/>
<line class="st14" x1="426.2" y1="82.5" x2="426.2" y2="83.5"/>
<line class="st14" x1="433.5" y1="82.5" x2="433.5" y2="83.5"/>
<line class="st14" x1="440.9" y1="82.5" x2="440.9" y2="83.5"/>
<line class="st14" x1="448.2" y1="82.5" x2="448.2" y2="83.5"/>
<line class="st14" x1="455.5" y1="82.5" x2="455.5" y2="83.5"/>
<line class="st14" x1="316" y1="91.7" x2="316" y2="92.8"/>
<line class="st14" x1="323.4" y1="91.7" x2="323.4" y2="92.8"/>
<line class="st14" x1="330.7" y1="91.7" x2="330.7" y2="92.8"/>
<line class="st14" x1="440.9" y1="91.7" x2="440.9" y2="92.8"/>
<line class="st14" x1="448.2" y1="91.7" x2="448.2" y2="92.8"/>
<line class="st14" x1="455.5" y1="91.7" x2="455.5" y2="92.8"/>
<line class="st14" x1="316" y1="101" x2="316" y2="102"/>
<line class="st14" x1="323.4" y1="101" x2="323.4" y2="102"/>
<line class="st14" x1="448.2" y1="101" x2="448.2" y2="102"/>
<line class="st14" x1="455.5" y1="101" x2="455.5" y2="102"/>
<path class="st15" d="M185.9,149h-43c-20.4,0-37,14.2-37,31.7v55.8"/>
<path class="st18" d="M103.6,236.1h4.4c1,0,1.9,0.8,1.9,1.9v12.2c0,1-0.8,1.9-1.9,1.9h-4.4c-1,0-1.9-0.8-1.9-1.9V238
	C101.7,237,102.6,236.1,103.6,236.1z"/>
<path class="st8" d="M103.6,236.1h4.4c1,0,1.9,0.8,1.9,1.9v12.2c0,1-0.8,1.9-1.9,1.9h-4.4c-1,0-1.9-0.8-1.9-1.9V238
	C101.7,237,102.6,236.1,103.6,236.1z"/>
<line class="st8" x1="101.7" y1="244.1" x2="109.9" y2="244.1"/>
<path class="st19" d="M105.2,246.7c0,0.5-0.4,0.9-0.9,0.9s-0.9-0.4-0.9-0.9s0.4-0.9,0.9-0.9l0,0l0,0
	C104.8,245.8,105.2,246.2,105.2,246.7C105.2,246.7,105.2,246.7,105.2,246.7L105.2,246.7"/>
<path class="st19" d="M108.2,246.7c0,0.5-0.4,0.9-0.9,0.9s-0.9-0.4-0.9-0.9s0.4-0.9,0.9-0.9l0,0l0,0
	C107.8,245.8,108.2,246.2,108.2,246.7C108.2,246.7,108.2,246.7,108.2,246.7L108.2,246.7"/>
<path class="st19" d="M108.2,249.3c0.1,0.5-0.3,0.9-0.8,1c-0.5,0.1-0.9-0.3-1-0.8l0,0c0-0.1,0-0.1,0-0.2c0.1-0.5,0.5-0.8,1-0.8
	c0,0,0,0,0,0C107.8,248.5,108.2,248.9,108.2,249.3"/>
<path class="st19" d="M105.2,249.3c0.1,0.5-0.3,0.9-0.8,1c-0.5,0.1-0.9-0.3-1-0.8c0-0.1,0-0.1,0-0.2c0.1-0.5,0.5-0.8,1-0.8
	c0,0,0,0,0,0C104.8,248.5,105.2,248.9,105.2,249.3"/>
<line class="st14" x1="316.1" y1="28.4" x2="316.1" y2="29.4"/>
<line class="st14" x1="323.4" y1="28.4" x2="323.4" y2="29.4"/>
<line class="st14" x1="330.7" y1="28.4" x2="330.7" y2="29.4"/>
<line class="st14" x1="338.1" y1="28.4" x2="338.1" y2="29.4"/>
<line class="st14" x1="345.4" y1="28.4" x2="345.4" y2="29.4"/>
<line class="st14" x1="352.8" y1="28.4" x2="352.8" y2="29.4"/>
<line class="st14" x1="360.1" y1="28.4" x2="360.1" y2="29.4"/>
<line class="st14" x1="367.5" y1="28.4" x2="367.5" y2="29.4"/>
<line class="st14" x1="374.8" y1="28.4" x2="374.8" y2="29.4"/>
<line class="st14" x1="382.1" y1="28.4" x2="382.1" y2="29.4"/>
<line class="st14" x1="389.5" y1="28.4" x2="389.5" y2="29.4"/>
<line class="st14" x1="396.8" y1="28.4" x2="396.8" y2="29.4"/>
<line class="st14" x1="404.2" y1="28.4" x2="404.2" y2="29.4"/>
<line class="st14" x1="411.5" y1="28.4" x2="411.5" y2="29.4"/>
<line class="st14" x1="418.9" y1="28.4" x2="418.9" y2="29.4"/>
<line class="st14" x1="426.2" y1="28.4" x2="426.2" y2="29.4"/>
<line class="st14" x1="433.5" y1="28.4" x2="433.5" y2="29.4"/>
<line class="st14" x1="440.9" y1="28.4" x2="440.9" y2="29.4"/>
<line class="st14" x1="448.2" y1="28.4" x2="448.2" y2="29.4"/>
<line class="st14" x1="455.6" y1="28.4" x2="455.6" y2="29.4"/>
<line class="st14" x1="316.1" y1="37.6" x2="316.1" y2="38.6"/>
<line class="st14" x1="323.4" y1="37.6" x2="323.4" y2="38.6"/>
<line class="st14" x1="330.7" y1="37.6" x2="330.7" y2="38.6"/>
<line class="st14" x1="338.1" y1="37.6" x2="338.1" y2="38.6"/>
<line class="st14" x1="345.4" y1="37.6" x2="345.4" y2="38.6"/>
<line class="st14" x1="352.8" y1="37.6" x2="352.8" y2="38.6"/>
<line class="st14" x1="360.1" y1="37.6" x2="360.1" y2="38.6"/>
<line class="st14" x1="367.5" y1="37.6" x2="367.5" y2="38.6"/>
<line class="st14" x1="374.8" y1="37.6" x2="374.8" y2="38.6"/>
<line class="st14" x1="382.1" y1="37.6" x2="382.1" y2="38.6"/>
<line class="st14" x1="389.5" y1="37.6" x2="389.5" y2="38.6"/>
<line class="st14" x1="396.8" y1="37.6" x2="396.8" y2="38.6"/>
<line class="st14" x1="404.2" y1="37.6" x2="404.2" y2="38.6"/>
<line class="st14" x1="411.5" y1="37.6" x2="411.5" y2="38.6"/>
<line class="st14" x1="418.9" y1="37.6" x2="418.9" y2="38.6"/>
<line class="st14" x1="426.2" y1="37.6" x2="426.2" y2="38.6"/>
<line class="st14" x1="433.5" y1="37.6" x2="433.5" y2="38.6"/>
<line class="st14" x1="440.9" y1="37.6" x2="440.9" y2="38.6"/>
<line class="st14" x1="448.2" y1="37.6" x2="448.2" y2="38.6"/>
<line class="st14" x1="455.6" y1="37.6" x2="455.6" y2="38.6"/>
<line class="st14" x1="316.1" y1="46.9" x2="316.1" y2="47.9"/>
<line class="st14" x1="323.4" y1="46.9" x2="323.4" y2="47.9"/>
<line class="st14" x1="330.7" y1="46.9" x2="330.7" y2="47.9"/>
<line class="st14" x1="338.1" y1="46.9" x2="338.1" y2="47.9"/>
<line class="st14" x1="345.4" y1="46.9" x2="345.4" y2="47.9"/>
<line class="st14" x1="352.8" y1="46.9" x2="352.8" y2="47.9"/>
<line class="st14" x1="360.1" y1="46.9" x2="360.1" y2="47.9"/>
<line class="st14" x1="367.5" y1="46.9" x2="367.5" y2="47.9"/>
<line class="st14" x1="374.8" y1="46.9" x2="374.8" y2="47.9"/>
<line class="st14" x1="382.1" y1="46.9" x2="382.1" y2="47.9"/>
<line class="st14" x1="389.5" y1="46.9" x2="389.5" y2="47.9"/>
<line class="st14" x1="396.8" y1="46.9" x2="396.8" y2="47.9"/>
<line class="st14" x1="404.2" y1="46.9" x2="404.2" y2="47.9"/>
<line class="st14" x1="411.5" y1="46.9" x2="411.5" y2="47.9"/>
<line class="st14" x1="418.9" y1="46.9" x2="418.9" y2="47.9"/>
<line class="st14" x1="426.2" y1="46.9" x2="426.2" y2="47.9"/>
<line class="st14" x1="433.5" y1="46.9" x2="433.5" y2="47.9"/>
<line class="st14" x1="440.9" y1="46.9" x2="440.9" y2="47.9"/>
<line class="st14" x1="448.2" y1="46.9" x2="448.2" y2="47.9"/>
<line class="st14" x1="455.6" y1="46.9" x2="455.6" y2="47.9"/>
</svg>
