<svg xmlns="http://www.w3.org/2000/svg" viewBox="0 0 80.96 80.96"><defs><style>.a{fill:#fff;}</style></defs><path class="a" d="M40.48,0A40.48,40.48,0,1,0,81,40.48,40.48,40.48,0,0,0,40.48,0m0,2.19A38.29,38.29,0,1,1,2.19,40.48,38.33,38.33,0,0,1,40.48,2.19"/><path class="a" d="M65.64,50.65a2.41,2.41,0,0,1-2.41,2.41h-2V42.12h2a2.41,2.41,0,0,1,2.41,2.41Zm-21.88-2H59.08v4.38H43.76Zm-6.56,4v-4h4.37v2.5Zm-19.7-4H35v8.51L17.5,53.66Zm0-7.16L35,38V46.5H17.5ZM41.57,44v2.5H37.2v-4ZM47,42.12h12V46.5H43.76V42.12Zm1.1-4.38h8.75v2.19H48.14ZM26.26,29H21.88V22.43h4.38V29ZM37.2,22.43H48.14a2.19,2.19,0,0,1,2.19,2.18V26.8A2.2,2.2,0,0,1,48.14,29H37.2V22.43Zm26,17.5H59.08V36.65A1.09,1.09,0,0,0,58,35.56H47A1.09,1.09,0,0,0,46,36.65v3.28H42.67a1.1,1.1,0,0,0-1.1,1.1v.67L37.2,40.24V36.65a1.11,1.11,0,0,0-.4-.85,1.07,1.07,0,0,0-.91-.22l-3.07.62V26.8H35v5.47H37.2V31.18H48.14a4.38,4.38,0,0,0,4.37-4.38h1.1a1.1,1.1,0,0,0,0-2.19h-1.1a4.37,4.37,0,0,0-4.37-4.37H37.2v-1.1H35v5.47H28.44V21.33a1.09,1.09,0,0,0-1.09-1.09H20.79a1.09,1.09,0,0,0-1.1,1.09v3.28H17.5V26.8h2.19v3.29a1.09,1.09,0,0,0,1.1,1.09h6.56a1.09,1.09,0,0,0,1.09-1.09V26.8h2.19v9.84L16.19,39.56a1.08,1.08,0,0,0-.87,1.07V46.5H13.13v2.18h2.19v5.87a1.08,1.08,0,0,0,.87,1.07L35,59.43v1.29a1.09,1.09,0,0,0,1.09,1.09h4.38V59.62H37.2V54.94l4.37-1.46v.67a1.1,1.1,0,0,0,1.1,1.1h12v4.37H52.51v2.19h6.57V59.62H56.89V55.25h6.34a4.61,4.61,0,0,0,4.6-4.6V44.53a4.61,4.61,0,0,0-4.6-4.6"/></svg>