<svg xmlns="http://www.w3.org/2000/svg" xmlns:xlink="http://www.w3.org/1999/xlink" viewBox="0 0 556.6 250.91"><defs><style>.a,.c,.e,.k,.l{fill:none;}.b{clip-path:url(#a);}.c{stroke:#475a6c;stroke-miterlimit:10;}.c,.e,.k{stroke-width:2px;}.d{fill:url(#b);}.e,.k,.l{stroke:#fff;stroke-linejoin:round;}.e,.l{stroke-linecap:round;}.f{fill:#a2d9f1;}.g{fill:#fff;}.h{fill:#263b4e;}.i{fill:#b1dff3;}.j{fill:#00aadb;}.l{stroke-width:2px;}</style><clipPath id="a"><rect class="a" x="0.01" width="240.95" height="141.73"/></clipPath><pattern id="b" width="240.95" height="141.73" patternTransform="translate(11732.6 -10759.21) rotate(-45)" patternUnits="userSpaceOnUse" viewBox="0 0 240.95 141.73"><rect class="a" width="240.95" height="141.73"/><rect class="a" x="0.01" width="240.95" height="141.73"/><g class="b"><line class="c" x1="0.01" y1="127.56" x2="240.95" y2="127.56"/><line class="c" x1="0.01" y1="99.21" x2="240.95" y2="99.21"/><line class="c" x1="0.01" y1="70.86" x2="240.95" y2="70.86"/><line class="c" x1="0.01" y1="42.52" x2="240.95" y2="42.52"/><line class="c" x1="0.01" y1="14.17" x2="240.95" y2="14.17"/></g></pattern></defs><polygon class="d" points="165.54 125.87 165.54 239.62 113.63 239.62 113.63 125.87 1 125.87 1 250.91 555.6 250.91 555.6 125.87 165.54 125.87"/><line class="e" x1="1" y1="118.29" x2="555.6" y2="118.29"/><path class="f" d="M121.21,140.81c5.34-3.51,8.18-.28,11,2.06a15.15,15.15,0,0,0,11.48,2.84c5.46-.89,14.26-8.54,14.26-8.54V232l-36.76-.21Z"/><rect class="e" x="121.21" y="118.29" width="36.76" height="113.75"/><path class="g" d="M137.42,204.82V38.52a10.39,10.39,0,0,1,10.37-10.38h44v4.35h-44a6,6,0,0,0-6,6v166.3Z"/><path class="h" d="M191.32,28.64V32H147.79a6.55,6.55,0,0,0-6.53,6.53v165.8h-3.34V38.52a9.89,9.89,0,0,1,9.87-9.88h43.53m1-1H147.79a10.9,10.9,0,0,0-10.87,10.88v166.8h5.34V38.52A5.54,5.54,0,0,1,147.79,33h44.53Z"/><path class="e" d="M324.08,35.37A10,10,0,0,1,344,33.58a10.7,10.7,0,0,1,0,1.79"/><path class="i" d="M323.83,49.51a3.16,3.16,0,0,1-3.15-3.12c0-1.34,1.9-5.16,2.48-6.29l.93-1.81.8,1.86c.49,1.12,2.07,4.87,2.09,6.18a3.16,3.16,0,0,1-3.12,3.18Zm.11-6.64a16.12,16.12,0,0,0-1.34,3.5,1.23,1.23,0,0,0,.37.87,1.21,1.21,0,0,0,.86.35h0a1.23,1.23,0,0,0,.87-.37,1.22,1.22,0,0,0,.35-.87,17.66,17.66,0,0,0-1.12-3.48"/><path class="i" d="M404.15,89.36A3.13,3.13,0,0,1,401,86.25c0-1.34,1.9-5.16,2.48-6.3l.93-1.8.8,1.86c.49,1.12,2.07,4.87,2.09,6.17a3.17,3.17,0,0,1-.9,2.24,3.09,3.09,0,0,1-2.22.94h0m.11-6.64A16.2,16.2,0,0,0,403,86.23a1.23,1.23,0,0,0,.37.87,1.25,1.25,0,0,0,.86.35h0a1.28,1.28,0,0,0,.87-.37,1.26,1.26,0,0,0,.35-.88,17.66,17.66,0,0,0-1.12-3.48"/><line class="e" x1="342.51" y1="44.61" x2="339.07" y2="38.65"/><line class="e" x1="344" y1="57.4" x2="344" y2="35.37"/><rect class="e" x="310.29" y="57.4" width="39.04" height="6.38" rx="2.98"/><path class="h" d="M347,47.2a3,3,0,1,0-3,3,3,3,0,0,0,3-3"/><path class="e" d="M347,47.2a3,3,0,1,0-3,3A3,3,0,0,0,347,47.2Z"/><line class="e" x1="389.53" y1="62.94" x2="389.53" y2="57.83"/><line class="e" x1="384.97" y1="57.83" x2="394.09" y2="57.83"/><path class="g" d="M290.28,111.22a11.07,11.07,0,0,1-11-11V11.55a6.73,6.73,0,0,0-6.71-6.71H222.63a6.72,6.72,0,0,0-6.7,6.71V23.32h-4.34V11.55a11.06,11.06,0,0,1,11-11h49.89a11.07,11.07,0,0,1,11,11v88.62a6.73,6.73,0,0,0,6.71,6.71H327.6V73H332v33.92h34.78a6.72,6.72,0,0,0,6.7-6.71V72.66a11.07,11.07,0,0,1,11-11h10.1a11.73,11.73,0,0,1,11.71,11.72V74H402v-.63A7.39,7.39,0,0,0,394.61,66h-10.1a6.72,6.72,0,0,0-6.7,6.71v27.51a11.07,11.07,0,0,1-11.05,11Z"/><path class="h" d="M272.52,1a10.57,10.57,0,0,1,10.55,10.55v88.62a7.23,7.23,0,0,0,7.21,7.21h37.86V73.46h3.34v33.92h35.28a7.22,7.22,0,0,0,7.2-7.21V72.66a10.57,10.57,0,0,1,10.55-10.55h10.1a11.22,11.22,0,0,1,11.21,11.21v.14h-3.34v-.14a7.89,7.89,0,0,0-7.87-7.87h-10.1a7.21,7.21,0,0,0-7.2,7.21v27.51a10.57,10.57,0,0,1-10.55,10.55H290.28a10.57,10.57,0,0,1-10.55-10.55V11.55a7.21,7.21,0,0,0-7.21-7.21H222.63a7.21,7.21,0,0,0-7.2,7.21V22.82h-3.34V11.55A10.56,10.56,0,0,1,222.63,1h49.89m0-1H222.63a11.57,11.57,0,0,0-11.54,11.55V23.82h5.34V11.55a6.21,6.21,0,0,1,6.2-6.21h49.89a6.21,6.21,0,0,1,6.21,6.21v88.62a11.56,11.56,0,0,0,11.55,11.55h76.48a11.56,11.56,0,0,0,11.55-11.55V72.66a6.21,6.21,0,0,1,6.2-6.21h10.1a6.89,6.89,0,0,1,6.87,6.87v1.14h5.34V73.32a12.23,12.23,0,0,0-12.21-12.21h-10.1A11.57,11.57,0,0,0,373,72.66v27.51a6.21,6.21,0,0,1-6.2,6.21H332.48V72.46h-5.34v33.92H290.28a6.22,6.22,0,0,1-6.21-6.21V11.55A11.56,11.56,0,0,0,272.52,0"/><path class="g" d="M391.37,114.41V93.61a2,2,0,0,1,2-2H415.9a2,2,0,0,1,2,2v20.8a2,2,0,0,1-2,2H393.39a2,2,0,0,1-2-2m24.43-20.7H393.5v20.6h22.3Z"/><path class="g" d="M417.13,109.93a2,2,0,0,1-1.34-1.9V97.38a2,2,0,0,1,1.06-1.77l15.95-8.7a2,2,0,0,1,1-.25,2,2,0,0,1,2,2,2.06,2.06,0,0,1-.52,1.38l-15.95,19.34a2,2,0,0,1-1.54.74,2.1,2.1,0,0,1-.7-.12m.79-12.48v10.28l15.41-18.68Z"/><path class="g" d="M389.22,111.2h2.71a1.07,1.07,0,0,0,0-2.13h-2.71a1.42,1.42,0,0,1-1.4-1.41V97.6a1.42,1.42,0,0,1,1.4-1.41h2.65a1.07,1.07,0,0,0,0-2.13h-2.65a3.54,3.54,0,0,0-3.53,3.54v10.06a3.54,3.54,0,0,0,3.53,3.54"/><path class="g" d="M444.46,116.45a1.2,1.2,0,0,1-1.19-1.07l-.66-6.27a1.2,1.2,0,0,1,2.38-.25l.66,6.27a1.19,1.19,0,0,1-1.06,1.31h-.13"/><path class="g" d="M441.46,116.45a1.2,1.2,0,0,1-1.09-.69l-.92-2a1.2,1.2,0,0,1,.56-1.59h0a1.21,1.21,0,0,1,1.6.58l.92,2a1.2,1.2,0,0,1-.58,1.59,1.1,1.1,0,0,1-.5.11"/><path class="h" d="M140.93,220.26h-2.69a3.44,3.44,0,0,1-3.44-3.44h0v-12.5h9.58v12.5a3.45,3.45,0,0,1-3.45,3.44"/><path class="e" d="M140.93,220.26h-2.69a3.44,3.44,0,0,1-3.44-3.44h0v-12.5h9.58v12.5A3.45,3.45,0,0,1,140.93,220.26Z"/><line class="e" x1="134.8" y1="209.8" x2="144.38" y2="209.8"/><path class="g" d="M138.86,213.67a1,1,0,1,1-1-1,1,1,0,0,1,1,1"/><path class="g" d="M142.37,213.67a1,1,0,1,1-1-1,1,1,0,0,1,1,1"/><path class="g" d="M138.86,216.72a1,1,0,1,1-1-1,1,1,0,0,1,1,1"/><path class="g" d="M142.37,216.72a1,1,0,1,1-1-1,1,1,0,0,1,1,1"/><path class="j" d="M249.66,62.07h-49.1c-5.53,0-10,10.51-10,23.49s4.49,23.49,10,23.49h49.1c5.53,0,10-10.52,10-23.49s-4.49-23.49-10-23.49"/><path class="k" d="M249.66,62.07h-49.1c-5.53,0-10,10.51-10,23.49s4.49,23.49,10,23.49h49.1c5.53,0,10-10.52,10-23.49S255.19,62.07,249.66,62.07Z"/><rect class="j" x="184.94" y="72.61" width="5.61" height="25.89"/><rect class="k" x="184.94" y="72.61" width="5.61" height="25.89"/><rect class="j" x="179.33" y="80.97" width="5.61" height="9.17"/><rect class="k" x="179.33" y="80.97" width="5.61" height="9.17"/><rect class="j" x="200.56" y="109.05" width="9.07" height="6.57"/><rect class="k" x="200.56" y="109.05" width="9.07" height="6.57"/><rect class="j" x="240.59" y="109.05" width="9.07" height="6.57"/><rect class="k" x="240.59" y="109.05" width="9.07" height="6.57"/><rect class="j" x="259.68" y="79.81" width="5.36" height="11.5"/><rect class="k" x="259.68" y="79.81" width="5.36" height="11.5"/><polyline class="k" points="211.93 68.81 211.93 55.31 238.29 55.31 238.29 68.81"/><rect class="j" x="192.97" y="22.82" width="29.47" height="26.49"/><rect class="e" x="192.97" y="22.82" width="29.47" height="26.49"/><rect class="j" x="230.84" y="26.55" width="19.57" height="19.03"/><rect class="e" x="230.84" y="26.55" width="19.57" height="19.03"/><polygon class="j" points="228.96 55.31 222.44 55.31 222.44 45.58 226.96 45.58 228.96 55.31"/><polygon class="e" points="228.96 55.31 222.44 55.31 222.44 45.58 226.96 45.58 228.96 55.31"/><rect class="j" x="230.84" y="21.27" width="19.57" height="5.28"/><rect class="e" x="230.84" y="21.27" width="19.57" height="5.28"/><rect class="j" x="188.61" y="43.08" width="4.34" height="4.99"/><rect class="e" x="188.62" y="43.08" width="4.34" height="4.99"/><path class="j" d="M252.85,47.83h-2.32V24.29h2.32a6.83,6.83,0,0,1,6.83,6.83V41a6.83,6.83,0,0,1-6.83,6.83h0"/><path class="e" d="M252.85,47.83h-2.32V24.29h2.32a6.83,6.83,0,0,1,6.83,6.83V41A6.83,6.83,0,0,1,252.85,47.83Z"/><line class="e" x1="222.44" y1="22.82" x2="192.97" y2="29.11"/><line class="e" x1="222.44" y1="49.27" x2="192.97" y2="42.97"/><rect class="j" x="222.44" y="26.55" width="8.4" height="4.97"/><rect class="e" x="222.44" y="26.55" width="8.4" height="4.97"/><rect class="j" x="222.44" y="40.6" width="8.4" height="4.97"/><rect class="e" x="222.44" y="40.6" width="8.4" height="4.97"/><line class="e" x1="222.44" y1="36.06" x2="230.84" y2="36.06"/><line class="e" x1="245.42" y1="45.58" x2="245.42" y2="53.13"/><line class="e" x1="242.55" y1="53.13" x2="248.29" y2="53.13"/><path class="k" d="M188.62,45.58c-12.92,0-23.79,7.09-23.79,22.27,0,5.74,2,17.71,14.5,17.71"/><rect class="j" x="191.32" y="26.55" width="12.72" height="19.03"/><rect class="e" x="191.32" y="26.55" width="12.72" height="19.03"/><path class="j" d="M204,40.6H191.32V35.93a6.36,6.36,0,1,1,12.72,0Z"/><path class="e" d="M204,40.6H191.32V35.93a6.36,6.36,0,1,1,12.72,0Z"/><path class="j" d="M219.42,36.06a5.66,5.66,0,1,0-5.66,5.66,5.65,5.65,0,0,0,5.66-5.66"/><circle class="l" cx="213.76" cy="36.05" r="5.66"/><path class="g" d="M215.7,36.06A1.94,1.94,0,1,0,213.76,38a1.94,1.94,0,0,0,1.94-1.94h0"/><line class="e" x1="213.76" y1="36.06" x2="216.02" y2="33.8"/><path class="e" d="M335,73.46H324.62a9.7,9.7,0,0,1-9.68-9.68h29.73A9.69,9.69,0,0,1,335,73.46Z"/><rect class="e" x="400.81" y="73.46" width="6.68" height="2.34"/></svg>