<svg xmlns="http://www.w3.org/2000/svg" viewBox="0 0 80.96 80.96"><defs><style>.a{fill:#fff;}</style></defs><path class="a" d="M40.48,78.72A38.24,38.24,0,1,1,78.72,40.48,38.28,38.28,0,0,1,40.48,78.72M40.48,0A40.48,40.48,0,1,0,81,40.48,40.53,40.53,0,0,0,40.48,0"/><path class="a" d="M65.16,52.82H64c.06-.71.1-1.45.1-2.25h1.07Zm-8,9H29.48c-.82-.41-4.73-2.79-4.73-11.25s3.89-10.83,4.73-11.24H57.12c.85.4,4.73,2.72,4.73,11.24S58,61.41,57.12,61.82M21.38,56.64V44.5h1.91a22,22,0,0,0-.78,6.07,22,22,0,0,0,.78,6.07ZM19.14,43.38v6.07H16.89a1.32,1.32,0,0,1-1.13-1.13V28.09A1.32,1.32,0,0,1,16.89,27h2.25v4.35a1.12,1.12,0,0,0,.93,1.11l17,2.86v1.8H29.25a1.07,1.07,0,0,0-.39.07c-.17.06-2.93,1.15-4.75,5.1H20.26a1.12,1.12,0,0,0-1.12,1.12m2.24-22.13,4.5-.74V31.13l-4.5-.75Zm15.74,7.29V33l-9-1.5V20.14l9-1.47Zm4.5-6.08v2.27H39.36V21.65Zm14.61,2.27H43.86V21.35H56.23ZM46.1,16.85H54v2.26H46.1ZM43.86,27H56.23v3.37H43.86Zm-4.5,0h2.26v2.36L39.36,30V27ZM49.48,37.09H39.36V32.27l2.29-.63a1.11,1.11,0,0,0,1.09.94h6.74Zm5.62,28.1H50.6V64.07h4.5Zm-19.1,0H31.49V64.07H36Zm26.29-40.8v2.9c0,1.48-.88,3.06-2.51,3.06H58.47v-9h1.31c1.63,0,2.51,1.57,2.51,3m4,23.94H64c-.76-9.11-6-11.09-6.27-11.18a1.19,1.19,0,0,0-.37-.06H51.72V32.58h8.06c3,0,4.75-2.69,4.75-5.29v-2.9c0-2.6-1.78-5.28-4.75-5.28H56.22V15.73a1.12,1.12,0,0,0-1.12-1.12H45a1.12,1.12,0,0,0-1.12,1.12v3.38H42.74a1.11,1.11,0,0,0-1.1,1l-2.28-.82V17.35A1.1,1.1,0,0,0,39,16.5a1.12,1.12,0,0,0-.91-.25l-18,2.94a1.12,1.12,0,0,0-.94,1.1v4.44H16.89a3.54,3.54,0,0,0-3.37,3.36V48.32a3.55,3.55,0,0,0,3.37,3.37h2.25v6.08a1.12,1.12,0,0,0,1.12,1.11h3.85c1.82,3.95,4.58,5,4.75,5.11a1.34,1.34,0,0,0,.39.07h0v3.37h9V64.06H48.36v3.37h9V64.06h0a1.21,1.21,0,0,0,.37-.07c.22-.07,4.61-1.74,6-8.93h2.6a1.12,1.12,0,0,0,1.12-1.12V49.45a1.12,1.12,0,0,0-1.12-1.12"/></svg>