<svg xmlns="http://www.w3.org/2000/svg" xmlns:xlink="http://www.w3.org/1999/xlink" viewBox="0 0 623.6 171.83"><defs><style>.a,.c,.d{fill:none;}.b{clip-path:url(#a);}.c{stroke:#475a6c;stroke-miterlimit:10;}.c,.d{stroke-width:2px;}.d{stroke:#fff;stroke-linecap:round;stroke-linejoin:round;}.e{fill:#263b4e;}.f{fill:#fff;}.g{fill:url(#b);}.h{fill:#00aadb;}</style><clipPath id="a"><rect class="a" width="240.95" height="141.73"/></clipPath><pattern id="b" width="240.95" height="141.73" patternTransform="matrix(0.71, -0.71, -0.71, -0.71, 11667.82, 11965.88)" patternUnits="userSpaceOnUse" viewBox="0 0 240.94 141.73"><rect class="a" width="240.95" height="141.73"/><g class="b"><line class="c" y1="14.17" x2="240.94" y2="14.17"/><line class="c" y1="42.52" x2="240.94" y2="42.52"/><line class="c" y1="70.87" x2="240.94" y2="70.87"/><line class="c" y1="99.21" x2="240.94" y2="99.21"/><line class="c" y1="127.56" x2="240.94" y2="127.56"/></g></pattern></defs><path class="d" d="M319.17,93.14a4.35,4.35,0,1,0-4.35,4.34A4.35,4.35,0,0,0,319.17,93.14Z"/><path class="d" d="M300.74,45.28a49.92,49.92,0,0,0-35.61,43.51"/><path class="d" d="M205.84,106.59a3.32,3.32,0,1,0-3.32,3.32A3.32,3.32,0,0,0,205.84,106.59Z"/><path class="d" d="M215.29,106.59a12.77,12.77,0,1,0-12.77,12.76A12.77,12.77,0,0,0,215.29,106.59Z"/><path class="d" d="M234.39,106.59a31.88,31.88,0,0,0-46.14-28.5"/><path class="d" d="M336.52,93.14a21.7,21.7,0,1,0-21.7,21.69A21.71,21.71,0,0,0,336.52,93.14Z"/><path class="d" d="M354,72.9a44.05,44.05,0,0,0-74.26-6.33"/><path class="d" d="M354,95.61v-5h-1.76a38.1,38.1,0,0,0-.63-4.81l1.7-.45L352,80.62l-1.69.45a39.11,39.11,0,0,0-1.86-4.48l1.52-.88-2.48-4.28-1.52.88a36.77,36.77,0,0,0-3-3.85l1.25-1.24-3.5-3.5L339.49,65A36.88,36.88,0,0,0,335.65,62l.88-1.53L332.24,58l-.87,1.52a39.11,39.11,0,0,0-4.48-1.86l.45-1.69-4.78-1.28-.46,1.69a39.85,39.85,0,0,0-4.8-.62V54h-4.95v1.77a39.75,39.75,0,0,0-4.81.62l-.46-1.69L302.3,56l.46,1.69a37.67,37.67,0,0,0-4.48,1.86L297.4,58l-4.29,2.47L294,62A38,38,0,0,0,290.15,65l-1.25-1.24-3.5,3.5,1.25,1.24a38.19,38.19,0,0,0-3,3.85l-1.52-.88-2.48,4.28,1.52.88a37.34,37.34,0,0,0-1.85,4.48l-1.7-.45-1.28,4.78,1.7.45a38.1,38.1,0,0,0-.63,4.81h-1.76v5h1.76a37.86,37.86,0,0,0,.63,4.81l-1.7.45,1.28,4.79,1.7-.46a36.67,36.67,0,0,0,1.85,4.48l-1.52.88,2.48,4.29,1.52-.88a38.06,38.06,0,0,0,3,3.84l-1.25,1.25,3.5,3.5,1.25-1.25a36.56,36.56,0,0,0,3.84,3l-.88,1.53,4.29,2.47.88-1.52a34.61,34.61,0,0,0,4.48,1.86l-.46,1.7,4.78,1.28.46-1.7a37.86,37.86,0,0,0,4.81.63v1.76h4.95v-1.76a37.94,37.94,0,0,0,4.8-.63l.46,1.7,4.78-1.28-.45-1.7a35.82,35.82,0,0,0,4.48-1.86l.87,1.52,4.29-2.47-.88-1.53a35.55,35.55,0,0,0,3.84-3l1.25,1.25,3.5-3.5L343,117.81a36.65,36.65,0,0,0,3-3.84l1.52.88,2.48-4.29-1.52-.88a38.38,38.38,0,0,0,1.86-4.48l1.69.46,1.28-4.79-1.7-.45a37.86,37.86,0,0,0,.63-4.81Z"/><line class="d" x1="168.48" y1="85.69" x2="178.63" y2="98.11"/><line class="d" x1="229.42" y1="103.27" x2="277.02" y2="103.27"/><line class="d" x1="338.19" y1="63.02" x2="331.87" y2="8.61"/><line class="d" x1="330.27" y1="43.26" x2="326.25" y2="8.61"/><line class="d" x1="249.94" y1="43.26" x2="253.96" y2="8.61"/><line class="d" x1="255.56" y1="43.26" x2="259.58" y2="8.61"/><path class="d" d="M327.19,1H258.64a6.79,6.79,0,0,0-6.78,6.78v.83H334V7.78A6.79,6.79,0,0,0,327.19,1Z"/><line class="d" x1="300.73" y1="45.29" x2="300.73" y2="8.61"/><line class="d" x1="306.34" y1="43.26" x2="306.34" y2="8.61"/><line class="d" x1="255.56" y1="43.26" x2="300.73" y2="43.26"/><line class="d" x1="306.34" y1="43.26" x2="330.27" y2="43.26"/><line class="d" x1="168.48" y1="85.69" x2="168.48" y2="50.55"/><path class="d" d="M168.48,50.55s16.68-7.29,81.46-7.29"/><path class="e" d="M233.6,27.21V47.38a4.25,4.25,0,1,1-8.5,0V27.21a4.25,4.25,0,0,1,8.5,0"/><path class="d" d="M233.6,27.21V47.38a4.25,4.25,0,1,1-8.5,0V27.21a4.25,4.25,0,0,1,8.5,0Z"/><path class="d" d="M225.1,9.8h.41a3.84,3.84,0,0,1,3.84,3.84V23"/><line class="d" x1="229.35" y1="51.63" x2="229.35" y2="59.58"/><line class="d" x1="255.56" y1="43.26" x2="255.56" y2="88.79"/><line class="d" x1="265.13" y1="88.79" x2="255.56" y2="88.79"/><path class="d" d="M212.09,57H186.81a1.57,1.57,0,1,1,0-3.14h25.28a1.57,1.57,0,0,1,0,3.14Z"/><path class="d" d="M212.09,63.37H186.81a1.57,1.57,0,1,1,0-3.13h25.28a1.57,1.57,0,1,1,0,3.13Z"/><path class="d" d="M212.09,69.79H186.81a1.57,1.57,0,1,1,0-3.13h25.28a1.57,1.57,0,1,1,0,3.13Z"/><path class="d" d="M227.88,106.59c0-.64,0-1.26-.08-1.89l1.81-.32-.87-4.95-1.81.32a24.35,24.35,0,0,0-1.3-3.59l1.6-.92-2.52-4.36-1.6.93a24.44,24.44,0,0,0-2.45-2.92l1.2-1.43L218,84.23l-1.19,1.42a23.89,23.89,0,0,0-3.29-1.91l.63-1.75-4.73-1.72L208.79,82a25.78,25.78,0,0,0-3.75-.66V79.48h-5v1.88a25.78,25.78,0,0,0-3.75.66l-.64-1.78L190.89,82l.64,1.77a25.43,25.43,0,0,0-3.28,1.9L187,84.18l-3.86,3.24,1.22,1.45A26.11,26.11,0,0,0,182,91.78l-1.65-1-2.52,4.36,1.65.95a24.4,24.4,0,0,0-1.3,3.56l-1.88-.33-.88,5,1.88.33c-.05.64-.08,1.29-.08,1.94s0,1.24.07,1.85l-1.88.33.88,5,1.86-.33a25.71,25.71,0,0,0,1.29,3.57l-1.64,1,2.51,4.35,1.64-.94a25.07,25.07,0,0,0,2.44,2.91l-1.22,1.45,3.85,3.24,1.21-1.44a25.57,25.57,0,0,0,3.28,1.92l-.64,1.76,4.73,1.72.64-1.75a24.3,24.3,0,0,0,3.75.67v1.86h5v-1.85a24.62,24.62,0,0,0,3.76-.65l.63,1.74,4.73-1.72-.63-1.72a25.85,25.85,0,0,0,3.31-1.91L218,129l3.85-3.23-1.18-1.41a23.61,23.61,0,0,0,2.46-2.92l1.6.92,2.51-4.35-1.58-.92a25.92,25.92,0,0,0,1.31-3.58l1.81.31.87-5-1.81-.32C227.84,107.88,227.88,107.24,227.88,106.59Z"/><rect class="d" x="383.28" y="35.81" width="60.02" height="98.59"/><line class="d" x1="381.84" y1="35.81" x2="444.73" y2="35.81"/><line class="d" x1="381.84" y1="97.48" x2="444.73" y2="97.48"/><line class="d" x1="381.84" y1="72.9" x2="444.73" y2="72.9"/><line class="d" x1="348.42" y1="49.32" x2="353.18" y2="53.9"/><path class="f" d="M422.9,103.42V26.76a3.5,3.5,0,1,0-7,0v9.55h-5.4v-9.6a8.9,8.9,0,0,1,17.79,0v76.75Z"/><path class="e" d="M419.4,18.36a8.4,8.4,0,0,1,8.39,8.31v76.25H423.4V26.76a4,4,0,1,0-8,0v9.06H411v-9.1s0,0,0,0a8.4,8.4,0,0,1,8.39-8.31m0-1A9.42,9.42,0,0,0,410,26.6V36.82h6.4V26.76a3,3,0,1,1,6,0v77.16h6.39V26.6a9.43,9.43,0,0,0-9.39-9.24"/><line class="d" x1="262.91" y1="25.57" x2="275.69" y2="39.19"/><line class="d" x1="257.7" y1="43.26" x2="269.3" y2="32.38"/><line class="d" x1="1" y1="134.68" x2="622.6" y2="134.68"/><rect class="g" x="1" y="142.13" width="621.6" height="29.7"/><path class="f" d="M413.2,115.13c-22,0-32.31-24.14-40.6-43.54-4.42-10.33-9.43-22-14.66-22h-.5V45h.5c8.21,0,13.12,11.48,18.8,24.78,7.77,18.18,17.44,40.81,36.46,40.81h.5v4.5Z"/><path class="e" d="M357.94,45.54c7.71,0,12.4,10.58,18.34,24.48,7.83,18.31,17.57,41.11,36.92,41.11v3.5c-21.66,0-31.91-24-40.14-43.24-5-11.69-9.72-22.34-15.12-22.34V45.54m0-1h-1v5.51h1c4.9,0,10.06,12.05,14.2,21.74,8.34,19.53,18.74,43.84,41.06,43.84h1v-5.5h-1c-18.69,0-28.29-22.46-36-40.5-5.75-13.47-10.72-25.09-19.26-25.09"/><path class="h" d="M476.85,99.05h-3.73V83.92h-2.65V77.79h-3.65V74.72h-6.7v3.07H449.77v6.13h-10v16.61l-9.13,2.39H420.51s-1.65,3.76-7.31,3.76v12.38c5.66,0,7.31,3.75,7.31,3.75h10.17l9.13,2.42v9.18h33.31v-7.7h3.73a6.21,6.21,0,0,0,6.2-6.2V105.25a6.21,6.21,0,0,0-6.2-6.2m-37,20h-9.13V106.68h9.13Z"/><rect class="d" x="439.81" y="100.53" width="33.31" height="24.7"/><rect class="d" x="420.51" y="102.92" width="10.18" height="19.89"/><polygon class="d" points="439.81 125.23 430.68 122.81 430.68 102.92 439.81 100.53 439.81 125.23"/><path class="d" d="M475.62,126.71h-2.5V99.05h2.5a7.43,7.43,0,0,1,7.43,7.43v12.81A7.43,7.43,0,0,1,475.62,126.71Z"/><rect class="d" x="439.81" y="125.23" width="33.31" height="9.18"/><rect class="d" x="439.81" y="83.92" width="33.31" height="16.61"/><rect class="d" x="449.77" y="77.79" width="20.7" height="6.13"/><rect class="d" x="460.12" y="74.72" width="6.7" height="3.06"/><line class="d" x1="430.68" y1="112.88" x2="473.12" y2="112.88"/><line class="d" x1="430.68" y1="106.68" x2="473.12" y2="106.68"/><line class="d" x1="430.68" y1="119.06" x2="473.12" y2="119.06"/><line class="d" x1="458.07" y1="74.72" x2="468.86" y2="74.72"/><path class="d" d="M420.51,122.81s-1.65-3.75-7.31-3.75"/><path class="d" d="M420.51,102.92s-1.65,3.76-7.31,3.76"/><line class="d" x1="413.2" y1="106.68" x2="413.2" y2="119.06"/><line class="d" x1="405.57" y1="35.81" x2="418.8" y2="35.81"/><polygon class="d" points="348.42 45.54 348.42 43.65 345.25 43.65 345.25 46.16 345.24 46.14 336.7 50.7 337.08 54.63 345.25 50.28 345.25 54.99 348.42 54.99 348.42 49.32 357.94 49.32 357.94 45.54 348.42 45.54"/><path class="d" d="M358,58.48h-6.66a2.87,2.87,0,0,1-2.87-2.87V49.32H358Z"/></svg>