<svg xmlns="http://www.w3.org/2000/svg" viewBox="0 0 80.96 80.96"><defs><style>.a{fill:#fff;}</style></defs><path class="a" d="M40.48,78.77A38.29,38.29,0,1,1,78.77,40.48,38.33,38.33,0,0,1,40.48,78.77M40.48,0A40.48,40.48,0,1,0,81,40.48,40.48,40.48,0,0,0,40.48,0"/><path class="a" d="M64.55,54.7H51.42V32.45a4,4,0,0,1,4-4h5.11a4,4,0,0,1,4,4ZM49.23,59.08H36.1V54.7H49.23ZM27.35,52.51V37.2H49.23V52.51H27.35ZM16.41,35h8.75V54.7H16.41ZM32.63,24.07a4.33,4.33,0,0,0-3.09,1.28l-.9.91H23.88l4.37-4.38H60.17v4.38H55.8a2.19,2.19,0,0,0-2.19-2.19Zm29.73,2.46V21.87a2.19,2.19,0,0,0-2.18-2.18H28.25a2.19,2.19,0,0,0-1.54.64l-4.39,4.39a2.18,2.18,0,0,0,1.54,3.72h4.78a2.22,2.22,0,0,0,1.54-.63l.91-.92a2.2,2.2,0,0,1,1.54-.63h21v.27a6.2,6.2,0,0,0-4.38,5.92V35H27.35a2.19,2.19,0,0,0-2.19-2.19H16.41A2.19,2.19,0,0,0,14.22,35V54.7a2.19,2.19,0,0,0,2.19,2.19h8.75a2.19,2.19,0,0,0,2.19-2.19h6.57v6.56h17.5V56.89H64.55a2.19,2.19,0,0,0,2.19-2.19V32.45a6.21,6.21,0,0,0-4.38-5.92"/><path class="a" d="M58,37.2A2.19,2.19,0,1,1,60.17,35,2.19,2.19,0,0,1,58,37.2m0-6.57A4.38,4.38,0,1,0,62.36,35,4.38,4.38,0,0,0,58,30.63"/></svg>