<svg xmlns="http://www.w3.org/2000/svg" xmlns:xlink="http://www.w3.org/1999/xlink" viewBox="0 0 522 262.68"><defs><style>.a,.b,.c,.e,.h,.j,.l{fill:none;}.b,.c,.h,.i,.j,.k,.l,.m,.n{stroke:#fff;}.b,.c{stroke-width:0.75px;isolation:isolate;opacity:0.2;}.c{stroke-linecap:square;}.d{clip-path:url(#a);}.e{stroke:#475a6c;}.e,.h,.i,.n{stroke-miterlimit:10;}.e,.h,.i,.k,.l,.m,.n{stroke-width:2px;}.f{fill:url(#b);}.g{fill:url(#c);}.i,.m{fill:#00aadc;}.j,.k,.l,.m{stroke-linecap:round;stroke-linejoin:round;}.j{stroke-width:3px;}.k,.n{fill:#273a4e;}</style><clipPath id="a"><rect class="a" x="0.01" width="240.95" height="141.73"/></clipPath><pattern id="b" width="240.95" height="141.73" patternTransform="translate(11749.1 -10816.2) rotate(-45)" patternUnits="userSpaceOnUse" viewBox="0 0 240.95 141.73"><rect class="a" width="240.95" height="141.73"/><rect class="a" x="0.01" width="240.95" height="141.73"/><g class="d"><line class="e" x1="0.01" y1="127.56" x2="240.95" y2="127.56"/><line class="e" x1="0.01" y1="99.21" x2="240.95" y2="99.21"/><line class="e" x1="0.01" y1="70.86" x2="240.95" y2="70.86"/><line class="e" x1="0.01" y1="42.52" x2="240.95" y2="42.52"/><line class="e" x1="0.01" y1="14.17" x2="240.95" y2="14.17"/></g></pattern><pattern id="c" width="86.96" height="65.3" patternTransform="matrix(1, 0, 0, -1, 80.24, 1096.2)" patternUnits="userSpaceOnUse" viewBox="0 0 86.96 65.3"><rect class="a" width="86.96" height="65.3"/><rect class="a" width="86.96" height="65.3"/><line class="b" x1="81.12" y1="54.14" x2="81.12" y2="43.38"/><line class="b" x1="59.58" y1="54.14" x2="59.58" y2="43.38"/><line class="b" x1="38.04" y1="54.14" x2="38.04" y2="43.38"/><line class="b" x1="16.5" y1="54.14" x2="16.5" y2="43.38"/><line class="b" x1="81.12" y1="32.63" x2="81.12" y2="21.88"/><line class="b" x1="59.58" y1="32.63" x2="59.58" y2="21.88"/><line class="b" x1="38.04" y1="32.63" x2="38.04" y2="21.88"/><line class="b" x1="16.5" y1="32.63" x2="16.5" y2="21.88"/><line class="b" x1="81.12" y1="11.03" x2="81.12"/><line class="b" x1="59.58" y1="11.03" x2="59.58"/><line class="b" x1="38.04" y1="11.03" x2="38.04"/><line class="b" x1="16.5" y1="11.03" x2="16.5"/><line class="b" x1="70.33" y1="21.88" x2="70.33" y2="11.13"/><line class="b" x1="48.79" y1="21.88" x2="48.79" y2="11.13"/><line class="b" x1="27.25" y1="21.88" x2="27.25" y2="11.13"/><line class="b" x1="5.7" y1="21.88" x2="5.7" y2="11.13"/><line class="b" x1="70.33" y1="43.38" x2="70.33" y2="32.63"/><line class="b" x1="48.79" y1="43.38" x2="48.79" y2="32.63"/><line class="b" x1="27.25" y1="43.38" x2="27.25" y2="32.63"/><line class="b" x1="5.7" y1="43.38" x2="5.7" y2="32.63"/><line class="b" x1="70.33" y1="64.89" x2="70.33" y2="54.14"/><line class="b" x1="48.79" y1="64.89" x2="48.79" y2="54.14"/><line class="b" x1="27.25" y1="64.89" x2="27.25" y2="54.14"/><line class="b" x1="5.7" y1="64.89" x2="5.7" y2="54.14"/><line class="c" x1="0.38" y1="64.92" x2="86.58" y2="64.92"/><line class="c" x1="0.38" y1="54.15" x2="86.58" y2="54.15"/><line class="c" x1="0.38" y1="43.38" x2="86.58" y2="43.38"/><line class="c" x1="0.38" y1="32.61" x2="86.58" y2="32.61"/><line class="c" x1="0.38" y1="21.84" x2="86.58" y2="21.84"/><line class="c" x1="0.38" y1="11.06" x2="86.58" y2="11.06"/></pattern></defs><polygon class="f" points="0 228.48 0 261.68 521 261.68 521 228.48 0 228.48"/><polygon class="g" points="521 223.68 0 223.68 0 0 521 0.01 521 223.68"/><line class="h" y1="223.68" x2="521" y2="223.68"/><polygon class="i" points="302.92 222.48 297.73 185.94 288.15 196.6 296.69 222.48 302.92 222.48"/><polygon class="i" points="232.72 222.48 237.91 185.94 247.49 196.6 238.95 222.48 232.72 222.48"/><path class="i" d="M267.55,199.53h0c-16.79,0-30.4-3-30.4-19.8v-73.8c0-16.79,13.61-23.2,30.4-23.2h0c16.79,0,30.4,6.41,30.4,23.2v73.8C298,196.52,284.34,199.53,267.55,199.53Z"/><line class="h" x1="237.15" y1="105.93" x2="297.95" y2="105.93"/><line class="h" x1="237.15" y1="179.73" x2="297.95" y2="179.73"/><line class="h" x1="237.15" y1="141.13" x2="297.95" y2="141.13"/><rect class="i" x="261.15" y="199.53" width="14.1" height="4.68"/><rect class="i" x="254.02" y="203.43" width="28.28" height="3.6"/><polygon class="i" points="273.45 210.71 268.2 210.71 263.02 210.71 263.02 207.03 273.45 207.03 273.45 210.71"/><path class="j" d="M268.2,210.71s-.23,5.93-5.94,5.93H226.55s-32.81-.5-32.81-32.8V78.53"/><rect class="k" x="179.92" y="62.43" width="4.05" height="9.45"/><rect class="k" x="203.35" y="62.43" width="4" height="9.45"/><rect class="k" x="183.97" y="63.73" width="19.38" height="7"/><rect class="k" x="189.65" y="70.73" width="8.1" height="3.9"/><rect class="k" x="188.05" y="74.63" width="11.2" height="3.9"/><polygon class="k" points="200.95 61.43 186.35 61.43 186.35 52.43 196.45 52.43 200.95 61.43"/><rect class="k" x="189.65" y="61.43" width="8.1" height="2.3"/><line class="l" x1="186.35" y1="56.93" x2="198.7" y2="56.93"/><rect class="k" x="327.75" y="62.23" width="4.1" height="10"/><rect class="k" x="351.05" y="62.23" width="4.1" height="10"/><rect class="k" x="331.85" y="63.83" width="19.2" height="6.8"/><path class="k" d="M344.17,67.23a30.07,30.07,0,0,0-6,0c-2.18.3-6.29,1.68-6.29,3.75,0,0,.27,16.32.5,21.75s1.35,21.75,1.35,21.75a3.75,3.75,0,0,0,3.75,3.75H346a3.75,3.75,0,0,0,3.75-3.75s1.18-16.3,1.35-21.75,0-21.75,0-21.75C351.05,68.91,346.39,67.53,344.17,67.23Z"/><line class="l" x1="331.96" y1="77.43" x2="351.12" y2="77.43"/><line class="l" x1="336.65" y1="80.83" x2="337.85" y2="114.33"/><line class="l" x1="346.55" y1="80.93" x2="345.75" y2="114.43"/><path class="l" d="M128.25,261.68V85.83s1.5-19,19.05-19,32.62.45,32.62.45"/><line class="l" x1="207.35" y1="67.23" x2="327.75" y2="67.23"/><line class="l" x1="355.15" y1="67.23" x2="521" y2="67.08"/><rect class="m" x="260.37" y="78.53" width="15.15" height="4.2"/><circle class="n" cx="193.58" cy="66.04" r="6.64"/><circle class="n" cx="193.58" cy="66.04" r="2.29"/><line class="h" x1="195.26" y1="64.5" x2="198.7" y2="61.82"/></svg>