<svg xmlns="http://www.w3.org/2000/svg" viewBox="0 0 80.96 80.96"><defs><style>.a{fill:#fff;}</style></defs><polygon class="a" points="48.35 29.26 48.35 21.35 46.11 21.35 46.11 23.6 34.87 23.6 34.87 21.35 32.63 21.35 32.63 29.26 34.87 29.26 34.87 25.84 46.11 25.84 46.11 29.26 48.35 29.26"/><path class="a" d="M67.47,42.71H65.14c0-.72.07-1.47.07-2.25s0-1.54-.07-2.26h2.33ZM55.81,59.64H50.17V57.38h5.64Zm-24.75,0H25.42V57.38h5.64ZM14.63,48.33V33.71h1.81a31.14,31.14,0,0,0-.67,6.75,29.79,29.79,0,0,0,.95,7.87ZM68.59,36H64.93c-1.29-10-6.73-12.2-7-12.3a1.14,1.14,0,0,0-.41-.07H52.85V21.35H50.61v7.91h2.24V25.84h4.44c1,.5,5.68,3.48,5.68,14.62s-4.73,14.13-5.68,14.61H23.7c-1-.52-5.69-3.59-5.69-14.61s4.71-14.11,5.68-14.62h4.44v3.42h2.24V21.35H28.13V23.6H23.44a1.15,1.15,0,0,0-.41.08c-.22.09-4,1.67-6,7.79H13.51a1.12,1.12,0,0,0-1.12,1.12V49.45a1.12,1.12,0,0,0,1.12,1.12h4c2.08,5.19,5.36,6.58,5.57,6.66a.8.8,0,0,0,.15,0v4.62H33.3V57.31H47.93v4.57H58.05V57.19c.83-.37,5.67-2.9,6.88-12.24h3.66a1.12,1.12,0,0,0,1.12-1.12V37.08A1.12,1.12,0,0,0,68.59,36"/><rect class="a" x="28.13" y="19.11" width="24.73" height="2.24"/><path class="a" d="M40.48,78.72A38.24,38.24,0,1,1,78.72,40.48,38.29,38.29,0,0,1,40.48,78.72M40.48,0A40.48,40.48,0,1,0,81,40.48,40.53,40.53,0,0,0,40.48,0"/></svg>