<svg xmlns="http://www.w3.org/2000/svg" xmlns:xlink="http://www.w3.org/1999/xlink" viewBox="0 0 629.07 299.95"><defs><style>.a,.c,.h,.i,.v,.w,.y,.z{fill:none;}.b{clip-path:url(#a);}.c,.h{stroke:#475a6c;}.c,.h,.v,.w,.y,.z{stroke-miterlimit:10;}.c,.i,.w{stroke-width:2px;}.d{fill:url(#b);}.e{fill:#475a6c;}.f{fill:#a2d9f1;}.g{clip-path:url(#c);}.i,.v,.w,.y,.z{stroke:#fff;stroke-linecap:round;}.i{stroke-linejoin:round;}.j{fill:#00aadb;}.k{clip-path:url(#n);}.l{fill:#fff;}.m{clip-path:url(#o);}.n{clip-path:url(#p);}.o{clip-path:url(#q);}.p{clip-path:url(#r);}.q{clip-path:url(#s);}.r{clip-path:url(#t);}.s{clip-path:url(#u);}.t{clip-path:url(#v);}.u{fill:#263b4e;}.v{stroke-width:6px;}.x{clip-path:url(#w);}.y{stroke-width:0.5px;}.z{stroke-width:5px;}</style><clipPath id="a"><rect class="a" width="240.95" height="141.73"/></clipPath><pattern id="b" width="240.95" height="141.73" patternTransform="matrix(0.71, -0.71, -0.71, -0.71, 11600.45, 11764.26)" patternUnits="userSpaceOnUse" viewBox="0 0 240.94 141.73"><rect class="a" width="240.95" height="141.73"/><g class="b"><line class="c" y1="14.17" x2="240.94" y2="14.17"/><line class="c" y1="42.52" x2="240.94" y2="42.52"/><line class="c" y1="70.87" x2="240.94" y2="70.87"/><line class="c" y1="99.21" x2="240.94" y2="99.21"/><line class="c" y1="127.56" x2="240.94" y2="127.56"/></g></pattern><clipPath id="c" transform="translate(0 0)"><rect class="a" x="454.2" y="45.56" width="150.93" height="250.11"/></clipPath><clipPath id="n" transform="translate(0 0)"><rect class="a" x="253.55" width="12.52" height="14.38"/></clipPath><clipPath id="o" transform="translate(0 0)"><rect class="a" x="173.88" y="14.38" width="12.52" height="14.38"/></clipPath><clipPath id="p" transform="translate(0 0)"><rect class="a" x="331.58" y="106.51" width="12.52" height="14.38"/></clipPath><clipPath id="q" transform="translate(0 0)"><rect class="a" x="304.27" y="41.84" width="12.52" height="14.38"/></clipPath><clipPath id="r" transform="translate(0 0)"><rect class="a" x="377.22" y="21.57" width="12.52" height="14.38"/></clipPath><clipPath id="s" transform="translate(0 0)"><rect class="a" x="228.86" y="63.81" width="12.52" height="14.38"/></clipPath><clipPath id="t" transform="translate(0 0)"><rect class="a" x="388.29" y="78.19" width="12.52" height="14.38"/></clipPath><clipPath id="u" transform="translate(0 0)"><rect class="a" x="97.84" y="43.14" width="12.52" height="14.38"/></clipPath><clipPath id="v" transform="translate(0 0)"><rect class="a" x="142.08" y="85.38" width="12.52" height="14.38"/></clipPath><clipPath id="w" transform="translate(0 0)"><path class="a" d="M218.33,119l-11.57,49.57H272.2a3.8,3.8,0,0,0,3.8-3.79V112.39l-49.24-.08h0a8.62,8.62,0,0,0-8.39,6.66"/></clipPath></defs><rect class="d" x="1" y="185.43" width="426.21" height="114.18"/><rect class="e" x="434.3" y="45.56" width="19.84" height="253.39"/><rect class="f" x="192.66" y="171.12" width="190.82" height="7.22"/><g class="g"><rect class="h" x="467.93" y="32.53" width="26.77" height="11.96"/><rect class="h" x="494.7" y="32.53" width="26.77" height="11.96"/><rect class="h" x="521.47" y="32.53" width="26.77" height="11.96"/><rect class="h" x="548.25" y="32.53" width="26.77" height="11.96"/><rect class="h" x="575.02" y="32.53" width="26.77" height="11.96"/><rect class="h" x="601.8" y="32.53" width="26.77" height="11.96"/><rect class="h" x="454.56" y="44.49" width="26.77" height="11.96"/><rect class="h" x="481.34" y="44.49" width="26.77" height="11.96"/><rect class="h" x="508.11" y="44.49" width="26.77" height="11.96"/><rect class="h" x="534.88" y="44.49" width="26.77" height="11.96"/><rect class="h" x="561.66" y="44.49" width="26.77" height="11.96"/><rect class="h" x="588.43" y="44.49" width="26.77" height="11.96"/></g><rect class="h" x="467.93" y="56.46" width="26.77" height="11.96"/><rect class="h" x="494.7" y="56.46" width="26.77" height="11.96"/><rect class="h" x="521.47" y="56.46" width="26.77" height="11.96"/><rect class="h" x="548.25" y="56.46" width="26.77" height="11.96"/><rect class="h" x="575.02" y="56.46" width="26.77" height="11.96"/><rect class="h" x="601.8" y="56.46" width="26.06" height="11.96"/><g class="g"><rect class="h" x="454.56" y="68.42" width="26.77" height="11.96"/></g><rect class="h" x="481.34" y="68.42" width="26.77" height="11.96"/><rect class="h" x="508.11" y="68.42" width="26.77" height="11.96"/><rect class="h" x="534.88" y="68.42" width="26.77" height="11.96"/><rect class="h" x="561.66" y="68.42" width="26.77" height="11.96"/><rect class="h" x="588.43" y="68.42" width="26.77" height="11.96"/><rect class="h" x="467.93" y="80.38" width="26.77" height="11.96"/><rect class="h" x="494.7" y="80.38" width="26.77" height="11.96"/><rect class="h" x="521.47" y="80.38" width="26.77" height="11.96"/><rect class="h" x="548.25" y="80.38" width="26.77" height="11.96"/><rect class="h" x="575.02" y="80.38" width="26.77" height="11.96"/><rect class="h" x="601.8" y="80.38" width="26.06" height="11.96"/><g class="g"><rect class="h" x="454.56" y="92.34" width="26.77" height="11.96"/></g><rect class="h" x="481.34" y="92.34" width="26.77" height="11.96"/><rect class="h" x="508.11" y="92.34" width="26.77" height="11.96"/><rect class="h" x="534.88" y="92.34" width="26.77" height="11.96"/><rect class="h" x="561.66" y="92.34" width="26.77" height="11.96"/><rect class="h" x="588.43" y="92.34" width="26.77" height="11.96"/><rect class="h" x="467.93" y="104.3" width="26.77" height="11.96"/><rect class="h" x="494.7" y="104.3" width="26.77" height="11.96"/><rect class="h" x="521.47" y="104.3" width="26.77" height="11.96"/><rect class="h" x="548.25" y="104.3" width="26.77" height="11.96"/><rect class="h" x="575.02" y="104.3" width="26.77" height="11.96"/><rect class="h" x="601.8" y="104.3" width="26.06" height="11.96"/><g class="g"><rect class="h" x="454.56" y="116.26" width="26.77" height="11.96"/></g><rect class="h" x="481.34" y="116.26" width="26.77" height="11.96"/><rect class="h" x="508.11" y="116.26" width="26.77" height="11.96"/><rect class="h" x="534.88" y="116.26" width="26.77" height="11.96"/><rect class="h" x="561.66" y="116.26" width="26.77" height="11.96"/><rect class="h" x="588.43" y="116.26" width="26.77" height="11.96"/><rect class="h" x="467.93" y="128.22" width="26.77" height="11.96"/><rect class="h" x="494.7" y="128.22" width="26.77" height="11.96"/><rect class="h" x="521.47" y="128.22" width="26.77" height="11.96"/><rect class="h" x="548.25" y="128.22" width="26.77" height="11.96"/><rect class="h" x="575.02" y="128.22" width="26.77" height="11.96"/><rect class="h" x="601.8" y="128.22" width="26.06" height="11.96"/><g class="g"><rect class="h" x="454.56" y="140.18" width="26.77" height="11.96"/></g><rect class="h" x="481.34" y="140.18" width="26.77" height="11.96"/><rect class="h" x="508.11" y="140.18" width="26.77" height="11.96"/><rect class="h" x="534.88" y="140.18" width="26.77" height="11.96"/><rect class="h" x="561.66" y="140.18" width="26.77" height="11.96"/><rect class="h" x="588.43" y="140.18" width="26.77" height="11.96"/><rect class="h" x="467.93" y="152.14" width="26.77" height="11.96"/><rect class="h" x="494.7" y="152.14" width="26.77" height="11.96"/><rect class="h" x="521.47" y="152.14" width="26.77" height="11.96"/><rect class="h" x="548.25" y="152.14" width="26.77" height="11.96"/><rect class="h" x="575.02" y="152.14" width="26.77" height="11.96"/><rect class="h" x="601.8" y="152.14" width="26.06" height="11.96"/><g class="g"><rect class="h" x="454.56" y="164.1" width="26.77" height="11.96"/></g><rect class="h" x="481.34" y="164.1" width="26.77" height="11.96"/><rect class="h" x="508.11" y="164.1" width="26.77" height="11.96"/><rect class="h" x="534.88" y="164.1" width="26.77" height="11.96"/><rect class="h" x="561.66" y="164.1" width="26.77" height="11.96"/><rect class="h" x="588.43" y="164.1" width="26.77" height="11.96"/><rect class="h" x="467.93" y="176.06" width="26.77" height="11.96"/><rect class="h" x="494.7" y="176.06" width="26.77" height="11.96"/><rect class="h" x="521.47" y="176.06" width="26.77" height="11.96"/><rect class="h" x="548.25" y="176.06" width="26.77" height="11.96"/><rect class="h" x="575.02" y="176.06" width="26.77" height="11.96"/><rect class="h" x="601.8" y="176.06" width="26.06" height="11.96"/><g class="g"><rect class="h" x="454.56" y="188.02" width="26.77" height="11.96"/></g><rect class="h" x="481.34" y="188.02" width="26.77" height="11.96"/><rect class="h" x="508.11" y="188.02" width="26.77" height="11.96"/><rect class="h" x="534.88" y="188.02" width="26.77" height="11.96"/><rect class="h" x="561.66" y="188.02" width="26.77" height="11.96"/><rect class="h" x="588.43" y="188.02" width="26.77" height="11.96"/><rect class="h" x="467.93" y="199.98" width="26.77" height="11.96"/><rect class="h" x="494.7" y="199.98" width="26.77" height="11.96"/><rect class="h" x="521.47" y="199.98" width="26.77" height="11.96"/><rect class="h" x="548.25" y="199.98" width="26.77" height="11.96"/><rect class="h" x="575.02" y="199.98" width="26.77" height="11.96"/><rect class="h" x="601.8" y="199.98" width="26.06" height="11.96"/><g class="g"><rect class="h" x="454.56" y="211.94" width="26.77" height="11.96"/></g><rect class="h" x="481.34" y="211.94" width="26.77" height="11.96"/><rect class="h" x="508.11" y="211.94" width="26.77" height="11.96"/><rect class="h" x="534.88" y="211.94" width="26.77" height="11.96"/><rect class="h" x="561.66" y="211.94" width="26.77" height="11.96"/><rect class="h" x="588.43" y="211.94" width="26.77" height="11.96"/><rect class="h" x="467.93" y="223.9" width="26.77" height="11.96"/><rect class="h" x="494.7" y="223.9" width="26.77" height="11.96"/><rect class="h" x="521.47" y="223.9" width="26.77" height="11.96"/><rect class="h" x="548.25" y="223.9" width="26.77" height="11.96"/><rect class="h" x="575.02" y="223.9" width="26.77" height="11.96"/><rect class="h" x="601.8" y="223.9" width="26.06" height="11.96"/><g class="g"><rect class="h" x="454.56" y="235.86" width="26.77" height="11.96"/></g><rect class="h" x="481.34" y="235.86" width="26.77" height="11.96"/><rect class="h" x="508.11" y="235.86" width="26.77" height="11.96"/><rect class="h" x="534.88" y="235.86" width="26.77" height="11.96"/><rect class="h" x="561.66" y="235.86" width="26.77" height="11.96"/><rect class="h" x="588.43" y="235.86" width="26.77" height="11.96"/><rect class="h" x="467.93" y="247.82" width="26.77" height="11.96"/><rect class="h" x="494.7" y="247.82" width="26.77" height="11.96"/><rect class="h" x="521.47" y="247.82" width="26.77" height="11.96"/><rect class="h" x="548.25" y="247.82" width="26.77" height="11.96"/><rect class="h" x="575.02" y="247.82" width="26.77" height="11.96"/><rect class="h" x="601.8" y="247.82" width="26.06" height="11.96"/><g class="g"><rect class="h" x="454.56" y="259.78" width="26.77" height="11.96"/></g><rect class="h" x="481.34" y="259.78" width="26.77" height="11.96"/><rect class="h" x="508.11" y="259.78" width="26.77" height="11.96"/><rect class="h" x="534.88" y="259.78" width="26.77" height="11.96"/><rect class="h" x="561.66" y="259.78" width="26.77" height="11.96"/><rect class="h" x="588.43" y="259.78" width="26.77" height="11.96"/><rect class="h" x="467.93" y="271.74" width="26.77" height="11.96"/><rect class="h" x="494.7" y="271.74" width="26.77" height="11.96"/><rect class="h" x="521.47" y="271.74" width="26.77" height="11.96"/><rect class="h" x="548.25" y="271.74" width="26.77" height="11.96"/><rect class="h" x="575.02" y="271.74" width="26.77" height="11.96"/><rect class="h" x="601.8" y="271.74" width="26.06" height="11.96"/><g class="g"><rect class="h" x="454.56" y="283.7" width="26.77" height="11.96"/><rect class="h" x="481.34" y="283.7" width="26.77" height="11.96"/><rect class="h" x="508.11" y="283.7" width="26.77" height="11.96"/><rect class="h" x="534.88" y="283.7" width="26.77" height="11.96"/><rect class="h" x="561.66" y="283.7" width="26.77" height="11.96"/><rect class="h" x="588.43" y="283.7" width="26.77" height="11.96"/></g><rect class="e" x="454.2" y="288.99" width="173.66" height="9.95"/><rect class="e" x="454.2" y="168.39" width="173.66" height="9.95"/><line class="i" x1="454.2" y1="298.95" x2="454.2" y2="45.56"/><line class="i" x1="627.86" y1="298.95" x2="434.3" y2="298.95"/><line class="i" x1="454.2" y1="288.99" x2="627.86" y2="288.99"/><line class="i" x1="627.86" y1="178.34" x2="454.2" y2="178.34"/><line class="i" x1="454.2" y1="168.39" x2="627.86" y2="168.39"/><line class="i" x1="97.84" y1="178.34" x2="434.3" y2="178.34"/><line class="i" x1="434.3" y1="298.95" x2="434.3" y2="45.56"/><rect class="j" x="429.95" y="103.86" width="4.35" height="12.91"/><rect class="i" x="429.95" y="103.85" width="4.35" height="12.91"/><rect class="j" x="434.3" y="106.92" width="31.45" height="6.78"/><rect class="i" x="434.3" y="106.92" width="31.46" height="6.78"/><rect class="j" x="416.3" y="106.92" width="13.64" height="6.78"/><rect class="i" x="416.3" y="106.92" width="13.65" height="6.78"/><polyline class="j" points="426.23 108.07 426.23 102.33 420.02 102.33 420.02 108.07"/><polyline class="i" points="426.23 108.07 426.23 102.33 420.02 102.33 420.02 108.07"/><polyline class="j" points="420.63 111.84 419.34 118.23 424.14 119.2 425.42 112.81"/><polyline class="i" points="420.63 111.84 419.34 118.23 424.14 119.2 425.42 112.81"/><rect class="j" x="418.73" y="117.34" width="5.03" height="7.68" transform="translate(219.39 510.27) rotate(-78.63)"/><rect class="i" x="418.73" y="117.34" width="5.03" height="7.68" transform="translate(219.39 510.27) rotate(-78.63)"/><rect class="j" x="418.35" y="98.06" width="9.54" height="4.27"/><rect class="i" x="418.35" y="98.06" width="9.54" height="4.27"/><g class="k"><path class="l" d="M265.74,10.05l-1.53-.88,1.29-.77a.42.42,0,0,0,.15-.59.41.41,0,0,0-.57-.14l-1.73,1-2.74-1.59,2.74-1.58,1.73,1a.39.39,0,0,0,.2.06.47.47,0,0,0,.37-.2.42.42,0,0,0-.15-.59L264.21,5l1.53-.88a.43.43,0,0,0,.15-.59.42.42,0,0,0-.58-.15l-1.54.89,0-1.54a.42.42,0,0,0-.42-.43.43.43,0,0,0-.42.43v2l-2.72,1.58V3.16l1.71-1a.44.44,0,0,0,.17-.59.4.4,0,0,0-.57-.15l-1.31.74V.43a.43.43,0,0,0-.43-.43.43.43,0,0,0-.43.43V2.2L258,1.44a.41.41,0,0,0-.57.15.43.43,0,0,0,.16.59l1.76,1V6.35l-2.79-1.61,0-2a.42.42,0,0,0-.42-.43h0a.44.44,0,0,0-.43.43V4.24l-1.5-.86a.43.43,0,0,0-.43.74l1.52.88L254,5.79a.42.42,0,0,0-.14.59.4.4,0,0,0,.36.2.38.38,0,0,0,.22-.06l1.74-1,2.78,1.6L256.13,8.7l-1.74-1a.42.42,0,0,0-.58.14.44.44,0,0,0,.14.59l1.33.78-1.52.89a.42.42,0,0,0-.15.58.38.38,0,0,0,.36.22.73.73,0,0,0,.22-.06l1.5-.87v1.5a.43.43,0,0,0,.43.42h0a.43.43,0,0,0,.42-.44l0-2,2.79-1.6V11l-1.76,1a.42.42,0,0,0-.16.59.39.39,0,0,0,.36.21.49.49,0,0,0,.21,0l1.35-.77v1.79a.43.43,0,0,0,.43.43.43.43,0,0,0,.43-.43V12l1.31.74a.45.45,0,0,0,.2,0,.39.39,0,0,0,.37-.21.43.43,0,0,0-.17-.59l-1.71-1V7.83l2.72,1.58v2a.43.43,0,0,0,.42.44.41.41,0,0,0,.42-.42l0-1.55,1.54.9a.45.45,0,0,0,.58-.15.43.43,0,0,0-.15-.59" transform="translate(0 0)"/></g><g class="m"><path class="l" d="M186.07,24.43l-1.53-.89,1.29-.77a.41.41,0,0,0,.15-.58.4.4,0,0,0-.57-.14l-1.73,1-2.74-1.6,2.74-1.57,1.73,1a.32.32,0,0,0,.2.07.47.47,0,0,0,.37-.2.42.42,0,0,0-.15-.59l-1.29-.77,1.53-.89a.42.42,0,0,0-.43-.73l-1.54.89,0-1.54a.42.42,0,1,0-.84,0v2l-2.73,1.58v-3.2l1.72-1a.44.44,0,0,0,.17-.59.41.41,0,0,0-.58-.15l-1.31.74V14.81a.43.43,0,0,0-.43-.43.42.42,0,0,0-.42.43v1.76l-1.36-.75a.4.4,0,0,0-.56.15.42.42,0,0,0,.16.59l1.76,1v3.17l-2.79-1.6,0-2a.41.41,0,0,0-.42-.43h0a.43.43,0,0,0-.43.43v1.49l-1.51-.86a.41.41,0,0,0-.57.15.42.42,0,0,0,.15.59l1.52.88-1.33.79a.42.42,0,0,0-.14.59.4.4,0,0,0,.36.2.36.36,0,0,0,.22-.07l1.74-1,2.78,1.59-2.78,1.61-1.74-1a.42.42,0,0,0-.58.14.43.43,0,0,0,.14.58l1.33.79-1.52.89a.41.41,0,0,0-.15.58.38.38,0,0,0,.36.22.82.82,0,0,0,.21-.07l1.51-.86v1.5a.42.42,0,0,0,.43.42h0a.43.43,0,0,0,.42-.44l0-2,2.79-1.59v3.16l-1.76,1a.41.41,0,0,0-.16.58.37.37,0,0,0,.36.22.35.35,0,0,0,.2-.05l1.36-.76v1.79a.41.41,0,0,0,.42.42.42.42,0,0,0,.43-.42V26.39l1.31.73a.38.38,0,0,0,.21.05.4.4,0,0,0,.37-.22.42.42,0,0,0-.17-.58l-1.72-1V22.2l2.73,1.58v2a.42.42,0,0,0,.42.44.41.41,0,0,0,.42-.42l0-1.55,1.54.9a.51.51,0,0,0,.22,0,.4.4,0,0,0,.36-.2.42.42,0,0,0-.15-.59" transform="translate(0 0)"/></g><g class="n"><path class="l" d="M343.77,116.57l-1.53-.89,1.29-.77a.42.42,0,0,0,.15-.59.41.41,0,0,0-.57-.14l-1.73,1-2.74-1.6,2.74-1.58,1.73,1a.32.32,0,0,0,.2.06.47.47,0,0,0,.37-.2.41.41,0,0,0-.15-.58l-1.29-.77,1.53-.89a.43.43,0,0,0,.15-.59.42.42,0,0,0-.58-.15l-1.54.89,0-1.54a.42.42,0,0,0-.42-.43.43.43,0,0,0-.42.43v2l-2.72,1.58v-3.21l1.71-1a.43.43,0,0,0,.17-.58.41.41,0,0,0-.57-.16l-1.31.74v-1.75a.44.44,0,0,0-.43-.43.43.43,0,0,0-.43.43v1.77L336,108a.41.41,0,0,0-.57.16.41.41,0,0,0,.16.58l1.76,1v3.17l-2.79-1.61,0-2a.42.42,0,0,0-.42-.43h0a.44.44,0,0,0-.43.43v1.5l-1.5-.86a.42.42,0,1,0-.43.73l1.52.88-1.33.8a.41.41,0,0,0-.14.58.4.4,0,0,0,.36.2.38.38,0,0,0,.22-.06l1.74-1,2.78,1.6-2.78,1.61-1.74-1a.42.42,0,0,0-.58.14.44.44,0,0,0,.14.59l1.33.78-1.52.89a.43.43,0,0,0-.15.59.39.39,0,0,0,.36.21.73.73,0,0,0,.22-.06l1.5-.86V118a.43.43,0,0,0,.43.42h0a.42.42,0,0,0,.42-.43l0-2,2.79-1.59v3.15l-1.76,1a.41.41,0,0,0-.16.58.38.38,0,0,0,.36.22.5.5,0,0,0,.21,0l1.35-.77v1.8a.42.42,0,0,0,.43.42.43.43,0,0,0,.43-.42v-1.77l1.31.74a.42.42,0,0,0,.2,0,.39.39,0,0,0,.37-.22.42.42,0,0,0-.17-.58l-1.71-1v-3.2l2.72,1.58v2a.42.42,0,0,0,.42.43.41.41,0,0,0,.42-.42l0-1.55,1.54.9a.45.45,0,0,0,.58-.15.41.41,0,0,0-.15-.58" transform="translate(0 0)"/></g><g class="o"><path class="l" d="M316.46,51.89,314.93,51l1.29-.77a.42.42,0,0,0,.16-.58.42.42,0,0,0-.58-.14l-1.73,1-2.74-1.6,2.74-1.58,1.73,1a.32.32,0,0,0,.2.06.47.47,0,0,0,.38-.2.42.42,0,0,0-.16-.58l-1.29-.77,1.53-.89a.42.42,0,0,0,.15-.58.41.41,0,0,0-.58-.16l-1.54.9,0-1.54a.42.42,0,0,0-.42-.43.42.42,0,0,0-.42.43v2l-2.72,1.58V45l1.71-1a.44.44,0,0,0,.17-.59.4.4,0,0,0-.57-.15l-1.31.74V42.27a.43.43,0,0,0-.43-.43.43.43,0,0,0-.43.43V44l-1.35-.75a.41.41,0,0,0-.57.15.43.43,0,0,0,.16.59l1.76,1v3.17l-2.79-1.61,0-2a.41.41,0,0,0-.42-.43h0a.44.44,0,0,0-.43.43v1.49l-1.5-.86a.42.42,0,0,0-.58.15.43.43,0,0,0,.15.59l1.52.88-1.32.79a.4.4,0,0,0-.15.58.43.43,0,0,0,.58.14l1.74-1,2.78,1.59-2.78,1.61-1.74-1a.41.41,0,0,0-.58.14.42.42,0,0,0,.15.58L306,51l-1.52.88a.43.43,0,0,0-.15.59.39.39,0,0,0,.36.21.73.73,0,0,0,.22-.06l1.5-.86v1.5a.44.44,0,0,0,.43.42h0a.43.43,0,0,0,.42-.44l0-2,2.79-1.59v3.15l-1.76,1a.41.41,0,0,0-.16.58.38.38,0,0,0,.36.22.36.36,0,0,0,.21-.05l1.35-.76v1.79a.42.42,0,0,0,.43.42.42.42,0,0,0,.43-.42V53.84l1.31.74a.35.35,0,0,0,.2.05.39.39,0,0,0,.37-.22.41.41,0,0,0-.17-.58l-1.71-1V49.66l2.72,1.58v2a.43.43,0,0,0,.42.44.42.42,0,0,0,.42-.42l0-1.55,1.54.9a.51.51,0,0,0,.22,0,.38.38,0,0,0,.36-.2.41.41,0,0,0-.15-.58" transform="translate(0 0)"/></g><g class="p"><path class="l" d="M389.41,31.62l-1.53-.89,1.29-.77a.41.41,0,0,0,.15-.58.4.4,0,0,0-.57-.14l-1.73,1-2.74-1.6L387,27.07l1.73,1a.32.32,0,0,0,.2.07.47.47,0,0,0,.37-.2.42.42,0,0,0-.15-.59l-1.29-.77,1.53-.89a.42.42,0,0,0,.15-.58A.43.43,0,0,0,389,25l-1.54.9,0-1.54a.42.42,0,1,0-.84,0v2l-2.73,1.58v-3.2l1.72-1a.44.44,0,0,0,.17-.59.41.41,0,0,0-.58-.15l-1.31.74V22a.43.43,0,0,0-.43-.43A.42.42,0,0,0,383,22v1.76L381.64,23a.41.41,0,0,0-.57.15.43.43,0,0,0,.17.59l1.76,1v3.17l-2.79-1.6,0-2a.41.41,0,0,0-.42-.43h0a.43.43,0,0,0-.43.43v1.49L377.85,25a.41.41,0,0,0-.57.15.42.42,0,0,0,.15.59l1.52.88-1.33.79a.42.42,0,0,0-.14.59.4.4,0,0,0,.36.2.36.36,0,0,0,.22-.07l1.74-1,2.78,1.59-2.78,1.61-1.74-1a.41.41,0,0,0-.58.14.43.43,0,0,0,.14.58l1.33.79-1.52.88a.42.42,0,0,0-.15.59.38.38,0,0,0,.36.22.82.82,0,0,0,.21-.07l1.51-.86V33a.43.43,0,0,0,.43.42h0a.43.43,0,0,0,.42-.44l0-2L383,29.41v3.16l-1.76,1a.42.42,0,0,0-.17.58.4.4,0,0,0,.37.22.35.35,0,0,0,.2,0l1.36-.76v1.79a.41.41,0,0,0,.42.42.42.42,0,0,0,.43-.42V33.58l1.31.73a.37.37,0,0,0,.2,0,.4.4,0,0,0,.38-.22.42.42,0,0,0-.17-.58l-1.72-1V29.39L386.58,31v2a.42.42,0,0,0,.42.44.42.42,0,0,0,.42-.42l0-1.55,1.54.9a.51.51,0,0,0,.22,0,.39.39,0,0,0,.36-.21.41.41,0,0,0-.15-.58" transform="translate(0 0)"/></g><g class="q"><path class="l" d="M241.05,73.86,239.52,73l1.29-.77a.43.43,0,0,0,.16-.59.42.42,0,0,0-.58-.14l-1.73,1-2.74-1.59,2.74-1.58,1.73,1a.39.39,0,0,0,.2.06.47.47,0,0,0,.38-.2.43.43,0,0,0-.16-.59l-1.29-.77,1.53-.88a.45.45,0,0,0,.16-.59.43.43,0,0,0-.59-.15l-1.54.89,0-1.54a.43.43,0,1,0-.85,0v2l-2.72,1.58V67l1.72-1a.43.43,0,0,0,.16-.59.4.4,0,0,0-.57-.15L235.5,66V64.24a.43.43,0,1,0-.86,0V66l-1.35-.76a.41.41,0,0,0-.57.15.43.43,0,0,0,.16.59l1.76,1v3.18l-2.79-1.61,0-2a.42.42,0,0,0-.42-.43h0a.45.45,0,0,0-.43.43v1.49l-1.5-.86a.42.42,0,0,0-.58.15.43.43,0,0,0,.15.59l1.52.88-1.32.79a.41.41,0,0,0-.15.59.4.4,0,0,0,.36.2.44.44,0,0,0,.23-.06l1.73-1,2.78,1.6-2.78,1.61-1.73-1a.43.43,0,0,0-.59.14.44.44,0,0,0,.15.59l1.32.78-1.52.89a.42.42,0,0,0-.15.58.39.39,0,0,0,.36.22.73.73,0,0,0,.22-.06l1.5-.87v1.5a.44.44,0,0,0,.43.42h0a.43.43,0,0,0,.42-.44l0-2,2.79-1.6v3.16l-1.76,1a.42.42,0,0,0-.16.59.39.39,0,0,0,.36.21.46.46,0,0,0,.21,0l1.35-.77v1.79a.43.43,0,0,0,.86,0V75.82l1.31.74a.45.45,0,0,0,.2,0,.38.38,0,0,0,.37-.21.43.43,0,0,0-.16-.59l-1.72-1V71.63l2.72,1.58v2a.43.43,0,1,0,.85,0l0-1.55,1.54.9a.51.51,0,0,0,.22.05.42.42,0,0,0,.37-.2.44.44,0,0,0-.16-.59" transform="translate(0 0)"/></g><g class="r"><path class="l" d="M400.48,88.24,399,87.35l1.29-.77a.41.41,0,0,0,.15-.58.4.4,0,0,0-.57-.14l-1.73,1-2.74-1.6,2.74-1.58,1.73,1a.32.32,0,0,0,.2.07.45.45,0,0,0,.37-.21.41.41,0,0,0-.15-.58L399,83.21l1.53-.89a.42.42,0,0,0,.15-.58.43.43,0,0,0-.58-.16l-1.54.9,0-1.54a.42.42,0,0,0-.42-.43.42.42,0,0,0-.42.43v2l-2.72,1.58v-3.2l1.71-1a.44.44,0,0,0,.17-.59.4.4,0,0,0-.57-.15l-1.31.74V78.62a.43.43,0,0,0-.43-.43.43.43,0,0,0-.43.43v1.76l-1.35-.75a.41.41,0,0,0-.57.15.43.43,0,0,0,.16.59l1.76,1v3.17l-2.79-1.6,0-2a.41.41,0,0,0-.42-.43h0a.44.44,0,0,0-.43.43v1.49l-1.5-.86a.43.43,0,0,0-.43.74l1.52.88L388.7,84a.4.4,0,0,0-.15.58.39.39,0,0,0,.36.21.38.38,0,0,0,.22-.07l1.74-1,2.78,1.59-2.78,1.61-1.74-1a.41.41,0,0,0-.58.14.42.42,0,0,0,.15.58l1.32.79-1.52.88a.43.43,0,0,0-.15.59.38.38,0,0,0,.36.22.85.85,0,0,0,.22-.07l1.5-.86v1.5a.44.44,0,0,0,.43.42h0a.43.43,0,0,0,.42-.44l0-2L394.07,86v3.16l-1.76,1a.41.41,0,0,0-.16.58.42.42,0,0,0,.57.17l1.35-.76V92a.42.42,0,0,0,.43.42.42.42,0,0,0,.43-.42V90.2l1.31.73a.35.35,0,0,0,.2,0,.39.39,0,0,0,.37-.22.42.42,0,0,0-.17-.58l-1.71-1V86l2.72,1.58v2a.43.43,0,0,0,.42.44.42.42,0,0,0,.42-.42l0-1.55,1.54.9a.51.51,0,0,0,.22,0,.39.39,0,0,0,.36-.21.41.41,0,0,0-.15-.58" transform="translate(0 0)"/></g><g class="s"><path class="l" d="M110,53.19l-1.53-.89,1.3-.77A.42.42,0,0,0,110,51a.41.41,0,0,0-.58-.14l-1.72,1-2.75-1.6,2.75-1.58,1.72,1a.34.34,0,0,0,.2.06.47.47,0,0,0,.38-.2.43.43,0,0,0-.15-.58l-1.3-.77,1.53-.89a.43.43,0,0,0,.16-.58.43.43,0,0,0-.59-.16l-1.54.89,0-1.54a.43.43,0,0,0-.42-.43.44.44,0,0,0-.43.43l0,2-2.73,1.58V46.29l1.72-1a.42.42,0,1,0-.41-.74l-1.31.74V43.57a.44.44,0,0,0-.43-.44.43.43,0,0,0-.42.44v1.76l-1.36-.76a.42.42,0,0,0-.41.74l1.77,1v3.17l-2.79-1.61v-2a.4.4,0,0,0-.41-.43h0a.44.44,0,0,0-.42.43l0,1.5-1.5-.86a.41.41,0,0,0-.58.15.44.44,0,0,0,.16.59l1.51.87-1.32.8a.41.41,0,0,0-.15.58.39.39,0,0,0,.37.2.43.43,0,0,0,.22-.06l1.73-1,2.78,1.59-2.78,1.61-1.73-1a.41.41,0,0,0-.59.14.43.43,0,0,0,.15.58l1.32.79-1.51.88a.43.43,0,0,0-.16.59.4.4,0,0,0,.36.21.73.73,0,0,0,.22-.06l1.5-.86,0,1.49a.43.43,0,0,0,.42.43h0a.42.42,0,0,0,.41-.44v-2L103.63,51v3.15l-1.77,1a.42.42,0,0,0-.16.58.39.39,0,0,0,.36.22.36.36,0,0,0,.21,0l1.36-.77v1.8a.42.42,0,0,0,.42.42.42.42,0,0,0,.43-.42V55.14l1.31.74a.35.35,0,0,0,.2,0,.41.41,0,0,0,.38-.22.43.43,0,0,0-.17-.58l-1.72-1V51l2.73,1.58,0,2a.44.44,0,0,0,.43.44.42.42,0,0,0,.42-.43l0-1.55,1.54.91a.53.53,0,0,0,.23,0,.38.38,0,0,0,.36-.2.43.43,0,0,0-.16-.58" transform="translate(0 0)"/></g><g class="t"><path class="l" d="M154.27,95.43l-1.53-.89,1.29-.77a.42.42,0,1,0-.42-.72l-1.72,1-2.75-1.6,2.75-1.58,1.72,1a.32.32,0,0,0,.2.06.44.44,0,0,0,.38-.2.42.42,0,0,0-.16-.58l-1.29-.77,1.53-.89a.43.43,0,0,0,.16-.58.43.43,0,0,0-.59-.16l-1.54.9,0-1.54a.43.43,0,1,0-.85,0l0,2-2.73,1.58V88.53l1.72-1a.44.44,0,0,0,.17-.59.41.41,0,0,0-.58-.15l-1.31.74V85.81a.43.43,0,0,0-.43-.43.42.42,0,0,0-.42.43v1.76l-1.36-.75a.41.41,0,0,0-.57.15.43.43,0,0,0,.16.59l1.77,1v3.17l-2.79-1.61v-2a.4.4,0,0,0-.41-.43h0a.43.43,0,0,0-.42.43l0,1.49-1.5-.86a.42.42,0,0,0-.58.15.44.44,0,0,0,.16.59l1.51.88-1.32.79a.41.41,0,0,0-.15.58.38.38,0,0,0,.36.2.44.44,0,0,0,.23-.06l1.73-1,2.78,1.59-2.78,1.61-1.73-1a.42.42,0,0,0-.59.14.43.43,0,0,0,.15.58l1.32.79-1.51.88a.43.43,0,0,0-.16.59.4.4,0,0,0,.36.21.73.73,0,0,0,.22-.06l1.5-.86,0,1.5a.43.43,0,0,0,.42.42h0a.42.42,0,0,0,.41-.44v-2l2.79-1.59v3.15l-1.77,1a.42.42,0,0,0-.16.58.38.38,0,0,0,.36.22.36.36,0,0,0,.21,0l1.36-.77v1.8a.41.41,0,0,0,.42.42.42.42,0,0,0,.43-.42V97.38l1.31.74a.35.35,0,0,0,.2,0,.41.41,0,0,0,.38-.22.43.43,0,0,0-.17-.58l-1.72-1V93.2l2.73,1.58,0,2a.43.43,0,1,0,.85,0l0-1.55,1.54.9a.53.53,0,0,0,.23,0,.38.38,0,0,0,.36-.2.43.43,0,0,0-.16-.58" transform="translate(0 0)"/></g><path class="l" d="M.5,261.84v-5.59H479.81V115.16a2.05,2.05,0,0,0-2.05-2H467.42v-5.6h10.34a7.65,7.65,0,0,1,7.64,7.65V256.25H627.86v5.59Z" transform="translate(0 0)"/><path class="u" d="M477.76,108a7.15,7.15,0,0,1,7.14,7.15V256.75h143v4.59H1v-4.59H480.31V115.16a2.55,2.55,0,0,0-2.55-2.55h-9.83V108h9.83m0-1H466.93v6.6h10.83a1.55,1.55,0,0,1,1.55,1.55V255.75H0v6.59H627.86v-6.59h-142V115.16a8.16,8.16,0,0,0-8.14-8.15" transform="translate(0 0)"/><rect class="j" x="465.75" y="106.37" width="4.35" height="7.88"/><rect class="i" x="465.75" y="106.37" width="4.35" height="7.88"/><rect class="u" x="479.35" y="248.57" width="6.52" height="4.35"/><rect class="i" x="479.35" y="248.57" width="6.52" height="4.35"/><rect class="u" x="474.14" y="255.82" width="4.35" height="6.45"/><rect class="i" x="474.14" y="255.82" width="4.35" height="6.45"/><rect class="u" x="486.73" y="255.82" width="4.35" height="6.45"/><rect class="i" x="486.73" y="255.82" width="4.35" height="6.45"/><line class="i" x1="416.3" y1="110.31" x2="412.16" y2="110.31"/><line class="i" x1="412.16" y1="116.27" x2="412.16" y2="104.35"/><path class="i" d="M434.3,178.34V156.69a67.88,67.88,0,0,0-16.2-1.89c-19.12,0-34.62,7.31-34.62,16.32v7.22H434.3Z" transform="translate(0 0)"/><path class="v" d="M241.38,112.39v52.35a3.8,3.8,0,0,1-3.79,3.8H206.76" transform="translate(0 0)"/><path class="w" d="M241.38,112.39l-14.62-.08a8.62,8.62,0,0,0-8.43,6.66l-11.57,49.57" transform="translate(0 0)"/><g class="x"><line class="y" x1="181.58" y1="137.07" x2="251.73" y2="207.22"/><line class="y" x1="183.96" y1="134.7" x2="254.11" y2="204.84"/><line class="y" x1="186.33" y1="132.32" x2="256.48" y2="202.47"/><line class="y" x1="188.71" y1="129.94" x2="258.86" y2="200.09"/><line class="y" x1="191.08" y1="127.57" x2="261.23" y2="197.72"/><line class="y" x1="193.46" y1="125.19" x2="263.61" y2="195.34"/><line class="y" x1="195.83" y1="122.82" x2="265.98" y2="192.97"/><line class="y" x1="198.21" y1="120.44" x2="268.36" y2="190.59"/><line class="y" x1="200.59" y1="118.07" x2="270.73" y2="188.22"/><line class="y" x1="202.96" y1="115.69" x2="273.11" y2="185.84"/><line class="y" x1="205.34" y1="113.32" x2="275.48" y2="183.46"/><line class="y" x1="207.71" y1="110.94" x2="277.86" y2="181.09"/><line class="y" x1="210.09" y1="108.57" x2="280.23" y2="178.71"/><line class="y" x1="212.46" y1="106.19" x2="282.61" y2="176.34"/><line class="y" x1="214.84" y1="103.82" x2="284.98" y2="173.96"/><line class="y" x1="217.21" y1="101.44" x2="287.36" y2="171.59"/><line class="y" x1="219.59" y1="99.07" x2="289.73" y2="169.21"/><line class="y" x1="221.96" y1="96.69" x2="292.11" y2="166.84"/><line class="y" x1="224.34" y1="94.32" x2="294.48" y2="164.46"/><line class="y" x1="226.71" y1="91.94" x2="296.86" y2="162.09"/><line class="y" x1="229.09" y1="89.57" x2="299.23" y2="159.71"/><line class="y" x1="231.46" y1="87.19" x2="301.61" y2="157.34"/><line class="y" x1="233.84" y1="84.82" x2="303.99" y2="154.96"/><line class="y" x1="236.21" y1="82.44" x2="306.36" y2="152.59"/><line class="y" x1="238.59" y1="80.07" x2="308.74" y2="150.21"/><line class="y" x1="251.73" y1="80.07" x2="181.58" y2="150.21"/><line class="y" x1="254.11" y1="82.44" x2="183.96" y2="152.59"/><line class="y" x1="256.48" y1="84.82" x2="186.33" y2="154.96"/><line class="y" x1="258.86" y1="87.19" x2="188.71" y2="157.34"/><line class="y" x1="261.23" y1="89.57" x2="191.08" y2="159.71"/><line class="y" x1="263.61" y1="91.94" x2="193.46" y2="162.09"/><line class="y" x1="265.98" y1="94.32" x2="195.83" y2="164.46"/><line class="y" x1="268.36" y1="96.69" x2="198.21" y2="166.84"/><line class="y" x1="270.73" y1="99.07" x2="200.59" y2="169.21"/><line class="y" x1="273.11" y1="101.44" x2="202.96" y2="171.59"/><line class="y" x1="275.48" y1="103.82" x2="205.34" y2="173.96"/><line class="y" x1="277.86" y1="106.19" x2="207.71" y2="176.34"/><line class="y" x1="280.23" y1="108.57" x2="210.09" y2="178.71"/><line class="y" x1="282.61" y1="110.94" x2="212.46" y2="181.09"/><line class="y" x1="284.98" y1="113.32" x2="214.84" y2="183.46"/><line class="y" x1="287.36" y1="115.69" x2="217.21" y2="185.84"/><line class="y" x1="289.73" y1="118.07" x2="219.59" y2="188.22"/><line class="y" x1="292.11" y1="120.44" x2="221.96" y2="190.59"/><line class="y" x1="294.48" y1="122.82" x2="224.34" y2="192.97"/><line class="y" x1="296.86" y1="125.19" x2="226.71" y2="195.34"/><line class="y" x1="299.23" y1="127.57" x2="229.09" y2="197.72"/><line class="y" x1="301.61" y1="129.94" x2="231.46" y2="200.09"/><line class="y" x1="303.99" y1="132.32" x2="233.84" y2="202.47"/><line class="y" x1="306.36" y1="134.7" x2="236.21" y2="204.84"/><line class="y" x1="308.74" y1="137.07" x2="238.59" y2="207.22"/></g><path class="v" d="M276,112.39v52.35a3.8,3.8,0,0,1-3.8,3.8H241.38" transform="translate(0 0)"/><path class="w" d="M276,112.39l-14.62-.08a8.64,8.64,0,0,0-8.44,6.66l-11.56,49.57" transform="translate(0 0)"/><line class="v" x1="241.38" y1="112.39" x2="276" y2="112.39"/><path class="l" d="M318.72,168.54h-8.58a1.85,1.85,0,0,1-1.85-1.85v-.75a1.85,1.85,0,0,1,1.85-1.86h8.58a1.85,1.85,0,0,1,1.85,1.86v.75a1.85,1.85,0,0,1-1.85,1.85" transform="translate(0 0)"/><rect class="z" x="308.29" y="164.08" width="12.28" height="4.46" rx="1.85"/><path class="i" d="M155.22,144a50.47,50.47,0,0,0-12.11,1.46c-4.56-6.8-14.18-11.5-25.32-11.5A37.35,37.35,0,0,0,106,135.83C102,124.69,88,116.47,71.3,116.47c-15.48,0-28.68,7.09-33.73,17a50.29,50.29,0,0,0-13.2-1.74A46.85,46.85,0,0,0,1,137.71v40.63H192.66v-7.22C192.66,156.14,175.9,144,155.22,144Z" transform="translate(0 0)"/></svg>