<svg xmlns="http://www.w3.org/2000/svg" viewBox="0 0 80.96 80.96"><defs><style>.a{fill:#fff;}</style></defs><path class="a" d="M40.48,78.77A38.29,38.29,0,1,1,78.77,40.48,38.33,38.33,0,0,1,40.48,78.77M40.48,0A40.48,40.48,0,1,0,81,40.48,40.48,40.48,0,0,0,40.48,0"/><polygon class="a" points="71.89 49.64 71.37 47.51 64.64 49.16 59.08 45.95 64.62 42.75 71.46 44.58 72.03 42.47 67.3 41.2 72.6 38.15 71.5 36.25 66.28 39.26 67.58 34.8 65.48 34.19 63.54 40.84 57.98 44.05 57.98 37.65 62.99 32.65 61.44 31.1 57.98 34.56 57.98 28.45 55.8 28.45 55.8 34.47 52.59 31.11 51.01 32.63 55.8 37.64 55.8 44.05 50.25 40.85 48.42 34.01 46.3 34.58 47.57 39.3 42.28 36.25 41.18 38.15 46.4 41.16 41.89 42.26 42.41 44.39 49.14 42.74 54.7 45.95 49.16 49.15 42.32 47.32 41.75 49.43 46.48 50.7 41.18 53.75 42.28 55.65 47.5 52.64 46.2 57.09 48.3 57.71 50.24 51.05 55.8 47.84 55.8 54.25 50.79 59.26 52.34 60.8 55.8 57.34 55.8 63.45 57.98 63.45 57.98 57.43 61.2 60.78 62.78 59.27 57.98 54.26 57.98 47.84 63.53 51.05 65.36 57.88 67.48 57.32 66.21 52.59 71.5 55.65 72.6 53.75 67.38 50.74 71.89 49.64"/><path class="a" d="M32.82,21.88V19.69H46a2.19,2.19,0,0,1,2.19,2.19v2.19H46V21.88H32.82ZM35,63.45H32.82V24.07H35ZM35,70H32.82V65.64H35ZM26.35,27.35A3.38,3.38,0,0,1,23,24V18.08a3.36,3.36,0,0,1,1.86-3l6.47-3.22a3.39,3.39,0,0,0,1.51,1.1v4.57H31.73a1.09,1.09,0,0,0-1.1,1.09v8.75Zm7.57-18.6a1.1,1.1,0,1,1-1.1,1.1,1.09,1.09,0,0,1,1.1-1.1M35,13.13H36.1a1.09,1.09,0,0,1,1.1,1.09v3.29H35Zm6.56,0v4.38H39.39V14.22a3.29,3.29,0,0,0-2.19-3.09h-.26a3.25,3.25,0,0,0,.26-1.28A3.34,3.34,0,0,0,37,8.75h.19a4.38,4.38,0,0,1,4.37,4.38M46,26.26h2.19a2.19,2.19,0,0,0,2.19-2.19V21.88A4.37,4.37,0,0,0,46,17.51H43.76V13.13A6.57,6.57,0,0,0,37.2,6.56H33.92a3.28,3.28,0,0,0-3.28,3.17L23.86,13.1a5.55,5.55,0,0,0-3.07,5V24a5.57,5.57,0,0,0,5.56,5.57h4.28V72.21H37.2V24.07h6.56A2.19,2.19,0,0,0,46,26.26"/></svg>