<svg xmlns="http://www.w3.org/2000/svg" xmlns:xlink="http://www.w3.org/1999/xlink" viewBox="0 0 582 262.68"><defs><style>.a,.b,.c,.d,.f,.h,.j,.l,.m,.n,.q,.r{fill:none;}.b,.c,.d,.h,.j,.k,.l,.m,.n,.p,.q{stroke:#fff;}.b,.c{stroke-width:0.75px;}.b,.c,.o{isolation:isolate;opacity:0.2;}.c{stroke-linecap:square;}.d{stroke-width:0.3px;}.e{clip-path:url(#a);}.f{stroke:#475a6c;}.f,.h,.k,.p,.q,.r{stroke-miterlimit:10;}.f,.h,.j,.k,.n,.p,.r{stroke-width:2px;}.g{fill:url(#b);}.i{fill:url(#c);}.j,.l{stroke-linecap:round;}.j,.l,.m,.n{stroke-linejoin:round;}.k{fill:#00aadc;}.l,.m,.q{stroke-width:3px;}.o{fill:url(#d);}.p{fill:#273a4e;}.r{stroke:#b2def3;}</style><clipPath id="a"><rect class="a" x="0.01" width="240.95" height="141.73"/></clipPath><pattern id="b" width="240.95" height="141.73" patternTransform="translate(11749.1 -10817.2) rotate(-45)" patternUnits="userSpaceOnUse" viewBox="0 0 240.95 141.73"><rect class="a" width="240.95" height="141.73"/><rect class="a" x="0.01" width="240.95" height="141.73"/><g class="e"><line class="f" x1="0.01" y1="127.56" x2="240.95" y2="127.56"/><line class="f" x1="0.01" y1="99.21" x2="240.95" y2="99.21"/><line class="f" x1="0.01" y1="70.86" x2="240.95" y2="70.86"/><line class="f" x1="0.01" y1="42.52" x2="240.95" y2="42.52"/><line class="f" x1="0.01" y1="14.17" x2="240.95" y2="14.17"/></g></pattern><pattern id="c" width="86.96" height="65.3" patternTransform="matrix(1, 0, 0, -1, 80.24, 1095.2)" patternUnits="userSpaceOnUse" viewBox="0 0 86.96 65.3"><rect class="a" width="86.96" height="65.3"/><rect class="a" width="86.96" height="65.3"/><line class="b" x1="81.12" y1="54.14" x2="81.12" y2="43.38"/><line class="b" x1="59.58" y1="54.14" x2="59.58" y2="43.38"/><line class="b" x1="38.04" y1="54.14" x2="38.04" y2="43.38"/><line class="b" x1="16.5" y1="54.14" x2="16.5" y2="43.38"/><line class="b" x1="81.12" y1="32.63" x2="81.12" y2="21.88"/><line class="b" x1="59.58" y1="32.63" x2="59.58" y2="21.88"/><line class="b" x1="38.04" y1="32.63" x2="38.04" y2="21.88"/><line class="b" x1="16.5" y1="32.63" x2="16.5" y2="21.88"/><line class="b" x1="81.12" y1="11.03" x2="81.12"/><line class="b" x1="59.58" y1="11.03" x2="59.58"/><line class="b" x1="38.04" y1="11.03" x2="38.04"/><line class="b" x1="16.5" y1="11.03" x2="16.5"/><line class="b" x1="70.33" y1="21.88" x2="70.33" y2="11.13"/><line class="b" x1="48.79" y1="21.88" x2="48.79" y2="11.13"/><line class="b" x1="27.25" y1="21.88" x2="27.25" y2="11.13"/><line class="b" x1="5.7" y1="21.88" x2="5.7" y2="11.13"/><line class="b" x1="70.33" y1="43.38" x2="70.33" y2="32.63"/><line class="b" x1="48.79" y1="43.38" x2="48.79" y2="32.63"/><line class="b" x1="27.25" y1="43.38" x2="27.25" y2="32.63"/><line class="b" x1="5.7" y1="43.38" x2="5.7" y2="32.63"/><line class="b" x1="70.33" y1="64.89" x2="70.33" y2="54.14"/><line class="b" x1="48.79" y1="64.89" x2="48.79" y2="54.14"/><line class="b" x1="27.25" y1="64.89" x2="27.25" y2="54.14"/><line class="b" x1="5.7" y1="64.89" x2="5.7" y2="54.14"/><line class="c" x1="0.38" y1="64.92" x2="86.58" y2="64.92"/><line class="c" x1="0.38" y1="54.15" x2="86.58" y2="54.15"/><line class="c" x1="0.38" y1="43.38" x2="86.58" y2="43.38"/><line class="c" x1="0.38" y1="32.61" x2="86.58" y2="32.61"/><line class="c" x1="0.38" y1="21.84" x2="86.58" y2="21.84"/><line class="c" x1="0.38" y1="11.06" x2="86.58" y2="11.06"/></pattern><pattern id="d" width="53.5" height="53.5" patternTransform="matrix(1, 0, 0, -1, 13.5, 1112.5)" patternUnits="userSpaceOnUse" viewBox="0 0 53.5 53.5"><rect class="a" width="53.5" height="53.5"/><rect class="a" width="53.5" height="53.5"/><line class="d" x1="4.61" y1="53.5" x2="4.61"/><line class="d" x1="22.32" y1="53.5" x2="22.32"/><line class="d" x1="40.03" y1="53.5" x2="40.03"/><line class="d" y1="4.61" x2="53.5" y2="4.61"/><line class="d" y1="22.32" x2="53.5" y2="22.32"/><line class="d" y1="40.03" x2="53.5" y2="40.03"/><line class="d" y1="13.47" x2="53.5" y2="13.47"/><line class="d" y1="31.18" x2="53.5" y2="31.18"/><line class="d" y1="48.89" x2="53.5" y2="48.89"/><line class="d" x1="13.47" y1="53.5" x2="13.47"/><line class="d" x1="31.18" y1="53.5" x2="31.18"/><line class="d" x1="48.89" y1="53.5" x2="48.89"/></pattern></defs><polygon class="g" points="0 229.48 0 262.68 582 262.68 582 229.48 0 229.48"/><line class="h" y1="224.68" x2="582" y2="224.68"/><rect class="i" x="9.55" y="1" width="241.88" height="223.76"/><rect class="j" x="251.43" y="1" width="241.26" height="223.76"/><rect class="k" x="146.74" y="90.37" width="50.31" height="19.38"/><polygon class="k" points="189.55 109.75 154.24 109.75 154.24 81.62 171.89 81.62 171.89 77.09 189.55 77.09 189.55 109.75"/><circle class="k" cx="162.75" cy="108.42" r="9.14"/><circle class="k" cx="162.75" cy="108.42" r="1.64"/><line class="h" x1="169.14" y1="101.88" x2="162.75" y2="108.42"/><line class="h" x1="154.24" y1="92.64" x2="189.55" y2="92.64"/><rect class="j" x="278.46" y="44.9" width="64.45" height="92.35"/><rect class="j" x="278.46" y="137.25" width="64.45" height="80.16"/><rect class="j" x="342.91" y="145.22" width="37.03" height="72.19"/><rect class="j" x="379.95" y="145.22" width="36.56" height="72.19"/><rect class="j" x="284.32" y="217.41" width="132.19" height="7.34"/><rect class="j" x="342.91" y="44.9" width="73.6" height="38.67"/><line class="j" x1="286.66" y1="92.64" x2="286.66" y2="125.06"/><line class="j" x1="286.66" y1="149.44" x2="286.66" y2="181.31"/><circle class="l" cx="368.98" cy="178.66" r="4.14"/><circle class="j" cx="390.96" cy="178.66" r="4.14"/><circle class="j" cx="379.71" cy="72.68" r="4.14"/><path class="m" d="M197.05,100.06h54.38s16.05.55,16.05,16.06v88.16s.94,10.75,11.23,11.23"/><path class="n" d="M416.51,215.51h54.84s7.61-.46,7.61-7.6v-34.8"/><path class="j" d="M429.17,154.83h53.91v18.28H440.17a11,11,0,0,1-11-11v-7.28Z"/><rect class="j" x="425.18" y="144.05" width="61.17" height="10.78" rx="2"/><path class="j" d="M447.13,111.92c0-15.78,10.47-15.47,15.79-15.47S478,95.92,478,110v34.07"/><circle class="j" cx="477.74" cy="129.42" r="5.76"/><line class="j" x1="469.4" y1="114.98" x2="474.88" y2="124.42"/><rect class="o" x="342.91" y="83.58" width="70.78" height="60.47"/><rect class="h" x="115.92" y="92.56" width="7.73" height="13.44"/><rect class="h" x="90.13" y="92.56" width="7.73" height="13.44"/><polygon class="h" points="115.92 105.15 97.87 105.15 97.87 94.24 101.74 94.24 101.74 86.69 111.68 86.69 111.7 94.24 115.92 94.24 115.92 105.15"/><rect class="p" x="90.13" y="31.9" width="33.52" height="47.81" rx="9"/><rect class="p" x="100.1" y="79.71" width="13.24" height="6.98"/><line class="q" x1="146.74" y1="99.28" x2="123.65" y2="99.28"/><path class="q" d="M54.86,262.68V116.74S55,99.61,72,99.61H90.13"/><path class="r" d="M443.88,123.66c0-1.8,3.25-6.35,3.25-6.35s3.25,4.55,3.25,6.35a3.25,3.25,0,0,1-6.5,0Z"/></svg>