<svg xmlns="http://www.w3.org/2000/svg" viewBox="0 0 80.96 80.96"><defs><style>.a{fill:#fff;}</style></defs><path class="a" d="M67.47,49.45H64.09V42.7h3.38Zm-5.62,0H42.37a10.11,10.11,0,0,0-19.85.66v-.67H20.25V38.21h41.6Zm-7.94,5.23a4.6,4.6,0,0,1-3.53,1.51,3.49,3.49,0,0,1-3.08-1.42V51.7h6.61Zm-21.4,4.9a7.89,7.89,0,1,1,7.88-7.88,7.88,7.88,0,0,1-7.88,7.88M14.64,42.7H18v6.75H14.64Zm5.61-11.24H60.72V36H20.25ZM31.5,21.75a7.85,7.85,0,0,1,7.83,7.47H23.66a7.87,7.87,0,0,1,7.84-7.47M64.09,40.46V36H63V29.22H41.57a10.08,10.08,0,0,0-20.15,0H18V40.46H12.39V51.69h10v0a10.12,10.12,0,0,0,20.24,0h2.43v3.6l.09.22a5.52,5.52,0,0,0,5.23,2.92A6.68,6.68,0,0,0,56,55.67l.18-.28V51.7h2.33v2.14a1.12,1.12,0,1,0,2.24,0V51.7h9V40.46Z"/><path class="a" d="M32.51,52.92a1.21,1.21,0,1,1,1.21-1.21,1.21,1.21,0,0,1-1.21,1.21m0-4.66a3.46,3.46,0,0,0-3.45,3.45,3.38,3.38,0,0,0,.42,1.61l-2,2.14L29.14,57l2-2.12a3.45,3.45,0,1,0,1.4-6.6"/><path class="a" d="M40.48,78.72A38.24,38.24,0,1,1,78.72,40.48,38.29,38.29,0,0,1,40.48,78.72M40.48,0A40.48,40.48,0,1,0,81,40.48,40.53,40.53,0,0,0,40.48,0"/></svg>