<svg xmlns="http://www.w3.org/2000/svg" xmlns:xlink="http://www.w3.org/1999/xlink" viewBox="0 0 579.7 259.39"><defs><style>.a,.b,.d,.g,.i,.l,.m{fill:none;}.b,.g,.h,.i,.j,.m{stroke:#fff;}.b,.i{stroke-linecap:square;}.b{stroke-width:0.3px;isolation:isolate;opacity:0.3;}.c{clip-path:url(#a);}.d{stroke:#475a6c;}.d,.h,.j,.k,.l,.m{stroke-miterlimit:10;}.d,.g,.h,.i,.j,.k,.l,.m{stroke-width:2px;}.e{fill:url(#b);}.f{fill:#b1dff3;}.g{stroke-linecap:round;stroke-linejoin:round;}.h{fill:url(#c);}.j{fill:#273a4e;}.k{fill:#fff;}.k,.l{stroke:#253a4e;}</style><clipPath id="a"><rect class="a" x="0.01" width="240.95" height="141.73"/></clipPath><pattern id="b" width="240.95" height="141.73" patternTransform="translate(11758.1 -10815.2) rotate(-45)" patternUnits="userSpaceOnUse" viewBox="0 0 240.95 141.73"><rect class="a" width="240.95" height="141.73"/><rect class="a" x="0.01" width="240.95" height="141.73"/><g class="c"><line class="d" x1="0.01" y1="127.56" x2="240.95" y2="127.56"/><line class="d" x1="0.01" y1="99.21" x2="240.95" y2="99.21"/><line class="d" x1="0.01" y1="70.86" x2="240.95" y2="70.86"/><line class="d" x1="0.01" y1="42.52" x2="240.95" y2="42.52"/><line class="d" x1="0.01" y1="14.17" x2="240.95" y2="14.17"/></g></pattern><pattern id="c" width="72" height="72" patternTransform="matrix(1, 0, 0, -1, 35, 1129)" patternUnits="userSpaceOnUse" viewBox="0 0 72 72"><rect class="a" width="72" height="72"/><rect class="a" width="72" height="72"/><line class="b" x1="64.13" y1="23.07" x2="64.13" y2="-15.29"/><line class="b" x1="61.57" y1="23.59" x2="61.57" y2="-1.99"/><line class="b" x1="57.48" y1="39.82" x2="57.48" y2="-9.15"/><line class="b" x1="38.56" y1="39.82" x2="38.56" y2="-22.96"/><line class="b" x1="23.72" y1="11.31" x2="23.72" y2="-38.3"/><line class="b" x1="12.98" y1="6.71" x2="12.98" y2="-31.66"/><line class="b" x1="10.43" y1="7.22" x2="10.43" y2="-18.36"/><line class="b" x1="6.33" y1="39.82" x2="6.33" y2="-25.52"/><line class="b" x1="0.2" y1="39.82" x2="0.2" y2="-35.24"/><line class="b" x1="64.13" y1="4.54" x2="64.13" y2="-39.57"/><line class="b" x1="61.57" y1="5.05" x2="61.57" y2="-39.57"/><line class="b" x1="64.13" y1="95.07" x2="64.13" y2="56.71"/><line class="b" x1="61.57" y1="95.59" x2="61.57" y2="70.01"/><line class="b" x1="70.27" y1="65.41" x2="70.27" y2="15.79"/><line class="b" x1="57.48" y1="41.37" x2="57.48" y2="-0.06"/><line class="b" x1="57.48" y1="14.26" x2="64.64" y2="14.26"/><line class="b" x1="57.48" y1="111.82" x2="57.48" y2="62.85"/><line class="b" x1="64.13" y1="49.04" x2="64.13" y2="41.37"/><line class="b" x1="38.56" y1="111.82" x2="38.56" y2="49.04"/><line class="b" x1="50.32" y1="68.99" x2="50.32" y2="-20.52"/><line class="b" x1="38.56" y1="60.29" x2="50.32" y2="60.29"/><line class="b" x1="46.74" y1="22.95" x2="46.74" y2="-39.57"/><line class="b" x1="43.16" y1="51.6" x2="43.16" y2="-29.22"/><line class="b" x1="23.72" y1="83.31" x2="23.72" y2="33.7"/><line class="b" x1="38.56" y1="14.26" x2="38.56" y2="-39.57"/><line class="b" x1="29.86" y1="54.67" x2="29.86" y2="5.05"/><line class="b" x1="12.98" y1="78.71" x2="12.98" y2="40.34"/><line class="b" x1="10.43" y1="79.22" x2="10.43" y2="53.64"/><line class="b" x1="19.12" y1="49.04" x2="19.12" y2="-0.57"/><line class="b" x1="6.33" y1="25" x2="6.33" y2="-16.43"/><line class="b" x1="6.33" y1="111.82" x2="6.33" y2="46.48"/><line class="b" x1="12.98" y1="32.67" x2="12.98" y2="25"/><line class="b" x1="0.2" y1="111.82" x2="0.2" y2="36.76"/><line class="b" x1="64.13" y1="76.54" x2="64.13" y2="32.43"/><line class="b" x1="61.57" y1="77.05" x2="61.57" y2="32.43"/><line class="b" x1="57.48" y1="113.37" x2="57.48" y2="71.94"/><line class="b" x1="50.32" y1="140.99" x2="50.32" y2="51.48"/><line class="b" x1="46.74" y1="94.95" x2="46.74" y2="32.43"/><line class="b" x1="43.16" y1="123.6" x2="43.16" y2="42.78"/><line class="b" x1="38.56" y1="86.26" x2="38.56" y2="32.43"/><line class="b" x1="19.12" y1="121.04" x2="19.12" y2="71.43"/><line class="b" x1="6.33" y1="97" x2="6.33" y2="55.57"/></pattern></defs><polygon class="e" points="279.27 139.39 279.27 251.35 193.89 251.35 193.89 139.39 2.58 139.39 2.58 259.39 578.7 259.39 578.7 139.39 279.27 139.39"/><path class="f" d="M268.59,145.1c-4.39,0-8.52-1.52-12.3-1.52a33.18,33.18,0,0,0-8.92,1.84s-9.25,1.28-13.3,1.28-12.74-.39-16.77-1.6c-4.3-1.28-10.14-1.52-13.63-1.52a13.09,13.09,0,0,0-6.06,1.52V248.86h78.78V142.92a16.1,16.1,0,0,1-7.8,2.18"/><polyline class="g" points="578.7 134.63 276.39 134.63 276.39 248.86 197.61 248.86 197.61 134.63 1 134.63"/><rect class="h" x="198.04" y="7.22" width="78.35" height="127.4"/><rect class="i" x="192.11" y="1" width="89.86" height="6.22"/><rect class="i" x="207.55" y="7.22" width="59.27" height="20.06"/><rect class="i" x="207.55" y="27.28" width="59.27" height="107.34"/><rect class="i" x="207.55" y="30.6" width="59.27" height="100.43"/><rect class="j" x="264.06" y="37.8" width="5.51" height="8.02"/><rect class="j" x="264.06" y="114.43" width="5.51" height="8.58"/><ellipse class="j" cx="213.99" cy="80.95" rx="2.85" ry="2.86"/><path class="j" d="M237.18,51.5a2.87,2.87,0,0,1,2.62-1.43c1.87,0,2.89,1.06,2.89,3.24S237.21,60,237.21,60s-5.37-4-5.48-6.85A2.81,2.81,0,0,1,234.19,50a3.25,3.25,0,0,1,.54,0A3.36,3.36,0,0,1,237.18,51.5Z"/><path class="k" d="M578.7,176.81H265.41c-.9,0-1,1-1,1V220.4a4.71,4.71,0,0,1-5,5H246.77v-5.81H259a.77.77,0,0,0,.8-.74v-42s0-4.57,4.56-4.57H578.7"/><path class="l" d="M234.69,170.66h0a9,9,0,0,1,9,9V218h-18V179.65a9,9,0,0,1,9-9Z"/><rect class="k" x="225.69" y="182.49" width="17.99" height="35.48"/><rect class="l" x="225.69" y="190.79" width="17.99" height="21.89"/><rect class="k" x="220.52" y="217.97" width="27.29" height="9.13" rx="4.56"/><rect class="k" x="225.69" y="227.1" width="3" height="6.43"/><rect class="k" x="240.68" y="227.1" width="3" height="6.43"/><rect class="k" x="250.5" y="217.97" width="3.1" height="9.13"/><rect class="k" x="253.6" y="217.97" width="2.69" height="9.13"/><rect class="k" x="258.25" y="210.5" width="7.75" height="4.56"/><path class="l" d="M239,182.07s5-6.5,10.55-10.37,6.2-10.79,6.2-10.79"/><path class="k" d="M255.61,160.37h0a4.08,4.08,0,0,1-3-4.93h0l.62-2.55a4.07,4.07,0,0,1,4.91-3h0a4.08,4.08,0,0,1,3,4.93h0l-.63,2.55a4.06,4.06,0,0,1-4.89,3Z"/><line class="m" x1="232.1" y1="134.63" x2="232.1" y2="174.46"/><line class="m" x1="234.69" y1="168.52" x2="234.69" y2="174.46"/><line class="m" x1="237.13" y1="168.52" x2="237.13" y2="176.05"/><path class="g" d="M102,134.06s-3.17-38.31,0-44.95,10.33-14.67,17.78-19"/><path class="g" d="M91.56,62c7.17,6.09,10.75,12.87,10.48,27.12"/><line class="g" x1="101.35" y1="55.63" x2="97.86" y2="69.1"/><line class="g" x1="80.26" y1="134.06" x2="79.57" y2="116.22"/><line class="g" x1="81.78" y1="134.06" x2="83.43" y2="128.53"/><line class="g" x1="79.57" y1="134.06" x2="75.99" y2="126.45"/><line class="g" x1="75.16" y1="125.14" x2="74.47" y2="122.58"/><line class="g" x1="130.84" y1="134.06" x2="133.46" y2="123.27"/><line class="g" x1="129.19" y1="128.67" x2="130.08" y2="134.06"/><line class="g" x1="128.57" y1="127.22" x2="127.64" y2="123.55"/><path class="g" d="M93.73,53.75c.63-.53,4.44,1,4.34,3.57a2,2,0,0,1-2.2,1.77,1.57,1.57,0,0,1-.43-.09C94.22,58.45,93,54.39,93.73,53.75Z"/><path class="g" d="M87.18,67.48c.12-.81,4-2.18,5.61-.19a2,2,0,0,1-.49,2.79,2.42,2.42,0,0,1-.39.21C90.64,70.69,87,68.46,87.18,67.48Z"/><path class="g" d="M109.27,58.29c-.18-.8-4.15-1.89-5.61.21a2,2,0,0,0,.7,2.74,2.32,2.32,0,0,0,.39.18C106.05,61.73,109.49,59.26,109.27,58.29Z"/><path class="g" d="M92.74,80.67c.22.79,4.24,1.68,5.6-.49a2,2,0,0,0-.84-2.7,2,2,0,0,0-.4-.16C95.79,77.07,92.48,79.72,92.74,80.67Z"/><path class="g" d="M128.61,68.1c-.18-.8-4.15-1.88-5.62.21a2,2,0,0,0,.69,2.74,2.17,2.17,0,0,0,.41.19C125.38,71.55,128.82,69.07,128.61,68.1Z"/><path class="g" d="M117.7,80.75c-.18-.8-4.15-1.89-5.62.21a2,2,0,0,0,.7,2.74,2.87,2.87,0,0,0,.4.18C114.47,84.19,117.91,81.72,117.7,80.75Z"/><path class="g" d="M111.94,65.51c.8.17,1.93,4.14-.15,5.63a2,2,0,0,1-2.74-.69,1.88,1.88,0,0,1-.18-.38C108.54,68.78,111,65.3,111.94,65.51Z"/><path class="g" d="M394.18,115.26c.69.43.41,4.55-2.05,5.25a2,2,0,0,1-2.35-1.57,2.09,2.09,0,0,1,0-.43C389.87,117.18,393.34,114.73,394.18,115.26Z"/><line class="g" x1="370.37" y1="120.44" x2="370.95" y2="123.38"/><line class="g" x1="371.13" y1="124.69" x2="371.88" y2="134.06"/><line class="g" x1="377.36" y1="124.52" x2="373.16" y2="134.06"/><line class="g" x1="365.89" y1="126" x2="369.95" y2="134.06"/><line class="g" x1="406.1" y1="125.14" x2="406.89" y2="134.24"/><line class="g" x1="402.86" y1="129.29" x2="405.31" y2="134.24"/><path class="g" d="M388.18,134.48a25.46,25.46,0,0,0,.21-7.89c-.59-4.15-1.9-8.47-1.9-10.37s1-6.4,2.11-7.33"/><ellipse class="g" cx="383.64" cy="100.15" rx="2.26" ry="2.27"/><ellipse class="g" cx="388.15" cy="104.83" rx="2.26" ry="2.27"/><ellipse class="g" cx="388.15" cy="95.62" rx="2.26" ry="2.27"/><ellipse class="g" cx="392.67" cy="100.15" rx="2.26" ry="2.27"/></svg>