<svg xmlns="http://www.w3.org/2000/svg" viewBox="0 0 80.96 80.96"><defs><style>.a{fill:#fff;}</style></defs><path class="a" d="M40.48,78.72A38.24,38.24,0,1,1,78.72,40.48,38.28,38.28,0,0,1,40.48,78.72M40.48,0A40.48,40.48,0,1,0,81,40.48,40.53,40.53,0,0,0,40.48,0"/><path class="a" d="M58.47,41.59H56.22V37.08h2.25ZM48.36,56.2H37.11V31.5H48.36Zm-1.13-36h2.24v9H47.23ZM50.6,58.43h1.69a4.37,4.37,0,0,1,.56,2.26,4.33,4.33,0,0,1-.56,2.25H21.94a4.33,4.33,0,0,1-.56-2.25,4.48,4.48,0,0,1,.56-2.26h2.81V55.07h5.63v3.36H50.6ZM25.87,47.2h3.38v5.62H25.87ZM36,20.2h2.25v9H36Zm4.49,0H45v9H40.48Zm1.13-5.6h2.25V18H41.61Zm18,20.24H58.46V26.42c0-4.25,0-7.93-2.76-10.42s-4.38-2.47-9.19-2.47H46.1v0A1.12,1.12,0,0,0,45,12.36H40.49a1.12,1.12,0,0,0-1.12,1.12V18h-4.5a1.12,1.12,0,0,0-1.12,1.12V30.31a1.12,1.12,0,0,0,1.12,1.12h0V56.2H32.62V52.82H31.49V45H23.63v7.86H22.5V56.2H20.92l-.33.32a6.71,6.71,0,0,0,0,8.33l.33.33h7.21v3.38h2.24V65.18h7.87v3.38h2.24V65.18h7.88v3.38H50.6V65.18h2.71l.33-.33a6.67,6.67,0,0,0,0-8.33l-.33-.32H50.6V31.43a1.12,1.12,0,0,0,1.11-1.12V19.08A1.12,1.12,0,0,0,50.59,18H46.1V15.77h.41c4.73,0,5.58,0,7.69,1.89s2,4.74,2,8.76v8.42H55.1A1.12,1.12,0,0,0,54,36v6.75a1.12,1.12,0,0,0,1.12,1.12h4.5a1.12,1.12,0,0,0,1.12-1.12V36a1.12,1.12,0,0,0-1.12-1.12"/><path class="a" d="M27.49,58.39a1.18,1.18,0,1,0,1.17,1.17,1.17,1.17,0,0,0-1.17-1.17"/></svg>