<svg xmlns="http://www.w3.org/2000/svg" xmlns:xlink="http://www.w3.org/1999/xlink" viewBox="0 0 568.8 221.54"><defs><style>.a,.c,.d,.h,.i,.j,.k,.l,.m,.o{fill:none;}.b{clip-path:url(#a);}.c{stroke:#475a6c;}.c,.o{stroke-miterlimit:10;}.c,.d,.o{stroke-width:2px;}.d,.h,.j,.k,.l,.m,.o{stroke:#fff;}.d,.i,.j,.k,.l,.m{stroke-linecap:round;}.d,.h,.i,.j,.k,.l,.m{stroke-linejoin:round;}.e{fill:#263b4e;}.f{fill:#a2d9f1;}.g{fill:#00aadb;}.h,.i{stroke-width:3px;}.i{stroke:#c7e7f6;stroke-dasharray:1.73 5.18;}.j{stroke-width:2px;}.k{stroke-width:2px;}.l{stroke-width:2px;}.m{stroke-width:2px;}.n{fill:url(#b);}</style><clipPath id="a"><rect class="a" x="0.01" width="240.95" height="141.73"/></clipPath><pattern id="b" width="240.95" height="141.73" patternTransform="translate(11745.32 -10759.4) rotate(-45)" patternUnits="userSpaceOnUse" viewBox="0 0 240.95 141.73"><rect class="a" width="240.95" height="141.73"/><rect class="a" x="0.01" width="240.95" height="141.73"/><g class="b"><line class="c" x1="0.01" y1="127.56" x2="240.95" y2="127.56"/><line class="c" x1="0.01" y1="99.21" x2="240.95" y2="99.21"/><line class="c" x1="0.01" y1="70.86" x2="240.95" y2="70.86"/><line class="c" x1="0.01" y1="42.52" x2="240.95" y2="42.52"/><line class="c" x1="0.01" y1="14.17" x2="240.95" y2="14.17"/></g></pattern></defs><line class="d" x1="1" y1="181.09" x2="567.8" y2="181.09"/><path class="e" d="M340.72,174.33c0,.68-.77,1.24-1.72,1.24s-1.72-.56-1.72-1.24.77-1.24,1.72-1.24,1.72.55,1.72,1.24"/><path class="e" d="M308.71,172.44a.81.81,0,0,1-1.6-.26.8.8,0,0,1,.8-.68.88.88,0,0,1,.8.94"/><path class="f" d="M181.15,104.91c25.77-4.7,53.79-.4,68.26,1.11s49.72-2.83,64.19-3.54v78.25H181.15Z"/><path class="d" d="M310.44,92.49a1.81,1.81,0,1,0,0-3.62h-1.05V13.12h1.05a1.81,1.81,0,1,0,0-3.62H183a1.81,1.81,0,0,0,0,3.62h1V88.87h-1a1.81,1.81,0,0,0,0,3.62h1v3.62h-1a1.82,1.82,0,0,0,0,3.63h1v75.15h-1a1.81,1.81,0,0,0,0,3.62H310.44a1.81,1.81,0,0,0,0-3.62h-1.06V99.74h1.05a1.82,1.82,0,0,0,0-3.63h-1.05V92.49Z"/><polyline class="g" points="205.3 129.95 190.49 129.95 190.49 138.26"/><polyline class="d" points="205.3 129.95 190.49 129.95 190.49 138.26"/><rect class="g" x="187.06" y="148.68" width="43.08" height="9.37"/><rect class="d" x="187.06" y="148.68" width="43.08" height="9.37"/><rect class="g" x="188.61" y="139.31" width="39.99" height="9.37"/><rect class="d" x="188.61" y="139.31" width="39.99" height="9.37"/><polygon class="g" points="228.6 139.31 188.61 139.31 205.3 129.95 225.99 129.95 228.6 139.31"/><polygon class="d" points="228.6 139.31 188.61 139.31 205.3 129.95 225.99 129.95 228.6 139.31"/><polygon class="g" points="194.11 164.91 187.06 164.91 187.06 158.05 196.43 158.05 194.11 164.91"/><polygon class="d" points="194.11 164.91 187.06 164.91 187.06 158.05 196.43 158.05 194.11 164.91"/><polygon class="g" points="207.62 164.91 230.14 164.91 230.14 158.05 205.3 158.05 207.62 164.91"/><polygon class="d" points="207.62 164.91 230.14 164.91 230.14 158.05 205.3 158.05 207.62 164.91"/><rect class="g" x="205.3" y="109.27" width="20.69" height="20.67"/><rect class="d" x="205.3" y="109.27" width="20.69" height="20.67"/><rect class="g" x="205.3" y="102.92" width="23.3" height="6.35"/><rect class="d" x="205.3" y="102.92" width="23.3" height="6.35"/><rect class="g" x="190.49" y="102.92" width="14.81" height="27.02"/><rect class="d" x="190.49" y="102.92" width="14.81" height="27.02"/><line class="d" x1="188.61" y1="102.92" x2="205.3" y2="102.92"/><line class="d" x1="188.61" y1="106.78" x2="205.3" y2="106.78"/><line class="d" x1="188.61" y1="110.64" x2="205.3" y2="110.64"/><line class="d" x1="188.61" y1="114.5" x2="205.3" y2="114.5"/><line class="d" x1="188.61" y1="118.36" x2="205.3" y2="118.36"/><line class="d" x1="188.61" y1="122.22" x2="205.3" y2="122.22"/><line class="d" x1="188.61" y1="126.08" x2="205.3" y2="126.08"/><line class="d" x1="211.37" y1="164.91" x2="211.37" y2="161.48"/><line class="d" x1="215.12" y1="164.91" x2="215.12" y2="161.48"/><line class="d" x1="218.88" y1="164.91" x2="218.88" y2="161.48"/><line class="d" x1="222.63" y1="164.91" x2="222.63" y2="161.48"/><line class="d" x1="226.39" y1="164.91" x2="226.39" y2="161.48"/><path class="g" d="M219.11,102.92h-4.38l7.64-10.19a1.75,1.75,0,0,1,1.4-.7h4.83v3.48h-4Z"/><path class="d" d="M219.11,102.92h-4.38l7.64-10.19a1.75,1.75,0,0,1,1.4-.7h4.83v3.48h-4Z"/><rect class="g" x="190.49" y="97.48" width="8.4" height="5.45"/><rect class="d" x="190.49" y="97.48" width="8.4" height="5.45"/><path class="g" d="M196.26,85.66h-3.14A1.33,1.33,0,0,0,191.79,87v10.5h5.8V87a1.32,1.32,0,0,0-1.32-1.32h0"/><path class="d" d="M196.26,85.66h-3.14A1.33,1.33,0,0,0,191.79,87v10.5h5.8V87a1.32,1.32,0,0,0-1.32-1.32Z"/><rect class="g" x="192.9" y="55.76" width="3.29" height="29.9"/><rect class="d" x="192.91" y="55.76" width="3.29" height="29.9"/><rect class="g" x="189.58" y="66.4" width="10.21" height="4.93"/><rect class="d" x="189.58" y="66.4" width="10.22" height="4.93"/><polygon class="g" points="199.8 71.32 189.58 71.32 192.9 75.23 196.48 75.23 199.8 71.32"/><polygon class="d" points="199.8 71.32 189.58 71.32 192.9 75.23 196.48 75.23 199.8 71.32"/><path class="g" d="M198.17,66.4h-7V13.87a5.91,5.91,0,0,0-11.42-2.15l-6.59,16.9-6.47-2.53L173.27,9.2a12.87,12.87,0,0,1,24.86,4.67Z"/><path class="d" d="M198.17,66.4h-7V13.87a5.91,5.91,0,0,0-11.42-2.15l-6.59,16.9-6.47-2.53L173.27,9.2a12.87,12.87,0,0,1,24.86,4.67Z"/><line class="a" x1="191.21" y1="62.48" x2="199.8" y2="62.48"/><line class="d" x1="191.21" y1="62.48" x2="199.8" y2="62.48"/><line class="a" x1="191.21" y1="57.61" x2="199.8" y2="57.61"/><line class="d" x1="191.21" y1="57.61" x2="199.8" y2="57.61"/><line class="a" x1="191.21" y1="52.73" x2="199.8" y2="52.73"/><line class="d" x1="191.21" y1="52.73" x2="199.8" y2="52.73"/><line class="a" x1="191.21" y1="47.85" x2="199.8" y2="47.85"/><line class="d" x1="191.21" y1="47.85" x2="199.8" y2="47.85"/><line class="a" x1="191.21" y1="42.97" x2="199.8" y2="42.97"/><line class="d" x1="191.21" y1="42.97" x2="199.8" y2="42.97"/><rect class="g" x="206.98" y="94.17" width="3.24" height="8.75"/><rect class="d" x="206.98" y="94.17" width="3.24" height="8.75"/><path class="g" d="M258.23,119.5h-4.54a7,7,0,0,1-7-7V101.58a7,7,0,0,1,7-7h4.54a7,7,0,0,1,7,7v10.94a7,7,0,0,1-7,7"/><rect class="d" x="246.7" y="94.59" width="18.51" height="24.91" rx="6.99"/><path class="g" d="M250.13,113.49V100.61A2.58,2.58,0,0,1,252.71,98h6.49a2.57,2.57,0,0,1,2.58,2.56v12.9a2.57,2.57,0,0,1-2.56,2.58h-6.5a2.59,2.59,0,0,1-2.59-2.57h0"/><rect class="d" x="250.13" y="98.03" width="11.65" height="18.05" rx="2.59"/><rect class="g" x="253.42" y="87.73" width="5.07" height="6.87"/><rect class="d" x="253.42" y="87.73" width="5.07" height="6.87"/><path class="h" d="M256,87.73c0-33.21-47.4-41.56-47.4,6.25"/><line class="i" x1="155.94" y1="66.21" x2="141.93" y2="101.92"/><line class="i" x1="155.94" y1="66.21" x2="148.33" y2="101.92"/><line class="i" x1="155.94" y1="66.21" x2="153.76" y2="101.92"/><rect class="e" x="116.9" y="147.29" width="44.4" height="31.23"/><rect class="d" x="116.91" y="147.29" width="44.4" height="31.23"/><rect class="e" x="116.9" y="112.22" width="44.4" height="31.23"/><rect class="d" x="116.91" y="112.22" width="44.4" height="31.23"/><rect class="e" x="117.86" y="143.45" width="42.49" height="3.71"/><rect class="d" x="117.86" y="143.45" width="42.49" height="3.71"/><rect class="e" x="137.88" y="102.19" width="19.97" height="7.52"/><rect class="d" x="137.88" y="102.19" width="19.97" height="7.52"/><rect class="e" x="114.2" y="109.71" width="49.81" height="2.68"/><rect class="d" x="114.2" y="109.71" width="49.81" height="2.68"/><path class="d" d="M161.3,165.52v-2.33a8.76,8.76,0,0,0,8.74-8.74V130.64a8.75,8.75,0,0,0-8.74-8.74v-2.33a11.07,11.07,0,0,1,11.07,11.07v23.81A11.07,11.07,0,0,1,161.3,165.52Z"/><polygon class="e" points="116.91 175.49 61.08 135.55 64.69 130.01 116.91 157.03 116.91 175.49"/><polygon class="d" points="116.91 175.49 61.08 135.55 64.69 130.01 116.91 157.03 116.91 175.49"/><polygon class="e" points="61.08 135.55 41.19 140.15 60.87 109.95 64.69 130.01 61.08 135.55"/><polygon class="d" points="61.08 135.55 41.19 140.15 60.87 109.95 64.69 130.01 61.08 135.55"/><line class="a" x1="61.75" y1="114.57" x2="45.77" y2="139.09"/><line class="d" x1="61.75" y1="114.57" x2="45.77" y2="139.09"/><rect class="g" x="153.91" y="53.91" width="10.17" height="6.92" transform="translate(50.93 187.35) rotate(-70.1)"/><rect class="j" x="153.91" y="53.91" width="10.17" height="6.92" transform="translate(50.93 187.35) rotate(-70.1)"/><path class="g" d="M153.68,50l-.41,1.12a1.6,1.6,0,0,0,1,2l2.31.84L155,58.37l-2.31-.84a1.59,1.59,0,0,0-2,1l-.41,1.11-2.7-1L151,49.06Z"/><path class="d" d="M153.68,50l-.41,1.12a1.6,1.6,0,0,0,1,2l2.31.84L155,58.37l-2.31-.84a1.59,1.59,0,0,0-2,1l-.41,1.11-2.7-1L151,49.06Z"/><rect class="g" x="158.77" y="40.57" width="10.17" height="6.92" transform="translate(66.66 183.09) rotate(-70.09)"/><rect class="k" x="158.77" y="40.57" width="10.17" height="6.92" transform="translate(66.66 183.09) rotate(-70.09)"/><rect class="g" x="164.69" y="35.73" width="2.7" height="4.52" transform="translate(73.76 181.15) rotate(-70.08)"/><rect class="l" x="164.69" y="35.73" width="2.7" height="4.52" transform="translate(73.76 181.15) rotate(-70.08)"/><rect class="g" x="165.09" y="31.26" width="4.22" height="6.92" transform="translate(77.64 180.12) rotate(-70.1)"/><rect class="j" x="165.09" y="31.26" width="4.22" height="6.92" transform="translate(77.64 180.12) rotate(-70.1)"/><rect class="g" x="159.39" y="47.23" width="4.03" height="6.92" transform="translate(58.8 185.21) rotate(-70.1)"/><rect class="j" x="159.39" y="47.23" width="4.03" height="6.92" transform="translate(58.8 185.21) rotate(-70.1)"/><rect class="g" x="165.91" y="28.31" width="5.77" height="3.34" transform="translate(81.76 177.68) rotate(-69.56)"/><rect class="m" x="165.91" y="28.31" width="5.77" height="3.34" transform="translate(81.76 177.68) rotate(-69.56)"/><polygon class="n" points="567.8 221.54 1 221.54 1 188.44 567.8 188.44 567.8 221.54"/><path class="o" d="M401.88,160.8a3.25,3.25,0,0,1-2-1.47,16.2,16.2,0,0,1-1.36-3.18c-.27-.86-1-3.16.47-4.06,1.24-.77,2.85.33,4,1.22a12.84,12.84,0,0,1,2.51,2.59,3.27,3.27,0,0,1-1.06,4.51,3.21,3.21,0,0,1-1.47.49A3.31,3.31,0,0,1,401.88,160.8Z"/><path class="d" d="M411.16,179.81c1.1-5.34.09-13.26-1.47-20s-2.38-12.35,1.47-19.22"/><line class="d" x1="423.23" y1="180.59" x2="421.3" y2="176.07"/><line class="d" x1="427.17" y1="180.59" x2="425.98" y2="170.24"/><path class="d" d="M418.67,132.49a3.67,3.67,0,1,1-3.68-3.66h0A3.67,3.67,0,0,1,418.67,132.49Z"/><ellipse class="d" cx="415" cy="123.26" rx="3.08" ry="4.75"/><path class="d" d="M410.65,123.78c1.86,1.86,2.39,4.34,1.18,5.54s-3.68.68-5.54-1.18-2.39-4.34-1.18-5.54S408.79,122,410.65,123.78Z"/><ellipse class="d" cx="405.76" cy="132.49" rx="4.75" ry="3.08"/><path class="d" d="M406.29,136.84c1.86-1.85,4.34-2.38,5.54-1.18s.68,3.69-1.18,5.54-4.34,2.39-5.54,1.18S404.43,138.7,406.29,136.84Z"/><path class="d" d="M411.92,141.73c0-2.63,1.38-4.76,3.08-4.76s3.08,2.13,3.08,4.76-1.38,4.75-3.08,4.75S411.92,144.35,411.92,141.73Z"/><path class="d" d="M419.35,141.2c-1.86-1.85-2.39-4.34-1.18-5.54s3.68-.67,5.54,1.18,2.39,4.34,1.18,5.54S421.21,143.06,419.35,141.2Z"/><ellipse class="d" cx="424.23" cy="132.49" rx="4.75" ry="3.08"/><path class="d" d="M423.71,128.14c-1.86,1.86-4.34,2.39-5.54,1.18s-.68-3.68,1.18-5.54,4.34-2.38,5.54-1.18S425.57,126.29,423.71,128.14Z"/><line class="d" x1="351.68" y1="181.09" x2="355.46" y2="164.56"/><line class="d" x1="347.47" y1="181.09" x2="349.2" y2="170.61"/><line class="d" x1="344.77" y1="181.09" x2="343.8" y2="175.85"/></svg>