<svg xmlns="http://www.w3.org/2000/svg" viewBox="0 0 80.96 80.96"><defs><style>.a{fill:#fff;}</style></defs><path class="a" d="M40.48,78.72A38.24,38.24,0,1,1,78.72,40.48,38.28,38.28,0,0,1,40.48,78.72M40.48,0A40.48,40.48,0,1,0,81,40.48,40.53,40.53,0,0,0,40.48,0"/><path class="a" d="M63,48.33H56.22V46.07H63Zm-2.25,6.74c0,1.78-2.2,2.25-3.37,2.25H51.72V55.06h5.63a1.12,1.12,0,0,0,1.12-1.12V50.57h2.25ZM49.48,65.19H29.24V59.56H49.48ZM33.58,26.44a1.06,1.06,0,0,0,.16-.58V19.1H36V30.34H31.23Zm4.66-11.86h2.24v2.28H38.24ZM45,19.1v6.73a1.08,1.08,0,0,0,.16.58l2.35,3.93H42.72V19.1ZM30.12,50.57H48.61l.56,2.25H29.56Zm18.24-2.24h-18V32.58h18ZM38.24,19.1h2.24V30.34H38.24ZM49.48,57.32H29.25V54.08h0v1H49.48Zm10-25.86h.17l1,12.37H58.56Zm4.58,12.37H62.87l-1-13.57a1.12,1.12,0,0,0-1.12-1H58.47a1.13,1.13,0,0,0-1.12,1l-1,13.57H55.1A1.12,1.12,0,0,0,54,45v4.5a1.12,1.12,0,0,0,1.12,1.12h1.13v2.25H51.48l-.88-3.51V31.46h0a1,1,0,0,0-.08-.38.3.3,0,0,0,0-.1.36.36,0,0,0,0-.09l-3.21-5.37V18a1.12,1.12,0,0,0-1.12-1.12H42.72v-3.4a1.12,1.12,0,0,0-1.12-1.12H37.12A1.12,1.12,0,0,0,36,13.46v3.4H32.62A1.12,1.12,0,0,0,31.5,18v7.57l-3.21,5.34a.3.3,0,0,0,0,.1.2.2,0,0,0,0,.08,1.09,1.09,0,0,0-.08.39h0V49.3L27,53.67a1.24,1.24,0,0,0,0,.27V66.31a1.12,1.12,0,0,0,1.11,1.12H50.6a1.12,1.12,0,0,0,1.12-1.12V59.56h5.63C60.14,59.56,63,58,63,55.07v-4.5h1.13a1.12,1.12,0,0,0,1.12-1.12V45a1.12,1.12,0,0,0-1.12-1.12"/></svg>