<?xml version="1.0" encoding="utf-8"?>
<!-- Generator: Adobe Illustrator 26.0.0, SVG Export Plug-In . SVG Version: 6.00 Build 0)  -->
<svg version="1.1" id="Layer_1" xmlns="http://www.w3.org/2000/svg" xmlns:xlink="http://www.w3.org/1999/xlink" x="0px" y="0px"
	 viewBox="0 0 587.9 194.9" style="enable-background:new 0 0 587.9 194.9;" xml:space="preserve">
<style type="text/css">
	.st0{fill:none;}
	.st1{clip-path:url(#SVGID_00000078028104219908396400000011104937557908860563_);}
	.st2{fill:none;stroke:#475A6C;stroke-width:2;stroke-miterlimit:10;}
	.st3{fill:#00AADB;stroke:#FFFFFF;stroke-width:3;stroke-miterlimit:10;}
	.st4{fill:none;stroke:#FFFFFF;stroke-width:3;stroke-miterlimit:10;}
	.st5{fill:url(#SVGID_00000011749383181749931050000016255390858463616679_);}
	.st6{fill:none;stroke:#FFFFFF;stroke-width:2;stroke-miterlimit:10;}
	.st7{fill:#00AADB;stroke:#FFFFFF;stroke-width:2.3479;stroke-miterlimit:10;}
</style>
<pattern  y="194.9" width="241" height="141.7" patternUnits="userSpaceOnUse" id="SVGID_0000016738306393182080656" viewBox="0 -141.7 241 141.7" style="overflow:visible;">
	<g>
		<rect y="-141.7" class="st0" width="241" height="141.7"/>
		<g>
			<rect y="-141.7" class="st0" width="241" height="141.7"/>
			<g>
				<rect y="-141.7" class="st0" width="241" height="141.7"/>
				<rect y="-141.7" class="st0" width="240.9" height="141.7"/>
				<rect y="-141.7" class="st0" width="240.9" height="141.7"/>
				<rect y="-141.7" class="st0" width="240.9" height="141.7"/>
				<g>
					<g>
						<g>
							<defs>
								<rect id="SVGID_1_" y="-141.7" width="240.9" height="141.7"/>
							</defs>
							<clipPath id="SVGID_00000155841374232308720850000008461787338237177484_">
								<use xlink:href="#SVGID_1_"  style="overflow:visible;"/>
							</clipPath>
							<g style="clip-path:url(#SVGID_00000155841374232308720850000008461787338237177484_);">
								<line class="st2" x1="0" y1="-14.2" x2="241" y2="-14.2"/>
								<line class="st2" x1="0" y1="-42.5" x2="241" y2="-42.5"/>
								<line class="st2" x1="0" y1="-70.9" x2="241" y2="-70.9"/>
								<line class="st2" x1="0" y1="-99.2" x2="241" y2="-99.2"/>
								<line class="st2" x1="0" y1="-127.6" x2="241" y2="-127.6"/>
							</g>
						</g>
					</g>
				</g>
			</g>
		</g>
	</g>
</pattern>
<path class="st3" d="M208.7,151.9v1.8H242v-5.6h-7.7l-14.5-19.6h101.5v10.3l-4.4,9.3h-5.5v5.8h25.4v-5.8h-5.1l-4.4-9.4v-10.3h6.9v8
	l34.9,0.1l10.3-6.5V41.3L369,34.8h-31.2V23.3h1.9V2.4l-7.1-0.9h-29.2l-58,7.4v14.4h1.8v19.5h-31v-23 M247.2,100.8l-31,9.5V91h31
	V100.8z M247.2,80.3h-31V60.9l31,9.5V80.3z"/>
<line class="st4" x1="334.2" y1="136.4" x2="336.4" y2="136.4"/>
<line class="st4" x1="336.4" y1="34.8" x2="334.2" y2="34.8"/>
<line class="st4" x1="242.1" y1="153.8" x2="242.1" y2="148"/>
<line class="st4" x1="247.2" y1="128.4" x2="334.2" y2="128.4"/>
<line class="st4" x1="334.2" y1="51.2" x2="247.2" y2="51.2"/>
<path class="st4" d="M336.8,150.2c-0.1-1.2-1-2.1-2.2-2.1"/>
<path class="st4" d="M313.5,148.1c-1.2,0-2.2,1-2.2,2.2l0,0"/>
<line class="st4" x1="336.8" y1="153.8" x2="336.8" y2="150.2"/>
<line class="st4" x1="311.4" y1="150.2" x2="311.4" y2="153.8"/>
<line class="st4" x1="327.3" y1="138.5" x2="327.3" y2="128.4"/>
<line class="st4" x1="247.2" y1="80.2" x2="216.2" y2="80.2"/>
<line class="st4" x1="216.2" y1="91" x2="247.2" y2="91"/>
<line class="st4" x1="369" y1="136.4" x2="379.2" y2="129.8"/>
<line class="st4" x1="379.2" y1="41.3" x2="369" y2="34.8"/>
<line class="st4" x1="336.4" y1="136.4" x2="369" y2="136.4"/>
<line class="st4" x1="369" y1="34.8" x2="336.4" y2="34.8"/>
<line class="st4" x1="213.1" y1="123.3" x2="208.7" y2="123.3"/>
<line class="st4" x1="234.5" y1="148" x2="216.2" y2="123.3"/>
<line class="st4" x1="215.1" y1="153.8" x2="208.7" y2="153.8"/>
<line class="st4" x1="208.7" y1="123.3" x2="208.7" y2="153.8"/>
<line class="st4" x1="334.2" y1="34.8" x2="334.2" y2="136.4"/>
<polyline class="st4" points="242.1,148 242.1,148 241.8,148 241.3,148 240.8,148 240.2,148 235.9,148 234.5,148 "/>
<polyline class="st4" points="242.1,153.8 242.1,153.8 241.8,153.8 241.3,153.8 240.8,153.8 240.2,153.8 235.9,153.8 234.8,153.8 
	233.7,153.8 232.5,153.8 231.7,153.8 "/>
<line class="st4" x1="215.1" y1="153.8" x2="231.7" y2="153.8"/>
<line class="st4" x1="334.6" y1="148" x2="313.5" y2="148"/>
<line class="st4" x1="336.8" y1="153.8" x2="311.4" y2="153.8"/>
<line class="st4" x1="326.2" y1="23.4" x2="323.7" y2="23.4"/>
<path class="st4" d="M245.7,8.8c-0.2,0-0.3,0.2-0.3,0.4"/>
<line class="st4" x1="245.7" y1="8.8" x2="248.9" y2="8.4"/>
<line class="st4" x1="245.3" y1="23.4" x2="245.3" y2="9.2"/>
<line class="st4" x1="249" y1="23.4" x2="245.3" y2="23.4"/>
<line class="st4" x1="323.7" y1="23.4" x2="249" y2="23.4"/>
<line class="st4" x1="248.9" y1="8.4" x2="288.1" y2="3.5"/>
<path class="st4" d="M288.1,3.5L288.1,3.5"/>
<line class="st4" x1="288.1" y1="3.5" x2="303.4" y2="1.6"/>
<line class="st4" x1="303.4" y1="1.6" x2="332.4" y2="1.6"/>
<line class="st4" x1="339.2" y1="2.3" x2="332.4" y2="1.6"/>
<line class="st4" x1="338.6" y1="23.4" x2="326.2" y2="23.4"/>
<polyline class="st4" points="339.2,2.3 339.2,2.3 339.2,2.3 339.2,2.3 "/>
<path class="st4" d="M339.2,2.3L339.2,2.3"/>
<line class="st4" x1="339.7" y1="2.7" x2="339.7" y2="23.4"/>
<line class="st4" x1="339.7" y1="23.4" x2="338.6" y2="23.4"/>
<line class="st4" x1="339.2" y1="2.3" x2="339.3" y2="2.4"/>
<path class="st4" d="M339.7,2.7c0-0.2-0.1-0.3-0.3-0.4"/>
<line class="st4" x1="337.8" y1="32.6" x2="336.8" y2="32.6"/>
<line class="st4" x1="337.8" y1="32.6" x2="337.8" y2="34.8"/>
<line class="st4" x1="247.2" y1="32.6" x2="247.2" y2="128.4"/>
<polyline class="st4" points="327.3,59.2 325.4,59.2 310.3,59.2 291.2,59.2 266.6,59.2 254.1,59.2 "/>
<polyline class="st4" points="327.3,71.3 325.4,71.3 310.3,71.3 291.2,71.3 266.6,71.3 254.1,71.3 "/>
<polyline class="st4" points="327.3,83.4 325.4,83.4 310.3,83.4 291.2,83.4 266.6,83.4 254.1,83.4 "/>
<polyline class="st4" points="327.3,95.4 325.4,95.4 310.3,95.4 291.2,95.4 266.6,95.4 254.1,95.4 "/>
<polyline class="st4" points="327.3,107.5 325.4,107.5 310.3,107.5 291.2,107.5 266.6,107.5 254.1,107.5 "/>
<polyline class="st4" points="327.3,119.6 325.4,119.6 310.3,119.6 291.2,119.6 266.6,119.6 254.1,119.6 "/>
<line class="st4" x1="327.3" y1="138.5" x2="331.7" y2="148"/>
<line class="st4" x1="321.3" y1="138.5" x2="321.3" y2="128.4"/>
<line class="st4" x1="321.3" y1="138.5" x2="316.9" y2="148"/>
<line class="st4" x1="305.2" y1="51.2" x2="305.2" y2="32.2"/>
<path class="st4" d="M261.7,41.7c0-3.2,2.6-5.8,5.8-5.8s5.8,2.6,5.8,5.8s-2.6,5.8-5.8,5.8C264.3,47.5,261.7,44.9,261.7,41.7
	L261.7,41.7z"/>
<path class="st4" d="M281.3,41.7c0-3.2,2.6-5.8,5.8-5.8s5.8,2.6,5.8,5.8s-2.6,5.8-5.8,5.8l0,0l0,0C283.9,47.5,281.3,44.9,281.3,41.7
	L281.3,41.7L281.3,41.7z"/>
<polyline class="st4" points="379.2,85.6 379.2,92.1 379.2,98.4 379.2,104.5 379.2,110.2 379.2,115.3 379.2,119.8 379.2,123.6 
	379.2,126.5 379.2,128.5 379.2,129.6 379.2,129.7 "/>
<polyline class="st4" points="379.2,85.6 379.2,54.3 379.2,41.9 379.2,41.7 379.2,41.5 379.2,41.4 379.2,41.4 "/>
<line class="st4" x1="369" y1="136.4" x2="369" y2="34.8"/>
<line class="st4" x1="339.7" y1="2.7" x2="339.5" y2="2.7"/>
<line class="st4" x1="208.7" y1="19.6" x2="208.7" y2="152"/>
<rect x="208.7" y="19.6" class="st3" width="7.4" height="103.8"/>
<rect x="247.2" y="23.4" class="st4" width="90.7" height="8.9"/>
<line class="st4" x1="247.2" y1="70.4" x2="216.2" y2="60.9"/>
<line class="st4" x1="247.2" y1="100.8" x2="216.2" y2="110.3"/>
<line class="st4" x1="247.2" y1="42.8" x2="216.2" y2="42.8"/>
<line class="st4" x1="247.2" y1="128.4" x2="219.6" y2="128.4"/>
<pattern  id="SVGID_00000139283459128107128500000004719004272155490190_" xlink:href="#SVGID_0000016738306393182080656" patternTransform="matrix(0.71 -0.71 0.71 0.71 11441.0986 -7276.0562)">
</pattern>
<polygon style="fill:url(#SVGID_00000139283459128107128500000004719004272155490190_);" points="0,161.7 0,194.9 587.9,194.9 
	587.9,161.7 "/>
<line class="st6" x1="0" y1="155.5" x2="587.9" y2="155.5"/>
<rect x="159.6" y="80.2" class="st7" width="49" height="10.9"/>
<rect x="159.6" y="78" class="st7" width="36.4" height="15.3"/>
</svg>
