<svg xmlns="http://www.w3.org/2000/svg" viewBox="0 0 80.96 80.96"><defs><style>.a{fill:#fff;}</style></defs><path class="a" d="M40.48,78.72A38.24,38.24,0,1,1,78.72,40.48,38.28,38.28,0,0,1,40.48,78.72M40.48,0A40.48,40.48,0,1,0,81,40.48,40.53,40.53,0,0,0,40.48,0"/><path class="a" d="M67.54,42.78c0,2.71-1.64,5.58-4.68,5.58H59.57V32.58h3.29c3,0,4.68,2.87,4.68,5.58Zm-27,3.29H57.33v2.25H40.51ZM33.8,41.58h4.47v5.81L33.8,48.67ZM14.64,47.31V41.59H31.51v9.17Zm0-14.88L31.51,29V39.35H14.64Zm23.63,1.9v5H33.8V32.58Zm4.4-8.49H55.08v4.47H42.67Zm14.66,9H40.51V32.55H57.33ZM40.51,37.08H57.33v2.26H40.51Zm0,4.5H57.33v2.25H40.51ZM62.86,30.34H58.61a.9.9,0,0,0-.16,0H57.32V28.09h2.25V25.84H57.32V24.72A1.12,1.12,0,0,0,56.2,23.6H41.55a1.12,1.12,0,0,0-1.12,1.12v5.59h-1a1.12,1.12,0,0,0-1.12,1.12v.5L33.8,30.18V25.84H31.56v.84L13.29,30.42a1.12,1.12,0,0,0-.89,1.1v7.83H10.11v2.24H12.4v6.63a1.12,1.12,0,0,0,.89,1.1l18.27,3.74v3.07a1.12,1.12,0,0,0,1.12,1.12h5.58V55H33.8V51l4.52-1.3a1.1,1.1,0,0,0,1.07.86H55.08v4.49H52.87v2.24h6.7V55.05H57.32V50.56H58.4v0h4.46c4.33,0,6.92-4,6.92-7.82V38.16c0-3.85-2.59-7.82-6.92-7.82"/></svg>