<svg xmlns="http://www.w3.org/2000/svg" xmlns:xlink="http://www.w3.org/1999/xlink" viewBox="0 0 594.24 258"><defs><style>.a,.c,.i,.k{fill:none;}.b{clip-path:url(#a);}.c{stroke:#475a6c;stroke-width:2px;}.c,.g,.h{stroke-miterlimit:10;}.d{fill:url(#b);}.e{fill:#fff;}.f{fill:#b1dff3;}.g{fill:#273a4e;stroke-width:2.72px;}.g,.h,.j{stroke:#fff;}.h,.j{fill:#00aadc;}.i,.k{stroke:#00aadc;}.i,.j{stroke-linecap:round;}.i,.j,.k{stroke-linejoin:round;}.i{stroke-width:3px;}.j{stroke-width:3.25px;}.k{stroke-width:8px;}</style><clipPath id="a"><rect class="a" x="0.01" width="240.95" height="141.73"/></clipPath><pattern id="b" width="240.95" height="141.73" patternTransform="translate(11757.08 -10833.11) rotate(-45)" patternUnits="userSpaceOnUse" viewBox="0 0 240.95 141.73"><rect class="a" width="240.95" height="141.73"/><rect class="a" x="0.01" width="240.95" height="141.73"/><g class="b"><line class="c" x1="0.01" y1="127.56" x2="240.95" y2="127.56"/><line class="c" x1="0.01" y1="99.21" x2="240.95" y2="99.21"/><line class="c" x1="0.01" y1="70.86" x2="240.95" y2="70.86"/><line class="c" x1="0.01" y1="42.52" x2="240.95" y2="42.52"/><line class="c" x1="0.01" y1="14.17" x2="240.95" y2="14.17"/></g></pattern></defs><rect class="d" y="143.97" width="416.49" height="114.03"/><rect class="d" x="460.77" y="142.33" width="133.48" height="115.67"/><path class="e" d="M594.24,137.54l-2.64,0H456.26l-3.19,0a13.39,13.39,0,0,0-.28,1.48c0,.71,0,1.43,0,2.15q0,56.52,0,113a7.44,7.44,0,0,1-.26,3.26c-.79.71-1.71.52-2.57.52H427.15c-.48,0-1,0-1.44,0-1.06-.08-1.44-.45-1.5-1.47s0-1.76,0-2.64v-116a9.43,9.43,0,0,0-1.43-.32c-.8-.05-1.6,0-2.4,0H338.28c-.8,0-1.6,0-2.4,0-1.07-.06-1.34-.3-1.65-1.38a11.63,11.63,0,0,0-.26-1.17,4.43,4.43,0,0,0-3.9-3.07c-.79-.07-1.59,0-2.57,0,.11.51.16.88.27,1.22A30,30,0,0,1,329,143.48c-.21,5.64-1.51,11.07-2.87,16.51-.77,3.1-1.44,6.22-2.19,9.33a8.36,8.36,0,0,1-.68,2,2.05,2.05,0,0,1-3.08.75,4.48,4.48,0,0,1-1.87-3c-.53-2.34-1-4.68-1.55-7a163.51,163.51,0,0,1-2.74-16.3c-.36-3.09-.54-6.21-.68-9.32a39,39,0,0,1,.31-4.43,3.22,3.22,0,0,0-2.81.16,4.4,4.4,0,0,0-2.41,2.54,8.89,8.89,0,0,0-.27,1.16c-.31,1.26-.55,1.52-1.74,1.55-1.52,0-3,0-4.56,0-.93,0-1.19-.33-1.44-1.3-.08-.3-.09-.63-.18-.94-.78-2.53-2.74-3.64-5.63-3.13.89,4.73-.14,9.37-1,14-.9,5.19-2.09,10.34-3.16,15.5-.1.47-.2.94-.34,1.4a2.59,2.59,0,0,1-2.77,2.15,2.62,2.62,0,0,1-2.73-2.23c-1-3.61-2-7.23-3.06-10.84a43.89,43.89,0,0,1-1.88-12.51,32.53,32.53,0,0,1,.2-3.83c.16-1.18.5-2.33.76-3.49-2.91-1-5.31.13-6.23,2.93a5.66,5.66,0,0,1-.73,2c-.56.64-1.5.35-2.29.37q-1.44,0-2.88,0c-1.51-.06-1.82-.26-2.09-1.73a4.78,4.78,0,0,0-1.4-2.71,4.5,4.5,0,0,0-4.19-1.13c-.09.15-.25.29-.23.4a15.29,15.29,0,0,1-.28,6.17c-1.84,9.74-3.6,19.49-5.41,29.24a9,9,0,0,1-.57,2.06,1.19,1.19,0,0,1-1,.49,1.3,1.3,0,0,1-.91-.6,5.83,5.83,0,0,1-.45-1.61q-2-10.72-4-21.45c-.58-3.15-1.18-6.28-1.75-9.43a14.39,14.39,0,0,1-.29-2.61,18.23,18.23,0,0,1,.31-2.54,4.52,4.52,0,0,0-5.69,2.9c-.15.45-.17.94-.28,1.41a1.34,1.34,0,0,1-1.37,1.11c-1.6,0-3.2.05-4.8,0-1,0-1.26-.35-1.51-1.24-.08-.31-.08-.64-.18-.94-.8-2.69-2.82-3.8-5.78-3.15.94,4.41,0,8.74-.8,13-1.21,6.61-2.7,13.15-4.08,19.72a7,7,0,0,1-.37,1.38,1.88,1.88,0,0,1-1.87,1.25,1.83,1.83,0,0,1-1.89-1.19,10.94,10.94,0,0,1-.41-1.38c-1.88-7.44-3.48-14.94-4.61-22.54-.24-1.58-.36-3.18-.52-4.77a14.67,14.67,0,0,1,.39-5.44c-2.77-.77-4.86.28-5.79,2.77-.27.73,0,1.67-.79,2.19s-1.86.3-2.8.34-1.92,0-2.88,0a1.48,1.48,0,0,1-1.52-1.27c-.08-.31-.06-.64-.15-.95a4.37,4.37,0,0,0-4.12-3.4c-.87,0-1.74,0-2.44,0-.57.5-.3.88-.21,1.24a7.92,7.92,0,0,1,0,3.56q-1.89,10.13-3.75,20.27a11.08,11.08,0,0,1-.4,1.63,2.57,2.57,0,0,1-4.95-.16c-.16-.53-.26-1.08-.37-1.63-1.25-6.76-2.48-13.52-3.75-20.28a7.91,7.91,0,0,1,.3-4.21c-2.85-1-5.32.27-6.09,2.92-.68,2.31-.68,2.32-3,2.32H138.31c-.22.69-.42,1.28-.6,1.88-1.94,6.31-7.83,11.24-16.45,10.16a14.73,14.73,0,0,1-10.9-9.51c-.14-.37-.23-.76-.35-1.15s-.22-.75-.35-1.17a7.39,7.39,0,0,0-1-.19c-.55,0-1.11,0-1.67,0H1.92l-1.92,0v-2.41c1,0,2.08,0,3.12,0H106.06c1,0,2.06,0,3.09-.05a3.83,3.83,0,0,0,.47-2.62c0-4.4,0-8.8,0-13.2,0-.56,0-1.12,0-1.68,0-2.31.21-2.49,2.43-2.52,1.52,0,3,0,4.56,0,.54,0,1.08-.09,1.75-.16.05-.73.1-1.35.11-2,0-1,0-2.09,0-3.12,0-1.22.37-2,1.8-2.11.07-.58.16-1.12.2-1.67s0-1,0-1.44q0-35.14,0-70.31c0-1,0-1.9,0-2.76a6.05,6.05,0,0,1-1.65-1.11,3,3,0,0,1-.29-1.61c0-2.32,0-4.63,0-6.94-.37-.23-.63-.4-.9-.55a4.82,4.82,0,0,1-2.67-4.5c0-4.08,0-8.16,0-12.24a9.88,9.88,0,0,1,.32-1.73,15.48,15.48,0,0,1,1.92-.24c4.48,0,9,0,13.44,0a7.71,7.71,0,0,1,1,0c.85.1,1.23.5,1.31,1.42,0,.56,0,1.12,0,1.68,0,3.28-.1,6.57,0,9.84.12,2.86-.69,5.05-3.47,6.13a12.27,12.27,0,0,0-.22,3.65q-.06,1.8,0,3.6c0,1.27-.23,2.27-1.66,2.21a4.29,4.29,0,0,0-.22.37.63.63,0,0,0-.07.22l-.06,74.15c0,.48,0,1,.07,1.54a4.54,4.54,0,0,0,.81.36,1.29,1.29,0,0,1,1.1,1.35c0,1,0,1.92,0,2.88v2.73a9,9,0,0,0,1.47.29c1.36,0,2.72,0,4.08,0,.56,0,1.12,0,1.68,0,1.32.09,1.71.47,1.79,1.74,0,.56,0,1.12,0,1.68,0,4.64,0,9.28,0,13.92,0,.79,0,1.57.07,2.48a9.79,9.79,0,0,0,1.45.23q14.64,0,29.27,0c.39,0,.78-.06,1.21-.09.19-.41.38-.75.53-1.12,1.18-2.94,3.48-4.25,6.52-4.45a19.22,19.22,0,0,1,2.4,0,5.48,5.48,0,0,0,3.83-1.28c-.22-.72-.42-1.4-.64-2.08-1.17-3.57-2.36-7.13-3.53-10.7a8.22,8.22,0,0,1-.39-1.61,1,1,0,0,1,.8-1,1.34,1.34,0,0,1,1.05.34,3.63,3.63,0,0,1,.65,1.25c.63,1.81,1.23,3.64,1.85,5.45.12.36.28.71.42,1.06.6-.14.38-.54.38-.79,0-3.36,0-6.72,0-10.08a13.28,13.28,0,0,1,.13-1.9,1,1,0,0,1,1.08-.74,1.43,1.43,0,0,1,.88.67,6.24,6.24,0,0,1,.23,1.89c0,2.64,0,5.28,0,7.91,0,.61.09,1.22.14,1.87.72-.2.71-.76.84-1.16.68-2,1.31-4.12,2-6.17a5.58,5.58,0,0,1,.68-1.51,1.34,1.34,0,0,1,1-.4.93.93,0,0,1,.85,1,7.11,7.11,0,0,1-.35,1.62c-1.21,3.89-2.44,7.77-3.66,11.67-.35,1.13-.67,2.27-1,3.42a5.47,5.47,0,0,0,3.86,1.32c.88,0,1.76,0,2.64,0,3.45,0,6,1.38,7.3,4.74a5.73,5.73,0,0,0,.46.84h2.9l.59-1.36a7,7,0,0,1,6-4.19,2.42,2.42,0,0,1,.71,0c2.38.38,4.35-.59,6.37-2-.22-.93-.43-1.93-.68-2.92-.47-1.86-1-3.71-1.45-5.57a5.28,5.28,0,0,1-.19-1.18,1,1,0,0,1,.82-1,1,1,0,0,1,1.22.52c.2.42.31.9.48,1.34a1.24,1.24,0,0,0,.66.74c.07-1.95.13-3.9.21-5.86.05-1.27.12-2.55.2-3.83a4.3,4.3,0,0,1,.16-.94,1.05,1.05,0,0,1,1.07-.78,1,1,0,0,1,1,.86,15.24,15.24,0,0,1,.06,1.91c0,1.28,0,2.55,0,4.27.35-.93.54-1.5.78-2a1.11,1.11,0,0,1,1.38-.63,1.05,1.05,0,0,1,.7,1.14,17.23,17.23,0,0,1-.34,1.88q-1.22,5-2.44,10c-.16.69-.25,1.4-.37,2.06,1.14.62,2.17,1.22,3.23,1.75a3,3,0,0,0,1.16.24c.72,0,1.44,0,2.16,0,3.26.07,5.67,1.45,6.95,4.55.12.29.24.59.39.93a8,8,0,0,0,2.92.15c.21-.41.44-.81.63-1.23a7,7,0,0,1,5.86-4.34,3.46,3.46,0,0,1,1-.05,8,8,0,0,0,6.09-1.89,12.14,12.14,0,0,0-.45-1.27c-.9-2-1.83-3.91-2.74-5.86-.31-.65-.62-1.3-.89-2a1.16,1.16,0,0,1,1.84-1.38,12.51,12.51,0,0,1,.85,1c-.09-.91-.1-1.44-.19-2-.38-2-.79-3.92-1.16-5.88a12.27,12.27,0,0,1-.21-1.9,1,1,0,0,1,.79-1.05,1.11,1.11,0,0,1,1.33.74c.19.61.31,1.24.44,1.87a16.6,16.6,0,0,0,.84,3,11,11,0,0,1,.16-1.15c.18-.84.62-1.23,1.24-1.19s1,.51,1.08,1.38c.07.71.07,1.43.07,2.15,0,1.92,0,3.83,0,5.76.64,0,.67-.44.78-.77.3-.91.56-1.84.86-2.75a4.06,4.06,0,0,1,.51-1.07.93.93,0,0,1,1.28-.26,1.33,1.33,0,0,1,.63.9,7.13,7.13,0,0,1-.41,1.86c-.79,2.6-1.61,5.19-2.4,7.79-.18.6-.3,1.22-.48,1.93a36,36,0,0,0,3.15,1.77,6.07,6.07,0,0,0,1.88.2c1,.08,2.09.06,3.1.24a6.49,6.49,0,0,1,4.89,3.83c.24.5.46,1,.7,1.51h2.94l.59-1.35a6.69,6.69,0,0,1,5.26-4.07,6.25,6.25,0,0,1,1.66-.14,7.64,7.64,0,0,0,6.15-1.94,11.56,11.56,0,0,0-.21-1.66q-1.86-7.32-3.76-14.63a9.67,9.67,0,0,1-.29-1.4,1.05,1.05,0,0,1,.74-1.11,1.08,1.08,0,0,1,1.38.63c.27.74.5,1.51.7,2.28.69,2.63,1.35,5.27,2,7.9A3,3,0,0,0,287,121c.32-2.68.64-5.35.95-8,.16-1.35.31-2.7.48-4a1.92,1.92,0,0,1,.24-.91,1.73,1.73,0,0,1,.93-.63,1,1,0,0,1,1.08.77,1.48,1.48,0,0,1,.08.69c-.34,2.94-.69,5.88-1,8.82,0,.07,0,.14.07.2s.05.07.07.11l-.16-.35c.21-.07.52-.08.61-.22.31-.56.53-1.17.83-1.73a1.14,1.14,0,0,1,1.38-.65,1.25,1.25,0,0,1,.71,1.58c-.16.54-.39,1.06-.59,1.58q-1.5,3.91-3,7.83c-.16.44-.3.89-.48,1.44,1.06.6,2.07,1.21,3.12,1.72a3.77,3.77,0,0,0,1.39.25c.72,0,1.45,0,2.16,0a7,7,0,0,1,6.5,4.51c.12.29.23.59.37.94a6.11,6.11,0,0,0,3.07.09c.21-.46.39-.9.59-1.33a6.82,6.82,0,0,1,5.5-4.11,4,4,0,0,1,1.19-.09c2.32.35,4.14-.74,6-2L317,119.31c-.69-2.63-1.39-5.25-2.07-7.88a11.41,11.41,0,0,1-.3-1.65,1,1,0,0,1,.74-1.1,1.08,1.08,0,0,1,1.37.63,21.21,21.21,0,0,1,.62,2.06c.83,3.17,1.65,6.33,2.49,9.53.72-.17.59-.72.64-1.12.39-3.41.74-6.83,1.13-10.25a4.78,4.78,0,0,1,.41-1.6,1.35,1.35,0,0,1,.94-.57.9.9,0,0,1,1,.83,10.94,10.94,0,0,1-.06,2.14c-.23,2.07-.5,4.13-.73,6.2a10.54,10.54,0,0,0,0,1.27c.83-.44.78-1.27,1.12-1.86.51-.88,1.06-1.21,1.68-.88s.78.85.49,1.67c-.64,1.8-1.34,3.59-2,5.38-.51,1.35-1.06,2.68-1.55,4a9.74,9.74,0,0,0-.31,1.39c.75.45,1.47.8,2.1,1.27a3.09,3.09,0,0,0,2,.6c.8,0,1.6,0,2.4,0,3.35.06,5.86,1.4,7.11,4.67a9.58,9.58,0,0,0,.51,1l11.68,0h11.76c3.9,0,7.8,0,11.54,0a4,4,0,0,0,.51-2.57c0-1,0-2.08.05-3.12s.46-1.43,1.5-1.47c1.52,0,3,0,4.56,0,.79,0,1.58-.06,2.48-.09a8.36,8.36,0,0,0,0-1.24c-.72-4.74-1.46-9.48-2.17-14.22a5.48,5.48,0,0,0-1.28-2.77,22.44,22.44,0,0,1-5.1-16.06,5.94,5.94,0,0,1,.15-.94,2.5,2.5,0,0,1,.24-.45,5.14,5.14,0,0,1,2.8-.3q14.63,0,29.27,0H416c.64,0,1.28,0,1.92.07a1.11,1.11,0,0,1,1,.91A4.69,4.69,0,0,1,419,94a22.66,22.66,0,0,1-4.89,15.2,8,8,0,0,0-1.73,4.1c-.54,3.72-1.16,7.42-1.72,11.14-.16,1-.25,2-.37,3,.35.17.55.36.75.36q6.36,0,12.69,0c.83-.91.15-2.1.79-3.14.79-.72,2.1-.08,3.19-.81.05-.62.14-1.32.16-2,0-1.36.06-2.72,0-4.07a2.14,2.14,0,0,1,1.76-2.51c.06-.69.16-1.31.16-1.94q0-18.12,0-36.24c0-.63-.07-1.26-.11-1.85-.18-.17-.28-.34-.42-.37-1.08-.22-1.33-1-1.38-2a3.73,3.73,0,0,0-.45-2.43c-.71,0-1.49-.1-2.28-.1-1.14,0-1.84-.5-1.85-1.7a9.68,9.68,0,0,0-.16-1,54.11,54.11,0,0,0-7.19-.17c-2.48,0-5,0-7.44,0h-7.29a7.87,7.87,0,0,0-.34,1.43c-.05,1.44,0,2.88-.05,4.32,0,1-.44,1.47-1.48,1.49q-3.84.06-7.68,0a1.22,1.22,0,0,1-1.35-1.36,50.31,50.31,0,0,1,.09-7,10.88,10.88,0,0,1,10.17-9.54c.79-.07,1.59-.06,2.39-.06h17.76c.78,0,1.57-.06,2.3-.09.58-2.68.58-2.67,3.31-2.79a7.46,7.46,0,0,0,1-.1c.07,0,.13-.09.4-.29.4-1.53.13-3.29.18-5s0-3.52,0-5.28.23-3.48-.28-5.3c-.87-.07-1.66-.1-2.44-.2a1,1,0,0,1-.91-.95c0-1.2-.06-2.4,0-3.6a1.19,1.19,0,0,1,1.17-1.27,15.72,15.72,0,0,1,1.68-.06H437a6.12,6.12,0,0,0,.3-1.22q0-8.88,0-17.76a3.14,3.14,0,0,0-.12-.58c-.49-.27-1-.55-1.59-.88a5.72,5.72,0,0,1-2.42-7.09A5.59,5.59,0,0,1,439.78,1a7.18,7.18,0,0,0,3.51-.09c8.41-2,16.22-.66,23.17,4.6a27.61,27.61,0,0,1,7.75,9.35,5.93,5.93,0,0,0,2.2,2.41,5.56,5.56,0,0,1,2.06,7.53,4.93,4.93,0,0,0-.53,3,47.52,47.52,0,0,1-.52,12.43c-1.06,7.22-3.21,14.17-5.26,21.15a106.35,106.35,0,0,0-2.89,10.88c-2.21,12.38.67,23.48,9,33a35,35,0,0,0,3.33,3.1,3.64,3.64,0,0,1,1.35,1.92,3.2,3.2,0,0,1-4.62,3.62,8.51,8.51,0,0,1-1.73-1.28,42.68,42.68,0,0,1-11-15.23,45.07,45.07,0,0,1-3.32-22.07,62.8,62.8,0,0,1,2.58-12.17c1.64-5.6,3.29-11.2,4.77-16.84a55.1,55.1,0,0,0,2-15.18c0-1.18-.16-2.37-.27-3.74a5.18,5.18,0,0,0-1.45.31c-2.79,1.56-5.56,3.17-8.33,4.76-2.42,1.4-4.86,2.78-7.26,4.22a6.25,6.25,0,0,1-4,1.21,2.31,2.31,0,0,0-.67.15,3.17,3.17,0,0,0-.42,2.33c0,3.75,0,7.51,0,11.27V70.8c0,.64,0,1.28,0,1.92-.08,1.45-.09,1.45-1.72,2.42a15.38,15.38,0,0,0-.17,1.78q0,18.24,0,36.47c0,.56.07,1.11.11,1.58.18.19.26.36.39.4a2,2,0,0,1,1.41,2.24c0,1.44,0,2.88,0,4.32a3.14,3.14,0,0,0,.42,2.16l3.05.49.34,2.89c.53.58,1.21.4,1.82.4,4.08,0,8.16,0,12.24,0,2.92,0,3,.09,3,2.91a21.56,21.56,0,0,0,.16,4.14c.47,0,.85.13,1.23.14.88,0,1.76,0,2.64,0H591.12c1,0,2.08,0,3.12,0Zm-215.95-43c.08.78.11,1.56.23,2.33.56,3.63,1.2,7.25,1.68,10.89A4.62,4.62,0,0,0,382,111a21.21,21.21,0,0,0,15.4,4.78,20.64,20.64,0,0,0,12.15-5.15,3.44,3.44,0,0,0,1.28-2.2c.57-4,1.23-7.89,1.82-11.84a15.43,15.43,0,0,0,0-2.16,7.64,7.64,0,0,0-1-.22c-.64,0-1.28-.05-1.92-.05H381.24A5.65,5.65,0,0,0,378.29,94.53Zm61.57-82.36a4.25,4.25,0,0,0-.17.72q0,8.87,0,17.74a5.23,5.23,0,0,0,.26,1.15c.74,0,1.37.09,2,.09,2.16,0,4.32,0,6.48,0a6.46,6.46,0,0,0,3.62-1c4.39-2.6,8.81-5.19,13.28-7.66a5.46,5.46,0,0,0,2.89-3.49,3.32,3.32,0,0,0-.29-2.91c-3.36-5.59-8.11-9.19-14.64-10.16a17.06,17.06,0,0,0-9.08.75A6.29,6.29,0,0,1,439.86,12.17ZM374.59,134.9a12.41,12.41,0,0,0,3.18.18h86.36c.64,0,1.28,0,1.92,0,.46,0,.91-.13,1.4-.2a8.82,8.82,0,0,0,0-4.33,9.2,9.2,0,0,0-3.15-.23H377.73c-.56,0-1.12,0-1.68,0s-.91.1-1.5.17c0,1-.09,1.85-.09,2.71C374.47,133.74,374.54,134.28,374.59,134.9ZM112.11,135c2.75.14,5.38.05,8,.07s5.11,0,7.67,0a67.47,67.47,0,0,0,8-.17c.17-3,.09-5.83.07-8.68a72.13,72.13,0,0,0-.17-8.67,27.73,27.73,0,0,0-6.37.09c0,1.4,0,2.66-.05,3.92,0,.72,0,1.44-.09,2.15a1,1,0,0,1-2,.09,15.18,15.18,0,0,1-.1-1.91c0-3.11,0-6.23,0-9.34,0-.7-.07-1.4-.11-2.06a12.74,12.74,0,0,0-5.89,0c0,.73-.1,1.51-.11,2.29,0,3,0,5.91,0,8.87a13.32,13.32,0,0,1-.06,1.67c-.09.79-.58,1.29-1.17,1.29a1.23,1.23,0,0,1-1.16-1.28c-.05-1.36,0-2.72-.05-4.08,0-.53-.1-1.07-.15-1.56a15.61,15.61,0,0,0-6.23.08C111.84,119.67,111.81,132.48,112.11,135Zm324.82,2.62c0,1.15-.07,2.09-.07,3q0,43.64,0,87.27c0,.56,0,1.13,0,1.68a12.33,12.33,0,0,0,.25,1.35h2.69a2.88,2.88,0,0,0,.25-.76q0-45.92,0-91.83a2.92,2.92,0,0,0-.26-.75Zm-29.24-9.83c.85-4.76,1.55-9.32,2.25-14.22-.89.5-1.5.82-2.09,1.18a23.38,23.38,0,0,1-9.22,3.19A23.79,23.79,0,0,1,383,114.58c-.5-.31-1.05-.54-1.71-.87a6.56,6.56,0,0,0,0,.93q.91,5.92,1.87,11.84a7,7,0,0,0,.47,1.32Zm-91.35,16.56,3.56.11c.72,0,1.44,0,2.15.12a1,1,0,0,1,.79,1,1,1,0,0,1-.87,1c-.79.08-1.59.05-2.39.08a9.28,9.28,0,0,0-2.93.23,70.46,70.46,0,0,0,1.46,9.67,7,7,0,0,0,1,.29c.63.06,1.28,0,1.91.11s1.11.46,1.14,1-.42,1.1-1.21,1.2-1.39.14-2.24.22a76.12,76.12,0,0,0,1.87,9c.09.37.1.82.68.93.06-.09.2-.18.22-.3q1.78-7.46,3.54-14.91a3,3,0,0,0-.05-.76,5.5,5.5,0,0,0-.92-.21c-.55,0-1.12,0-1.67,0-1.68,0-2.29-.35-2.31-1.12s.62-1.17,2.21-1.2c.72,0,1.44,0,2.16,0a9.94,9.94,0,0,0,1.13-.15,13.72,13.72,0,0,0,.84-4.53c.14-1.55.62-3.11-.05-4.81-2,0-3.87,0-5.79,0A4.18,4.18,0,0,1,319,141a1.32,1.32,0,0,1-.6-.94,1,1,0,0,1,.78-1,4.72,4.72,0,0,1,1.19-.12c1.43,0,2.87,0,4.31,0a17,17,0,0,0,1.71-.2,11.24,11.24,0,0,0-1.85-6.67A4.31,4.31,0,0,0,320,130a4.82,4.82,0,0,0-2.88,1.58,3.07,3.07,0,0,0-1.05,2.66h4.34a9.85,9.85,0,0,1,1.44.07,1.18,1.18,0,0,1,1,1.18,1.14,1.14,0,0,1-.91,1,5.31,5.31,0,0,1-1.19.09c-1.2,0-2.4,0-3.6,0a8,8,0,0,0-1.44.33A42.86,42.86,0,0,0,316.34,144.36Zm-180.82-6.82-5.9,0h-5.75c-1.92,0-3.83,0-5.75,0a29.72,29.72,0,0,0-5.66.19c.31,4.95,5.34,9.32,11,9.61A11.75,11.75,0,0,0,135.52,137.54Zm86.11,17.28c-.93-.13-1.56-.19-2.19-.3a1.06,1.06,0,0,1-.9-1,1.12,1.12,0,0,1,1-1.18c.86-.1,1.73-.14,2.53-.2a6.88,6.88,0,0,0,.65-4.15l-2.33-.12a11.53,11.53,0,0,1-1.66-.17,1,1,0,0,1-.79-1.05,1,1,0,0,1,.83-1c.79-.09,1.6,0,2.39-.1s1.6.19,2.35-.33a4.13,4.13,0,0,0,.23-2.36c-.79,0-1.5-.07-2.21-.08-1,0-2.07,0-3.11,0a2.83,2.83,0,0,1-1.35-.36,1.06,1.06,0,0,1,.17-1.86,5.33,5.33,0,0,1,1.65-.17c1.75,0,3.5,0,5.19-.05a15.34,15.34,0,0,0,.5-6.74,5.14,5.14,0,0,0-6-3.57,4.89,4.89,0,0,0-3.06,2.15,3.33,3.33,0,0,0-.66,3.27l2.57.06a11.61,11.61,0,0,1,1.67.1,1,1,0,0,1,.88,1,1,1,0,0,1-1,1.15c-.79.08-1.59,0-2.38.12-.61,0-1.22.16-1.91.26a57.36,57.36,0,0,0,1.11,8.67c.48,2.83,1,5.65,1.68,8.45a59.64,59.64,0,0,0,2.16,8.56A85.59,85.59,0,0,0,221.63,154.82Zm60.71-17.32c1.27,0,2.37,0,3.48.07a3.53,3.53,0,0,1,1.39.23,1.32,1.32,0,0,1,.62.92,1.22,1.22,0,0,1-.54,1,4.8,4.8,0,0,1-1.62.3,12.63,12.63,0,0,0-3.49.28,21,21,0,0,0,.87,7.29c.44.09.82.21,1.2.25s1,0,1.44,0c1.2.08,1.73.47,1.7,1.23s-.51,1-1.59,1.07l-1.89.13c-.05.34-.17.59-.11.79q1.6,5.64,3.26,11.27c0,.15.32.23.5.35a19,19,0,0,0,1.48-6.8,11.2,11.2,0,0,1-1.14-.17c-.8-.19-1.23-.69-1.16-1.27a1.26,1.26,0,0,1,1.18-1c.62-.09,1.24-.15,1.79-.21a30.42,30.42,0,0,0,1.44-8.13c-1.06-.44-2.19-.14-3.29-.23a9.85,9.85,0,0,1-1.89-.19,1.3,1.3,0,0,1-.67-.86.87.87,0,0,1,.69-1.09,23.38,23.38,0,0,1,2.38-.19c1.1-.07,2.23.19,3.36-.3a12.45,12.45,0,0,0,.54-5.45c-.65-.06-1.19-.14-1.73-.15-1.44,0-2.88,0-4.32,0a8.52,8.52,0,0,1-1.43-.08,1.11,1.11,0,0,1-1-1,1.15,1.15,0,0,1,.88-1.25,7.43,7.43,0,0,1,1.42-.14c1.6,0,3.2,0,4.79,0,.45,0,1,.11,1.4-.56a4.69,4.69,0,0,0-3.59-3.57,4.32,4.32,0,0,0-4.88,1.72A7.83,7.83,0,0,0,282.34,137.5ZM124.67,107.66a7.69,7.69,0,0,0,.32-3.07V34.12c0-.64,0-1.29,0-1.92a6,6,0,0,0-.35-1.12l-1.41.09c-.37,2.44-.52,49.87-.25,74.42,0,.62.08,1.25.13,2ZM117.41,9c0,.49-.14.87-.14,1.26,0,2,0,4,0,6,0,2.2.85,3.09,3,3.13q3.7.07,7.43,0c2,0,2.83-.93,2.87-3s0-4,0-6a9.11,9.11,0,0,0-.17-1.33,56,56,0,0,0-11.32-.33A12.65,12.65,0,0,0,117.41,9ZM257.74,139.41c.32-1.6.66-2.92.81-4.26a4.57,4.57,0,0,0-.37-2.08,5.1,5.1,0,0,0-5.39-3.13,5.24,5.24,0,0,0-4.44,4.42.91.91,0,0,0,1,1.1c.71,0,1.44,0,2.15,0a5.08,5.08,0,0,1,1.18.14.94.94,0,0,1,.76,1.07,1.38,1.38,0,0,1-.67.89,4.88,4.88,0,0,1-1.4.22c-.7.08-1.45-.13-2,.36a14.54,14.54,0,0,0,1.12,6.15c.64.05,1.34.1,2.05.17,1.05.09,1.55.48,1.49,1.14s-.5,1-1.6,1.08c-.54,0-1.07.12-1.77.21l.65,3.53c1.3-1.77,3.19-.57,4.77-1.42a65.81,65.81,0,0,0,1.2-7.05c-.8-.06-1.5-.09-2.2-.18a2.31,2.31,0,0,1-1.12-.3,1.08,1.08,0,0,1,.1-1.89,2.56,2.56,0,0,1,1.16-.2C255.91,139.39,256.7,139.41,257.74,139.41Zm-74.55,6.86c.9.06,1.7.1,2.48.19a1.09,1.09,0,0,1,1.07,1.07,1.11,1.11,0,0,1-1,1.12c-.69.1-1.4.14-2.15.21a6.06,6.06,0,0,0,0,1.06q.7,3.65,1.44,7.26c0,.09.24.15.47.27a7.62,7.62,0,0,0,.29-.84c.77-4.07,1.54-8.14,2.28-12.21a6.91,6.91,0,0,0,0-1.43c-.63,0-1.1-.06-1.56-.12-1-.11-1.5-.57-1.47-1.22s.58-1.07,1.58-1.17c.69-.06,1.39-.1,2.23-.16.31-1.83.73-3.54.88-5.27a4.37,4.37,0,0,0-7.35-3.28,3.77,3.77,0,0,0-1.08,4.59c.85,0,1.64.06,2.42.12a2.26,2.26,0,0,1,1.15.22,1.47,1.47,0,0,1,.46,1,1,1,0,0,1-.48.73,3.41,3.41,0,0,1-1.16.21l-1.85.15A25,25,0,0,0,183.19,146.27Zm267-.5a24.09,24.09,0,0,0-.15-8.12,35.36,35.36,0,0,0-7.2,0c-.47,2.57-.4,7.74.14,9.44A12.68,12.68,0,0,0,450.18,145.77Zm-23.55-8.22a33.45,33.45,0,0,0,.05,8.71c1.24-.19,2.47-.43,3.72-.55s2.52.06,3.71-.11a22.28,22.28,0,0,0-.07-8A67.49,67.49,0,0,0,426.63,137.55ZM127,22a10.79,10.79,0,0,0-6,.16c.11,2-.25,4.12.2,6.19a12.63,12.63,0,0,0,5.87-.16A61.08,61.08,0,0,0,127,22ZM255.2,151.91a14.1,14.1,0,0,0-1.78-.17c-.59,0-1.22-.36-1.76,0a1.06,1.06,0,0,0-.07.3c.56,3,1.11,6.1,1.69,9.14,0,0,.25,0,.47.07.51-2.81,1-5.62,1.53-8.44A5.07,5.07,0,0,0,255.2,151.91ZM124,6.36v0c1.92,0,3.84,0,5.76,0,.46,0,.78-.28.68-.74a1.08,1.08,0,0,0-.59-.6,2.48,2.48,0,0,0-1-.1h-9.83a3.3,3.3,0,0,0-1.18.14.86.86,0,0,0-.48.67,1,1,0,0,0,.61.6,4.19,4.19,0,0,0,1.18.07ZM416.36,94.45c-.82-.18-1,.21-1.11.72-.47,3-.94,6.11-1.4,9.16,0,.09.13.21.2.32A15.34,15.34,0,0,0,416.36,94.45Zm-39.26,10a48.43,48.43,0,0,0-1.63-10c-.56-.16-.94,0-.94.64a19.19,19.19,0,0,0,2,8.93C376.64,104.16,376.89,104.26,377.1,104.43Z"/><path class="e" d="M395.71,76.36c.33.19.43.21.46.27a42.39,42.39,0,0,1,3.45,8.9,3.93,3.93,0,0,1-.35,2.8,4.17,4.17,0,0,1-4.87,2.12,4,4,0,0,1-2.9-3.93,5.67,5.67,0,0,1,.23-1.65A41.09,41.09,0,0,1,395.71,76.36Zm.08,6.24a9.35,9.35,0,0,0-1.59,3.55,1.38,1.38,0,0,0,1.27,1.66,1.41,1.41,0,0,0,1.47-1.5,3.55,3.55,0,0,0-.16-.92C396.51,84.57,396.21,83.76,395.79,82.6Z"/><path d="M289.68,117.59l.16.35s-.06-.07-.07-.11,0-.13-.07-.2A.14.14,0,0,1,289.68,117.59Z"/><path class="f" d="M451.75,142.33a12.87,12.87,0,0,1-7.87,3.1c-4.42,0-8.58-2.16-12.39-2.16a11.55,11.55,0,0,0-6.6,2.16v111.2h26.86Z"/><path class="g" d="M435.93,136.48h5.28c.21.32.47.54.47.76q0,46.22,0,92.42c0,.22-.26.44-.47.76h-5a7.78,7.78,0,0,1-.46-1.36,11.78,11.78,0,0,1,0-1.68V139.54C435.79,138.59,435.87,137.64,435.93,136.48Z"/><rect class="h" x="424.89" y="125.08" width="26.86" height="3.2"/><rect class="h" x="428.27" y="116.09" width="20.03" height="8.98" rx="1"/><rect class="h" x="430.4" y="74.98" width="16.08" height="41.12"/><rect class="h" x="428.7" y="38.08" width="19.6" height="36.48" rx="1"/><rect class="h" x="424.3" y="54.78" width="4.4" height="14.8"/><path class="i" d="M426.37,34.63h24.78L473.8,22.18c4.36,7.94-.9,22.65-7.8,50.55C461.15,92.36,479.2,111,479.2,111"/><path class="i" d="M473.8,22.18s-7.73-25.8-35.07-16.5"/><circle class="j" cx="438.59" cy="6.75" r="3.92"/><circle class="j" cx="473.8" cy="22.18" r="3.92"/><path class="k" d="M422.8,62.18H401.41A5.79,5.79,0,0,0,395.62,68v5.31"/></svg>