<svg xmlns="http://www.w3.org/2000/svg" viewBox="0 0 80.96 80.96"><defs><style>.a{fill:#fff;}</style></defs><path class="a" d="M55.34,25.16A2.19,2.19,0,1,1,57.53,23a2.19,2.19,0,0,1-2.19,2.19M46.47,41.57H37.72V24.07h8.75Zm-2.19,19.7H39.91V43.76h4.37Zm2.19,4.37H37.72V63.45h8.75ZM48.66,70H35.53V67.83H48.66ZM33.34,32.82h2.19v6.56H33.34Zm9.85-15.46a4.4,4.4,0,0,0,3.14-3.14h2.28a5.64,5.64,0,0,1,5.53,4.55,4.38,4.38,0,0,0-3,3.11H43.19Zm-3.28-4.23a2.19,2.19,0,1,1,2.19,2.19,2.19,2.19,0,0,1-2.19-2.19M31.16,37.2H20.22v4.37H18V37.2A2.19,2.19,0,0,1,20.22,35H31.16ZM56.34,18.72A7.82,7.82,0,0,0,48.61,12H46.33A4.37,4.37,0,1,0,41,17.36v4.52H33.34v2.19h2.19v6.56H32.25a1.09,1.09,0,0,0-1.09,1.1v1.09H20.22a4.38,4.38,0,0,0-4.38,4.38v6.56H22.4V39.39h8.76v1.09a1.09,1.09,0,0,0,1.09,1.09h3.28v1.1a1.09,1.09,0,0,0,1.1,1.09h1.09V61.27H36.63a1.09,1.09,0,0,0-1.1,1.09v3.28H34.44a1.1,1.1,0,0,0-1.1,1.1v5.47H50.85V66.74a1.1,1.1,0,0,0-1.1-1.1H48.66V62.36a1.09,1.09,0,0,0-1.09-1.09h-1.1V43.76h1.1a1.09,1.09,0,0,0,1.09-1.09V24.07h2.45a4.38,4.38,0,0,0,3.14,3.14V61.27h2.18V27.21a4.37,4.37,0,0,0-.09-8.49"/><path class="a" d="M40.48,78.77A38.29,38.29,0,1,1,78.77,40.48,38.33,38.33,0,0,1,40.48,78.77M40.48,0A40.48,40.48,0,1,0,81,40.48,40.48,40.48,0,0,0,40.48,0"/></svg>