<svg xmlns="http://www.w3.org/2000/svg" viewBox="0 0 80.96 80.96"><defs><style>.a{fill:#fff;}</style></defs><path class="a" d="M40.48,78.77A38.29,38.29,0,1,1,78.77,40.48,38.33,38.33,0,0,1,40.48,78.77M40.48,0A40.48,40.48,0,1,0,81,40.48,40.48,40.48,0,0,0,40.48,0"/><path class="a" d="M63.45,57.08c-2.58,0-5.47-4.94-5.47-12s2.89-12,5.47-12,5.47,4.94,5.47,12-2.88,12-5.47,12M12,45.05c0-7.1,2.89-12,5.47-12S23,38,23,45.05s-2.88,12-5.47,12S12,52.14,12,45.05M23,25.35c0-3.33,1.3-5.47,2.19-5.47s2.19,2.14,2.19,5.47-1.3,5.47-2.19,5.47S23,28.69,23,25.35m35,0c0,3.34-1.29,5.47-2.18,5.47s-2.19-2.13-2.19-5.47,1.29-5.47,2.19-5.47S58,22,58,25.35m-29.7,5.47a11.09,11.09,0,0,0,1.26-5.47,11.14,11.14,0,0,0-1.26-5.47H52.67a11.26,11.26,0,0,0-1.25,5.47,11.2,11.2,0,0,0,1.25,5.47Zm31,2.19c-2.13,2.5-3.52,6.91-3.52,12s1.39,9.53,3.52,12H21.64c2.13-2.5,3.52-6.91,3.52-12s-1.39-9.54-3.52-12Zm4.13-2.19H58.92a11.2,11.2,0,0,0,1.25-5.47c0-4.36-1.88-7.65-4.37-7.65H25.16c-2.49,0-4.37,3.29-4.37,7.65A11.2,11.2,0,0,0,22,30.82H17.5c-4.29,0-7.65,6.25-7.65,14.23s3.36,14.22,7.65,14.22h46c4.3,0,7.66-6.25,7.66-14.22s-3.36-14.23-7.66-14.23"/></svg>