<svg xmlns="http://www.w3.org/2000/svg" xmlns:xlink="http://www.w3.org/1999/xlink" viewBox="0 0 530 263.98"><defs><style>.a,.b,.c,.e,.h,.i,.j,.l{fill:none;}.b,.c,.h,.k,.l,.m{stroke:#fff;}.b,.c{stroke-width:0.75px;isolation:isolate;opacity:0.2;}.c{stroke-linecap:square;}.d{clip-path:url(#a);}.e{stroke:#475a6c;}.e,.h,.i,.j,.m{stroke-miterlimit:10;}.e,.h,.i,.j,.k,.l,.m{stroke-width:2px;}.f{fill:url(#b);}.g{fill:url(#c);}.i{stroke:url(#e);}.j{stroke:url(#f);}.k{fill:#02aadc;}.k,.l{stroke-linecap:round;stroke-linejoin:round;}.m{fill:#273a4e;}</style><clipPath id="a"><rect class="a" x="0.01" width="240.95" height="141.73"/></clipPath><pattern id="b" width="240.95" height="141.73" patternTransform="translate(11749.1 -10817.2) rotate(-45)" patternUnits="userSpaceOnUse" viewBox="0 0 240.95 141.73"><rect class="a" width="240.95" height="141.73"/><rect class="a" x="0.01" width="240.95" height="141.73"/><g class="d"><line class="e" x1="0.01" y1="127.56" x2="240.95" y2="127.56"/><line class="e" x1="0.01" y1="99.21" x2="240.95" y2="99.21"/><line class="e" x1="0.01" y1="70.86" x2="240.95" y2="70.86"/><line class="e" x1="0.01" y1="42.52" x2="240.95" y2="42.52"/><line class="e" x1="0.01" y1="14.17" x2="240.95" y2="14.17"/></g></pattern><pattern id="c" width="86.96" height="65.3" patternTransform="matrix(1, 0, 0, -1, 80.24, 1095.2)" patternUnits="userSpaceOnUse" viewBox="0 0 86.96 65.3"><rect class="a" width="86.96" height="65.3"/><rect class="a" width="86.96" height="65.3"/><line class="b" x1="81.12" y1="54.14" x2="81.12" y2="43.38"/><line class="b" x1="59.58" y1="54.14" x2="59.58" y2="43.38"/><line class="b" x1="38.04" y1="54.14" x2="38.04" y2="43.38"/><line class="b" x1="16.5" y1="54.14" x2="16.5" y2="43.38"/><line class="b" x1="81.12" y1="32.63" x2="81.12" y2="21.88"/><line class="b" x1="59.58" y1="32.63" x2="59.58" y2="21.88"/><line class="b" x1="38.04" y1="32.63" x2="38.04" y2="21.88"/><line class="b" x1="16.5" y1="32.63" x2="16.5" y2="21.88"/><line class="b" x1="81.12" y1="11.03" x2="81.12"/><line class="b" x1="59.58" y1="11.03" x2="59.58"/><line class="b" x1="38.04" y1="11.03" x2="38.04"/><line class="b" x1="16.5" y1="11.03" x2="16.5"/><line class="b" x1="70.33" y1="21.88" x2="70.33" y2="11.13"/><line class="b" x1="48.79" y1="21.88" x2="48.79" y2="11.13"/><line class="b" x1="27.25" y1="21.88" x2="27.25" y2="11.13"/><line class="b" x1="5.7" y1="21.88" x2="5.7" y2="11.13"/><line class="b" x1="70.33" y1="43.38" x2="70.33" y2="32.63"/><line class="b" x1="48.79" y1="43.38" x2="48.79" y2="32.63"/><line class="b" x1="27.25" y1="43.38" x2="27.25" y2="32.63"/><line class="b" x1="5.7" y1="43.38" x2="5.7" y2="32.63"/><line class="b" x1="70.33" y1="64.89" x2="70.33" y2="54.14"/><line class="b" x1="48.79" y1="64.89" x2="48.79" y2="54.14"/><line class="b" x1="27.25" y1="64.89" x2="27.25" y2="54.14"/><line class="b" x1="5.7" y1="64.89" x2="5.7" y2="54.14"/><line class="c" x1="0.38" y1="64.92" x2="86.58" y2="64.92"/><line class="c" x1="0.38" y1="54.15" x2="86.58" y2="54.15"/><line class="c" x1="0.38" y1="43.38" x2="86.58" y2="43.38"/><line class="c" x1="0.38" y1="32.61" x2="86.58" y2="32.61"/><line class="c" x1="0.38" y1="21.84" x2="86.58" y2="21.84"/><line class="c" x1="0.38" y1="11.06" x2="86.58" y2="11.06"/></pattern><radialGradient id="e" cx="265" cy="139.69" r="187.39" gradientTransform="matrix(1, 0, 0, -1, 0, 266)" gradientUnits="userSpaceOnUse"><stop offset="0" stop-color="#fff"/><stop offset="1" stop-color="#fff" stop-opacity="0.2"/></radialGradient><radialGradient id="f" cx="265" cy="150.62" r="187.39" xlink:href="#e"/></defs><polygon class="f" points="0 230.78 0 263.98 530 263.98 530 230.78 0 230.78"/><polygon class="g" points="530 114.92 0 115.85 0 0.93 530 0 530 114.92"/><polygon class="g" points="530 225.05 0 225.97 0 126.78 530 125.85 530 225.05"/><line class="h" y1="225.98" x2="530" y2="225.98"/><line class="i" y1="126.78" x2="530" y2="125.85"/><line class="j" x1="530" y1="114.92" y2="115.85"/><rect class="k" x="329.05" y="139.98" width="5.29" height="7.51"/><line class="l" x1="338.67" y1="143.73" x2="334.34" y2="143.73"/><polyline class="k" points="339.26 150.13 339.26 139.97 360.53 139.97 360.53 150.13"/><rect class="k" x="330.5" y="148.73" width="37.54" height="37.54" rx="13.24"/><polyline class="k" points="331.04 173.05 322.99 171.73 322.99 162.47 331.04 161.14"/><rect class="k" x="375.54" y="157.17" width="5.01" height="19.84"/><polyline class="k" points="368.81 161.14 375.55 162.47 375.55 171.73 368.81 173.05"/><path class="k" d="M363,167.5a13.77,13.77,0,1,1-13.78-13.76h0A13.76,13.76,0,0,1,363,167.5Z"/><path class="k" d="M353,167.52a3.74,3.74,0,1,1-3.75-3.73h0a3.73,3.73,0,0,1,3.73,3.73Z"/><rect class="k" x="317.99" y="157.17" width="4.84" height="19.84"/><rect class="m" x="145.86" y="70.5" width="12.6" height="36.9" rx="6"/><rect class="m" x="229.86" y="70.5" width="12.6" height="36.9" rx="6"/><path class="m" d="M162.51,99.3h63.3a4,4,0,0,1,4.05,4h0a4,4,0,0,1-4.05,4.05h-63.3a4.05,4.05,0,0,1-4-4.05h0A4.05,4.05,0,0,1,162.51,99.3Z"/><rect class="m" x="158.46" y="87.45" width="35.7" height="11.85" rx="5"/><rect class="m" x="194.16" y="87.45" width="35.7" height="11.85" rx="5"/><path class="m" d="M168.46,55.8h15.7a10,10,0,0,1,10,10h0V83.45a4,4,0,0,1-4,4h-27.7a4,4,0,0,1-4-4V65.8a10,10,0,0,1,10-10Z"/><path class="m" d="M204.16,55.8h15.7a10,10,0,0,1,10,10h0V83.45a4,4,0,0,1-4,4h-27.7a4,4,0,0,1-4-4V65.8a10,10,0,0,1,10-10Z"/><circle class="m" cx="176.31" cy="74.25" r="3.75"/><circle class="m" cx="212.01" cy="74.25" r="3.75"/><rect class="m" x="150.06" y="107.3" width="4.2" height="8.55"/><rect class="m" x="234.06" y="107.3" width="4.2" height="8.55"/><polygon class="m" points="276.06 17.55 250.41 17.55 236.16 44.55 289.26 44.55 276.06 17.55"/><line class="h" x1="256.71" y1="54.3" x2="256.71" y2="44.55"/><polyline class="h" points="263.61 44.55 263.61 109.2 250.41 115.85"/><line class="h" x1="276.51" y1="115.85" x2="263.61" y2="109.2"/><circle class="m" cx="256.64" cy="57.08" r="2.77" transform="translate(142.12 293.74) rotate(-76.72)"/><rect class="m" x="313.36" y="60.55" width="78.3" height="5.6"/><rect class="m" x="313.36" y="98.65" width="78.3" height="5.6"/><path class="m" d="M319.76,57.25h0a2.19,2.19,0,0,1,2.2,2.2v45.4a2.19,2.19,0,0,1-2.2,2.2h0a2.2,2.2,0,0,1-2.2-2.2V59.45A2.2,2.2,0,0,1,319.76,57.25Z"/><path class="m" d="M327.31,57.25h0a2.19,2.19,0,0,1,2.2,2.2v45.4a2.19,2.19,0,0,1-2.2,2.2h0a2.2,2.2,0,0,1-2.2-2.2V59.45A2.2,2.2,0,0,1,327.31,57.25Z"/><path class="m" d="M334.86,57.25h0a2.19,2.19,0,0,1,2.2,2.2v45.4a2.19,2.19,0,0,1-2.2,2.2h0a2.2,2.2,0,0,1-2.2-2.2V59.45A2.2,2.2,0,0,1,334.86,57.25Z"/><path class="m" d="M342.36,57.25h0a2.19,2.19,0,0,1,2.2,2.2v45.4a2.19,2.19,0,0,1-2.2,2.2h0a2.2,2.2,0,0,1-2.2-2.2V59.45A2.2,2.2,0,0,1,342.36,57.25Z"/><path class="m" d="M349.36,57.25h0a2.19,2.19,0,0,1,2.2,2.2v45.4a2.19,2.19,0,0,1-2.2,2.2h0a2.2,2.2,0,0,1-2.2-2.2V59.45A2.2,2.2,0,0,1,349.36,57.25Z"/><path class="m" d="M356.66,57.25h0a2.19,2.19,0,0,1,2.2,2.2v45.4a2.19,2.19,0,0,1-2.2,2.2h0a2.2,2.2,0,0,1-2.2-2.2V59.45A2.2,2.2,0,0,1,356.66,57.25Z"/><path class="m" d="M364,57.25h0a2.19,2.19,0,0,1,2.2,2.2v45.4a2.19,2.19,0,0,1-2.2,2.2h0a2.2,2.2,0,0,1-2.2-2.2V59.45A2.2,2.2,0,0,1,364,57.25Z"/><path class="m" d="M371.26,57.25h0a2.19,2.19,0,0,1,2.2,2.2v45.4a2.19,2.19,0,0,1-2.2,2.2h0a2.2,2.2,0,0,1-2.2-2.2V59.45A2.2,2.2,0,0,1,371.26,57.25Z"/><path class="m" d="M378.46,57.25h0a2.19,2.19,0,0,1,2.2,2.2v45.4a2.19,2.19,0,0,1-2.2,2.2h0a2.2,2.2,0,0,1-2.2-2.2V59.45A2.2,2.2,0,0,1,378.46,57.25Z"/><path class="m" d="M385.76,57.25h0a2.19,2.19,0,0,1,2.2,2.2v45.4a2.19,2.19,0,0,1-2.2,2.2h0a2.2,2.2,0,0,1-2.2-2.2V59.45A2.2,2.2,0,0,1,385.76,57.25Z"/><rect class="m" x="129.36" y="150.83" width="74.4" height="71.25" rx="2"/><rect class="m" x="133.71" y="155.72" width="32.85" height="7.65"/><rect class="m" x="169.71" y="155.72" width="2.9" height="7.65"/><rect class="m" x="175.46" y="155.72" width="2.85" height="7.65"/><circle class="m" cx="190.99" cy="159.49" r="4.42"/><circle class="m" cx="191" cy="159.56" r="0.54"/><line class="h" x1="191" y1="159.56" x2="193.59" y2="155.92"/><rect class="m" x="203.76" y="170.81" width="3.3" height="8.19"/><rect class="m" x="203.76" y="198.98" width="3.3" height="9.6"/><line class="h" x1="201.56" y1="225.98" x2="201.56" y2="222.08"/><line class="h" x1="131.06" y1="225.98" x2="131.06" y2="222.08"/><path class="h" d="M207.06,203.78h187s7,.13,7-4.84V107.37s.35-5.92-8.57-5.92"/><path class="h" d="M207.06,174.91h77.4s6.69,0,6.69-5.28v-101s.35-5.87,7.43-5.87,14.78.23,14.78.23"/><rect class="m" x="301.94" y="57.09" width="7.8" height="3.3"/><rect class="m" x="302.99" y="52.54" width="5.63" height="4.56"/><path class="h" d="M318,167.5s-9.76.6-9.76,9.76v26.42"/><path class="h" d="M380.55,167.1s11.29-.24,11.29,11.29v25.29"/><rect class="m" x="235.71" y="135.23" width="22.12" height="32.32" rx="10"/><rect class="m" x="244.37" y="133.6" width="4.8" height="1.65"/><rect class="m" x="245.31" y="167.54" width="2.93" height="1.8"/><line class="h" x1="246.77" y1="169.34" x2="246.77" y2="174.91"/><line class="h" x1="235.71" y1="151.39" x2="257.84" y2="151.39"/></svg>