<svg xmlns="http://www.w3.org/2000/svg" viewBox="0 0 80.96 80.96"><defs><style>.a{fill:#fff;}</style></defs><path class="a" d="M40.48,2.24A38.24,38.24,0,1,0,78.72,40.48,38.28,38.28,0,0,0,40.48,2.24m0,78.72A40.48,40.48,0,1,1,81,40.48,40.53,40.53,0,0,1,40.48,81"/><path class="a" d="M40.48,32.58A11.25,11.25,0,1,0,51.72,43.83,11.26,11.26,0,0,0,40.48,32.58m0,24.73A13.49,13.49,0,1,1,54,43.83,13.49,13.49,0,0,1,40.48,57.31"/><path class="a" d="M58.26,49.91l-.43-2.2,5.14-1V40.22l-5.14-1,.43-2.2,6.05,1.19a1.13,1.13,0,0,1,.9,1.1v8.32a1.12,1.12,0,0,1-.9,1.1Z"/><path class="a" d="M65.21,51.25h2.26V35.67H65.21Zm3.38,2.24h-4.5A1.12,1.12,0,0,1,63,52.37V34.55a1.12,1.12,0,0,1,1.12-1.12h4.5a1.12,1.12,0,0,1,1.12,1.12V52.37a1.12,1.12,0,0,1-1.12,1.12"/><path class="a" d="M23.94,49.91,16.7,48.73a1.12,1.12,0,0,1-.93-1.11V39.3a1.11,1.11,0,0,1,.93-1.1L23.94,37l.36,2.21-6.29,1v6.42l6.29,1Z"/><path class="a" d="M13.51,51.25h2.11V35.67H13.51Zm3.23,2.24H12.39a1.12,1.12,0,0,1-1.12-1.12V34.55a1.12,1.12,0,0,1,1.12-1.12h4.35a1.12,1.12,0,0,1,1.12,1.12V52.37a1.12,1.12,0,0,1-1.12,1.12"/><path class="a" d="M35.52,28.09A10.78,10.78,0,0,0,24.75,38.86v9.93A10.79,10.79,0,0,0,35.52,59.57h9.93A10.8,10.8,0,0,0,56.23,48.79V38.86A10.79,10.79,0,0,0,45.45,28.09Zm9.93,33.72H35.52a13,13,0,0,1-13-13V38.86a13,13,0,0,1,13-13h9.93a13,13,0,0,1,13,13v9.93a13,13,0,0,1-13,13"/><path class="a" d="M51.72,28.22H49.48v-8H32.62v8H30.38V19.1A1.12,1.12,0,0,1,31.5,18H50.6a1.12,1.12,0,0,1,1.12,1.12Z"/><rect class="a" x="27.08" y="21.35" width="3.89" height="2.24"/><path class="a" d="M23.45,24.73H26V20.22H23.45ZM27.08,27H22.33a1.12,1.12,0,0,1-1.12-1.12V19.1A1.12,1.12,0,0,1,22.33,18h4.75A1.12,1.12,0,0,1,28.2,19.1v6.75A1.12,1.12,0,0,1,27.08,27"/><path class="a" d="M40.48,41.61a2.24,2.24,0,1,0,2.23,2.24,2.24,2.24,0,0,0-2.23-2.24m0,6.71A4.48,4.48,0,1,1,45,43.85a4.48,4.48,0,0,1-4.47,4.47"/></svg>