<svg xmlns="http://www.w3.org/2000/svg" xmlns:xlink="http://www.w3.org/1999/xlink" viewBox="0 0 551 246.42"><defs><style>.cls-1,.cls-12,.cls-15,.cls-16,.cls-2,.cls-4,.cls-5,.cls-6,.cls-7{fill:none;}.cls-10,.cls-11,.cls-12,.cls-13,.cls-15,.cls-16,.cls-17,.cls-18,.cls-19,.cls-2,.cls-21,.cls-22,.cls-7,.cls-8{stroke:#fff;}.cls-18,.cls-2{stroke-width:1.44px;}.cls-2,.cls-5,.cls-6,.cls-7{isolation:isolate;opacity:0.2;}.cls-3{clip-path:url(#clip-path);}.cls-4{stroke:#475a6c;}.cls-10,.cls-11,.cls-12,.cls-13,.cls-16,.cls-17,.cls-19,.cls-21,.cls-22,.cls-4,.cls-8{stroke-miterlimit:10;}.cls-11,.cls-16,.cls-21,.cls-22,.cls-4{stroke-width:2px;}.cls-5,.cls-6{stroke:#f2f2f2;}.cls-6{stroke-linecap:square;}.cls-7{stroke-width:0.65px;}.cls-22,.cls-8{fill:url(#SVGID_0000009313807598892851754);}.cls-9{fill:url(#SVGID_0000001678136715076069470);}.cls-10,.cls-20,.cls-21{fill:#b2dff4;}.cls-11{fill:#00aadc;}.cls-13,.cls-14{fill:#00aadb;}.cls-15{stroke-linecap:round;stroke-linejoin:round;}.cls-17{fill:url(#SVGID_0000001027561195119134909);}.cls-18{fill:url(#SVGID_0000016018321360974294680);}.cls-19{fill:#273a4e;}</style><clipPath id="clip-path"><rect class="cls-1" width="240.9" height="141.7"/></clipPath><pattern id="SVGID_0000009313807598892851754" data-name="SVGID 0000009313807598892851754" width="53.6" height="40.1" patternTransform="matrix(1, 0, 0, -1, 81.24, 530)" patternUnits="userSpaceOnUse" viewBox="0 0 53.6 40.1"><rect class="cls-1" width="53.6" height="40.1"/><rect class="cls-1" width="53.6" height="40.1"/><rect class="cls-1" width="53.6" height="40.1"/><rect class="cls-1" width="53.5" height="40.1"/><line class="cls-5" x1="49.7" y1="33" x2="49.7" y2="26.5"/><line class="cls-5" x1="36.6" y1="33" x2="36.6" y2="26.5"/><line class="cls-5" x1="23.5" y1="33" x2="23.5" y2="26.5"/><line class="cls-5" x1="10.3" y1="33" x2="10.3" y2="26.5"/><line class="cls-5" x1="49.7" y1="19.9" x2="49.7" y2="13.3"/><line class="cls-5" x1="36.6" y1="19.9" x2="36.6" y2="13.3"/><line class="cls-5" x1="23.5" y1="19.9" x2="23.5" y2="13.3"/><line class="cls-5" x1="10.3" y1="19.9" x2="10.3" y2="13.3"/><line class="cls-5" x1="49.7" y1="6.7" x2="49.7"/><line class="cls-5" x1="36.6" y1="6.7" x2="36.6"/><line class="cls-5" x1="23.5" y1="6.7" x2="23.5"/><line class="cls-5" x1="10.3" y1="6.7" x2="10.3"/><line class="cls-5" x1="43.2" y1="13.3" x2="43.2" y2="6.8"/><line class="cls-5" x1="30" y1="13.3" x2="30" y2="6.8"/><line class="cls-5" x1="16.9" y1="13.3" x2="16.9" y2="6.8"/><line class="cls-5" x1="3.8" y1="13.3" x2="3.8" y2="6.8"/><line class="cls-5" x1="43.2" y1="26.5" x2="43.2" y2="19.9"/><line class="cls-5" x1="30" y1="26.5" x2="30" y2="19.9"/><line class="cls-5" x1="16.9" y1="26.5" x2="16.9" y2="19.9"/><line class="cls-5" x1="3.8" y1="26.5" x2="3.8" y2="19.9"/><line class="cls-5" x1="43.2" y1="39.6" x2="43.2" y2="33"/><line class="cls-5" x1="30" y1="39.6" x2="30" y2="33"/><line class="cls-5" x1="16.9" y1="39.6" x2="16.9" y2="33"/><line class="cls-5" x1="3.8" y1="39.6" x2="3.8" y2="33"/><line class="cls-6" x1="0.5" y1="39.6" x2="53.1" y2="39.6"/><line class="cls-6" x1="0.5" y1="33" x2="53.1" y2="33"/><line class="cls-6" x1="0.5" y1="26.5" x2="53.1" y2="26.5"/><line class="cls-6" x1="0.5" y1="19.9" x2="53.1" y2="19.9"/><line class="cls-6" x1="0.5" y1="13.3" x2="53.1" y2="13.3"/><line class="cls-6" x1="0.5" y1="6.8" x2="53.1" y2="6.8"/></pattern><pattern id="SVGID_0000001678136715076069470" data-name="SVGID 0000001678136715076069470" width="241" height="141.7" patternTransform="translate(3714.55 9100.2) rotate(-45)" patternUnits="userSpaceOnUse" viewBox="0 0 241 141.7"><rect class="cls-1" width="241" height="141.7"/><rect class="cls-1" width="241" height="141.7"/><rect class="cls-1" width="240.9" height="141.7"/><rect class="cls-1" width="240.9" height="141.7"/><g class="cls-3"><line class="cls-4" y1="127.6" x2="241" y2="127.6"/><line class="cls-4" y1="99.2" x2="241" y2="99.2"/><line class="cls-4" y1="70.9" x2="241" y2="70.9"/><line class="cls-4" y1="42.5" x2="241" y2="42.5"/><line class="cls-4" y1="14.2" x2="241" y2="14.2"/></g></pattern><pattern id="SVGID_0000001027561195119134909" data-name="SVGID 0000001027561195119134909" width="72" height="72" patternTransform="matrix(1, 0, 0, -1, 89, 522.6)" patternUnits="userSpaceOnUse" viewBox="0 0 72 72"><rect class="cls-1" width="72" height="72"/><rect class="cls-1" width="72" height="72"/><rect class="cls-1" width="72" height="72"/><rect class="cls-1" width="72" height="72"/><line class="cls-2" y1="3.6" x2="72" y2="3.6"/><line class="cls-2" y1="18" x2="72" y2="18"/><line class="cls-2" y1="32.4" x2="72" y2="32.4"/><line class="cls-2" y1="46.8" x2="72" y2="46.8"/><line class="cls-2" y1="61.2" x2="72" y2="61.2"/><line class="cls-2" y1="10.8" x2="72" y2="10.8"/><line class="cls-2" y1="25.2" x2="72" y2="25.2"/><line class="cls-2" y1="39.6" x2="72" y2="39.6"/><line class="cls-2" y1="54" x2="72" y2="54"/><line class="cls-2" y1="68.4" x2="72" y2="68.4"/></pattern><pattern id="SVGID_0000016018321360974294680" data-name="SVGID 0000016018321360974294680" width="73.1" height="72" patternTransform="matrix(1, 0, 0, -1, 69.96, 522.6)" patternUnits="userSpaceOnUse" viewBox="0 0 73.1 72"><rect class="cls-1" width="73.1" height="72"/><rect class="cls-1" width="73.1" height="72"/><rect class="cls-1" width="73.1" height="72"/><rect class="cls-1" width="73.1" height="72"/><line class="cls-7" x1="12.7" x2="12.7" y2="72"/><line class="cls-7" x1="31" x2="31" y2="72"/><line class="cls-7" x1="49.3" x2="49.3" y2="72"/><line class="cls-7" x1="67.6" x2="67.6" y2="72"/><line class="cls-7" x1="5.5" x2="5.5" y2="72"/><line class="cls-7" x1="23.8" x2="23.8" y2="72"/><line class="cls-7" x1="42.1" x2="42.1" y2="72"/><line class="cls-7" x1="60.4" x2="60.4" y2="72"/></pattern></defs><g id="Layer_2" data-name="Layer 2"><g id="Layer_1-2" data-name="Layer 1"><rect class="cls-8" x="214.9" y="144.42" width="104" height="77.5"/><polygon class="cls-9" points="326.3 149.62 326.3 227.22 206.7 227.22 206.7 149.62 0 149.62 0.4 237.42 551 237.42 551 149.62 326.3 149.62"/><path class="cls-10" d="M244.2,167.72h-5.3c-6.4,0-11.5,5.8-11.5,13v57.7h-2v-58.3c0-8.1,5.8-14.7,13-14.7h6"/><path class="cls-11" d="M260.1,187.42h26.6a6.7,6.7,0,0,1,6.7,6.7v14.6a6.7,6.7,0,0,1-6.7,6.7H260.1a6.7,6.7,0,0,1-6.7-6.7v-14.6A6.7,6.7,0,0,1,260.1,187.42Z"/><rect class="cls-11" x="249.4" y="193.42" width="4" height="16"/><path class="cls-11" d="M246.4,198.42h2a.94.94,0,0,1,1,1v4a.94.94,0,0,1-1,1h-2a.94.94,0,0,1-1-1v-4A.94.94,0,0,1,246.4,198.42Z"/><rect class="cls-11" x="293.4" y="197.42" width="4" height="8"/><rect class="cls-11" x="258.4" y="215.42" width="6" height="5"/><rect class="cls-11" x="281.4" y="215.42" width="6" height="5"/><rect class="cls-12" x="264.9" y="183.92" width="21" height="4"/><rect class="cls-13" x="261.2" y="158.62" width="3.2" height="6.1"/><path class="cls-14" d="M290.7,181.22l1.5-1v-13.5l-1.5-1H286V164h.3v-3.2l-1.1-.1h-4.5l-8.9,1.1V164h.3v3h-4.7v-3.6h-2.6v1h-2.1l-3.5.8h-2v-1.3h-3.1v1.3h-8.6v.1h-1.3v3.1h1.3V179h.1v3.9h17l.8.2h1.3v.6h1.4v.3h5.1v-1H270l-2.2-3h15.5v1.6l-.7,1.4h-.8v.9h3.9V183H285l-.7-1.4V180h1.1v1.2Zm-18.6-5.4-4.7,1.4v-2.9h4.7Zm0-3.2h-4.7v-2.9l4.7,1.4Z"/><line class="cls-15" x1="262.7" y1="182.92" x2="263.5" y2="183.02"/><line class="cls-15" x1="263.5" y1="183.02" x2="264.8" y2="183.02"/><line class="cls-15" x1="285.4" y1="181.22" x2="285.7" y2="181.22"/><line class="cls-15" x1="285.7" y1="165.72" x2="285.4" y2="165.72"/><line class="cls-15" x1="271.3" y1="183.92" x2="271.3" y2="183.02"/><line class="cls-15" x1="272.1" y1="180.02" x2="285.4" y2="180.02"/><line class="cls-15" x1="285.4" y1="168.22" x2="272.1" y2="168.22"/><path class="cls-15" d="M285.8,183.42a.27.27,0,0,0-.3-.3"/><path class="cls-15" d="M282.2,183a.32.32,0,0,0-.3.3"/><line class="cls-15" x1="285.8" y1="183.92" x2="285.8" y2="183.32"/><line class="cls-15" x1="281.9" y1="183.32" x2="281.9" y2="183.92"/><line class="cls-15" x1="259.2" y1="165.22" x2="247.3" y2="165.22"/><line class="cls-15" x1="245.6" y1="182.92" x2="262.7" y2="182.92"/><line class="cls-15" x1="284.4" y1="181.52" x2="284.4" y2="180.02"/><line class="cls-15" x1="272.1" y1="172.62" x2="267.4" y2="172.62"/><line class="cls-15" x1="267.4" y1="174.32" x2="272.1" y2="174.32"/><line class="cls-15" x1="290.7" y1="181.22" x2="292.3" y2="180.22"/><line class="cls-15" x1="292.3" y1="166.72" x2="290.7" y2="165.72"/><line class="cls-15" x1="285.7" y1="181.22" x2="290.7" y2="181.22"/><line class="cls-15" x1="290.7" y1="165.72" x2="285.7" y2="165.72"/><line class="cls-15" x1="266.9" y1="179.22" x2="266.2" y2="179.22"/><line class="cls-15" x1="264.8" y1="166.52" x2="264.8" y2="180.42"/><line class="cls-15" x1="270.2" y1="183.02" x2="267.4" y2="179.22"/><line class="cls-15" x1="267.2" y1="183.92" x2="266.2" y2="183.92"/><line class="cls-15" x1="266.2" y1="179.22" x2="266.2" y2="183.92"/><path class="cls-15" d="M255.4,181.22l.8.2.8.2.8.2.8.2.8.2.8.2.8.2.4.1.4.1h.6"/><path class="cls-15" d="M245.6,179l4.9,1.1,4.9,1.1"/><path class="cls-15" d="M245.5,179h.1"/><line class="cls-15" x1="245.5" y1="178.22" x2="245.5" y2="179.02"/><path class="cls-15" d="M264.8,164.42h-2.1"/><line class="cls-15" x1="264.8" y1="182.82" x2="264.8" y2="180.42"/><line class="cls-15" x1="264.8" y1="164.12" x2="264.8" y2="166.52"/><line class="cls-15" x1="285.4" y1="165.72" x2="285.4" y2="181.22"/><polyline class="cls-15" points="271.3 183.02 271.3 183.02 271.3 183.02 271.2 183.02 271.1 183.02 271 183.02 270.4 183.02 270.2 183.02"/><polyline class="cls-15" points="271.3 183.92 271.3 183.92 271.3 183.92 271.2 183.92 271.1 183.92 271 183.92 270.4 183.92 270.2 183.92 270.1 183.92 269.9 183.92 269.8 183.92"/><line class="cls-15" x1="267.2" y1="183.92" x2="269.8" y2="183.92"/><line class="cls-15" x1="264.8" y1="163.42" x2="264.8" y2="164.12"/><line class="cls-15" x1="245.5" y1="170.02" x2="245.5" y2="170.62"/><line class="cls-15" x1="245.5" y1="178.22" x2="245.5" y2="170.62"/><line class="cls-15" x1="285.5" y1="183.02" x2="282.2" y2="183.02"/><line class="cls-15" x1="285.8" y1="183.92" x2="281.9" y2="183.92"/><line class="cls-15" x1="245.5" y1="165.32" x2="245.5" y2="170.02"/><line class="cls-15" x1="245.5" y1="165.22" x2="247.3" y2="165.22"/><line class="cls-15" x1="245.6" y1="182.92" x2="245.6" y2="181.22"/><line class="cls-15" x1="245.6" y1="181.22" x2="245.6" y2="179.02"/><line class="cls-15" x1="245.5" y1="165.22" x2="245.5" y2="165.32"/><line class="cls-15" x1="284.2" y1="164.02" x2="283.8" y2="164.02"/><line class="cls-15" x1="271.9" y1="161.72" x2="272.4" y2="161.72"/><line class="cls-15" x1="271.8" y1="164.02" x2="271.8" y2="161.82"/><line class="cls-15" x1="272.4" y1="164.02" x2="271.8" y2="164.02"/><line class="cls-15" x1="283.8" y1="164.02" x2="272.4" y2="164.02"/><line class="cls-15" x1="272.4" y1="161.72" x2="278.4" y2="160.92"/><path class="cls-15" d="M278.4,160.92h0"/><line class="cls-15" x1="278.4" y1="160.92" x2="280.7" y2="160.62"/><line class="cls-15" x1="280.7" y1="160.62" x2="285.1" y2="160.62"/><line class="cls-15" x1="286.2" y1="160.82" x2="285.1" y2="160.62"/><line class="cls-15" x1="286.1" y1="164.02" x2="284.2" y2="164.02"/><polyline class="cls-15" points="286.2 160.82 286.2 160.82 286.2 160.82 286.2 160.82"/><path class="cls-15" d="M286.2,160.82h0"/><line class="cls-15" x1="286.2" y1="160.82" x2="286.2" y2="164.02"/><line class="cls-15" x1="286.2" y1="164.02" x2="286.1" y2="164.02"/><line class="cls-15" x1="286.2" y1="160.82" x2="286.2" y2="160.82"/><line class="cls-15" x1="286" y1="165.42" x2="285.8" y2="165.42"/><line class="cls-15" x1="286" y1="165.42" x2="286" y2="165.72"/><line class="cls-15" x1="272.1" y1="165.42" x2="272.1" y2="180.02"/><polyline class="cls-15" points="284.4 169.42 284.1 169.42 281.8 169.42 278.8 169.42 275.1 169.42 273.2 169.42"/><polyline class="cls-15" points="284.4 171.32 284.1 171.32 281.8 171.32 278.8 171.32 275.1 171.32 273.2 171.32"/><polyline class="cls-15" points="284.4 173.12 284.1 173.12 281.8 173.12 278.8 173.12 275.1 173.12 273.2 173.12"/><polyline class="cls-15" points="284.4 175.02 284.1 175.02 281.8 175.02 278.8 175.02 275.1 175.02 273.2 175.02"/><polyline class="cls-15" points="284.4 176.82 284.1 176.82 281.8 176.82 278.8 176.82 275.1 176.82 273.2 176.82"/><polyline class="cls-15" points="284.4 178.72 284.1 178.72 281.8 178.72 278.8 178.72 275.1 178.72 273.2 178.72"/><line class="cls-15" x1="284.4" y1="181.52" x2="285" y2="183.02"/><line class="cls-15" x1="283.4" y1="181.52" x2="283.4" y2="180.02"/><line class="cls-15" x1="283.4" y1="181.52" x2="282.8" y2="183.02"/><line class="cls-15" x1="281" y1="168.22" x2="281" y2="165.32"/><path class="cls-15" d="M274.3,166.82a.91.91,0,1,1,1.8-.2h0v.2a1,1,0,0,1-1,.8h0A1.09,1.09,0,0,1,274.3,166.82Z"/><path class="cls-15" d="M277.3,166.82a.91.91,0,1,1,1.8-.2h0v.2a1,1,0,0,1-1,.8h0A1.09,1.09,0,0,1,277.3,166.82Z"/><polyline class="cls-15" points="292.3 173.52 292.3 174.52 292.3 175.42 292.3 176.42 292.3 177.22 292.3 178.02 292.3 178.72 292.3 179.32 292.3 179.72 292.3 180.02 292.3 180.22 292.3 180.22"/><polyline class="cls-15" points="292.3 173.52 292.3 168.72 292.3 166.82 292.3 166.82 292.3 166.72 292.3 166.72 292.3 166.72"/><line class="cls-15" x1="290.7" y1="181.22" x2="290.7" y2="165.72"/><line class="cls-15" x1="286.2" y1="160.82" x2="286.2" y2="160.82"/><rect class="cls-15" x="273.7" y="163.42" width="1.4" height="20.2"/><line class="cls-15" x1="262.7" y1="164.32" x2="245.5" y2="168.52"/><rect class="cls-15" x="244.2" y="165.32" width="1.3" height="3.1"/><rect class="cls-15" x="254.1" y="163.92" width="3.1" height="1.3"/><rect class="cls-15" x="272.1" y="164.02" width="13.9" height="1.4"/><line class="cls-15" x1="272.1" y1="171.12" x2="267.4" y2="169.72"/><line class="cls-15" x1="272.1" y1="175.82" x2="267.4" y2="177.22"/><line class="cls-15" x1="272.1" y1="166.92" x2="267.4" y2="166.92"/><line class="cls-15" x1="272.1" y1="180.02" x2="267.9" y2="180.02"/><rect class="cls-14" x="254.1" y="163.92" width="3.1" height="1.3"/><rect class="cls-15" x="254.1" y="163.92" width="3.1" height="1.3"/><rect class="cls-15" x="244.2" y="165.32" width="1.3" height="3.1"/><rect class="cls-13" x="258.8" y="155.62" width="6.6" height="3.5"/><path class="cls-13" d="M253.9,152.42h3.4a.79.79,0,0,1,.8.8v.6a.79.79,0,0,1-.8.8h-3.4a.79.79,0,0,1-.8-.8v-.6A.79.79,0,0,1,253.9,152.42Z"/><path class="cls-13" d="M250.9,155.92h.9a.94.94,0,0,1,1,1v1.2a.94.94,0,0,1-1,1h-.9a.94.94,0,0,1-1-1v-1.2A.94.94,0,0,1,250.9,155.92Z"/><path class="cls-13" d="M253.1,154.32h5a.94.94,0,0,1,1,1v4.4a.94.94,0,0,1-1,1h-5a.94.94,0,0,1-1-1v-4.4A.94.94,0,0,1,253.1,154.32Z"/><rect class="cls-13" x="265.4" y="163.52" width="2.4" height="20.3"/><line class="cls-16" x1="0.4" y1="144.42" x2="551" y2="144.42"/><path class="cls-17" d="M318.9,135.42h-104V46.92l40-40h24l40,40Z"/><rect class="cls-18" x="214.9" y="134.92" width="104" height="9"/><rect class="cls-19" x="229.9" y="109.92" width="31" height="4"/><rect class="cls-19" x="275.9" y="82.92" width="25" height="52"/><rect class="cls-19" x="272.9" y="134.92" width="31" height="5"/><rect class="cls-19" x="270.9" y="139.92" width="35" height="4"/><rect class="cls-19" x="232.9" y="82.92" width="25" height="27"/><line class="cls-12" x1="245.4" y1="82.92" x2="245.4" y2="109.92"/><line class="cls-12" x1="257.9" y1="92.02" x2="245.4" y2="92.02"/><path class="cls-12" d="M242.6,82.92s-1.6,16.8-9.6,25.4"/><path class="cls-12" d="M248,82.92s3.9,21.8,9.9,25.4"/><circle class="cls-19" cx="280.9" cy="108.92" r="2"/><polygon class="cls-19" points="206.9 68.92 206.9 63.82 222.9 4.92 310.2 4.92 325.9 62.92 325.9 68.92 315.6 68.92 315.6 59.92 266.9 9.02 217.9 59.92 217.9 68.92 206.9 68.92"/><polygon class="cls-19" points="206.9 63.82 266.9 1.02 325.9 62.92 325.9 68.92 315.6 68.92 315.6 59.92 266.9 9.02 217.9 59.92 217.9 68.92 206.9 68.92 206.9 63.82"/><rect class="cls-19" x="253.9" y="35.92" width="26" height="19"/><rect class="cls-19" x="251.9" y="54.92" width="30" height="4"/><line class="cls-12" x1="262" y1="35.92" x2="262" y2="54.92"/><line class="cls-16" x1="271.8" y1="35.92" x2="271.8" y2="54.92"/><line class="cls-16" x1="214.9" y1="71.12" x2="318.9" y2="71.12"/><path class="cls-17" d="M484.9,136.12h-104V47.62l40-40h24l40,40Z"/><rect class="cls-18" x="380.9" y="135.62" width="104" height="9"/><rect class="cls-19" x="395.9" y="110.62" width="31" height="4"/><rect class="cls-19" x="441.9" y="83.62" width="25" height="52"/><rect class="cls-19" x="438.9" y="135.62" width="31" height="5"/><rect class="cls-19" x="436.9" y="140.62" width="35" height="4"/><rect class="cls-19" x="398.9" y="83.62" width="25" height="27"/><line class="cls-12" x1="411.4" y1="83.62" x2="411.4" y2="110.62"/><line class="cls-12" x1="423.9" y1="92.82" x2="411.4" y2="92.82"/><path class="cls-12" d="M408.5,83.62s-1.6,16.8-9.6,25.4"/><path class="cls-12" d="M414,83.62s3.9,21.8,9.9,25.4"/><circle class="cls-19" cx="446.9" cy="109.62" r="2"/><polygon class="cls-19" points="372.9 69.62 372.9 64.52 388.9 5.62 476.2 5.62 491.9 63.62 491.9 69.62 481.6 69.62 481.6 60.62 432.9 9.72 383.9 60.62 383.9 69.62 372.9 69.62"/><polygon class="cls-19" points="372.9 64.52 432.9 1.72 491.9 63.62 491.9 69.62 481.6 69.62 481.6 60.62 432.9 9.72 383.9 60.62 383.9 69.62 372.9 69.62 372.9 64.52"/><rect class="cls-19" x="419.9" y="36.62" width="26" height="19"/><rect class="cls-19" x="417.9" y="55.62" width="30" height="4"/><line class="cls-12" x1="428" y1="36.62" x2="428" y2="55.62"/><line class="cls-16" x1="437.8" y1="36.62" x2="437.8" y2="55.62"/><line class="cls-16" x1="380.9" y1="71.92" x2="484.9" y2="71.92"/><path class="cls-17" d="M152.9,135.12H48.9V46.62l40-40h24l40,40Z"/><rect class="cls-18" x="48.9" y="134.62" width="104" height="9"/><rect class="cls-19" x="63.9" y="109.62" width="31" height="4"/><rect class="cls-19" x="109.9" y="82.62" width="25" height="52"/><rect class="cls-19" x="106.9" y="134.62" width="31" height="5"/><rect class="cls-19" x="104.9" y="139.62" width="35" height="4"/><rect class="cls-19" x="66.9" y="82.62" width="25" height="27"/><line class="cls-12" x1="79.4" y1="82.62" x2="79.4" y2="109.62"/><line class="cls-12" x1="91.9" y1="91.82" x2="79.4" y2="91.82"/><path class="cls-12" d="M76.6,82.62s-1.7,16.8-9.7,25.4"/><path class="cls-12" d="M82,82.62s3.9,21.8,9.9,25.4"/><circle class="cls-19" cx="114.9" cy="108.62" r="2"/><polygon class="cls-19" points="40.9 68.62 40.9 63.52 56.9 4.62 144.2 4.62 159.9 62.62 159.9 68.62 149.6 68.62 149.6 59.62 100.9 8.72 51.9 59.62 51.9 68.62 40.9 68.62"/><polygon class="cls-19" points="40.9 63.52 100.9 0.72 159.9 62.62 159.9 68.62 149.6 68.62 149.6 59.62 100.9 8.72 51.9 59.62 51.9 68.62 40.9 68.62 40.9 63.52"/><rect class="cls-19" x="87.9" y="35.62" width="26" height="19"/><rect class="cls-19" x="85.9" y="54.62" width="30" height="4"/><line class="cls-12" x1="96.1" y1="35.62" x2="96.1" y2="54.62"/><line class="cls-16" x1="105.8" y1="35.62" x2="105.8" y2="54.62"/><line class="cls-16" x1="48.9" y1="70.92" x2="152.9" y2="70.92"/><path class="cls-20" d="M551,237.42l-550.6,1s.2,4.4,2.2,6.5c1.5,1.5,5.1,1.4,5.1,1.4l536,.1s3.8-.1,5.7-2C550.9,242.82,551,237.42,551,237.42Z"/><line class="cls-16" x1="551" y1="238.42" x2="0.4" y2="238.42"/><rect class="cls-21" x="142.4" y="144.92" width="3" height="93"/><rect class="cls-21" x="388.9" y="144.92" width="3" height="93"/><path class="cls-16" d="M249.4,157.42s-10.5.6-10.5-12.9"/><path class="cls-22" d="M245.5,180.92c-12.6,0-14.6,20.5-.1,20.5"/></g></g></svg>