<svg xmlns="http://www.w3.org/2000/svg" viewBox="0 0 80.96 80.96"><defs><style>.a{fill:#fff;}</style></defs><path class="a" d="M40.48,78.72A38.24,38.24,0,1,1,78.72,40.48,38.28,38.28,0,0,1,40.48,78.72M40.48,0A40.48,40.48,0,1,0,81,40.48,40.53,40.53,0,0,0,40.48,0"/><path class="a" d="M65.19,52.82H62.94a22.32,22.32,0,0,0,.12-2.25h2.13ZM56.4,60.68H30.26c-.78-.38-4.42-2.52-4.42-10.11s3.63-9.72,4.42-10.1H56.4c.8.37,4.42,2.46,4.42,10.1S57.2,60.31,56.4,60.68m-5.77,2.24h4.5v2.27h-4.5ZM36,65.19H31.52V62.92H36ZM22.48,55V46.14h1.57a22.08,22.08,0,0,0,0,8.87ZM20.25,45v4.43H18a1.32,1.32,0,0,1-1.13-1.13V31.43A1.32,1.32,0,0,1,18,30.31h5.61a5.84,5.84,0,0,0,5.84,5.61h5.38v2.31H30a1.21,1.21,0,0,0-.38.06c-.17.07-3.23,1.23-4.94,5.61H21.37A1.12,1.12,0,0,0,20.25,45m5.62-16.58a3.61,3.61,0,0,1,3.62-3.75h5.36v9H29.49A3.6,3.6,0,0,1,25.87,30ZM34.3,16.29A1.69,1.69,0,1,1,36,18a1.69,1.69,0,0,1-1.69-1.69m5.1,11.8v2.37H37.09V28.09Zm10.11,6.74v3.4H37.11V35.67h0v-3H39.4v1a1.12,1.12,0,0,0,1.12,1.12Zm-7.87-9H56.26v6.75H41.64Zm4.49-4.49H54V23.6H46.13Zm16.19,7.54v.65c0,1.48-.88,3.05-2.51,3.05H58.5V25.84h1.31c1.63,0,2.51,1.57,2.51,3.05m4,19.44H62.94c-.79-8.18-5.73-10-6-10a1.13,1.13,0,0,0-.36-.06H51.75v-3.4h8.06c3,0,4.75-2.69,4.75-5.29v-.65c0-2.6-1.78-5.29-4.75-5.29H56.25V20.23a1.12,1.12,0,0,0-1.12-1.12H45a1.12,1.12,0,0,0-1.12,1.12V23.6H40.52a1.12,1.12,0,0,0-1.12,1.12v1.13H37.09V23.59h0V20a3.93,3.93,0,1,0-2.24,0v2.41H29.49a5.85,5.85,0,0,0-5.84,5.61H18a3.55,3.55,0,0,0-3.37,3.37V48.32A3.55,3.55,0,0,0,18,51.69h2.21v4.44a1.12,1.12,0,0,0,1.12,1.12h3.35a9.79,9.79,0,0,0,4.56,5.43v4.75h9V62.92H48.39v4.51h9V62.69c1.09-.52,4.08-2.4,5.23-7.63h3.71a1.12,1.12,0,0,0,1.12-1.12V49.45a1.12,1.12,0,0,0-1.12-1.12"/></svg>